<svg xmlns="http://www.w3.org/2000/svg" xmlns:xlink="http://www.w3.org/1999/xlink" width="500" zoomAndPan="magnify" viewBox="0 0 375 374.999991" height="500" preserveAspectRatio="xMidYMid meet" version="1.0"><defs><g/><clipPath id="id1"><path d="M 85 87 L 286 87 L 286 288 L 85 288 Z M 85 87 " clip-rule="nonzero"/></clipPath><clipPath id="id2"><path d="M 44.382812 181.109375 L 159.160156 76.566406 L 294.003906 224.609375 L 179.230469 329.152344 Z M 44.382812 181.109375 " clip-rule="nonzero"/></clipPath><clipPath id="id3"><path d="M 44.382812 181.109375 L 192.425781 46.265625 L 327.273438 194.308594 L 179.230469 329.152344 Z M 44.382812 181.109375 " clip-rule="nonzero"/></clipPath><clipPath id="id4"><path d="M 185 180 L 262.5 180 L 262.5 258 L 185 258 Z M 185 180 " clip-rule="nonzero"/></clipPath><clipPath id="id5"><path d="M 112.5 117 L 213 117 L 213 217 L 112.5 217 Z M 112.5 117 " clip-rule="nonzero"/></clipPath></defs><rect x="-37.5" width="450" fill="#ffffff" y="-37.499999" height="449.999989" fill-opacity="1"/><rect x="-37.5" width="450" fill="#ebe6e4" y="-37.499999" height="449.999989" fill-opacity="1"/><g clip-path="url(#id1)"><g clip-path="url(#id2)"><g clip-path="url(#id3)"><path fill="#403737" d="M 253.25 261.730469 C 212.445312 298.898438 148.972656 295.933594 111.804688 255.132812 C 74.640625 214.328125 77.601562 150.851562 118.40625 113.6875 C 159.207031 76.523438 222.683594 79.484375 259.847656 120.285156 C 297.015625 161.089844 294.054688 224.566406 253.25 261.730469 Z M 119.402344 114.78125 C 79.179688 151.414062 76.265625 213.917969 112.898438 254.136719 C 149.535156 294.355469 212.035156 297.269531 252.253906 260.636719 C 292.472656 224.003906 295.390625 161.503906 258.753906 121.28125 C 222.121094 81.0625 159.621094 78.148438 119.402344 114.78125 Z M 119.402344 114.78125 " fill-opacity="1" fill-rule="nonzero"/></g></g></g><g clip-path="url(#id4)"><path fill="#000000" d="M 246.671875 250.28125 L 246.824219 250.28125 C 249.898438 247.976562 252.511719 245.210938 254.96875 241.984375 L 254.816406 241.984375 C 252.816406 239.371094 250.664062 236.757812 248.515625 234.296875 C 249.128906 233.222656 249.589844 232.300781 250.050781 231.378906 C 250.664062 230.148438 251.28125 228.917969 251.589844 227.535156 C 251.742188 227.074219 251.894531 226.613281 251.894531 226.152344 C 255.277344 225.84375 258.65625 225.539062 262.039062 225.078125 C 262.347656 223.539062 262.347656 222.003906 262.5 220.3125 L 262.5 217.851562 C 262.347656 216.316406 262.347656 214.933594 262.039062 213.550781 C 258.8125 213.089844 255.429688 212.78125 252.050781 212.628906 C 252.050781 212.011719 251.894531 211.550781 251.742188 210.9375 C 251.742188 210.785156 251.742188 210.628906 251.589844 210.476562 C 251.28125 209.246094 250.664062 208.015625 250.050781 206.789062 C 249.589844 205.710938 249.128906 204.789062 248.515625 203.867188 C 250.664062 201.253906 252.664062 198.796875 254.816406 196.183594 L 254.96875 196.03125 C 254.507812 195.414062 254.046875 194.800781 253.585938 194.339844 C 252.816406 193.261719 251.894531 192.339844 250.972656 191.574219 C 249.742188 190.191406 248.207031 189.113281 246.671875 187.882812 L 246.671875 188.039062 C 244.058594 190.035156 241.597656 192.1875 238.984375 194.339844 C 238.0625 193.722656 236.988281 193.109375 236.066406 192.648438 C 234.835938 192.035156 233.453125 191.574219 232.222656 191.265625 C 231.609375 190.957031 230.992188 190.804688 230.53125 190.804688 C 230.226562 187.421875 229.917969 184.042969 229.457031 180.816406 C 227.921875 180.507812 226.382812 180.351562 224.691406 180.351562 C 222.386719 180.351562 220.082031 180.507812 217.929688 180.96875 C 217.621094 184.195312 217.316406 187.421875 217.007812 190.804688 C 216.394531 190.804688 215.777344 190.957031 215.316406 191.265625 C 213.933594 191.574219 212.703125 192.035156 211.320312 192.648438 C 210.246094 193.261719 209.171875 193.722656 208.246094 194.492188 C 205.636719 192.339844 203.175781 190.191406 200.5625 188.191406 C 197.335938 190.496094 194.570312 193.261719 192.265625 196.492188 L 192.417969 196.492188 C 194.414062 198.949219 196.566406 201.5625 198.71875 204.023438 L 198.71875 204.175781 C 198.257812 204.945312 197.796875 205.867188 197.335938 206.632812 C 196.722656 208.015625 196.105469 209.554688 195.800781 210.9375 C 195.644531 211.550781 195.492188 212.011719 195.339844 212.472656 C 192.109375 212.78125 188.730469 213.089844 185.347656 213.550781 C 185.195312 214.933594 185.039062 216.316406 185.039062 217.851562 L 185.039062 220.160156 C 185.039062 221.847656 185.195312 223.539062 185.503906 225.230469 C 188.730469 225.539062 192.109375 225.84375 195.492188 226.152344 C 195.644531 226.613281 195.800781 227.074219 195.953125 227.535156 C 196.261719 228.917969 196.722656 230.148438 197.335938 231.378906 C 197.796875 232.453125 198.410156 233.53125 199.179688 234.605469 C 199.027344 234.605469 199.027344 234.605469 199.027344 234.757812 C 196.875 237.21875 194.722656 239.832031 192.726562 242.445312 C 193.03125 242.90625 193.339844 243.367188 193.800781 243.980469 C 194.570312 244.902344 195.492188 245.824219 196.414062 246.59375 C 197.796875 247.976562 199.335938 249.359375 201.023438 250.589844 C 203.636719 248.4375 206.25 246.285156 208.710938 244.132812 L 208.863281 244.132812 C 209.632812 244.59375 210.554688 245.054688 211.476562 245.515625 C 212.703125 245.976562 213.933594 246.59375 215.164062 246.902344 C 215.316406 246.902344 215.472656 246.902344 215.472656 247.054688 C 216.085938 247.054688 216.546875 247.207031 216.855469 247.363281 C 217.160156 250.742188 217.46875 254.125 217.777344 257.351562 C 219.3125 257.660156 220.851562 257.660156 222.386719 257.8125 L 225 257.8125 C 226.535156 257.660156 228.074219 257.660156 229.609375 257.351562 C 229.917969 254.125 230.226562 250.742188 230.53125 247.363281 C 230.992188 247.207031 231.453125 247.054688 231.914062 247.054688 C 233.300781 246.59375 234.683594 246.132812 236.066406 245.515625 C 236.988281 245.054688 238.0625 244.441406 238.984375 243.980469 C 241.445312 245.976562 244.058594 248.128906 246.671875 250.28125 Z M 233.914062 209.246094 C 236.835938 212.011719 238.21875 215.394531 238.0625 219.238281 C 238.21875 223.234375 236.835938 226.460938 233.914062 229.378906 C 231.148438 232.148438 227.765625 233.53125 223.925781 233.53125 C 219.929688 233.53125 216.699219 232.144531 213.78125 229.378906 C 211.015625 226.460938 209.632812 223.234375 209.632812 219.238281 C 209.632812 215.394531 211.015625 212.011719 213.78125 209.246094 C 216.699219 206.480469 219.929688 205.097656 223.925781 205.097656 C 227.765625 205.097656 231.148438 206.480469 233.914062 209.246094 Z M 233.914062 209.246094 " fill-opacity="1" fill-rule="nonzero"/></g><path fill="#000000" d="M 236.066406 219.390625 C 236.066406 216.007812 234.835938 213.242188 232.53125 210.785156 C 230.070312 208.476562 227.304688 207.25 223.925781 207.25 C 220.542969 207.25 217.777344 208.476562 215.316406 210.785156 C 212.859375 213.242188 211.628906 216.007812 211.628906 219.390625 C 211.628906 222.773438 212.859375 225.539062 215.316406 227.996094 C 217.777344 230.457031 220.542969 231.53125 223.925781 231.53125 C 227.304688 231.53125 230.070312 230.457031 232.53125 227.996094 C 234.835938 225.539062 236.066406 222.773438 236.066406 219.390625 Z M 230.378906 212.933594 C 232.070312 214.78125 232.992188 216.929688 232.992188 219.390625 C 232.992188 221.847656 232.070312 224 230.378906 225.84375 C 228.535156 227.691406 226.535156 228.457031 223.925781 228.457031 C 221.3125 228.457031 219.160156 227.691406 217.46875 225.84375 C 215.625 224 214.703125 221.847656 214.703125 219.390625 C 214.703125 216.929688 215.625 214.78125 217.46875 212.933594 C 219.160156 211.246094 221.3125 210.324219 223.925781 210.324219 C 226.382812 210.324219 228.535156 211.246094 230.378906 212.933594 Z M 230.378906 212.933594 " fill-opacity="1" fill-rule="nonzero"/><g clip-path="url(#id5)"><path fill="#000000" d="M 210.859375 179.890625 C 211.167969 179.277344 211.320312 178.816406 211.320312 178.355469 C 211.78125 176.511719 212.089844 174.667969 212.398438 172.824219 C 208.246094 171.132812 204.253906 169.75 200.257812 168.367188 L 200.257812 165.597656 C 200.101562 163.753906 199.949219 162.066406 199.640625 160.375 C 199.488281 158.992188 199.027344 157.609375 198.566406 156.222656 C 202.101562 153.765625 205.636719 151.152344 209.015625 148.695312 L 209.171875 148.539062 C 208.863281 147.617188 208.554688 146.695312 208.09375 145.925781 C 207.480469 144.390625 206.710938 143.007812 205.789062 141.625 C 204.714844 139.472656 203.328125 137.472656 201.640625 135.628906 L 201.484375 135.628906 C 197.644531 137.472656 193.800781 139.164062 189.960938 141.007812 C 188.882812 139.933594 187.960938 139.011719 186.730469 138.089844 C 185.503906 136.859375 183.964844 135.785156 182.429688 134.863281 C 181.8125 134.402344 181.199219 134.09375 180.429688 133.785156 C 181.199219 129.484375 181.96875 125.179688 182.582031 120.875 C 180.738281 120.109375 178.894531 119.339844 176.894531 118.722656 C 173.820312 118.109375 170.902344 117.496094 167.980469 117.1875 L 163.371094 129.175781 L 161.21875 129.175781 C 159.527344 129.175781 157.683594 129.328125 155.839844 129.789062 C 154.304688 129.945312 152.765625 130.40625 151.230469 130.867188 C 148.769531 127.332031 146.3125 123.949219 143.699219 120.414062 C 139.089844 122.257812 134.785156 124.871094 130.789062 127.945312 L 130.789062 128.097656 C 132.632812 131.941406 134.324219 135.785156 136.167969 139.78125 C 135.246094 140.703125 134.476562 141.625 133.554688 142.546875 C 132.324219 143.929688 131.25 145.621094 130.175781 147.464844 C 129.867188 147.925781 129.558594 148.539062 129.097656 149.15625 C 124.949219 148.386719 120.644531 147.773438 116.34375 147.15625 C 115.574219 148.847656 114.960938 150.539062 114.496094 152.382812 C 114.34375 152.84375 114.035156 153.765625 113.730469 155.300781 C 113.113281 157.453125 112.808594 159.605469 112.5 161.601562 C 116.648438 163.292969 120.644531 164.832031 124.796875 166.214844 L 124.796875 168.210938 C 124.796875 170.054688 124.949219 171.746094 125.257812 173.4375 C 125.5625 174.972656 126.023438 176.511719 126.484375 178.046875 C 126.484375 178.046875 126.332031 178.046875 126.332031 178.203125 C 122.796875 180.660156 119.261719 183.273438 115.726562 185.734375 C 116.1875 186.5 116.496094 187.269531 116.804688 187.882812 C 117.417969 189.421875 118.1875 190.804688 118.953125 192.1875 C 120.339844 194.492188 121.875 196.644531 123.566406 198.640625 C 127.5625 196.953125 131.402344 195.109375 135.398438 193.261719 C 136.320312 194.183594 137.242188 194.953125 138.164062 195.875 C 139.550781 196.953125 141.085938 198.027344 142.46875 198.949219 C 142.621094 198.949219 142.777344 199.101562 142.929688 199.101562 C 143.390625 199.410156 144.007812 199.71875 144.46875 200.027344 C 143.699219 204.328125 143.085938 208.632812 142.316406 212.933594 C 144.160156 213.703125 146.003906 214.320312 148.003906 214.933594 C 148.464844 215.085938 148.925781 215.242188 149.539062 215.394531 C 150 215.546875 150.460938 215.546875 151.074219 215.855469 C 153.074219 216.164062 155.070312 216.625 156.914062 216.777344 C 158.605469 212.78125 159.988281 208.632812 161.527344 204.636719 L 163.371094 204.636719 C 165.214844 204.636719 167.214844 204.484375 169.058594 204.023438 C 170.441406 203.867188 171.824219 203.40625 173.207031 203.097656 C 175.664062 206.632812 178.277344 210.167969 180.890625 213.550781 L 180.890625 213.703125 C 185.503906 211.859375 189.804688 209.402344 193.800781 206.019531 C 192.109375 202.023438 190.265625 198.179688 188.421875 194.339844 C 189.496094 193.261719 190.574219 192.1875 191.496094 191.113281 C 192.570312 189.726562 193.648438 188.34375 194.414062 186.808594 C 194.878906 186.347656 195.183594 185.734375 195.492188 185.273438 C 199.796875 185.886719 204.097656 186.65625 208.402344 187.269531 C 209.171875 185.425781 209.9375 183.425781 210.554688 181.429688 C 210.707031 180.96875 210.859375 180.351562 210.859375 179.890625 Z M 153.382812 151.304688 C 157.839844 148.695312 162.449219 148.078125 167.367188 149.460938 C 172.285156 150.691406 175.972656 153.613281 178.585938 158.070312 C 181.046875 162.371094 181.660156 167.136719 180.429688 171.902344 C 179.046875 176.820312 176.28125 180.660156 171.824219 183.121094 C 167.367188 185.734375 162.757812 186.347656 157.839844 184.964844 C 152.921875 183.734375 149.230469 180.816406 146.773438 176.511719 C 144.160156 171.902344 143.546875 167.289062 144.929688 162.527344 C 146.15625 157.609375 149.078125 153.765625 153.382812 151.304688 Z M 153.382812 151.304688 " fill-opacity="1" fill-rule="nonzero"/></g><path fill="#000000" d="M 166.597656 152.226562 C 162.449219 151 158.453125 151.460938 154.765625 153.613281 L 154.765625 153.765625 C 150.921875 155.917969 148.617188 159.144531 147.386719 163.292969 C 146.3125 167.445312 146.773438 171.441406 148.925781 175.28125 C 151.230469 179.125 154.304688 181.429688 158.453125 182.660156 L 158.605469 182.660156 C 162.757812 183.734375 166.753906 183.121094 170.441406 180.96875 C 174.28125 178.816406 176.742188 175.589844 177.816406 171.441406 C 179.046875 167.289062 178.433594 163.140625 176.28125 159.453125 C 174.128906 155.609375 170.902344 153.304688 166.597656 152.226562 Z M 172.746094 161.449219 C 174.4375 164.371094 174.898438 167.289062 173.976562 170.363281 C 173.207031 173.4375 171.363281 175.898438 168.441406 177.585938 C 165.675781 179.277344 162.601562 179.585938 159.527344 178.816406 C 156.453125 177.894531 153.996094 176.050781 152.460938 173.285156 L 152.304688 173.285156 C 150.769531 170.363281 150.308594 167.445312 151.230469 164.371094 C 151.996094 161.140625 153.84375 158.835938 156.761719 157.148438 C 159.527344 155.609375 162.449219 155.148438 165.675781 155.917969 C 168.75 156.839844 171.054688 158.683594 172.746094 161.449219 Z M 172.746094 161.449219 " fill-opacity="1" fill-rule="nonzero"/><g fill="#403737" fill-opacity="1"><g transform="translate(178.258182, 93.895421)"><g><path d="M 1.828125 -6.421875 L 1.984375 -0.984375 C 1.992188 -0.847656 2.039062 -0.738281 2.125 -0.65625 C 2.21875 -0.570312 2.335938 -0.535156 2.484375 -0.546875 L 3.953125 -0.578125 C 4.304688 -0.585938 4.601562 -0.679688 4.84375 -0.859375 C 5.09375 -1.035156 5.257812 -1.289062 5.34375 -1.625 C 5.382812 -1.726562 5.457031 -1.78125 5.5625 -1.78125 C 5.664062 -1.78125 5.710938 -1.71875 5.703125 -1.59375 L 5.578125 -0.5625 C 5.566406 -0.445312 5.519531 -0.347656 5.4375 -0.265625 C 5.363281 -0.191406 5.265625 -0.148438 5.140625 -0.140625 L 1.578125 -0.046875 L 0.4375 0.03125 C 0.34375 0.03125 0.296875 -0.015625 0.296875 -0.109375 C 0.296875 -0.203125 0.332031 -0.25 0.40625 -0.25 L 0.703125 -0.265625 C 0.835938 -0.285156 0.941406 -0.332031 1.015625 -0.40625 C 1.097656 -0.476562 1.140625 -0.570312 1.140625 -0.6875 L 0.96875 -6.390625 C 0.96875 -6.628906 0.816406 -6.757812 0.515625 -6.78125 L 0.21875 -6.8125 C 0.144531 -6.820312 0.101562 -6.863281 0.09375 -6.9375 C 0.09375 -7.03125 0.140625 -7.078125 0.234375 -7.078125 L 1.375 -7.0625 L 2.359375 -7.140625 C 2.460938 -7.140625 2.515625 -7.097656 2.515625 -7.015625 C 2.523438 -6.921875 2.488281 -6.875 2.40625 -6.875 L 2.234375 -6.828125 C 1.960938 -6.773438 1.828125 -6.640625 1.828125 -6.421875 Z M 1.828125 -6.421875 "/></g></g></g><g fill="#403737" fill-opacity="1"><g transform="translate(189.045365, 93.862186)"><g><path d="M 5.328125 0.46875 L 1.578125 0.140625 L 0.4375 0.078125 C 0.34375 0.078125 0.296875 0.03125 0.296875 -0.0625 C 0.304688 -0.15625 0.347656 -0.203125 0.421875 -0.203125 L 0.71875 -0.1875 C 0.851562 -0.1875 0.96875 -0.21875 1.0625 -0.28125 C 1.15625 -0.34375 1.207031 -0.429688 1.21875 -0.546875 L 1.71875 -6.21875 C 1.738281 -6.457031 1.597656 -6.609375 1.296875 -6.671875 L 1 -6.734375 C 0.925781 -6.734375 0.894531 -6.773438 0.90625 -6.859375 C 0.914062 -6.953125 0.96875 -7 1.0625 -7 L 2.203125 -6.84375 L 5.75 -6.53125 C 5.875 -6.519531 5.96875 -6.472656 6.03125 -6.390625 C 6.101562 -6.316406 6.144531 -6.21875 6.15625 -6.09375 L 6.21875 -5.1875 C 6.21875 -5.0625 6.160156 -5 6.046875 -5 C 5.941406 -5.007812 5.875 -5.070312 5.84375 -5.1875 C 5.78125 -5.507812 5.648438 -5.742188 5.453125 -5.890625 C 5.265625 -6.046875 4.992188 -6.140625 4.640625 -6.171875 L 3.0625 -6.3125 C 2.914062 -6.320312 2.796875 -6.289062 2.703125 -6.21875 C 2.609375 -6.144531 2.550781 -6.035156 2.53125 -5.890625 L 2.34375 -3.796875 C 2.34375 -3.710938 2.382812 -3.664062 2.46875 -3.65625 L 4.34375 -3.484375 C 4.4375 -3.484375 4.507812 -3.503906 4.5625 -3.546875 C 4.625 -3.585938 4.660156 -3.625 4.671875 -3.65625 C 4.691406 -3.6875 4.722656 -3.753906 4.765625 -3.859375 L 4.828125 -4 C 4.859375 -4.082031 4.910156 -4.117188 4.984375 -4.109375 C 5.066406 -4.097656 5.101562 -4.046875 5.09375 -3.953125 L 4.984375 -3.109375 L 4.9375 -2.28125 C 4.9375 -2.195312 4.890625 -2.148438 4.796875 -2.140625 C 4.710938 -2.148438 4.671875 -2.195312 4.671875 -2.28125 L 4.65625 -2.46875 C 4.625 -2.820312 4.503906 -3.003906 4.296875 -3.015625 L 2.421875 -3.1875 C 2.335938 -3.195312 2.289062 -3.15625 2.28125 -3.0625 L 2.078125 -0.75 C 2.066406 -0.613281 2.101562 -0.5 2.1875 -0.40625 C 2.269531 -0.3125 2.382812 -0.257812 2.53125 -0.25 L 4.1875 -0.109375 C 4.539062 -0.078125 4.847656 -0.128906 5.109375 -0.265625 C 5.367188 -0.410156 5.566406 -0.644531 5.703125 -0.96875 C 5.742188 -1.070312 5.800781 -1.117188 5.875 -1.109375 C 5.957031 -1.109375 6.007812 -1.085938 6.03125 -1.046875 C 6.0625 -1.003906 6.070312 -0.957031 6.0625 -0.90625 L 5.796875 0.109375 C 5.773438 0.210938 5.71875 0.300781 5.625 0.375 C 5.539062 0.445312 5.441406 0.476562 5.328125 0.46875 Z M 5.328125 0.46875 "/></g></g></g><g fill="#403737" fill-opacity="1"><g transform="translate(200.14675, 95.114446)"><g><path d="M 2.8125 -2.21875 L 5 -1.75 C 5.0625 -1.738281 5.085938 -1.773438 5.078125 -1.859375 L 4.5625 -5.125 L 2.75 -2.328125 C 2.71875 -2.273438 2.738281 -2.238281 2.8125 -2.21875 Z M 1.453125 -0.359375 C 1.429688 -0.328125 1.414062 -0.285156 1.40625 -0.234375 C 1.394531 -0.179688 1.410156 -0.117188 1.453125 -0.046875 C 1.492188 0.015625 1.554688 0.0625 1.640625 0.09375 L 1.84375 0.15625 C 1.925781 0.1875 1.957031 0.238281 1.9375 0.3125 C 1.914062 0.40625 1.859375 0.445312 1.765625 0.4375 L 0.9375 0.203125 L 0.03125 0.0625 C -0.0625 0.0390625 -0.0976562 -0.015625 -0.078125 -0.109375 C -0.0546875 -0.203125 -0.0078125 -0.242188 0.0625 -0.234375 L 0.25 -0.203125 C 0.53125 -0.179688 0.75 -0.273438 0.90625 -0.484375 L 4.75 -6.15625 C 4.800781 -6.21875 4.890625 -6.234375 5.015625 -6.203125 C 5.148438 -6.179688 5.222656 -6.128906 5.234375 -6.046875 L 6.40625 0.703125 C 6.445312 0.953125 6.601562 1.125 6.875 1.21875 L 7.078125 1.265625 C 7.109375 1.273438 7.128906 1.296875 7.140625 1.328125 C 7.160156 1.359375 7.164062 1.390625 7.15625 1.421875 C 7.132812 1.523438 7.078125 1.566406 6.984375 1.546875 L 5.859375 1.25 L 4.84375 1.09375 C 4.75 1.070312 4.710938 1.019531 4.734375 0.9375 C 4.753906 0.84375 4.804688 0.796875 4.890625 0.796875 L 5.109375 0.828125 C 5.203125 0.835938 5.28125 0.820312 5.34375 0.78125 C 5.414062 0.75 5.457031 0.703125 5.46875 0.640625 C 5.476562 0.585938 5.476562 0.539062 5.46875 0.5 L 5.21875 -1.140625 C 5.207031 -1.203125 5.15625 -1.242188 5.0625 -1.265625 L 2.53125 -1.8125 C 2.445312 -1.832031 2.390625 -1.8125 2.359375 -1.75 Z M 1.453125 -0.359375 "/></g></g></g><g fill="#403737" fill-opacity="1"><g transform="translate(211.801985, 97.916786)"><g><path d="M 5.5625 -5.46875 C 6.570312 -5.113281 7.273438 -4.539062 7.671875 -3.75 C 8.066406 -2.957031 8.09375 -2.078125 7.75 -1.109375 C 7.414062 -0.140625 6.816406 0.5625 5.953125 1 C 5.097656 1.4375 4.191406 1.484375 3.234375 1.140625 L 1.59375 0.5625 L 0.390625 0.1875 C 0.304688 0.15625 0.28125 0.0976562 0.3125 0.015625 C 0.34375 -0.0664062 0.394531 -0.09375 0.46875 -0.0625 L 0.734375 0.015625 C 0.878906 0.0351562 1 0.03125 1.09375 0 C 1.195312 -0.03125 1.269531 -0.109375 1.3125 -0.234375 L 3.21875 -5.609375 C 3.289062 -5.828125 3.1875 -6.003906 2.90625 -6.140625 L 2.65625 -6.265625 C 2.582031 -6.304688 2.5625 -6.363281 2.59375 -6.4375 C 2.613281 -6.519531 2.664062 -6.546875 2.75 -6.515625 L 3.921875 -6.046875 Z M 6.921875 -3.40625 C 6.835938 -3.769531 6.664062 -4.097656 6.40625 -4.390625 C 6.15625 -4.679688 5.820312 -4.898438 5.40625 -5.046875 L 4.546875 -5.359375 C 4.410156 -5.398438 4.285156 -5.394531 4.171875 -5.34375 C 4.066406 -5.300781 3.988281 -5.210938 3.9375 -5.078125 L 2.21875 -0.203125 C 2.164062 -0.0664062 2.164062 0.0507812 2.21875 0.15625 C 2.28125 0.269531 2.378906 0.347656 2.515625 0.390625 L 3.40625 0.71875 C 4.132812 0.96875 4.804688 0.921875 5.421875 0.578125 C 6.035156 0.234375 6.484375 -0.332031 6.765625 -1.125 C 7.046875 -1.914062 7.097656 -2.675781 6.921875 -3.40625 Z M 6.921875 -3.40625 "/></g></g></g><g fill="#403737" fill-opacity="1"><g transform="translate(223.22619, 102.30391)"><g><path d="M 4.78125 2.390625 L 1.40625 0.703125 L 0.375 0.25 C 0.289062 0.195312 0.269531 0.128906 0.3125 0.046875 C 0.351562 -0.0351562 0.40625 -0.0546875 0.46875 -0.015625 L 0.734375 0.09375 C 0.867188 0.144531 0.988281 0.15625 1.09375 0.125 C 1.195312 0.09375 1.273438 0.0234375 1.328125 -0.078125 L 3.875 -5.171875 C 3.976562 -5.390625 3.90625 -5.578125 3.65625 -5.734375 L 3.40625 -5.890625 C 3.34375 -5.929688 3.328125 -5.988281 3.359375 -6.0625 C 3.398438 -6.144531 3.460938 -6.160156 3.546875 -6.109375 L 4.546875 -5.578125 L 7.734375 -3.984375 C 7.847656 -3.929688 7.921875 -3.851562 7.953125 -3.75 C 7.992188 -3.644531 8 -3.535156 7.96875 -3.421875 L 7.671875 -2.53125 C 7.628906 -2.414062 7.554688 -2.382812 7.453125 -2.4375 C 7.359375 -2.488281 7.316406 -2.570312 7.328125 -2.6875 C 7.390625 -3.007812 7.359375 -3.273438 7.234375 -3.484375 C 7.117188 -3.703125 6.898438 -3.890625 6.578125 -4.046875 L 5.171875 -4.75 C 5.046875 -4.820312 4.921875 -4.835938 4.796875 -4.796875 C 4.679688 -4.753906 4.585938 -4.671875 4.515625 -4.546875 L 3.578125 -2.65625 C 3.535156 -2.582031 3.554688 -2.53125 3.640625 -2.5 L 5.3125 -1.65625 C 5.394531 -1.613281 5.46875 -1.601562 5.53125 -1.625 C 5.601562 -1.644531 5.65625 -1.664062 5.6875 -1.6875 C 5.726562 -1.707031 5.78125 -1.757812 5.84375 -1.84375 L 5.953125 -1.953125 C 6.015625 -2.015625 6.078125 -2.023438 6.140625 -1.984375 C 6.210938 -1.953125 6.226562 -1.894531 6.1875 -1.8125 L 5.765625 -1.0625 L 5.4375 -0.328125 C 5.394531 -0.242188 5.332031 -0.21875 5.25 -0.25 C 5.175781 -0.28125 5.15625 -0.335938 5.1875 -0.421875 L 5.234375 -0.59375 C 5.335938 -0.925781 5.296875 -1.140625 5.109375 -1.234375 L 3.4375 -2.078125 C 3.351562 -2.109375 3.289062 -2.082031 3.25 -2 L 2.203125 0.078125 C 2.148438 0.203125 2.144531 0.316406 2.1875 0.421875 C 2.226562 0.535156 2.3125 0.628906 2.4375 0.703125 L 3.921875 1.4375 C 4.234375 1.59375 4.539062 1.65625 4.84375 1.625 C 5.144531 1.59375 5.414062 1.445312 5.65625 1.1875 C 5.738281 1.101562 5.8125 1.078125 5.875 1.109375 C 5.945312 1.148438 5.984375 1.191406 5.984375 1.234375 C 5.992188 1.273438 5.988281 1.320312 5.96875 1.375 L 5.359375 2.21875 C 5.296875 2.320312 5.207031 2.390625 5.09375 2.421875 C 4.988281 2.453125 4.882812 2.441406 4.78125 2.390625 Z M 4.78125 2.390625 "/></g></g></g><g fill="#403737" fill-opacity="1"><g transform="translate(233.097632, 107.551296)"><g><path d="M 6.046875 -0.984375 C 6.453125 -1.023438 6.769531 -1.21875 7 -1.5625 C 7.238281 -1.914062 7.300781 -2.285156 7.1875 -2.671875 C 7.070312 -3.054688 6.816406 -3.378906 6.421875 -3.640625 L 5.640625 -4.15625 C 5.421875 -4.300781 5.238281 -4.265625 5.09375 -4.046875 L 3.84375 -2.15625 C 3.789062 -2.082031 3.789062 -2.023438 3.84375 -1.984375 L 4.875 -1.3125 C 5.257812 -1.050781 5.648438 -0.941406 6.046875 -0.984375 Z M 6.953125 -3.8125 C 7.484375 -3.457031 7.832031 -3.03125 8 -2.53125 C 8.164062 -2.03125 8.097656 -1.554688 7.796875 -1.109375 C 7.503906 -0.660156 7.09375 -0.398438 6.5625 -0.328125 C 6.03125 -0.265625 5.550781 -0.363281 5.125 -0.625 L 5.109375 -0.609375 C 5.203125 -0.492188 5.25 -0.363281 5.25 -0.21875 L 5.1875 2.640625 C 5.175781 2.898438 5.285156 3.132812 5.515625 3.34375 L 5.65625 3.453125 C 5.707031 3.515625 5.710938 3.578125 5.671875 3.640625 C 5.617188 3.722656 5.550781 3.738281 5.46875 3.6875 C 4.957031 3.300781 4.632812 3.0625 4.5 2.96875 C 4.375 2.882812 4.3125 2.757812 4.3125 2.59375 L 4.453125 -0.671875 C 4.453125 -0.921875 4.382812 -1.085938 4.25 -1.171875 C 4.25 -1.171875 4.242188 -1.175781 4.234375 -1.1875 L 3.640625 -1.578125 C 3.554688 -1.640625 3.492188 -1.632812 3.453125 -1.5625 L 2.046875 0.5625 C 1.984375 0.65625 1.96875 0.753906 2 0.859375 C 2.03125 0.972656 2.097656 1.070312 2.203125 1.15625 L 2.53125 1.390625 C 2.59375 1.429688 2.597656 1.492188 2.546875 1.578125 C 2.492188 1.660156 2.429688 1.675781 2.359375 1.625 L 1.34375 0.890625 L 0.375 0.3125 C 0.300781 0.269531 0.285156 0.207031 0.328125 0.125 C 0.378906 0.0390625 0.441406 0.0195312 0.515625 0.0625 L 0.765625 0.203125 C 1.003906 0.335938 1.191406 0.300781 1.328125 0.09375 L 4.46875 -4.671875 C 4.601562 -4.867188 4.554688 -5.0625 4.328125 -5.25 L 4.09375 -5.453125 C 4.03125 -5.503906 4.019531 -5.5625 4.0625 -5.625 C 4.113281 -5.695312 4.175781 -5.707031 4.25 -5.65625 L 5.390625 -4.859375 Z M 6.953125 -3.8125 "/></g></g></g><g fill="#403737" fill-opacity="1"><g transform="translate(242.518749, 114.193582)"><g/></g></g><g fill="#403737" fill-opacity="1"><g transform="translate(248.013701, 118.848189)"><g><path d="M 6.9375 -1.96875 L 2.984375 2.03125 C 2.898438 2.113281 2.863281 2.207031 2.875 2.3125 C 2.882812 2.425781 2.929688 2.535156 3.015625 2.640625 L 3.21875 2.84375 C 3.269531 2.894531 3.257812 2.957031 3.1875 3.03125 C 3.164062 3.050781 3.132812 3.0625 3.09375 3.0625 C 3.050781 3.0625 3.019531 3.050781 3 3.03125 L 2.21875 2.203125 L 1.3125 1.359375 C 1.28125 1.328125 1.265625 1.289062 1.265625 1.25 C 1.273438 1.21875 1.289062 1.191406 1.3125 1.171875 C 1.382812 1.097656 1.445312 1.085938 1.5 1.140625 L 1.765625 1.40625 C 1.859375 1.476562 1.960938 1.519531 2.078125 1.53125 C 2.191406 1.539062 2.289062 1.503906 2.375 1.421875 L 6.328125 -2.578125 C 6.453125 -2.710938 6.457031 -2.835938 6.34375 -2.953125 L 5.75 -3.546875 C 5.507812 -3.773438 5.265625 -3.890625 5.015625 -3.890625 C 4.765625 -3.890625 4.472656 -3.804688 4.140625 -3.640625 C 4.046875 -3.597656 3.972656 -3.601562 3.921875 -3.65625 C 3.867188 -3.707031 3.84375 -3.753906 3.84375 -3.796875 C 3.851562 -3.847656 3.875 -3.890625 3.90625 -3.921875 L 4.859375 -4.796875 C 4.972656 -4.859375 5.078125 -4.84375 5.171875 -4.75 L 9.109375 -0.859375 C 9.210938 -0.753906 9.210938 -0.640625 9.109375 -0.515625 L 8.296875 0.421875 C 8.265625 0.472656 8.226562 0.5 8.1875 0.5 C 8.144531 0.5 8.097656 0.472656 8.046875 0.421875 C 7.992188 0.367188 7.988281 0.296875 8.03125 0.203125 C 8.195312 -0.128906 8.269531 -0.425781 8.25 -0.6875 C 8.238281 -0.945312 8.125 -1.1875 7.90625 -1.40625 L 7.3125 -2 C 7.1875 -2.113281 7.0625 -2.101562 6.9375 -1.96875 Z M 6.9375 -1.96875 "/></g></g></g><g fill="#403737" fill-opacity="1"><g transform="translate(255.679523, 126.782511)"><g><path d="M 8.09375 -1.203125 C 8.738281 -0.378906 8.988281 0.484375 8.84375 1.390625 C 8.707031 2.304688 8.222656 3.085938 7.390625 3.734375 C 6.566406 4.390625 5.679688 4.671875 4.734375 4.578125 C 3.796875 4.484375 3.007812 4.03125 2.375 3.21875 C 1.738281 2.40625 1.488281 1.53125 1.625 0.59375 C 1.769531 -0.332031 2.253906 -1.117188 3.078125 -1.765625 C 3.898438 -2.410156 4.78125 -2.6875 5.71875 -2.59375 C 6.65625 -2.5 7.445312 -2.035156 8.09375 -1.203125 Z M 8.078125 1.296875 C 8.222656 0.929688 8.269531 0.550781 8.21875 0.15625 C 8.164062 -0.226562 8 -0.597656 7.71875 -0.953125 C 7.21875 -1.597656 6.632812 -1.941406 5.96875 -1.984375 C 5.300781 -2.035156 4.628906 -1.796875 3.953125 -1.265625 C 3.253906 -0.722656 2.753906 -0.0703125 2.453125 0.6875 C 2.296875 1.050781 2.238281 1.429688 2.28125 1.828125 C 2.320312 2.234375 2.484375 2.613281 2.765625 2.96875 C 3.253906 3.601562 3.84375 3.929688 4.53125 3.953125 C 5.21875 3.984375 5.90625 3.726562 6.59375 3.1875 C 7.289062 2.644531 7.785156 2.015625 8.078125 1.296875 Z M 8.078125 1.296875 "/></g></g></g><g fill="#403737" fill-opacity="1"><g transform="translate(263.289903, 137.170428)"><g/></g></g><g fill="#403737" fill-opacity="1"><g transform="translate(266.977677, 143.360385)"><g><path d="M 6.59375 -1.03125 L 1.734375 1.390625 C 1.609375 1.441406 1.523438 1.53125 1.484375 1.65625 C 1.453125 1.78125 1.46875 1.90625 1.53125 2.03125 L 2.1875 3.34375 C 2.34375 3.664062 2.550781 3.898438 2.8125 4.046875 C 3.070312 4.191406 3.375 4.234375 3.71875 4.171875 C 3.832031 4.160156 3.910156 4.203125 3.953125 4.296875 C 3.992188 4.390625 3.957031 4.457031 3.84375 4.5 L 2.859375 4.8125 C 2.742188 4.851562 2.632812 4.851562 2.53125 4.8125 C 2.425781 4.78125 2.347656 4.710938 2.296875 4.609375 L 0.703125 1.40625 L 0.140625 0.40625 C 0.0976562 0.320312 0.117188 0.257812 0.203125 0.21875 C 0.285156 0.175781 0.347656 0.1875 0.390625 0.25 L 0.53125 0.515625 C 0.601562 0.628906 0.691406 0.707031 0.796875 0.75 C 0.898438 0.789062 1.003906 0.785156 1.109375 0.734375 L 6.203125 -1.796875 C 6.421875 -1.910156 6.476562 -2.109375 6.375 -2.390625 L 6.265625 -2.671875 C 6.234375 -2.734375 6.253906 -2.78125 6.328125 -2.8125 C 6.410156 -2.851562 6.472656 -2.832031 6.515625 -2.75 L 6.984375 -1.71875 L 7.46875 -0.84375 C 7.519531 -0.75 7.503906 -0.6875 7.421875 -0.65625 C 7.335938 -0.613281 7.273438 -0.628906 7.234375 -0.703125 L 7.140625 -0.84375 C 6.972656 -1.070312 6.789062 -1.132812 6.59375 -1.03125 Z M 6.59375 -1.03125 "/></g></g></g><g fill="#403737" fill-opacity="1"><g transform="translate(271.544926, 153.134568)"><g><path d="M 1.8125 5.03125 L 0.53125 1.484375 L 0.09375 0.421875 C 0.0625 0.335938 0.0859375 0.28125 0.171875 0.25 C 0.265625 0.21875 0.328125 0.234375 0.359375 0.296875 L 0.46875 0.578125 C 0.53125 0.703125 0.609375 0.789062 0.703125 0.84375 C 0.796875 0.90625 0.898438 0.914062 1.015625 0.875 L 6.375 -1.0625 C 6.601562 -1.144531 6.675781 -1.335938 6.59375 -1.640625 L 6.53125 -1.921875 C 6.5 -1.984375 6.523438 -2.03125 6.609375 -2.0625 C 6.691406 -2.09375 6.75 -2.066406 6.78125 -1.984375 L 7.125 -0.890625 L 8.328125 2.46875 C 8.367188 2.582031 8.367188 2.6875 8.328125 2.78125 C 8.296875 2.882812 8.226562 2.960938 8.125 3.015625 L 7.296875 3.453125 C 7.191406 3.503906 7.117188 3.476562 7.078125 3.375 C 7.046875 3.269531 7.070312 3.1875 7.15625 3.125 C 7.425781 2.925781 7.585938 2.707031 7.640625 2.46875 C 7.703125 2.238281 7.671875 1.957031 7.546875 1.625 L 7.015625 0.140625 C 6.960938 -0.00390625 6.882812 -0.101562 6.78125 -0.15625 C 6.675781 -0.21875 6.554688 -0.222656 6.421875 -0.171875 L 4.4375 0.546875 C 4.351562 0.566406 4.320312 0.617188 4.34375 0.703125 L 4.984375 2.46875 C 5.015625 2.550781 5.0625 2.609375 5.125 2.640625 C 5.1875 2.679688 5.234375 2.703125 5.265625 2.703125 C 5.304688 2.710938 5.382812 2.710938 5.5 2.703125 L 5.65625 2.703125 C 5.738281 2.691406 5.789062 2.722656 5.8125 2.796875 C 5.84375 2.867188 5.8125 2.921875 5.71875 2.953125 L 4.921875 3.203125 L 4.15625 3.515625 C 4.070312 3.546875 4.007812 3.523438 3.96875 3.453125 C 3.9375 3.367188 3.960938 3.3125 4.046875 3.28125 L 4.203125 3.1875 C 4.503906 3.019531 4.617188 2.835938 4.546875 2.640625 L 3.90625 0.875 C 3.882812 0.789062 3.832031 0.765625 3.75 0.796875 L 1.5625 1.578125 C 1.425781 1.617188 1.332031 1.695312 1.28125 1.8125 C 1.226562 1.925781 1.226562 2.054688 1.28125 2.203125 L 1.84375 3.75 C 1.96875 4.082031 2.148438 4.335938 2.390625 4.515625 C 2.628906 4.691406 2.921875 4.773438 3.265625 4.765625 C 3.378906 4.765625 3.445312 4.800781 3.46875 4.875 C 3.5 4.945312 3.5 5 3.46875 5.03125 C 3.445312 5.0625 3.414062 5.085938 3.375 5.109375 L 2.328125 5.296875 C 2.222656 5.328125 2.117188 5.316406 2.015625 5.265625 C 1.921875 5.210938 1.851562 5.132812 1.8125 5.03125 Z M 1.8125 5.03125 "/></g></g></g><g fill="#403737" fill-opacity="1"><g transform="translate(275.07285, 163.73473)"><g><path d="M 3.203125 1.609375 L 3.703125 3.796875 C 3.710938 3.867188 3.75 3.878906 3.8125 3.828125 L 6.5625 2 L 3.265625 1.53125 C 3.210938 1.519531 3.191406 1.546875 3.203125 1.609375 Z M 0.9375 1.171875 C 0.90625 1.160156 0.863281 1.160156 0.8125 1.171875 C 0.757812 1.191406 0.707031 1.234375 0.65625 1.296875 C 0.613281 1.359375 0.597656 1.429688 0.609375 1.515625 L 0.640625 1.75 C 0.640625 1.832031 0.601562 1.882812 0.53125 1.90625 C 0.4375 1.925781 0.378906 1.890625 0.359375 1.796875 L 0.203125 0.921875 L -0.03125 0.0625 C -0.0507812 -0.03125 -0.015625 -0.0859375 0.078125 -0.109375 C 0.171875 -0.128906 0.222656 -0.101562 0.234375 -0.03125 L 0.296875 0.140625 C 0.390625 0.410156 0.5625 0.570312 0.8125 0.625 L 7.578125 1.734375 C 7.660156 1.742188 7.71875 1.8125 7.75 1.9375 C 7.78125 2.0625 7.757812 2.148438 7.6875 2.203125 L 2.046875 6.109375 C 1.835938 6.253906 1.753906 6.46875 1.796875 6.75 L 1.828125 6.96875 C 1.828125 7 1.816406 7.023438 1.796875 7.046875 C 1.773438 7.066406 1.75 7.078125 1.71875 7.078125 C 1.613281 7.109375 1.550781 7.082031 1.53125 7 L 1.328125 5.859375 L 1.046875 4.859375 C 1.023438 4.765625 1.054688 4.707031 1.140625 4.6875 C 1.234375 4.664062 1.296875 4.695312 1.328125 4.78125 L 1.390625 4.984375 C 1.421875 5.078125 1.46875 5.144531 1.53125 5.1875 C 1.59375 5.226562 1.648438 5.238281 1.703125 5.21875 C 1.765625 5.207031 1.8125 5.191406 1.84375 5.171875 L 3.234375 4.25 C 3.273438 4.21875 3.285156 4.160156 3.265625 4.078125 L 2.703125 1.546875 C 2.679688 1.460938 2.640625 1.414062 2.578125 1.40625 Z M 0.9375 1.171875 "/></g></g></g><g fill="#403737" fill-opacity="1"><g transform="translate(277.423418, 175.489308)"><g><path d="M 7.3125 2.75 C 7.40625 3.820312 7.175781 4.703125 6.625 5.390625 C 6.082031 6.078125 5.296875 6.46875 4.265625 6.5625 C 3.242188 6.65625 2.351562 6.40625 1.59375 5.8125 C 0.84375 5.226562 0.421875 4.425781 0.328125 3.40625 L 0.15625 1.6875 L 0 0.4375 C -0.0078125 0.34375 0.0234375 0.289062 0.109375 0.28125 C 0.203125 0.28125 0.25 0.316406 0.25 0.390625 L 0.296875 0.6875 C 0.328125 0.8125 0.378906 0.910156 0.453125 0.984375 C 0.535156 1.066406 0.640625 1.101562 0.765625 1.09375 L 6.4375 0.5625 C 6.675781 0.539062 6.796875 0.375 6.796875 0.0625 L 6.796875 -0.234375 C 6.804688 -0.304688 6.847656 -0.347656 6.921875 -0.359375 C 7.015625 -0.359375 7.066406 -0.3125 7.078125 -0.21875 L 7.140625 1.03125 Z M 5.984375 4.84375 C 6.296875 4.625 6.53125 4.335938 6.6875 3.984375 C 6.84375 3.628906 6.894531 3.226562 6.84375 2.78125 L 6.765625 1.875 C 6.753906 1.726562 6.703125 1.613281 6.609375 1.53125 C 6.515625 1.445312 6.394531 1.410156 6.25 1.421875 L 1.109375 1.90625 C 0.972656 1.925781 0.867188 1.984375 0.796875 2.078125 C 0.722656 2.171875 0.691406 2.289062 0.703125 2.4375 L 0.796875 3.390625 C 0.867188 4.160156 1.1875 4.75 1.75 5.15625 C 2.3125 5.570312 3.015625 5.738281 3.859375 5.65625 C 4.703125 5.570312 5.410156 5.300781 5.984375 4.84375 Z M 5.984375 4.84375 "/></g></g></g><g fill="#403737" fill-opacity="1"><g transform="translate(278.245037, 187.699012)"><g><path d="M -0.15625 5.34375 L -0.046875 1.578125 L -0.0625 0.4375 C -0.0625 0.34375 -0.015625 0.296875 0.078125 0.296875 C 0.171875 0.296875 0.21875 0.332031 0.21875 0.40625 L 0.234375 0.703125 C 0.234375 0.847656 0.269531 0.960938 0.34375 1.046875 C 0.414062 1.128906 0.507812 1.171875 0.625 1.171875 L 6.328125 1.34375 C 6.566406 1.351562 6.707031 1.207031 6.75 0.90625 L 6.78125 0.609375 C 6.78125 0.535156 6.820312 0.5 6.90625 0.5 C 7 0.507812 7.046875 0.5625 7.046875 0.65625 L 6.96875 1.78125 L 6.859375 5.34375 C 6.859375 5.46875 6.816406 5.566406 6.734375 5.640625 C 6.660156 5.722656 6.566406 5.773438 6.453125 5.796875 L 5.53125 5.90625 C 5.40625 5.914062 5.34375 5.863281 5.34375 5.75 C 5.351562 5.644531 5.410156 5.570312 5.515625 5.53125 C 5.835938 5.445312 6.066406 5.304688 6.203125 5.109375 C 6.347656 4.910156 6.425781 4.632812 6.4375 4.28125 L 6.484375 2.703125 C 6.492188 2.554688 6.457031 2.4375 6.375 2.34375 C 6.289062 2.25 6.175781 2.203125 6.03125 2.203125 L 3.921875 2.140625 C 3.835938 2.128906 3.796875 2.164062 3.796875 2.25 L 3.734375 4.125 C 3.734375 4.21875 3.753906 4.289062 3.796875 4.34375 C 3.847656 4.40625 3.890625 4.441406 3.921875 4.453125 C 3.960938 4.472656 4.035156 4.5 4.140625 4.53125 L 4.265625 4.578125 C 4.347656 4.609375 4.390625 4.660156 4.390625 4.734375 C 4.390625 4.816406 4.34375 4.851562 4.25 4.84375 L 3.390625 4.796875 L 2.578125 4.796875 C 2.492188 4.796875 2.441406 4.753906 2.421875 4.671875 C 2.421875 4.585938 2.460938 4.539062 2.546875 4.53125 L 2.75 4.515625 C 3.09375 4.460938 3.265625 4.332031 3.265625 4.125 L 3.328125 2.25 C 3.328125 2.164062 3.28125 2.117188 3.1875 2.109375 L 0.859375 2.046875 C 0.722656 2.035156 0.613281 2.070312 0.53125 2.15625 C 0.445312 2.25 0.398438 2.367188 0.390625 2.515625 L 0.34375 4.171875 C 0.332031 4.523438 0.40625 4.828125 0.5625 5.078125 C 0.726562 5.335938 0.972656 5.523438 1.296875 5.640625 C 1.398438 5.671875 1.453125 5.722656 1.453125 5.796875 C 1.453125 5.878906 1.429688 5.929688 1.390625 5.953125 C 1.359375 5.984375 1.316406 6 1.265625 6 L 0.234375 5.796875 C 0.117188 5.773438 0.0234375 5.722656 -0.046875 5.640625 C -0.128906 5.554688 -0.164062 5.457031 -0.15625 5.34375 Z M -0.15625 5.34375 "/></g></g></g><g fill="#403737" fill-opacity="1"><g transform="translate(277.625679, 198.862399)"><g><path d="M 3.4375 5.078125 C 3.644531 5.429688 3.957031 5.640625 4.375 5.703125 C 4.789062 5.765625 5.144531 5.660156 5.4375 5.390625 C 5.738281 5.128906 5.925781 4.769531 6 4.3125 L 6.140625 3.375 C 6.179688 3.113281 6.070312 2.960938 5.8125 2.921875 L 3.5625 2.578125 C 3.476562 2.566406 3.429688 2.59375 3.421875 2.65625 L 3.234375 3.890625 C 3.160156 4.335938 3.226562 4.734375 3.4375 5.078125 Z M 6.390625 4.703125 C 6.285156 5.347656 6.039062 5.847656 5.65625 6.203125 C 5.28125 6.554688 4.828125 6.691406 4.296875 6.609375 C 3.765625 6.523438 3.351562 6.257812 3.0625 5.8125 C 2.78125 5.363281 2.664062 4.890625 2.71875 4.390625 L 2.703125 4.390625 C 2.640625 4.515625 2.535156 4.609375 2.390625 4.671875 L -0.203125 5.8125 C -0.453125 5.914062 -0.625 6.109375 -0.71875 6.390625 L -0.75 6.578125 C -0.789062 6.660156 -0.847656 6.695312 -0.921875 6.6875 C -1.015625 6.675781 -1.050781 6.617188 -1.03125 6.515625 C -0.90625 5.890625 -0.828125 5.5 -0.796875 5.34375 C -0.773438 5.1875 -0.691406 5.070312 -0.546875 5 L 2.484375 3.765625 C 2.710938 3.660156 2.835938 3.53125 2.859375 3.375 C 2.859375 3.375 2.859375 3.367188 2.859375 3.359375 L 2.96875 2.640625 C 2.988281 2.546875 2.957031 2.492188 2.875 2.484375 L 0.359375 2.09375 C 0.242188 2.082031 0.140625 2.113281 0.046875 2.1875 C -0.0351562 2.257812 -0.09375 2.351562 -0.125 2.46875 L -0.203125 2.890625 C -0.210938 2.960938 -0.265625 2.992188 -0.359375 2.984375 C -0.453125 2.972656 -0.488281 2.921875 -0.46875 2.828125 L -0.234375 1.59375 L -0.125 0.484375 C -0.101562 0.398438 -0.0507812 0.359375 0.03125 0.359375 C 0.125 0.367188 0.171875 0.414062 0.171875 0.5 L 0.140625 0.765625 C 0.117188 1.046875 0.234375 1.203125 0.484375 1.234375 L 6.109375 2.09375 C 6.347656 2.125 6.503906 1.992188 6.578125 1.703125 L 6.65625 1.421875 C 6.675781 1.347656 6.722656 1.316406 6.796875 1.328125 C 6.890625 1.347656 6.929688 1.40625 6.921875 1.5 L 6.671875 2.859375 Z M 6.390625 4.703125 "/></g></g></g><g fill="#403737" fill-opacity="1"><g transform="translate(147.273199, 270.533293)"><g><path d="M 6.578125 -0.0625 C 6.578125 -0.0390625 6.566406 -0.0195312 6.546875 0 C 6.523438 0.0195312 6.5 0.03125 6.46875 0.03125 L 5.6875 0 L 4.984375 0.03125 C 4.921875 0.03125 4.890625 0.00390625 4.890625 -0.046875 C 4.890625 -0.109375 4.914062 -0.144531 4.96875 -0.15625 L 5.078125 -0.171875 C 5.273438 -0.191406 5.375 -0.289062 5.375 -0.46875 L 5.328125 -3.796875 C 5.328125 -3.835938 5.3125 -3.859375 5.28125 -3.859375 C 5.269531 -3.859375 5.257812 -3.851562 5.25 -3.84375 L 3.34375 -0.015625 C 3.3125 0.0234375 3.28125 0.046875 3.25 0.046875 C 3.21875 0.046875 3.191406 0.0234375 3.171875 -0.015625 L 1.265625 -3.71875 C 1.253906 -3.738281 1.242188 -3.75 1.234375 -3.75 C 1.203125 -3.75 1.1875 -3.722656 1.1875 -3.671875 L 1.140625 -0.46875 C 1.140625 -0.3125 1.234375 -0.21875 1.421875 -0.1875 L 1.546875 -0.15625 C 1.609375 -0.144531 1.640625 -0.113281 1.640625 -0.0625 C 1.640625 -0.0078125 1.601562 0.015625 1.53125 0.015625 L 0.953125 0 L 0.28125 0.015625 C 0.207031 0.015625 0.171875 -0.0078125 0.171875 -0.0625 C 0.171875 -0.113281 0.195312 -0.144531 0.25 -0.15625 L 0.453125 -0.1875 C 0.671875 -0.207031 0.78125 -0.300781 0.78125 -0.46875 L 0.859375 -4.453125 C 0.867188 -4.617188 0.773438 -4.710938 0.578125 -4.734375 L 0.453125 -4.75 C 0.398438 -4.757812 0.375 -4.789062 0.375 -4.84375 C 0.375 -4.90625 0.410156 -4.9375 0.484375 -4.9375 L 1.09375 -4.921875 C 1.25 -4.921875 1.351562 -4.875 1.40625 -4.78125 L 3.390625 -0.84375 L 5.328125 -4.78125 C 5.367188 -4.863281 5.472656 -4.910156 5.640625 -4.921875 L 6.265625 -4.9375 C 6.335938 -4.9375 6.375 -4.90625 6.375 -4.84375 C 6.375 -4.789062 6.347656 -4.757812 6.296875 -4.75 L 6.171875 -4.734375 C 5.984375 -4.722656 5.890625 -4.628906 5.890625 -4.453125 L 5.96875 -0.46875 C 5.96875 -0.382812 6 -0.316406 6.0625 -0.265625 C 6.125 -0.210938 6.195312 -0.179688 6.28125 -0.171875 L 6.484375 -0.15625 C 6.546875 -0.15625 6.578125 -0.125 6.578125 -0.0625 Z M 6.578125 -0.0625 "/></g></g></g><g fill="#403737" fill-opacity="1"><g transform="translate(157.656592, 270.533293)"><g><path d="M 0.421875 0.03125 C 0.359375 0.03125 0.328125 0.00390625 0.328125 -0.046875 C 0.328125 -0.109375 0.351562 -0.144531 0.40625 -0.15625 L 0.53125 -0.171875 C 0.71875 -0.191406 0.8125 -0.289062 0.8125 -0.46875 L 0.8125 -4.453125 C 0.8125 -4.617188 0.703125 -4.710938 0.484375 -4.734375 L 0.28125 -4.765625 C 0.226562 -4.773438 0.203125 -4.800781 0.203125 -4.84375 C 0.203125 -4.914062 0.238281 -4.953125 0.3125 -4.953125 L 1.109375 -4.921875 L 1.796875 -4.953125 C 1.867188 -4.953125 1.90625 -4.921875 1.90625 -4.859375 C 1.90625 -4.796875 1.875 -4.765625 1.8125 -4.765625 L 1.6875 -4.734375 C 1.5 -4.703125 1.40625 -4.609375 1.40625 -4.453125 L 1.40625 -0.46875 C 1.40625 -0.382812 1.4375 -0.316406 1.5 -0.265625 C 1.5625 -0.210938 1.640625 -0.179688 1.734375 -0.171875 L 1.9375 -0.15625 C 1.988281 -0.15625 2.015625 -0.125 2.015625 -0.0625 C 2.015625 -0.0390625 2.003906 -0.0195312 1.984375 0 C 1.960938 0.0195312 1.941406 0.03125 1.921875 0.03125 L 1.125 0 Z M 0.421875 0.03125 "/></g></g></g><g fill="#403737" fill-opacity="1"><g transform="translate(163.519651, 270.533293)"><g><path d="M 4.3125 -1.046875 L 4.3125 -4.453125 C 4.3125 -4.617188 4.207031 -4.710938 4 -4.734375 L 3.796875 -4.765625 C 3.742188 -4.773438 3.71875 -4.804688 3.71875 -4.859375 C 3.71875 -4.910156 3.75 -4.9375 3.8125 -4.9375 L 4.5 -4.921875 L 5.046875 -4.9375 C 5.109375 -4.9375 5.140625 -4.910156 5.140625 -4.859375 C 5.140625 -4.804688 5.113281 -4.773438 5.0625 -4.765625 L 4.9375 -4.734375 C 4.75 -4.703125 4.65625 -4.609375 4.65625 -4.453125 L 4.65625 0 C 4.65625 0.0507812 4.628906 0.078125 4.578125 0.078125 L 4.484375 0.078125 C 4.367188 0.078125 4.269531 0.0195312 4.1875 -0.09375 L 1.21875 -3.875 C 1.207031 -3.882812 1.191406 -3.890625 1.171875 -3.890625 C 1.160156 -3.890625 1.15625 -3.867188 1.15625 -3.828125 L 1.15625 -0.46875 C 1.15625 -0.3125 1.25 -0.21875 1.4375 -0.1875 L 1.546875 -0.15625 C 1.609375 -0.144531 1.640625 -0.113281 1.640625 -0.0625 C 1.640625 -0.0078125 1.609375 0.015625 1.546875 0.015625 L 0.984375 0 L 0.3125 0.015625 C 0.238281 0.015625 0.203125 -0.0078125 0.203125 -0.0625 C 0.203125 -0.113281 0.226562 -0.144531 0.28125 -0.15625 L 0.484375 -0.1875 C 0.703125 -0.207031 0.8125 -0.300781 0.8125 -0.46875 L 0.8125 -4.453125 C 0.8125 -4.617188 0.71875 -4.710938 0.53125 -4.734375 L 0.40625 -4.75 C 0.351562 -4.757812 0.328125 -4.789062 0.328125 -4.84375 C 0.328125 -4.90625 0.359375 -4.9375 0.421875 -4.9375 L 0.984375 -4.921875 C 1.117188 -4.921875 1.222656 -4.875 1.296875 -4.78125 L 4.234375 -1.03125 C 4.242188 -1.007812 4.257812 -1 4.28125 -1 C 4.300781 -1 4.3125 -1.015625 4.3125 -1.046875 Z M 4.3125 -1.046875 "/></g></g></g><g fill="#403737" fill-opacity="1"><g transform="translate(172.511085, 270.533293)"><g><path d="M 0.421875 0.03125 C 0.359375 0.03125 0.328125 0.00390625 0.328125 -0.046875 C 0.328125 -0.109375 0.351562 -0.144531 0.40625 -0.15625 L 0.53125 -0.171875 C 0.71875 -0.191406 0.8125 -0.289062 0.8125 -0.46875 L 0.8125 -4.453125 C 0.8125 -4.617188 0.703125 -4.710938 0.484375 -4.734375 L 0.28125 -4.765625 C 0.226562 -4.773438 0.203125 -4.800781 0.203125 -4.84375 C 0.203125 -4.914062 0.238281 -4.953125 0.3125 -4.953125 L 1.109375 -4.921875 L 1.796875 -4.953125 C 1.867188 -4.953125 1.90625 -4.921875 1.90625 -4.859375 C 1.90625 -4.796875 1.875 -4.765625 1.8125 -4.765625 L 1.6875 -4.734375 C 1.5 -4.703125 1.40625 -4.609375 1.40625 -4.453125 L 1.40625 -0.46875 C 1.40625 -0.382812 1.4375 -0.316406 1.5 -0.265625 C 1.5625 -0.210938 1.640625 -0.179688 1.734375 -0.171875 L 1.9375 -0.15625 C 1.988281 -0.15625 2.015625 -0.125 2.015625 -0.0625 C 2.015625 -0.0390625 2.003906 -0.0195312 1.984375 0 C 1.960938 0.0195312 1.941406 0.03125 1.921875 0.03125 L 1.125 0 Z M 0.421875 0.03125 "/></g></g></g><g fill="#403737" fill-opacity="1"><g transform="translate(178.374145, 270.533293)"><g><path d="M 3.65625 -1.265625 C 3.65625 -0.828125 3.488281 -0.492188 3.15625 -0.265625 C 2.832031 -0.0351562 2.4375 0.078125 1.96875 0.078125 C 1.5 0.078125 1.109375 0.0195312 0.796875 -0.09375 C 0.492188 -0.207031 0.34375 -0.332031 0.34375 -0.46875 L 0.34375 -1.28125 C 0.34375 -1.382812 0.382812 -1.4375 0.46875 -1.4375 C 0.53125 -1.4375 0.570312 -1.390625 0.59375 -1.296875 C 0.707031 -0.941406 0.863281 -0.675781 1.0625 -0.5 C 1.257812 -0.320312 1.53125 -0.234375 1.875 -0.234375 C 2.226562 -0.234375 2.515625 -0.3125 2.734375 -0.46875 C 2.953125 -0.625 3.0625 -0.84375 3.0625 -1.125 C 3.0625 -1.4375 2.890625 -1.695312 2.546875 -1.90625 C 2.390625 -2 2.21875 -2.085938 2.03125 -2.171875 C 1.84375 -2.265625 1.65625 -2.359375 1.46875 -2.453125 C 1.28125 -2.554688 1.109375 -2.664062 0.953125 -2.78125 C 0.609375 -3.03125 0.4375 -3.347656 0.4375 -3.734375 C 0.4375 -4.117188 0.582031 -4.425781 0.875 -4.65625 C 1.175781 -4.882812 1.523438 -5 1.921875 -5 C 2.328125 -5 2.671875 -4.945312 2.953125 -4.84375 C 3.234375 -4.75 3.375 -4.640625 3.375 -4.515625 L 3.375 -3.796875 C 3.375 -3.703125 3.335938 -3.65625 3.265625 -3.65625 C 3.203125 -3.65625 3.15625 -3.703125 3.125 -3.796875 C 3.03125 -4.097656 2.898438 -4.320312 2.734375 -4.46875 C 2.578125 -4.613281 2.335938 -4.6875 2.015625 -4.6875 C 1.703125 -4.6875 1.453125 -4.609375 1.265625 -4.453125 C 1.085938 -4.304688 1 -4.125 1 -3.90625 C 1 -3.6875 1.085938 -3.492188 1.265625 -3.328125 C 1.453125 -3.171875 1.675781 -3.03125 1.9375 -2.90625 C 2.195312 -2.78125 2.457031 -2.648438 2.71875 -2.515625 C 2.976562 -2.378906 3.195312 -2.207031 3.375 -2 C 3.5625 -1.789062 3.65625 -1.546875 3.65625 -1.265625 Z M 3.65625 -1.265625 "/></g></g></g><g fill="#403737" fill-opacity="1"><g transform="translate(186.022842, 270.533293)"><g><path d="M 2.484375 -4.40625 L 2.484375 -0.46875 C 2.484375 -0.382812 2.515625 -0.316406 2.578125 -0.265625 C 2.640625 -0.210938 2.710938 -0.179688 2.796875 -0.171875 L 3 -0.15625 C 3.0625 -0.15625 3.09375 -0.125 3.09375 -0.0625 C 3.09375 -0.0390625 3.078125 -0.0195312 3.046875 0 C 3.023438 0.0195312 3.003906 0.03125 2.984375 0.03125 L 2.1875 0 L 1.328125 0.03125 C 1.296875 0.03125 1.269531 0.0195312 1.25 0 C 1.226562 -0.0195312 1.21875 -0.0390625 1.21875 -0.0625 C 1.21875 -0.125 1.25 -0.15625 1.3125 -0.15625 L 1.5625 -0.171875 C 1.65625 -0.179688 1.734375 -0.210938 1.796875 -0.265625 C 1.859375 -0.316406 1.890625 -0.382812 1.890625 -0.46875 L 1.890625 -4.40625 C 1.890625 -4.53125 1.828125 -4.59375 1.703125 -4.59375 L 1.125 -4.59375 C 0.882812 -4.59375 0.695312 -4.53125 0.5625 -4.40625 C 0.4375 -4.28125 0.335938 -4.097656 0.265625 -3.859375 C 0.234375 -3.785156 0.191406 -3.75 0.140625 -3.75 C 0.0976562 -3.75 0.0625 -3.757812 0.03125 -3.78125 C 0.0078125 -3.8125 0.00390625 -3.84375 0.015625 -3.875 L 0.0625 -4.78125 C 0.0703125 -4.875 0.125 -4.921875 0.21875 -4.921875 L 4.125 -4.921875 C 4.21875 -4.921875 4.269531 -4.863281 4.28125 -4.75 L 4.359375 -3.875 C 4.359375 -3.84375 4.34375 -3.8125 4.3125 -3.78125 C 4.289062 -3.757812 4.253906 -3.75 4.203125 -3.75 C 4.160156 -3.75 4.125 -3.785156 4.09375 -3.859375 C 4.007812 -4.109375 3.898438 -4.289062 3.765625 -4.40625 C 3.640625 -4.53125 3.46875 -4.59375 3.25 -4.59375 L 2.65625 -4.59375 C 2.539062 -4.59375 2.484375 -4.53125 2.484375 -4.40625 Z M 2.484375 -4.40625 "/></g></g></g><g fill="#403737" fill-opacity="1"><g transform="translate(194.023044, 270.533293)"><g><path d="M 3.171875 -2.921875 C 3.390625 -3.097656 3.5 -3.332031 3.5 -3.625 C 3.5 -3.925781 3.390625 -4.164062 3.171875 -4.34375 C 2.953125 -4.519531 2.679688 -4.609375 2.359375 -4.609375 L 1.6875 -4.609375 C 1.5 -4.609375 1.40625 -4.515625 1.40625 -4.328125 L 1.40625 -2.734375 C 1.40625 -2.679688 1.429688 -2.65625 1.484375 -2.65625 L 2.359375 -2.65625 C 2.679688 -2.65625 2.953125 -2.742188 3.171875 -2.921875 Z M 2.59375 -4.921875 C 3.039062 -4.921875 3.410156 -4.804688 3.703125 -4.578125 C 3.992188 -4.347656 4.140625 -4.039062 4.140625 -3.65625 C 4.140625 -3.28125 3.992188 -2.96875 3.703125 -2.71875 C 3.421875 -2.476562 3.109375 -2.351562 2.765625 -2.34375 L 2.75 -2.328125 C 2.851562 -2.296875 2.929688 -2.238281 2.984375 -2.15625 L 4.046875 -0.46875 C 4.148438 -0.300781 4.304688 -0.203125 4.515625 -0.171875 L 4.640625 -0.15625 C 4.703125 -0.144531 4.734375 -0.113281 4.734375 -0.0625 C 4.734375 0 4.695312 0.03125 4.625 0.03125 C 4.175781 0.0078125 3.894531 0 3.78125 0 C 3.675781 0 3.59375 -0.046875 3.53125 -0.140625 L 2.34375 -2.109375 C 2.25 -2.253906 2.144531 -2.328125 2.03125 -2.328125 L 1.515625 -2.328125 C 1.441406 -2.328125 1.40625 -2.300781 1.40625 -2.25 L 1.40625 -0.46875 C 1.40625 -0.382812 1.4375 -0.316406 1.5 -0.265625 C 1.5625 -0.210938 1.640625 -0.179688 1.734375 -0.171875 L 2.03125 -0.15625 C 2.082031 -0.15625 2.109375 -0.125 2.109375 -0.0625 C 2.109375 0 2.070312 0.03125 2 0.03125 L 1.125 0 L 0.34375 0.03125 C 0.28125 0.03125 0.242188 0 0.234375 -0.0625 C 0.234375 -0.125 0.265625 -0.15625 0.328125 -0.15625 L 0.53125 -0.171875 C 0.71875 -0.191406 0.8125 -0.289062 0.8125 -0.46875 L 0.8125 -4.453125 C 0.8125 -4.617188 0.703125 -4.710938 0.484375 -4.734375 L 0.28125 -4.765625 C 0.226562 -4.773438 0.203125 -4.800781 0.203125 -4.84375 C 0.203125 -4.914062 0.238281 -4.953125 0.3125 -4.953125 L 1.28125 -4.921875 Z M 2.59375 -4.921875 "/></g></g></g><g fill="#403737" fill-opacity="1"><g transform="translate(202.318506, 270.533293)"><g><path d="M 0.421875 0.03125 C 0.359375 0.03125 0.328125 0.00390625 0.328125 -0.046875 C 0.328125 -0.109375 0.351562 -0.144531 0.40625 -0.15625 L 0.53125 -0.171875 C 0.71875 -0.191406 0.8125 -0.289062 0.8125 -0.46875 L 0.8125 -4.453125 C 0.8125 -4.617188 0.703125 -4.710938 0.484375 -4.734375 L 0.28125 -4.765625 C 0.226562 -4.773438 0.203125 -4.800781 0.203125 -4.84375 C 0.203125 -4.914062 0.238281 -4.953125 0.3125 -4.953125 L 1.109375 -4.921875 L 1.796875 -4.953125 C 1.867188 -4.953125 1.90625 -4.921875 1.90625 -4.859375 C 1.90625 -4.796875 1.875 -4.765625 1.8125 -4.765625 L 1.6875 -4.734375 C 1.5 -4.703125 1.40625 -4.609375 1.40625 -4.453125 L 1.40625 -0.46875 C 1.40625 -0.382812 1.4375 -0.316406 1.5 -0.265625 C 1.5625 -0.210938 1.640625 -0.179688 1.734375 -0.171875 L 1.9375 -0.15625 C 1.988281 -0.15625 2.015625 -0.125 2.015625 -0.0625 C 2.015625 -0.0390625 2.003906 -0.0195312 1.984375 0 C 1.960938 0.0195312 1.941406 0.03125 1.921875 0.03125 L 1.125 0 Z M 0.421875 0.03125 "/></g></g></g><g fill="#403737" fill-opacity="1"><g transform="translate(208.181565, 270.533293)"><g><path d="M 3.734375 0 L 1.109375 0 L 0.3125 0.03125 C 0.238281 0.03125 0.203125 0 0.203125 -0.0625 C 0.203125 -0.125 0.226562 -0.15625 0.28125 -0.15625 L 0.484375 -0.171875 C 0.578125 -0.179688 0.65625 -0.210938 0.71875 -0.265625 C 0.78125 -0.316406 0.8125 -0.382812 0.8125 -0.46875 L 0.8125 -4.453125 C 0.8125 -4.617188 0.703125 -4.710938 0.484375 -4.734375 L 0.28125 -4.765625 C 0.226562 -4.765625 0.203125 -4.796875 0.203125 -4.859375 C 0.203125 -4.921875 0.238281 -4.953125 0.3125 -4.953125 L 1.109375 -4.921875 L 3.59375 -4.921875 C 3.6875 -4.921875 3.757812 -4.894531 3.8125 -4.84375 C 3.875 -4.789062 3.910156 -4.722656 3.921875 -4.640625 L 4.015625 -4 C 4.023438 -3.90625 3.988281 -3.859375 3.90625 -3.859375 C 3.832031 -3.859375 3.785156 -3.898438 3.765625 -3.984375 C 3.691406 -4.203125 3.582031 -4.359375 3.4375 -4.453125 C 3.300781 -4.546875 3.109375 -4.59375 2.859375 -4.59375 L 1.75 -4.59375 C 1.65625 -4.59375 1.570312 -4.5625 1.5 -4.5 C 1.4375 -4.445312 1.40625 -4.367188 1.40625 -4.265625 L 1.40625 -2.796875 C 1.40625 -2.734375 1.4375 -2.703125 1.5 -2.703125 L 2.8125 -2.703125 C 2.875 -2.703125 2.921875 -2.71875 2.953125 -2.75 C 2.992188 -2.78125 3.019531 -2.804688 3.03125 -2.828125 C 3.050781 -2.859375 3.070312 -2.914062 3.09375 -3 L 3.125 -3.09375 C 3.132812 -3.144531 3.164062 -3.171875 3.21875 -3.171875 C 3.28125 -3.171875 3.3125 -3.140625 3.3125 -3.078125 L 3.28125 -2.46875 L 3.3125 -1.90625 C 3.3125 -1.84375 3.28125 -1.804688 3.21875 -1.796875 C 3.164062 -1.796875 3.132812 -1.828125 3.125 -1.890625 L 3.09375 -2.015625 C 3.050781 -2.253906 2.957031 -2.375 2.8125 -2.375 L 1.5 -2.375 C 1.4375 -2.375 1.40625 -2.34375 1.40625 -2.28125 L 1.40625 -0.640625 C 1.40625 -0.546875 1.4375 -0.46875 1.5 -0.40625 C 1.570312 -0.351562 1.65625 -0.328125 1.75 -0.328125 L 2.921875 -0.328125 C 3.160156 -0.328125 3.367188 -0.382812 3.546875 -0.5 C 3.722656 -0.625 3.847656 -0.800781 3.921875 -1.03125 C 3.941406 -1.101562 3.976562 -1.140625 4.03125 -1.140625 C 4.082031 -1.140625 4.117188 -1.125 4.140625 -1.09375 C 4.160156 -1.070312 4.171875 -1.046875 4.171875 -1.015625 L 4.0625 -0.28125 C 4.050781 -0.195312 4.015625 -0.128906 3.953125 -0.078125 C 3.890625 -0.0234375 3.816406 0 3.734375 0 Z M 3.734375 0 "/></g></g></g><g fill="#403737" fill-opacity="1"><g transform="translate(216.273152, 270.533293)"><g><path d="M 3.65625 -1.265625 C 3.65625 -0.828125 3.488281 -0.492188 3.15625 -0.265625 C 2.832031 -0.0351562 2.4375 0.078125 1.96875 0.078125 C 1.5 0.078125 1.109375 0.0195312 0.796875 -0.09375 C 0.492188 -0.207031 0.34375 -0.332031 0.34375 -0.46875 L 0.34375 -1.28125 C 0.34375 -1.382812 0.382812 -1.4375 0.46875 -1.4375 C 0.53125 -1.4375 0.570312 -1.390625 0.59375 -1.296875 C 0.707031 -0.941406 0.863281 -0.675781 1.0625 -0.5 C 1.257812 -0.320312 1.53125 -0.234375 1.875 -0.234375 C 2.226562 -0.234375 2.515625 -0.3125 2.734375 -0.46875 C 2.953125 -0.625 3.0625 -0.84375 3.0625 -1.125 C 3.0625 -1.4375 2.890625 -1.695312 2.546875 -1.90625 C 2.390625 -2 2.21875 -2.085938 2.03125 -2.171875 C 1.84375 -2.265625 1.65625 -2.359375 1.46875 -2.453125 C 1.28125 -2.554688 1.109375 -2.664062 0.953125 -2.78125 C 0.609375 -3.03125 0.4375 -3.347656 0.4375 -3.734375 C 0.4375 -4.117188 0.582031 -4.425781 0.875 -4.65625 C 1.175781 -4.882812 1.523438 -5 1.921875 -5 C 2.328125 -5 2.671875 -4.945312 2.953125 -4.84375 C 3.234375 -4.75 3.375 -4.640625 3.375 -4.515625 L 3.375 -3.796875 C 3.375 -3.703125 3.335938 -3.65625 3.265625 -3.65625 C 3.203125 -3.65625 3.15625 -3.703125 3.125 -3.796875 C 3.03125 -4.097656 2.898438 -4.320312 2.734375 -4.46875 C 2.578125 -4.613281 2.335938 -4.6875 2.015625 -4.6875 C 1.703125 -4.6875 1.453125 -4.609375 1.265625 -4.453125 C 1.085938 -4.304688 1 -4.125 1 -3.90625 C 1 -3.6875 1.085938 -3.492188 1.265625 -3.328125 C 1.453125 -3.171875 1.675781 -3.03125 1.9375 -2.90625 C 2.195312 -2.78125 2.457031 -2.648438 2.71875 -2.515625 C 2.976562 -2.378906 3.195312 -2.207031 3.375 -2 C 3.5625 -1.789062 3.65625 -1.546875 3.65625 -1.265625 Z M 3.65625 -1.265625 "/></g></g></g><g fill="#403737" fill-opacity="1"><g transform="translate(223.916937, 270.533293)"><g/></g></g></svg>