<svg xmlns="http://www.w3.org/2000/svg" xmlns:xlink="http://www.w3.org/1999/xlink" width="500" zoomAndPan="magnify" viewBox="0 0 375 374.999991" height="500" preserveAspectRatio="xMidYMid meet" version="1.0"><defs><g/><clipPath id="id1"><path d="M 34 23 L 343 23 L 343 333 L 34 333 Z M 34 23 " clip-rule="nonzero"/></clipPath><clipPath id="id2"><path d="M -29.792969 167.464844 L 147.261719 6.195312 L 355.28125 234.570312 L 178.222656 395.84375 Z M -29.792969 167.464844 " clip-rule="nonzero"/></clipPath><clipPath id="id3"><path d="M -29.792969 167.464844 L 198.582031 -40.550781 L 406.601562 187.824219 L 178.222656 395.84375 Z M -29.792969 167.464844 " clip-rule="nonzero"/></clipPath><clipPath id="id4"><path d="M 75.285156 128 L 174 128 L 174 227 L 75.285156 227 Z M 75.285156 128 " clip-rule="nonzero"/></clipPath><clipPath id="id5"><path d="M 188.78125 235.0625 L 240.457031 235.0625 L 240.457031 286.441406 L 188.78125 286.441406 Z M 188.78125 235.0625 " clip-rule="nonzero"/></clipPath><clipPath id="id6"><path d="M 208 148.554688 L 306.65625 148.554688 L 306.65625 247 L 208 247 Z M 208 148.554688 " clip-rule="nonzero"/></clipPath><clipPath id="id7"><path d="M 83 67.777344 L 144 67.777344 L 144 128 L 83 128 Z M 83 67.777344 " clip-rule="nonzero"/></clipPath></defs><rect x="-37.5" width="450" fill="#ffffff" y="-37.499999" height="449.999989" fill-opacity="1"/><rect x="-37.5" width="450" fill="#ffffff" y="-37.499999" height="449.999989" fill-opacity="1"/><g clip-path="url(#id1)"><g clip-path="url(#id2)"><g clip-path="url(#id3)"><path fill="#403737" d="M 292.410156 291.835938 C 229.46875 349.167969 131.546875 344.597656 74.214844 281.65625 C 16.882812 218.710938 21.449219 120.789062 84.394531 63.457031 C 147.339844 6.125 245.257812 10.691406 302.589844 73.636719 C 359.925781 136.582031 355.355469 234.5 292.410156 291.835938 Z M 85.929688 65.144531 C 23.886719 121.65625 19.390625 218.074219 75.902344 280.117188 C 132.414062 342.160156 228.832031 346.660156 290.875 290.148438 C 352.917969 233.632812 357.417969 137.21875 300.902344 75.171875 C 244.390625 13.128906 147.976562 8.632812 85.929688 65.144531 Z M 85.929688 65.144531 " fill-opacity="1" fill-rule="nonzero"/></g></g></g><g clip-path="url(#id4)"><path fill="#000000" d="M 124.582031 209.917969 C 106.640625 209.917969 92.09375 195.402344 92.09375 177.496094 C 92.09375 159.585938 106.640625 145.066406 124.582031 145.066406 C 142.527344 145.066406 157.070312 159.585938 157.070312 177.496094 C 157.070312 195.402344 142.527344 209.917969 124.582031 209.917969 Z M 162.59375 187.632812 C 163.183594 185.433594 164.910156 183.714844 167.125 183.164062 L 173.683594 181.527344 C 173.792969 180.195312 173.847656 178.851562 173.847656 177.496094 C 173.847656 176.148438 173.792969 174.816406 173.6875 173.496094 L 167.128906 171.855469 C 164.914062 171.304688 163.1875 169.585938 162.601562 167.382812 C 162.597656 167.355469 162.589844 167.332031 162.582031 167.304688 C 161.992188 165.101562 162.625 162.757812 164.265625 161.175781 L 169.132812 156.476562 C 167.980469 154.042969 166.632812 151.71875 165.109375 149.527344 L 158.59375 151.382812 C 156.398438 152.007812 154.046875 151.382812 152.433594 149.769531 C 152.417969 149.75 152.398438 149.734375 152.382812 149.714844 C 150.769531 148.105469 150.140625 145.757812 150.769531 143.566406 L 152.632812 137.066406 C 150.4375 135.542969 148.109375 134.195312 145.675781 133.042969 L 140.964844 137.898438 C 139.375 139.535156 137.023438 140.167969 134.820312 139.574219 C 134.796875 139.566406 134.769531 139.558594 134.742188 139.554688 C 132.535156 138.964844 130.816406 137.242188 130.261719 135.03125 L 128.625 128.484375 C 127.292969 128.375 125.945312 128.320312 124.582031 128.320312 C 123.234375 128.320312 121.898438 128.375 120.578125 128.480469 L 118.933594 135.027344 C 118.378906 137.238281 116.660156 138.960938 114.453125 139.546875 C 114.425781 139.550781 114.398438 139.558594 114.375 139.566406 C 112.167969 140.15625 109.816406 139.523438 108.230469 137.886719 L 103.523438 133.027344 C 101.085938 134.179688 98.761719 135.523438 96.5625 137.042969 L 98.421875 143.546875 C 99.046875 145.738281 98.417969 148.085938 96.804688 149.695312 C 96.785156 149.710938 96.769531 149.730469 96.753906 149.746094 C 95.140625 151.359375 92.785156 151.984375 90.59375 151.355469 L 84.078125 149.496094 C 82.554688 151.6875 81.203125 154.007812 80.046875 156.441406 L 84.914062 161.144531 C 86.554688 162.726562 87.183594 165.074219 86.589844 167.273438 C 86.585938 167.300781 86.578125 167.328125 86.570312 167.355469 C 85.984375 169.554688 84.253906 171.269531 82.042969 171.824219 L 75.480469 173.460938 C 75.371094 174.792969 75.316406 176.136719 75.316406 177.496094 C 75.316406 178.839844 75.371094 180.171875 75.476562 181.488281 L 82.039062 183.132812 C 84.25 183.6875 85.976562 185.402344 86.5625 187.605469 C 86.570312 187.632812 86.578125 187.65625 86.582031 187.683594 C 87.175781 189.882812 86.542969 192.230469 84.902344 193.816406 L 80.03125 198.511719 C 81.1875 200.945312 82.53125 203.269531 84.054688 205.460938 L 90.570312 203.605469 C 92.765625 202.980469 95.121094 203.605469 96.730469 205.21875 C 96.75 205.238281 96.765625 205.253906 96.78125 205.273438 C 98.398438 206.882812 99.023438 209.230469 98.394531 211.421875 L 96.53125 217.921875 C 98.726562 219.445312 101.054688 220.789062 103.492188 221.945312 L 108.203125 217.089844 C 109.789062 215.453125 112.140625 214.820312 114.34375 215.414062 C 114.371094 215.421875 114.398438 215.425781 114.421875 215.433594 C 116.628906 216.019531 118.347656 217.746094 118.902344 219.953125 L 120.542969 226.503906 C 121.875 226.609375 123.222656 226.667969 124.582031 226.667969 C 125.929688 226.667969 127.265625 226.613281 128.585938 226.507812 L 130.230469 219.960938 C 130.785156 217.75 132.507812 216.027344 134.710938 215.441406 C 134.738281 215.433594 134.765625 215.429688 134.792969 215.421875 C 136.996094 214.832031 139.347656 215.464844 140.933594 217.101562 L 145.640625 221.960938 C 148.078125 220.808594 150.40625 219.464844 152.601562 217.945312 L 150.742188 211.441406 C 150.117188 209.25 150.746094 206.902344 152.363281 205.292969 C 152.378906 205.277344 152.394531 205.257812 152.414062 205.242188 C 154.027344 203.628906 156.378906 203.003906 158.574219 203.632812 L 165.089844 205.492188 C 166.613281 203.300781 167.960938 200.976562 169.117188 198.546875 L 164.253906 193.84375 C 162.613281 192.261719 161.980469 189.914062 162.574219 187.714844 C 162.582031 187.6875 162.589844 187.660156 162.59375 187.632812 " fill-opacity="1" fill-rule="nonzero"/></g><path fill="#000000" d="M 202.710938 153.5625 C 186.085938 153.5625 172.613281 140.113281 172.613281 123.527344 C 172.613281 106.9375 186.085938 93.488281 202.710938 93.488281 C 219.332031 93.488281 232.804688 106.9375 232.804688 123.527344 C 232.804688 140.113281 219.332031 153.5625 202.710938 153.5625 Z M 237.921875 132.917969 C 238.46875 130.878906 240.066406 129.289062 242.117188 128.777344 L 248.195312 127.261719 C 248.296875 126.03125 248.347656 124.785156 248.347656 123.527344 C 248.347656 122.28125 248.296875 121.046875 248.199219 119.824219 L 242.121094 118.304688 C 240.070312 117.789062 238.472656 116.199219 237.929688 114.160156 C 237.921875 114.136719 237.917969 114.109375 237.910156 114.085938 C 237.363281 112.046875 237.949219 109.875 239.46875 108.40625 L 243.980469 104.054688 C 242.910156 101.800781 241.660156 99.648438 240.253906 97.617188 L 234.214844 99.335938 C 232.183594 99.917969 230.003906 99.335938 228.511719 97.839844 C 228.496094 97.824219 228.476562 97.808594 228.460938 97.792969 C 226.96875 96.300781 226.386719 94.125 226.96875 92.097656 L 228.695312 86.074219 C 226.660156 84.664062 224.503906 83.417969 222.25 82.347656 L 217.882812 86.847656 C 216.414062 88.363281 214.234375 88.945312 212.195312 88.398438 C 212.167969 88.390625 212.144531 88.386719 212.121094 88.378906 C 210.078125 87.835938 208.484375 86.238281 207.972656 84.191406 L 206.453125 78.125 C 205.21875 78.023438 203.96875 77.972656 202.710938 77.972656 C 201.460938 77.972656 200.222656 78.023438 199 78.121094 L 197.476562 84.1875 C 196.964844 86.234375 195.371094 87.828125 193.324219 88.371094 C 193.300781 88.378906 193.277344 88.386719 193.25 88.390625 C 191.210938 88.9375 189.03125 88.351562 187.5625 86.835938 L 183.203125 82.332031 C 180.945312 83.398438 178.789062 84.644531 176.753906 86.054688 L 178.476562 92.078125 C 179.054688 94.109375 178.472656 96.28125 176.976562 97.773438 C 176.960938 97.789062 176.945312 97.804688 176.929688 97.820312 C 175.433594 99.3125 173.253906 99.890625 171.222656 99.3125 L 165.1875 97.589844 C 163.773438 99.621094 162.523438 101.769531 161.453125 104.023438 L 165.960938 108.378906 C 167.480469 109.847656 168.066406 112.019531 167.515625 114.058594 C 167.507812 114.082031 167.503906 114.109375 167.496094 114.132812 C 166.949219 116.171875 165.351562 117.761719 163.300781 118.273438 L 157.222656 119.789062 C 157.121094 121.023438 157.070312 122.269531 157.070312 123.527344 C 157.070312 124.773438 157.121094 126.007812 157.21875 127.226562 L 163.296875 128.746094 C 165.347656 129.261719 166.945312 130.851562 167.488281 132.890625 C 167.496094 132.914062 167.503906 132.941406 167.507812 132.964844 C 168.054688 135.003906 167.46875 137.175781 165.949219 138.644531 L 161.4375 142.996094 C 162.507812 145.25 163.757812 147.402344 165.167969 149.433594 L 171.203125 147.714844 C 173.234375 147.136719 175.414062 147.714844 176.90625 149.210938 C 176.925781 149.226562 176.941406 149.242188 176.957031 149.257812 C 178.453125 150.75 179.03125 152.925781 178.449219 154.953125 L 176.722656 160.976562 C 178.757812 162.386719 180.914062 163.632812 183.171875 164.703125 L 187.535156 160.203125 C 189.003906 158.6875 191.183594 158.105469 193.222656 158.652344 C 193.25 158.660156 193.273438 158.664062 193.300781 158.671875 C 195.34375 159.214844 196.933594 160.8125 197.445312 162.859375 L 198.964844 168.925781 C 200.199219 169.023438 201.449219 169.078125 202.710938 169.078125 C 203.957031 169.078125 205.195312 169.027344 206.417969 168.929688 L 207.941406 162.863281 C 208.453125 160.816406 210.050781 159.222656 212.09375 158.679688 C 212.117188 158.671875 212.140625 158.664062 212.167969 158.660156 C 214.207031 158.113281 216.386719 158.699219 217.855469 160.214844 L 222.214844 164.71875 C 224.472656 163.652344 226.628906 162.402344 228.667969 160.996094 L 226.945312 154.972656 C 226.363281 152.941406 226.945312 150.765625 228.441406 149.277344 C 228.457031 149.261719 228.472656 149.246094 228.488281 149.230469 C 229.984375 147.734375 232.164062 147.15625 234.199219 147.738281 L 240.230469 149.460938 C 241.644531 147.429688 242.894531 145.277344 243.964844 143.027344 L 239.457031 138.671875 C 237.9375 137.203125 237.351562 135.03125 237.902344 132.992188 C 237.910156 132.96875 237.917969 132.941406 237.921875 132.917969 " fill-opacity="1" fill-rule="nonzero"/><g clip-path="url(#id5)"><path fill="#000000" d="M 214.546875 277.691406 C 205.175781 277.691406 197.578125 270.109375 197.578125 260.753906 C 197.578125 251.402344 205.175781 243.816406 214.546875 243.816406 C 223.917969 243.816406 231.515625 251.402344 231.515625 260.753906 C 231.515625 270.109375 223.917969 277.691406 214.546875 277.691406 Z M 234.398438 266.050781 C 234.707031 264.902344 235.609375 264.003906 236.765625 263.71875 L 240.191406 262.863281 C 240.25 262.167969 240.277344 261.464844 240.277344 260.753906 C 240.277344 260.050781 240.25 259.355469 240.195312 258.667969 L 236.769531 257.8125 C 235.613281 257.519531 234.710938 256.625 234.40625 255.476562 C 234.402344 255.460938 234.398438 255.445312 234.394531 255.433594 C 234.085938 254.285156 234.414062 253.058594 235.273438 252.230469 L 237.816406 249.777344 C 237.214844 248.507812 236.507812 247.292969 235.714844 246.148438 L 232.308594 247.117188 C 231.164062 247.445312 229.933594 247.117188 229.09375 246.273438 C 229.085938 246.265625 229.074219 246.253906 229.066406 246.246094 C 228.222656 245.40625 227.894531 244.179688 228.222656 243.035156 L 229.199219 239.636719 C 228.050781 238.84375 226.835938 238.140625 225.5625 237.539062 L 223.101562 240.074219 C 222.273438 240.929688 221.042969 241.257812 219.894531 240.949219 C 219.878906 240.945312 219.867188 240.941406 219.851562 240.9375 C 218.699219 240.632812 217.800781 239.730469 217.511719 238.578125 L 216.65625 235.15625 C 215.960938 235.101562 215.257812 235.070312 214.546875 235.070312 C 213.839844 235.070312 213.144531 235.097656 212.453125 235.15625 L 211.59375 238.574219 C 211.304688 239.730469 210.40625 240.628906 209.253906 240.933594 C 209.242188 240.9375 209.226562 240.941406 209.214844 240.945312 C 208.0625 241.253906 206.832031 240.921875 206.003906 240.066406 L 203.546875 237.527344 C 202.273438 238.132812 201.058594 238.832031 199.910156 239.628906 L 200.878906 243.023438 C 201.207031 244.167969 200.878906 245.394531 200.035156 246.234375 C 200.027344 246.246094 200.019531 246.253906 200.007812 246.261719 C 199.167969 247.101562 197.9375 247.429688 196.792969 247.101562 L 193.386719 246.132812 C 192.59375 247.277344 191.886719 248.488281 191.285156 249.757812 L 193.824219 252.214844 C 194.683594 253.042969 195.011719 254.269531 194.703125 255.417969 C 194.699219 255.433594 194.695312 255.445312 194.691406 255.460938 C 194.382812 256.609375 193.480469 257.503906 192.324219 257.792969 L 188.898438 258.648438 C 188.84375 259.34375 188.8125 260.046875 188.8125 260.753906 C 188.8125 261.457031 188.839844 262.152344 188.898438 262.84375 L 192.324219 263.699219 C 193.480469 263.988281 194.378906 264.886719 194.6875 266.035156 C 194.691406 266.050781 194.695312 266.0625 194.699219 266.078125 C 195.007812 267.226562 194.675781 268.453125 193.820312 269.28125 L 191.273438 271.734375 C 191.878906 273.003906 192.582031 274.21875 193.375 275.363281 L 196.78125 274.394531 C 197.925781 274.066406 199.15625 274.394531 199.996094 275.238281 C 200.007812 275.246094 200.015625 275.253906 200.023438 275.265625 C 200.867188 276.105469 201.195312 277.332031 200.867188 278.476562 L 199.894531 281.871094 C 201.039062 282.667969 202.257812 283.371094 203.527344 283.972656 L 205.988281 281.4375 C 206.816406 280.582031 208.046875 280.253906 209.199219 280.5625 C 209.210938 280.566406 209.226562 280.570312 209.238281 280.574219 C 210.390625 280.878906 211.289062 281.777344 211.578125 282.933594 L 212.433594 286.355469 C 213.128906 286.410156 213.835938 286.441406 214.546875 286.441406 C 215.25 286.441406 215.945312 286.410156 216.636719 286.355469 L 217.496094 282.9375 C 217.785156 281.78125 218.683594 280.882812 219.835938 280.578125 C 219.851562 280.574219 219.863281 280.570312 219.878906 280.566406 C 221.03125 280.257812 222.257812 280.585938 223.085938 281.441406 L 225.542969 283.980469 C 226.816406 283.378906 228.035156 282.675781 229.179688 281.882812 L 228.210938 278.484375 C 227.882812 277.34375 228.210938 276.117188 229.054688 275.273438 C 229.066406 275.265625 229.074219 275.257812 229.082031 275.25 C 229.925781 274.40625 231.152344 274.082031 232.300781 274.40625 L 235.703125 275.378906 C 236.5 274.234375 237.203125 273.023438 237.808594 271.75 L 235.265625 269.296875 C 234.410156 268.46875 234.078125 267.242188 234.390625 266.09375 C 234.394531 266.078125 234.398438 266.066406 234.398438 266.050781 " fill-opacity="1" fill-rule="nonzero"/></g><g clip-path="url(#id6)"><path fill="#000000" d="M 257.394531 230.199219 C 239.449219 230.199219 224.90625 215.679688 224.90625 197.773438 C 224.90625 179.863281 239.449219 165.347656 257.394531 165.347656 C 275.335938 165.347656 289.878906 179.863281 289.878906 197.773438 C 289.878906 215.679688 275.335938 230.199219 257.394531 230.199219 Z M 295.40625 207.914062 C 295.992188 205.710938 297.71875 203.996094 299.933594 203.441406 L 306.496094 201.804688 C 306.605469 200.476562 306.660156 199.132812 306.660156 197.773438 C 306.660156 196.425781 306.605469 195.09375 306.5 193.777344 L 299.9375 192.136719 C 297.726562 191.582031 296 189.863281 295.414062 187.664062 C 295.40625 187.636719 295.398438 187.609375 295.390625 187.582031 C 294.800781 185.382812 295.433594 183.035156 297.074219 181.453125 L 301.945312 176.753906 C 300.789062 174.320312 299.441406 172 297.921875 169.804688 L 291.40625 171.660156 C 289.210938 172.285156 286.855469 171.660156 285.246094 170.046875 C 285.226562 170.027344 285.210938 170.011719 285.191406 169.996094 C 283.578125 168.386719 282.953125 166.035156 283.582031 163.847656 L 285.445312 157.34375 C 283.25 155.824219 280.921875 154.476562 278.484375 153.320312 L 273.773438 158.179688 C 272.1875 159.816406 269.835938 160.445312 267.632812 159.851562 C 267.605469 159.847656 267.578125 159.839844 267.550781 159.832031 C 265.347656 159.246094 263.625 157.523438 263.074219 155.3125 L 261.433594 148.765625 C 260.101562 148.65625 258.753906 148.601562 257.394531 148.601562 C 256.042969 148.601562 254.710938 148.65625 253.390625 148.761719 L 251.746094 155.308594 C 251.191406 157.519531 249.46875 159.238281 247.261719 159.824219 C 247.238281 159.832031 247.210938 159.839844 247.183594 159.847656 C 244.980469 160.433594 242.628906 159.804688 241.042969 158.164062 L 236.335938 153.304688 C 233.898438 154.457031 231.570312 155.800781 229.371094 157.324219 L 231.230469 163.828125 C 231.855469 166.015625 231.230469 168.367188 229.613281 169.972656 C 229.597656 169.992188 229.578125 170.007812 229.5625 170.023438 C 227.949219 171.636719 225.59375 172.261719 223.402344 171.632812 L 216.886719 169.773438 C 215.363281 171.964844 214.015625 174.289062 212.855469 176.722656 L 217.722656 181.421875 C 219.363281 183.007812 219.992188 185.355469 219.402344 187.554688 C 219.394531 187.582031 219.386719 187.609375 219.378906 187.632812 C 218.792969 189.835938 217.066406 191.550781 214.851562 192.101562 L 208.289062 193.738281 C 208.183594 195.070312 208.125 196.414062 208.125 197.773438 C 208.125 199.117188 208.179688 200.453125 208.289062 201.769531 L 214.847656 203.410156 C 217.0625 203.964844 218.785156 205.679688 219.371094 207.882812 C 219.378906 207.910156 219.386719 207.9375 219.394531 207.960938 C 219.984375 210.164062 219.351562 212.511719 217.710938 214.09375 L 212.839844 218.789062 C 213.996094 221.222656 215.34375 223.546875 216.867188 225.742188 L 223.382812 223.882812 C 225.574219 223.257812 227.929688 223.886719 229.539062 225.5 C 229.558594 225.515625 229.574219 225.535156 229.59375 225.550781 C 231.207031 227.160156 231.832031 229.507812 231.203125 231.699219 L 229.339844 238.203125 C 231.539062 239.722656 233.863281 241.070312 236.300781 242.222656 L 241.011719 237.367188 C 242.597656 235.730469 244.949219 235.101562 247.15625 235.691406 C 247.179688 235.699219 247.207031 235.707031 247.234375 235.714844 C 249.4375 236.300781 251.160156 238.023438 251.710938 240.234375 L 253.351562 246.78125 C 254.683594 246.890625 256.03125 246.945312 257.394531 246.945312 C 258.742188 246.945312 260.074219 246.890625 261.398438 246.785156 L 263.042969 240.238281 C 263.59375 238.027344 265.316406 236.304688 267.523438 235.722656 C 267.550781 235.714844 267.574219 235.707031 267.601562 235.699219 C 269.808594 235.109375 272.15625 235.742188 273.742188 237.378906 L 278.449219 242.242188 C 280.886719 241.089844 283.214844 239.742188 285.414062 238.222656 L 283.554688 231.71875 C 282.929688 229.53125 283.554688 227.179688 285.171875 225.574219 C 285.1875 225.554688 285.207031 225.539062 285.222656 225.519531 C 286.835938 223.910156 289.191406 223.285156 291.382812 223.910156 L 297.898438 225.773438 C 299.421875 223.578125 300.773438 221.257812 301.929688 218.824219 L 297.0625 214.125 C 295.421875 212.539062 294.792969 210.191406 295.382812 207.992188 C 295.390625 207.964844 295.398438 207.9375 295.40625 207.914062 " fill-opacity="1" fill-rule="nonzero"/></g><g clip-path="url(#id7)"><path fill="#000000" d="M 113.871094 117.449219 C 102.949219 117.449219 94.09375 108.613281 94.09375 97.710938 C 94.09375 86.8125 102.949219 77.972656 113.871094 77.972656 C 124.792969 77.972656 133.644531 86.8125 133.644531 97.710938 C 133.644531 108.613281 124.792969 117.449219 113.871094 117.449219 Z M 137.007812 103.882812 C 137.367188 102.542969 138.417969 101.5 139.765625 101.164062 L 143.757812 100.167969 C 143.824219 99.359375 143.859375 98.539062 143.859375 97.710938 C 143.859375 96.894531 143.828125 96.082031 143.761719 95.28125 L 139.769531 94.28125 C 138.421875 93.941406 137.371094 92.898438 137.011719 91.558594 C 137.007812 91.542969 137.003906 91.527344 137 91.507812 C 136.640625 90.167969 137.027344 88.742188 138.027344 87.777344 L 140.988281 84.917969 C 140.285156 83.4375 139.464844 82.023438 138.539062 80.6875 L 134.574219 81.816406 C 133.238281 82.195312 131.804688 81.816406 130.824219 80.835938 C 130.8125 80.824219 130.804688 80.8125 130.792969 80.804688 C 129.808594 79.824219 129.429688 78.394531 129.8125 77.058594 L 130.945312 73.101562 C 129.609375 72.175781 128.191406 71.355469 126.710938 70.652344 L 123.839844 73.609375 C 122.875 74.605469 121.445312 74.988281 120.101562 74.628906 C 120.085938 74.625 120.070312 74.621094 120.054688 74.617188 C 118.710938 74.257812 117.664062 73.210938 117.328125 71.863281 L 116.328125 67.878906 C 115.519531 67.8125 114.699219 67.777344 113.871094 67.777344 C 113.050781 67.777344 112.238281 67.8125 111.433594 67.875 L 110.429688 71.863281 C 110.09375 73.207031 109.046875 74.253906 107.703125 74.613281 C 107.6875 74.617188 107.671875 74.621094 107.65625 74.625 C 106.3125 74.984375 104.882812 74.597656 103.914062 73.601562 L 101.050781 70.644531 C 99.566406 71.34375 98.152344 72.164062 96.8125 73.089844 L 97.945312 77.046875 C 98.324219 78.382812 97.941406 79.808594 96.960938 80.789062 C 96.949219 80.800781 96.9375 80.8125 96.929688 80.820312 C 95.945312 81.804688 94.515625 82.183594 93.179688 81.800781 L 89.210938 80.667969 C 88.285156 82.003906 87.460938 83.417969 86.761719 84.898438 L 89.722656 87.757812 C 90.71875 88.722656 91.105469 90.152344 90.742188 91.492188 C 90.738281 91.507812 90.734375 91.523438 90.730469 91.539062 C 90.371094 92.878906 89.320312 93.925781 87.972656 94.261719 L 83.980469 95.257812 C 83.914062 96.066406 83.878906 96.886719 83.878906 97.710938 C 83.878906 98.53125 83.914062 99.34375 83.976562 100.144531 L 87.96875 101.144531 C 89.316406 101.480469 90.367188 102.527344 90.726562 103.867188 C 90.730469 103.882812 90.734375 103.898438 90.738281 103.914062 C 91.097656 105.253906 90.710938 106.683594 89.714844 107.648438 L 86.75 110.507812 C 87.453125 111.988281 88.273438 113.402344 89.199219 114.738281 L 93.167969 113.605469 C 94.5 113.226562 95.933594 113.609375 96.914062 114.589844 C 96.925781 114.601562 96.9375 114.609375 96.945312 114.621094 C 97.929688 115.601562 98.3125 117.03125 97.929688 118.363281 L 96.792969 122.320312 C 98.128906 123.25 99.546875 124.066406 101.03125 124.769531 L 103.898438 121.816406 C 104.863281 120.816406 106.296875 120.433594 107.636719 120.792969 C 107.652344 120.796875 107.667969 120.804688 107.6875 120.808594 C 109.027344 121.164062 110.074219 122.214844 110.410156 123.558594 L 111.410156 127.546875 C 112.21875 127.613281 113.039062 127.644531 113.871094 127.644531 C 114.691406 127.644531 115.503906 127.613281 116.308594 127.546875 L 117.308594 123.5625 C 117.644531 122.214844 118.691406 121.167969 120.035156 120.8125 C 120.050781 120.808594 120.066406 120.804688 120.085938 120.796875 C 121.425781 120.441406 122.859375 120.824219 123.824219 121.820312 L 126.6875 124.78125 C 128.171875 124.078125 129.589844 123.261719 130.925781 122.335938 L 129.792969 118.375 C 129.414062 117.042969 129.796875 115.613281 130.78125 114.632812 C 130.789062 114.625 130.800781 114.613281 130.808594 114.601562 C 131.792969 113.621094 133.226562 113.242188 134.5625 113.621094 L 138.527344 114.753906 C 139.453125 113.421875 140.277344 112.007812 140.980469 110.527344 L 138.015625 107.664062 C 137.019531 106.699219 136.636719 105.273438 136.996094 103.933594 C 137 103.917969 137.003906 103.902344 137.007812 103.882812 " fill-opacity="1" fill-rule="nonzero"/></g><g fill="#403737" fill-opacity="1"><g transform="translate(176.726382, 32.924223)"><g><path d="M 2.828125 -9.90625 L 3.0625 -1.515625 C 3.070312 -1.296875 3.148438 -1.125 3.296875 -1 C 3.441406 -0.875 3.628906 -0.816406 3.859375 -0.828125 L 6.09375 -0.890625 C 6.644531 -0.910156 7.109375 -1.054688 7.484375 -1.328125 C 7.867188 -1.597656 8.128906 -1.988281 8.265625 -2.5 C 8.304688 -2.65625 8.40625 -2.734375 8.5625 -2.734375 C 8.726562 -2.742188 8.804688 -2.660156 8.796875 -2.484375 L 8.59375 -0.875 C 8.570312 -0.695312 8.503906 -0.546875 8.390625 -0.421875 C 8.273438 -0.296875 8.117188 -0.226562 7.921875 -0.21875 L 2.421875 -0.0625 L 0.6875 0.046875 C 0.539062 0.046875 0.460938 -0.0195312 0.453125 -0.15625 C 0.453125 -0.300781 0.507812 -0.375 0.625 -0.375 L 1.0625 -0.421875 C 1.269531 -0.453125 1.441406 -0.519531 1.578125 -0.625 C 1.710938 -0.738281 1.773438 -0.882812 1.765625 -1.0625 L 1.515625 -9.859375 C 1.503906 -10.222656 1.257812 -10.421875 0.78125 -10.453125 L 0.34375 -10.484375 C 0.226562 -10.503906 0.171875 -10.570312 0.171875 -10.6875 C 0.160156 -10.832031 0.226562 -10.90625 0.375 -10.90625 L 2.109375 -10.890625 L 3.640625 -11 C 3.796875 -11.007812 3.878906 -10.953125 3.890625 -10.828125 C 3.890625 -10.679688 3.820312 -10.597656 3.6875 -10.578125 L 3.4375 -10.53125 C 3.019531 -10.445312 2.816406 -10.238281 2.828125 -9.90625 Z M 2.828125 -9.90625 "/></g></g></g><g fill="#403737" fill-opacity="1"><g transform="translate(193.367119, 32.873003)"><g><path d="M 8.203125 0.71875 L 2.40625 0.21875 L 0.6875 0.125 C 0.539062 0.113281 0.472656 0.0390625 0.484375 -0.09375 C 0.492188 -0.238281 0.554688 -0.304688 0.671875 -0.296875 L 1.109375 -0.296875 C 1.316406 -0.296875 1.492188 -0.34375 1.640625 -0.4375 C 1.785156 -0.539062 1.867188 -0.679688 1.890625 -0.859375 L 2.65625 -9.625 C 2.6875 -9.976562 2.46875 -10.195312 2 -10.28125 L 1.5625 -10.359375 C 1.445312 -10.367188 1.394531 -10.441406 1.40625 -10.578125 C 1.414062 -10.722656 1.492188 -10.789062 1.640625 -10.78125 L 3.359375 -10.5625 L 8.84375 -10.078125 C 9.039062 -10.066406 9.191406 -9.992188 9.296875 -9.859375 C 9.410156 -9.734375 9.46875 -9.578125 9.46875 -9.390625 L 9.5625 -7.96875 C 9.570312 -7.789062 9.492188 -7.707031 9.328125 -7.71875 C 9.160156 -7.738281 9.054688 -7.828125 9.015625 -7.984375 C 8.910156 -8.503906 8.707031 -8.875 8.40625 -9.09375 C 8.113281 -9.320312 7.695312 -9.460938 7.15625 -9.515625 L 4.75 -9.71875 C 4.519531 -9.738281 4.328125 -9.691406 4.171875 -9.578125 C 4.023438 -9.472656 3.941406 -9.304688 3.921875 -9.078125 L 3.640625 -5.828125 C 3.617188 -5.703125 3.675781 -5.632812 3.8125 -5.625 L 6.671875 -5.375 C 6.816406 -5.363281 6.9375 -5.390625 7.03125 -5.453125 C 7.125 -5.515625 7.1875 -5.570312 7.21875 -5.625 C 7.25 -5.6875 7.296875 -5.800781 7.359375 -5.96875 L 7.4375 -6.15625 C 7.476562 -6.269531 7.554688 -6.320312 7.671875 -6.3125 C 7.796875 -6.300781 7.851562 -6.226562 7.84375 -6.09375 L 7.671875 -4.78125 L 7.625 -3.53125 C 7.601562 -3.394531 7.523438 -3.320312 7.390625 -3.3125 C 7.273438 -3.320312 7.210938 -3.390625 7.203125 -3.515625 L 7.1875 -3.8125 C 7.132812 -4.351562 6.941406 -4.640625 6.609375 -4.671875 L 3.734375 -4.921875 C 3.609375 -4.929688 3.539062 -4.863281 3.53125 -4.71875 L 3.21875 -1.140625 C 3.195312 -0.921875 3.25 -0.742188 3.375 -0.609375 C 3.507812 -0.472656 3.691406 -0.394531 3.921875 -0.375 L 6.453125 -0.15625 C 6.984375 -0.101562 7.453125 -0.191406 7.859375 -0.421875 C 8.273438 -0.648438 8.582031 -1.003906 8.78125 -1.484375 C 8.84375 -1.640625 8.929688 -1.710938 9.046875 -1.703125 C 9.171875 -1.691406 9.253906 -1.65625 9.296875 -1.59375 C 9.335938 -1.53125 9.351562 -1.46875 9.34375 -1.40625 L 8.953125 0.15625 C 8.910156 0.332031 8.820312 0.472656 8.6875 0.578125 C 8.550781 0.691406 8.390625 0.738281 8.203125 0.71875 Z M 8.203125 0.71875 "/></g></g></g><g fill="#403737" fill-opacity="1"><g transform="translate(210.492569, 34.804765)"><g><path d="M 4.328125 -3.421875 L 7.703125 -2.703125 C 7.804688 -2.671875 7.847656 -2.722656 7.828125 -2.859375 L 7.046875 -7.875 L 4.234375 -3.609375 C 4.179688 -3.503906 4.210938 -3.441406 4.328125 -3.421875 Z M 2.25 -0.5625 C 2.207031 -0.507812 2.175781 -0.445312 2.15625 -0.375 C 2.144531 -0.300781 2.171875 -0.203125 2.234375 -0.078125 C 2.296875 0.0351562 2.390625 0.113281 2.515625 0.15625 L 2.859375 0.25 C 2.984375 0.289062 3.035156 0.367188 3.015625 0.484375 C 2.984375 0.628906 2.890625 0.6875 2.734375 0.65625 L 1.4375 0.3125 L 0.046875 0.078125 C -0.0976562 0.046875 -0.15625 -0.0351562 -0.125 -0.171875 C -0.09375 -0.304688 -0.0195312 -0.363281 0.09375 -0.34375 L 0.390625 -0.3125 C 0.828125 -0.269531 1.160156 -0.414062 1.390625 -0.75 L 7.34375 -9.484375 C 7.40625 -9.597656 7.53125 -9.632812 7.71875 -9.59375 C 7.914062 -9.550781 8.03125 -9.46875 8.0625 -9.34375 L 9.890625 1.078125 C 9.929688 1.472656 10.171875 1.738281 10.609375 1.875 L 10.921875 1.984375 C 10.960938 1.992188 10.992188 2.019531 11.015625 2.0625 C 11.035156 2.101562 11.039062 2.144531 11.03125 2.1875 C 11 2.34375 10.910156 2.40625 10.765625 2.375 L 9.046875 1.9375 L 7.46875 1.671875 C 7.320312 1.640625 7.265625 1.5625 7.296875 1.4375 C 7.328125 1.289062 7.40625 1.226562 7.53125 1.25 L 7.890625 1.296875 C 8.015625 1.316406 8.128906 1.285156 8.234375 1.203125 C 8.347656 1.128906 8.410156 1.050781 8.421875 0.96875 C 8.441406 0.894531 8.445312 0.828125 8.4375 0.765625 L 8.015625 -1.75 C 8.015625 -1.851562 7.953125 -1.921875 7.828125 -1.953125 L 3.90625 -2.796875 C 3.789062 -2.816406 3.695312 -2.78125 3.625 -2.6875 Z M 2.25 -0.5625 "/></g></g></g><g fill="#403737" fill-opacity="1"><g transform="translate(228.472388, 39.127828)"><g><path d="M 8.59375 -8.4375 C 10.144531 -7.894531 11.222656 -7.007812 11.828125 -5.78125 C 12.429688 -4.5625 12.46875 -3.207031 11.9375 -1.71875 C 11.414062 -0.226562 10.492188 0.851562 9.171875 1.53125 C 7.859375 2.207031 6.460938 2.285156 4.984375 1.765625 L 2.453125 0.875 L 0.609375 0.3125 C 0.472656 0.257812 0.425781 0.164062 0.46875 0.03125 C 0.519531 -0.101562 0.601562 -0.148438 0.71875 -0.109375 L 1.140625 0 C 1.347656 0.0507812 1.53125 0.0507812 1.6875 0 C 1.851562 -0.0625 1.960938 -0.175781 2.015625 -0.34375 L 4.953125 -8.65625 C 5.078125 -9 4.921875 -9.269531 4.484375 -9.46875 L 4.09375 -9.65625 C 3.988281 -9.71875 3.953125 -9.800781 3.984375 -9.90625 C 4.035156 -10.039062 4.128906 -10.082031 4.265625 -10.03125 L 6.0625 -9.328125 Z M 10.6875 -5.265625 C 10.550781 -5.828125 10.28125 -6.328125 9.875 -6.765625 C 9.476562 -7.210938 8.960938 -7.550781 8.328125 -7.78125 L 7.015625 -8.234375 C 6.796875 -8.316406 6.601562 -8.320312 6.4375 -8.25 C 6.269531 -8.1875 6.144531 -8.046875 6.0625 -7.828125 L 3.40625 -0.3125 C 3.332031 -0.101562 3.335938 0.0820312 3.421875 0.25 C 3.515625 0.414062 3.671875 0.539062 3.890625 0.625 L 5.265625 1.109375 C 6.378906 1.492188 7.40625 1.421875 8.34375 0.890625 C 9.289062 0.367188 9.976562 -0.5 10.40625 -1.71875 C 10.84375 -2.945312 10.9375 -4.128906 10.6875 -5.265625 Z M 10.6875 -5.265625 "/></g></g></g><g fill="#403737" fill-opacity="1"><g transform="translate(246.095811, 45.895587)"><g><path d="M 7.359375 3.6875 L 2.171875 1.078125 L 0.578125 0.375 C 0.453125 0.300781 0.421875 0.195312 0.484375 0.0625 C 0.546875 -0.0625 0.628906 -0.0976562 0.734375 -0.046875 L 1.140625 0.140625 C 1.335938 0.210938 1.519531 0.226562 1.6875 0.1875 C 1.851562 0.144531 1.976562 0.046875 2.0625 -0.109375 L 6 -7.984375 C 6.15625 -8.304688 6.03125 -8.59375 5.625 -8.84375 L 5.265625 -9.078125 C 5.160156 -9.128906 5.140625 -9.21875 5.203125 -9.34375 C 5.265625 -9.46875 5.359375 -9.492188 5.484375 -9.421875 L 7.015625 -8.609375 L 11.921875 -6.140625 C 12.097656 -6.054688 12.210938 -5.929688 12.265625 -5.765625 C 12.328125 -5.609375 12.328125 -5.445312 12.265625 -5.28125 L 11.8125 -3.90625 C 11.757812 -3.726562 11.660156 -3.675781 11.515625 -3.75 C 11.367188 -3.832031 11.300781 -3.957031 11.3125 -4.125 C 11.40625 -4.644531 11.351562 -5.066406 11.15625 -5.390625 C 10.96875 -5.710938 10.628906 -5.992188 10.140625 -6.234375 L 7.984375 -7.3125 C 7.773438 -7.414062 7.582031 -7.441406 7.40625 -7.390625 C 7.226562 -7.335938 7.085938 -7.210938 6.984375 -7.015625 L 5.53125 -4.109375 C 5.46875 -3.984375 5.5 -3.890625 5.625 -3.828125 L 8.1875 -2.546875 C 8.320312 -2.484375 8.441406 -2.460938 8.546875 -2.484375 C 8.648438 -2.515625 8.726562 -2.550781 8.78125 -2.59375 C 8.84375 -2.632812 8.929688 -2.71875 9.046875 -2.84375 L 9.203125 -3 C 9.265625 -3.09375 9.347656 -3.113281 9.453125 -3.0625 C 9.566406 -3.007812 9.597656 -2.921875 9.546875 -2.796875 L 8.890625 -1.625 L 8.390625 -0.5 C 8.328125 -0.375 8.226562 -0.328125 8.09375 -0.359375 C 7.988281 -0.410156 7.957031 -0.5 8 -0.625 L 8.09375 -0.90625 C 8.25 -1.4375 8.175781 -1.773438 7.875 -1.921875 L 5.296875 -3.21875 C 5.179688 -3.269531 5.09375 -3.226562 5.03125 -3.09375 L 3.421875 0.125 C 3.316406 0.3125 3.300781 0.492188 3.375 0.671875 C 3.445312 0.847656 3.585938 0.988281 3.796875 1.09375 L 6.078125 2.234375 C 6.546875 2.472656 7.007812 2.5625 7.46875 2.5 C 7.9375 2.4375 8.351562 2.207031 8.71875 1.8125 C 8.832031 1.707031 8.941406 1.679688 9.046875 1.734375 C 9.160156 1.785156 9.222656 1.847656 9.234375 1.921875 C 9.253906 1.992188 9.242188 2.050781 9.203125 2.09375 L 8.265625 3.421875 C 8.160156 3.566406 8.023438 3.664062 7.859375 3.71875 C 7.691406 3.78125 7.523438 3.769531 7.359375 3.6875 Z M 7.359375 3.6875 "/></g></g></g><g fill="#403737" fill-opacity="1"><g transform="translate(261.323911, 53.990409)"><g><path d="M 9.359375 -1.515625 C 9.972656 -1.585938 10.457031 -1.894531 10.8125 -2.4375 C 11.175781 -2.976562 11.265625 -3.539062 11.078125 -4.125 C 10.898438 -4.707031 10.507812 -5.195312 9.90625 -5.59375 L 8.6875 -6.390625 C 8.34375 -6.617188 8.0625 -6.5625 7.84375 -6.21875 L 5.921875 -3.3125 C 5.847656 -3.195312 5.859375 -3.109375 5.953125 -3.046875 L 7.546875 -2 C 8.140625 -1.613281 8.742188 -1.453125 9.359375 -1.515625 Z M 10.734375 -5.890625 C 11.554688 -5.335938 12.09375 -4.675781 12.34375 -3.90625 C 12.59375 -3.132812 12.488281 -2.40625 12.03125 -1.71875 C 11.582031 -1.03125 10.945312 -0.628906 10.125 -0.515625 C 9.3125 -0.410156 8.578125 -0.5625 7.921875 -0.96875 L 7.890625 -0.953125 C 8.023438 -0.773438 8.09375 -0.566406 8.09375 -0.328125 L 8 4.0625 C 7.976562 4.476562 8.148438 4.84375 8.515625 5.15625 L 8.71875 5.328125 C 8.820312 5.410156 8.84375 5.503906 8.78125 5.609375 C 8.695312 5.722656 8.585938 5.738281 8.453125 5.65625 C 7.648438 5.070312 7.148438 4.710938 6.953125 4.578125 C 6.753906 4.453125 6.65625 4.265625 6.65625 4.015625 L 6.859375 -1.046875 C 6.867188 -1.429688 6.769531 -1.691406 6.5625 -1.828125 C 6.5625 -1.828125 6.554688 -1.832031 6.546875 -1.84375 L 5.625 -2.453125 C 5.488281 -2.535156 5.390625 -2.523438 5.328125 -2.421875 L 3.15625 0.875 C 3.050781 1.019531 3.023438 1.175781 3.078125 1.34375 C 3.128906 1.507812 3.238281 1.648438 3.40625 1.765625 L 3.921875 2.15625 C 4.015625 2.21875 4.019531 2.304688 3.9375 2.421875 C 3.863281 2.535156 3.765625 2.550781 3.640625 2.46875 L 2.0625 1.359375 L 0.609375 0.46875 C 0.492188 0.394531 0.457031 0.300781 0.5 0.1875 C 0.582031 0.0703125 0.679688 0.0390625 0.796875 0.09375 L 1.1875 0.3125 C 1.550781 0.519531 1.84375 0.460938 2.0625 0.140625 L 6.90625 -7.203125 C 7.101562 -7.503906 7.019531 -7.804688 6.65625 -8.109375 L 6.296875 -8.375 C 6.210938 -8.457031 6.203125 -8.546875 6.265625 -8.640625 C 6.347656 -8.765625 6.453125 -8.789062 6.578125 -8.71875 L 8.3125 -7.484375 Z M 10.734375 -5.890625 "/></g></g></g><g fill="#403737" fill-opacity="1"><g transform="translate(275.857279, 64.237037)"><g/></g></g><g fill="#403737" fill-opacity="1"><g transform="translate(284.334023, 71.417441)"><g><path d="M 10.703125 -3.0625 L 4.59375 3.109375 C 4.46875 3.234375 4.414062 3.382812 4.4375 3.5625 C 4.457031 3.738281 4.53125 3.898438 4.65625 4.046875 L 4.953125 4.40625 C 5.035156 4.488281 5.03125 4.578125 4.9375 4.671875 C 4.894531 4.710938 4.84375 4.734375 4.78125 4.734375 C 4.71875 4.734375 4.664062 4.710938 4.625 4.671875 L 3.4375 3.390625 L 2.015625 2.09375 C 1.984375 2.050781 1.960938 2 1.953125 1.9375 C 1.953125 1.875 1.972656 1.820312 2.015625 1.78125 C 2.109375 1.6875 2.203125 1.679688 2.296875 1.765625 L 2.734375 2.140625 C 2.890625 2.273438 3.050781 2.347656 3.21875 2.359375 C 3.382812 2.367188 3.53125 2.3125 3.65625 2.1875 L 9.765625 -3.984375 C 9.953125 -4.179688 9.957031 -4.363281 9.78125 -4.53125 L 8.859375 -5.46875 C 8.492188 -5.8125 8.113281 -5.988281 7.71875 -6 C 7.332031 -6.019531 6.894531 -5.894531 6.40625 -5.625 C 6.25 -5.550781 6.128906 -5.550781 6.046875 -5.625 C 5.972656 -5.707031 5.9375 -5.785156 5.9375 -5.859375 C 5.945312 -5.941406 5.972656 -6.003906 6.015625 -6.046875 L 7.515625 -7.375 C 7.671875 -7.507812 7.820312 -7.5 7.96875 -7.34375 L 14.046875 -1.328125 C 14.203125 -1.171875 14.207031 -1 14.0625 -0.8125 L 12.8125 0.671875 C 12.757812 0.734375 12.695312 0.765625 12.625 0.765625 C 12.550781 0.765625 12.472656 0.722656 12.390625 0.640625 C 12.316406 0.566406 12.316406 0.453125 12.390625 0.296875 C 12.628906 -0.222656 12.742188 -0.675781 12.734375 -1.0625 C 12.722656 -1.445312 12.539062 -1.816406 12.1875 -2.171875 L 11.265625 -3.078125 C 11.078125 -3.265625 10.890625 -3.257812 10.703125 -3.0625 Z M 10.703125 -3.0625 "/></g></g></g><g fill="#403737" fill-opacity="1"><g transform="translate(296.159632, 83.657161)"><g><path d="M 12.484375 -1.890625 C 13.484375 -0.617188 13.878906 0.722656 13.671875 2.140625 C 13.472656 3.566406 12.726562 4.78125 11.4375 5.78125 C 10.15625 6.789062 8.785156 7.222656 7.328125 7.078125 C 5.867188 6.929688 4.644531 6.226562 3.65625 4.96875 C 2.675781 3.71875 2.289062 2.367188 2.5 0.921875 C 2.71875 -0.515625 3.460938 -1.726562 4.734375 -2.71875 C 6.015625 -3.71875 7.375 -4.144531 8.8125 -4 C 10.257812 -3.863281 11.484375 -3.160156 12.484375 -1.890625 Z M 12.453125 2 C 12.679688 1.4375 12.753906 0.851562 12.671875 0.25 C 12.585938 -0.351562 12.328125 -0.929688 11.890625 -1.484375 C 11.117188 -2.472656 10.21875 -3 9.1875 -3.0625 C 8.164062 -3.125 7.132812 -2.75 6.09375 -1.9375 C 5.007812 -1.082031 4.238281 -0.0859375 3.78125 1.046875 C 3.53125 1.617188 3.445312 2.210938 3.53125 2.828125 C 3.613281 3.453125 3.867188 4.035156 4.296875 4.578125 C 5.046875 5.546875 5.945312 6.050781 7 6.09375 C 8.050781 6.144531 9.109375 5.75 10.171875 4.90625 C 11.242188 4.070312 12.003906 3.101562 12.453125 2 Z M 12.453125 2 "/></g></g></g><g fill="#403737" fill-opacity="1"><g transform="translate(307.899683, 99.682015)"><g/></g></g><g fill="#403737" fill-opacity="1"><g transform="translate(313.588614, 109.230906)"><g><path d="M 10.171875 -1.59375 L 2.65625 2.140625 C 2.46875 2.242188 2.347656 2.382812 2.296875 2.5625 C 2.242188 2.738281 2.269531 2.929688 2.375 3.140625 L 3.359375 5.140625 C 3.609375 5.628906 3.9375 5.992188 4.34375 6.234375 C 4.75 6.472656 5.21875 6.539062 5.75 6.4375 C 5.90625 6.425781 6.019531 6.488281 6.09375 6.625 C 6.164062 6.769531 6.117188 6.875 5.953125 6.9375 L 4.40625 7.421875 C 4.238281 7.484375 4.070312 7.488281 3.90625 7.4375 C 3.738281 7.382812 3.613281 7.269531 3.53125 7.09375 L 1.078125 2.171875 L 0.25 0.640625 C 0.175781 0.515625 0.203125 0.421875 0.328125 0.359375 C 0.460938 0.296875 0.554688 0.316406 0.609375 0.421875 L 0.828125 0.796875 C 0.941406 0.972656 1.078125 1.097656 1.234375 1.171875 C 1.390625 1.242188 1.546875 1.238281 1.703125 1.15625 L 9.578125 -2.765625 C 9.898438 -2.929688 9.976562 -3.234375 9.8125 -3.671875 L 9.65625 -4.09375 C 9.625 -4.207031 9.65625 -4.285156 9.75 -4.328125 C 9.882812 -4.398438 9.988281 -4.375 10.0625 -4.25 L 10.765625 -2.65625 L 11.515625 -1.328125 C 11.578125 -1.179688 11.550781 -1.078125 11.4375 -1.015625 C 11.3125 -0.953125 11.21875 -0.984375 11.15625 -1.109375 L 11 -1.296875 C 10.75 -1.640625 10.472656 -1.738281 10.171875 -1.59375 Z M 10.171875 -1.59375 "/></g></g></g><g fill="#403737" fill-opacity="1"><g transform="translate(320.634223, 124.308978)"><g><path d="M 2.78125 7.75 L 0.8125 2.28125 L 0.171875 0.65625 C 0.117188 0.519531 0.160156 0.425781 0.296875 0.375 C 0.429688 0.332031 0.519531 0.367188 0.5625 0.484375 L 0.734375 0.890625 C 0.816406 1.078125 0.929688 1.210938 1.078125 1.296875 C 1.234375 1.390625 1.394531 1.40625 1.5625 1.34375 L 9.84375 -1.640625 C 10.1875 -1.765625 10.296875 -2.054688 10.171875 -2.515625 L 10.0625 -2.9375 C 10.019531 -3.050781 10.066406 -3.128906 10.203125 -3.171875 C 10.335938 -3.222656 10.429688 -3.179688 10.484375 -3.046875 L 11 -1.390625 L 12.875 3.78125 C 12.9375 3.96875 12.929688 4.140625 12.859375 4.296875 C 12.785156 4.453125 12.671875 4.566406 12.515625 4.640625 L 11.25 5.34375 C 11.09375 5.414062 10.984375 5.367188 10.921875 5.203125 C 10.867188 5.046875 10.90625 4.921875 11.03125 4.828125 C 11.445312 4.515625 11.695312 4.175781 11.78125 3.8125 C 11.875 3.445312 11.828125 3.007812 11.640625 2.5 L 10.828125 0.21875 C 10.753906 0.0078125 10.628906 -0.140625 10.453125 -0.234375 C 10.285156 -0.328125 10.09375 -0.335938 9.875 -0.265625 L 6.828125 0.84375 C 6.703125 0.882812 6.664062 0.96875 6.71875 1.09375 L 7.6875 3.8125 C 7.738281 3.945312 7.8125 4.039062 7.90625 4.09375 C 8 4.15625 8.078125 4.1875 8.140625 4.1875 C 8.210938 4.195312 8.335938 4.191406 8.515625 4.171875 L 8.71875 4.171875 C 8.84375 4.160156 8.925781 4.207031 8.96875 4.3125 C 9.007812 4.425781 8.960938 4.503906 8.828125 4.546875 L 7.546875 4.953125 L 6.40625 5.421875 C 6.28125 5.472656 6.179688 5.4375 6.109375 5.3125 C 6.078125 5.207031 6.113281 5.125 6.21875 5.0625 L 6.46875 4.921875 C 6.945312 4.660156 7.128906 4.375 7.015625 4.0625 L 6.03125 1.34375 C 5.988281 1.21875 5.898438 1.175781 5.765625 1.21875 L 2.390625 2.4375 C 2.179688 2.507812 2.039062 2.632812 1.96875 2.8125 C 1.90625 2.988281 1.910156 3.179688 1.984375 3.390625 L 2.84375 5.796875 C 3.019531 6.296875 3.296875 6.679688 3.671875 6.953125 C 4.054688 7.234375 4.515625 7.359375 5.046875 7.328125 C 5.210938 7.328125 5.316406 7.382812 5.359375 7.5 C 5.398438 7.613281 5.398438 7.703125 5.359375 7.765625 C 5.316406 7.828125 5.269531 7.863281 5.21875 7.875 L 3.609375 8.171875 C 3.441406 8.210938 3.28125 8.195312 3.125 8.125 C 2.96875 8.050781 2.851562 7.925781 2.78125 7.75 Z M 2.78125 7.75 "/></g></g></g><g fill="#403737" fill-opacity="1"><g transform="translate(326.07655, 140.661171)"><g><path d="M 4.921875 2.484375 L 5.671875 5.859375 C 5.703125 5.960938 5.773438 5.976562 5.890625 5.90625 L 10.109375 3.078125 L 5.046875 2.34375 C 4.929688 2.332031 4.890625 2.378906 4.921875 2.484375 Z M 1.4375 1.8125 C 1.382812 1.800781 1.320312 1.800781 1.25 1.8125 C 1.175781 1.832031 1.097656 1.890625 1.015625 1.984375 C 0.929688 2.085938 0.898438 2.207031 0.921875 2.34375 L 0.96875 2.703125 C 0.976562 2.828125 0.929688 2.90625 0.828125 2.9375 C 0.679688 2.96875 0.59375 2.910156 0.5625 2.765625 L 0.328125 1.4375 L -0.046875 0.078125 C -0.078125 -0.0664062 -0.0234375 -0.15625 0.109375 -0.1875 C 0.242188 -0.21875 0.320312 -0.175781 0.34375 -0.0625 L 0.4375 0.21875 C 0.59375 0.625 0.863281 0.867188 1.25 0.953125 L 11.6875 2.671875 C 11.820312 2.691406 11.910156 2.796875 11.953125 2.984375 C 12.003906 3.179688 11.972656 3.316406 11.859375 3.390625 L 3.171875 9.421875 C 2.828125 9.628906 2.6875 9.957031 2.75 10.40625 L 2.796875 10.734375 C 2.804688 10.773438 2.796875 10.816406 2.765625 10.859375 C 2.734375 10.898438 2.695312 10.925781 2.65625 10.9375 C 2.5 10.96875 2.40625 10.914062 2.375 10.78125 L 2.046875 9.015625 L 1.625 7.484375 C 1.59375 7.335938 1.640625 7.25 1.765625 7.21875 C 1.898438 7.1875 1.988281 7.234375 2.03125 7.359375 L 2.140625 7.6875 C 2.179688 7.820312 2.253906 7.921875 2.359375 7.984375 C 2.472656 8.054688 2.566406 8.082031 2.640625 8.0625 C 2.722656 8.050781 2.789062 8.023438 2.84375 7.984375 L 4.96875 6.546875 C 5.050781 6.492188 5.078125 6.40625 5.046875 6.28125 L 4.171875 2.375 C 4.140625 2.25 4.070312 2.175781 3.96875 2.15625 Z M 1.4375 1.8125 "/></g></g></g><g fill="#403737" fill-opacity="1"><g transform="translate(329.702585, 158.794281)"><g><path d="M 11.28125 4.234375 C 11.4375 5.878906 11.082031 7.234375 10.21875 8.296875 C 9.363281 9.359375 8.148438 9.960938 6.578125 10.109375 C 5.003906 10.265625 3.632812 9.882812 2.46875 8.96875 C 1.300781 8.0625 0.644531 6.820312 0.5 5.25 L 0.25 2.59375 L -0.015625 0.6875 C -0.0234375 0.539062 0.0351562 0.460938 0.171875 0.453125 C 0.316406 0.441406 0.394531 0.492188 0.40625 0.609375 L 0.46875 1.046875 C 0.507812 1.253906 0.59375 1.414062 0.71875 1.53125 C 0.84375 1.65625 0.992188 1.707031 1.171875 1.6875 L 9.9375 0.859375 C 10.300781 0.828125 10.476562 0.570312 10.46875 0.09375 L 10.484375 -0.34375 C 10.492188 -0.457031 10.554688 -0.519531 10.671875 -0.53125 C 10.816406 -0.550781 10.894531 -0.488281 10.90625 -0.34375 L 11.03125 1.578125 Z M 9.265625 7.5 C 9.710938 7.132812 10.054688 6.675781 10.296875 6.125 C 10.535156 5.570312 10.625 4.960938 10.5625 4.296875 L 10.421875 2.90625 C 10.398438 2.675781 10.320312 2.492188 10.1875 2.359375 C 10.0625 2.234375 9.878906 2.1875 9.640625 2.21875 L 1.71875 2.953125 C 1.5 2.972656 1.332031 3.0625 1.21875 3.21875 C 1.101562 3.375 1.054688 3.566406 1.078125 3.796875 L 1.21875 5.25 C 1.332031 6.425781 1.828125 7.328125 2.703125 7.953125 C 3.578125 8.585938 4.660156 8.84375 5.953125 8.71875 C 7.242188 8.601562 8.347656 8.195312 9.265625 7.5 Z M 9.265625 7.5 "/></g></g></g><g fill="#403737" fill-opacity="1"><g transform="translate(330.970065, 177.629442)"><g><path d="M -0.25 8.234375 L -0.078125 2.421875 L -0.078125 0.6875 C -0.078125 0.539062 -0.0078125 0.46875 0.125 0.46875 C 0.269531 0.476562 0.34375 0.539062 0.34375 0.65625 L 0.359375 1.09375 C 0.367188 1.300781 0.425781 1.472656 0.53125 1.609375 C 0.644531 1.742188 0.789062 1.816406 0.96875 1.828125 L 9.765625 2.09375 C 10.128906 2.101562 10.335938 1.867188 10.390625 1.390625 L 10.453125 0.953125 C 10.453125 0.835938 10.519531 0.78125 10.65625 0.78125 C 10.800781 0.789062 10.875 0.867188 10.875 1.015625 L 10.75 2.75 L 10.59375 8.25 C 10.582031 8.445312 10.515625 8.601562 10.390625 8.71875 C 10.273438 8.832031 10.125 8.898438 9.9375 8.921875 L 8.515625 9.09375 C 8.335938 9.101562 8.25 9.023438 8.25 8.859375 C 8.257812 8.691406 8.34375 8.585938 8.5 8.546875 C 9.007812 8.398438 9.367188 8.171875 9.578125 7.859375 C 9.785156 7.554688 9.898438 7.132812 9.921875 6.59375 L 10 4.171875 C 10 3.941406 9.9375 3.753906 9.8125 3.609375 C 9.695312 3.472656 9.523438 3.398438 9.296875 3.390625 L 6.046875 3.296875 C 5.910156 3.285156 5.84375 3.347656 5.84375 3.484375 L 5.75 6.359375 C 5.75 6.503906 5.78125 6.617188 5.84375 6.703125 C 5.914062 6.796875 5.984375 6.851562 6.046875 6.875 C 6.109375 6.90625 6.222656 6.953125 6.390625 7.015625 L 6.59375 7.078125 C 6.707031 7.109375 6.757812 7.179688 6.75 7.296875 C 6.75 7.421875 6.679688 7.484375 6.546875 7.484375 L 5.21875 7.375 L 3.96875 7.40625 C 3.832031 7.40625 3.753906 7.335938 3.734375 7.203125 C 3.742188 7.085938 3.8125 7.019531 3.9375 7 L 4.21875 6.953125 C 4.757812 6.878906 5.035156 6.675781 5.046875 6.34375 L 5.140625 3.453125 C 5.140625 3.328125 5.066406 3.265625 4.921875 3.265625 L 1.328125 3.15625 C 1.109375 3.144531 0.929688 3.207031 0.796875 3.34375 C 0.671875 3.476562 0.609375 3.660156 0.609375 3.890625 L 0.53125 6.4375 C 0.507812 6.96875 0.625 7.429688 0.875 7.828125 C 1.125 8.234375 1.5 8.515625 2 8.671875 C 2.15625 8.734375 2.234375 8.820312 2.234375 8.9375 C 2.234375 9.0625 2.203125 9.144531 2.140625 9.1875 C 2.078125 9.226562 2.015625 9.242188 1.953125 9.234375 L 0.359375 8.9375 C 0.179688 8.914062 0.0351562 8.835938 -0.078125 8.703125 C -0.191406 8.578125 -0.25 8.421875 -0.25 8.234375 Z M -0.25 8.234375 "/></g></g></g><g fill="#403737" fill-opacity="1"><g transform="translate(330.014626, 194.850419)"><g><path d="M 5.296875 7.84375 C 5.617188 8.375 6.101562 8.6875 6.75 8.78125 C 7.394531 8.882812 7.941406 8.726562 8.390625 8.3125 C 8.847656 7.90625 9.128906 7.347656 9.234375 6.640625 L 9.453125 5.203125 C 9.515625 4.796875 9.34375 4.5625 8.9375 4.5 L 5.5 3.984375 C 5.363281 3.960938 5.289062 4.007812 5.28125 4.125 L 4.984375 6 C 4.878906 6.707031 4.984375 7.320312 5.296875 7.84375 Z M 9.84375 7.265625 C 9.695312 8.242188 9.328125 9.003906 8.734375 9.546875 C 8.140625 10.097656 7.429688 10.3125 6.609375 10.1875 C 5.796875 10.0625 5.164062 9.648438 4.71875 8.953125 C 4.28125 8.265625 4.109375 7.539062 4.203125 6.78125 L 4.171875 6.765625 C 4.066406 6.960938 3.910156 7.109375 3.703125 7.203125 L -0.328125 8.96875 C -0.703125 9.125 -0.957031 9.429688 -1.09375 9.890625 L -1.171875 10.140625 C -1.210938 10.273438 -1.289062 10.332031 -1.40625 10.3125 C -1.550781 10.289062 -1.609375 10.203125 -1.578125 10.046875 C -1.390625 9.078125 -1.273438 8.472656 -1.234375 8.234375 C -1.203125 7.992188 -1.070312 7.820312 -0.84375 7.71875 L 3.84375 5.796875 C 4.1875 5.640625 4.375 5.4375 4.40625 5.1875 C 4.40625 5.1875 4.40625 5.179688 4.40625 5.171875 L 4.578125 4.078125 C 4.597656 3.921875 4.546875 3.832031 4.421875 3.8125 L 0.53125 3.234375 C 0.351562 3.203125 0.195312 3.242188 0.0625 3.359375 C -0.0625 3.472656 -0.140625 3.628906 -0.171875 3.828125 L -0.3125 4.453125 C -0.320312 4.566406 -0.394531 4.613281 -0.53125 4.59375 C -0.675781 4.570312 -0.738281 4.488281 -0.71875 4.34375 L -0.375 2.4375 L -0.171875 0.734375 C -0.148438 0.609375 -0.078125 0.546875 0.046875 0.546875 C 0.191406 0.566406 0.257812 0.632812 0.25 0.75 L 0.21875 1.203125 C 0.1875 1.628906 0.359375 1.875 0.734375 1.9375 L 9.4375 3.25 C 9.800781 3.300781 10.035156 3.09375 10.140625 2.625 L 10.25 2.203125 C 10.289062 2.085938 10.367188 2.039062 10.484375 2.0625 C 10.628906 2.082031 10.6875 2.164062 10.65625 2.3125 L 10.28125 4.40625 Z M 9.84375 7.265625 "/></g></g></g><g fill="#403737" fill-opacity="1"><g transform="translate(128.927724, 305.412799)"><g><path d="M 10.140625 -0.109375 C 10.140625 -0.0664062 10.125 -0.03125 10.09375 0 C 10.0625 0.03125 10.023438 0.046875 9.984375 0.046875 L 8.765625 0 L 7.6875 0.046875 C 7.582031 0.046875 7.53125 0 7.53125 -0.09375 C 7.53125 -0.1875 7.570312 -0.238281 7.65625 -0.25 L 7.84375 -0.265625 C 8.144531 -0.304688 8.296875 -0.457031 8.296875 -0.71875 L 8.203125 -5.84375 C 8.203125 -5.914062 8.179688 -5.953125 8.140625 -5.953125 C 8.117188 -5.953125 8.101562 -5.941406 8.09375 -5.921875 L 5.15625 -0.015625 C 5.113281 0.046875 5.066406 0.078125 5.015625 0.078125 C 4.960938 0.078125 4.925781 0.046875 4.90625 -0.015625 L 1.9375 -5.75 C 1.9375 -5.769531 1.921875 -5.78125 1.890625 -5.78125 C 1.847656 -5.78125 1.828125 -5.742188 1.828125 -5.671875 L 1.765625 -0.71875 C 1.765625 -0.476562 1.910156 -0.332031 2.203125 -0.28125 L 2.390625 -0.25 C 2.484375 -0.238281 2.53125 -0.1875 2.53125 -0.09375 C 2.53125 -0.0078125 2.472656 0.03125 2.359375 0.03125 L 1.46875 0 L 0.421875 0.03125 C 0.316406 0.03125 0.265625 -0.0078125 0.265625 -0.09375 C 0.265625 -0.1875 0.304688 -0.238281 0.390625 -0.25 L 0.703125 -0.28125 C 1.035156 -0.320312 1.203125 -0.46875 1.203125 -0.71875 L 1.328125 -6.875 C 1.335938 -7.125 1.195312 -7.269531 0.90625 -7.3125 L 0.703125 -7.328125 C 0.617188 -7.347656 0.578125 -7.398438 0.578125 -7.484375 C 0.578125 -7.578125 0.628906 -7.625 0.734375 -7.625 L 1.6875 -7.59375 C 1.9375 -7.582031 2.09375 -7.507812 2.15625 -7.375 L 5.234375 -1.296875 L 8.21875 -7.375 C 8.28125 -7.5 8.441406 -7.570312 8.703125 -7.59375 L 9.65625 -7.625 C 9.769531 -7.625 9.828125 -7.578125 9.828125 -7.484375 C 9.828125 -7.398438 9.785156 -7.347656 9.703125 -7.328125 L 9.515625 -7.3125 C 9.234375 -7.289062 9.09375 -7.144531 9.09375 -6.875 L 9.21875 -0.71875 C 9.21875 -0.582031 9.257812 -0.476562 9.34375 -0.40625 C 9.4375 -0.332031 9.550781 -0.285156 9.6875 -0.265625 L 10.015625 -0.25 C 10.097656 -0.25 10.140625 -0.203125 10.140625 -0.109375 Z M 10.140625 -0.109375 "/></g></g></g><g fill="#403737" fill-opacity="1"><g transform="translate(144.945557, 305.412799)"><g><path d="M 0.65625 0.046875 C 0.5625 0.046875 0.515625 0 0.515625 -0.09375 C 0.515625 -0.1875 0.550781 -0.238281 0.625 -0.25 L 0.8125 -0.265625 C 1.113281 -0.304688 1.265625 -0.457031 1.265625 -0.71875 L 1.265625 -6.875 C 1.265625 -7.132812 1.097656 -7.28125 0.765625 -7.3125 L 0.4375 -7.34375 C 0.363281 -7.351562 0.328125 -7.398438 0.328125 -7.484375 C 0.328125 -7.585938 0.378906 -7.640625 0.484375 -7.640625 L 1.703125 -7.59375 L 2.78125 -7.640625 C 2.882812 -7.640625 2.9375 -7.59375 2.9375 -7.5 C 2.9375 -7.40625 2.890625 -7.351562 2.796875 -7.34375 L 2.609375 -7.3125 C 2.316406 -7.257812 2.171875 -7.113281 2.171875 -6.875 L 2.171875 -0.71875 C 2.171875 -0.582031 2.21875 -0.476562 2.3125 -0.40625 C 2.414062 -0.332031 2.535156 -0.285156 2.671875 -0.265625 L 2.984375 -0.25 C 3.066406 -0.25 3.109375 -0.203125 3.109375 -0.109375 C 3.109375 -0.0664062 3.09375 -0.03125 3.0625 0 C 3.03125 0.03125 2.992188 0.046875 2.953125 0.046875 L 1.734375 0 Z M 0.65625 0.046875 "/></g></g></g><g fill="#403737" fill-opacity="1"><g transform="translate(153.990144, 305.412799)"><g><path d="M 6.640625 -1.609375 L 6.640625 -6.875 C 6.640625 -7.125 6.476562 -7.269531 6.15625 -7.3125 L 5.84375 -7.34375 C 5.757812 -7.351562 5.71875 -7.398438 5.71875 -7.484375 C 5.71875 -7.578125 5.769531 -7.625 5.875 -7.625 L 6.921875 -7.59375 L 7.78125 -7.625 C 7.882812 -7.625 7.9375 -7.578125 7.9375 -7.484375 C 7.9375 -7.398438 7.890625 -7.351562 7.796875 -7.34375 L 7.609375 -7.3125 C 7.316406 -7.257812 7.171875 -7.113281 7.171875 -6.875 L 7.171875 -0.015625 C 7.171875 0.078125 7.132812 0.125 7.0625 0.125 L 6.921875 0.125 C 6.734375 0.125 6.578125 0.0351562 6.453125 -0.140625 L 1.890625 -5.984375 C 1.867188 -5.992188 1.84375 -6 1.8125 -6 C 1.789062 -6 1.78125 -5.96875 1.78125 -5.90625 L 1.78125 -0.71875 C 1.78125 -0.476562 1.925781 -0.332031 2.21875 -0.28125 L 2.390625 -0.25 C 2.484375 -0.238281 2.53125 -0.1875 2.53125 -0.09375 C 2.53125 -0.0078125 2.476562 0.03125 2.375 0.03125 L 1.53125 0 L 0.484375 0.03125 C 0.378906 0.03125 0.328125 -0.0078125 0.328125 -0.09375 C 0.328125 -0.1875 0.363281 -0.238281 0.4375 -0.25 L 0.765625 -0.28125 C 1.097656 -0.320312 1.265625 -0.46875 1.265625 -0.71875 L 1.265625 -6.875 C 1.265625 -7.125 1.117188 -7.269531 0.828125 -7.3125 L 0.625 -7.328125 C 0.539062 -7.347656 0.5 -7.398438 0.5 -7.484375 C 0.5 -7.578125 0.550781 -7.625 0.65625 -7.625 L 1.53125 -7.59375 C 1.738281 -7.582031 1.894531 -7.515625 2 -7.390625 L 6.53125 -1.578125 C 6.550781 -1.554688 6.570312 -1.546875 6.59375 -1.546875 C 6.625 -1.546875 6.640625 -1.566406 6.640625 -1.609375 Z M 6.640625 -1.609375 "/></g></g></g><g fill="#403737" fill-opacity="1"><g transform="translate(167.860687, 305.412799)"><g><path d="M 0.65625 0.046875 C 0.5625 0.046875 0.515625 0 0.515625 -0.09375 C 0.515625 -0.1875 0.550781 -0.238281 0.625 -0.25 L 0.8125 -0.265625 C 1.113281 -0.304688 1.265625 -0.457031 1.265625 -0.71875 L 1.265625 -6.875 C 1.265625 -7.132812 1.097656 -7.28125 0.765625 -7.3125 L 0.4375 -7.34375 C 0.363281 -7.351562 0.328125 -7.398438 0.328125 -7.484375 C 0.328125 -7.585938 0.378906 -7.640625 0.484375 -7.640625 L 1.703125 -7.59375 L 2.78125 -7.640625 C 2.882812 -7.640625 2.9375 -7.59375 2.9375 -7.5 C 2.9375 -7.40625 2.890625 -7.351562 2.796875 -7.34375 L 2.609375 -7.3125 C 2.316406 -7.257812 2.171875 -7.113281 2.171875 -6.875 L 2.171875 -0.71875 C 2.171875 -0.582031 2.21875 -0.476562 2.3125 -0.40625 C 2.414062 -0.332031 2.535156 -0.285156 2.671875 -0.265625 L 2.984375 -0.25 C 3.066406 -0.25 3.109375 -0.203125 3.109375 -0.109375 C 3.109375 -0.0664062 3.09375 -0.03125 3.0625 0 C 3.03125 0.03125 2.992188 0.046875 2.953125 0.046875 L 1.734375 0 Z M 0.65625 0.046875 "/></g></g></g><g fill="#403737" fill-opacity="1"><g transform="translate(176.905276, 305.412799)"><g><path d="M 5.65625 -1.96875 C 5.65625 -1.28125 5.398438 -0.757812 4.890625 -0.40625 C 4.378906 -0.0507812 3.757812 0.125 3.03125 0.125 C 2.300781 0.125 1.703125 0.0351562 1.234375 -0.140625 C 0.773438 -0.316406 0.546875 -0.507812 0.546875 -0.71875 L 0.546875 -1.984375 C 0.546875 -2.140625 0.601562 -2.21875 0.71875 -2.21875 C 0.8125 -2.21875 0.875 -2.144531 0.90625 -2 C 1.09375 -1.445312 1.335938 -1.035156 1.640625 -0.765625 C 1.941406 -0.492188 2.363281 -0.359375 2.90625 -0.359375 C 3.445312 -0.359375 3.882812 -0.476562 4.21875 -0.71875 C 4.5625 -0.96875 4.734375 -1.3125 4.734375 -1.75 C 4.734375 -2.226562 4.460938 -2.628906 3.921875 -2.953125 C 3.679688 -3.097656 3.414062 -3.238281 3.125 -3.375 C 2.84375 -3.507812 2.554688 -3.648438 2.265625 -3.796875 C 1.972656 -3.941406 1.707031 -4.101562 1.46875 -4.28125 C 0.9375 -4.675781 0.671875 -5.171875 0.671875 -5.765625 C 0.671875 -6.359375 0.898438 -6.828125 1.359375 -7.171875 C 1.816406 -7.523438 2.359375 -7.703125 2.984375 -7.703125 C 3.609375 -7.703125 4.132812 -7.625 4.5625 -7.46875 C 5 -7.320312 5.21875 -7.15625 5.21875 -6.96875 L 5.21875 -5.859375 C 5.21875 -5.722656 5.164062 -5.65625 5.0625 -5.65625 C 4.957031 -5.65625 4.878906 -5.722656 4.828125 -5.859375 C 4.671875 -6.328125 4.46875 -6.671875 4.21875 -6.890625 C 3.976562 -7.117188 3.613281 -7.234375 3.125 -7.234375 C 2.632812 -7.234375 2.25 -7.113281 1.96875 -6.875 C 1.6875 -6.644531 1.546875 -6.359375 1.546875 -6.015625 C 1.546875 -5.679688 1.6875 -5.390625 1.96875 -5.140625 C 2.25 -4.890625 2.585938 -4.664062 2.984375 -4.46875 C 3.390625 -4.28125 3.789062 -4.082031 4.1875 -3.875 C 4.59375 -3.664062 4.9375 -3.398438 5.21875 -3.078125 C 5.507812 -2.753906 5.65625 -2.382812 5.65625 -1.96875 Z M 5.65625 -1.96875 "/></g></g></g><g fill="#403737" fill-opacity="1"><g transform="translate(188.70446, 305.412799)"><g><path d="M 3.828125 -6.796875 L 3.828125 -0.71875 C 3.828125 -0.582031 3.875 -0.476562 3.96875 -0.40625 C 4.0625 -0.332031 4.175781 -0.285156 4.3125 -0.265625 L 4.625 -0.25 C 4.71875 -0.25 4.765625 -0.203125 4.765625 -0.109375 C 4.765625 -0.0664062 4.742188 -0.03125 4.703125 0 C 4.671875 0.03125 4.640625 0.046875 4.609375 0.046875 L 3.390625 0 L 2.03125 0.046875 C 2 0.046875 1.96875 0.03125 1.9375 0 C 1.90625 -0.03125 1.890625 -0.0664062 1.890625 -0.109375 C 1.890625 -0.203125 1.929688 -0.25 2.015625 -0.25 L 2.421875 -0.265625 C 2.554688 -0.285156 2.671875 -0.332031 2.765625 -0.40625 C 2.859375 -0.476562 2.90625 -0.582031 2.90625 -0.71875 L 2.90625 -6.796875 C 2.90625 -6.992188 2.816406 -7.09375 2.640625 -7.09375 L 1.71875 -7.09375 C 1.363281 -7.09375 1.082031 -6.992188 0.875 -6.796875 C 0.675781 -6.609375 0.519531 -6.328125 0.40625 -5.953125 C 0.363281 -5.847656 0.304688 -5.796875 0.234375 -5.796875 C 0.160156 -5.796875 0.101562 -5.8125 0.0625 -5.84375 C 0.03125 -5.882812 0.015625 -5.929688 0.015625 -5.984375 L 0.109375 -7.390625 C 0.117188 -7.523438 0.195312 -7.59375 0.34375 -7.59375 L 6.359375 -7.59375 C 6.503906 -7.59375 6.585938 -7.503906 6.609375 -7.328125 L 6.71875 -5.984375 C 6.71875 -5.929688 6.695312 -5.882812 6.65625 -5.84375 C 6.625 -5.8125 6.570312 -5.796875 6.5 -5.796875 C 6.425781 -5.796875 6.367188 -5.847656 6.328125 -5.953125 C 6.191406 -6.335938 6.023438 -6.625 5.828125 -6.8125 C 5.628906 -7 5.359375 -7.09375 5.015625 -7.09375 L 4.09375 -7.09375 C 3.914062 -7.09375 3.828125 -6.992188 3.828125 -6.796875 Z M 3.828125 -6.796875 "/></g></g></g><g fill="#403737" fill-opacity="1"><g transform="translate(201.045889, 305.412799)"><g><path d="M 4.875 -4.5 C 5.21875 -4.78125 5.390625 -5.148438 5.390625 -5.609375 C 5.390625 -6.066406 5.222656 -6.429688 4.890625 -6.703125 C 4.554688 -6.972656 4.132812 -7.109375 3.625 -7.109375 L 2.609375 -7.109375 C 2.316406 -7.109375 2.171875 -6.960938 2.171875 -6.671875 L 2.171875 -4.234375 C 2.171875 -4.140625 2.210938 -4.09375 2.296875 -4.09375 L 3.625 -4.09375 C 4.125 -4.09375 4.539062 -4.226562 4.875 -4.5 Z M 4 -7.59375 C 4.695312 -7.59375 5.265625 -7.414062 5.703125 -7.0625 C 6.148438 -6.707031 6.375 -6.238281 6.375 -5.65625 C 6.375 -5.070312 6.15625 -4.585938 5.71875 -4.203125 C 5.28125 -3.828125 4.796875 -3.632812 4.265625 -3.625 L 4.25 -3.59375 C 4.40625 -3.550781 4.523438 -3.457031 4.609375 -3.3125 L 6.25 -0.71875 C 6.394531 -0.46875 6.632812 -0.316406 6.96875 -0.265625 L 7.15625 -0.25 C 7.25 -0.238281 7.296875 -0.191406 7.296875 -0.109375 C 7.296875 -0.00390625 7.242188 0.046875 7.140625 0.046875 C 6.441406 0.015625 6.003906 0 5.828125 0 C 5.660156 0 5.53125 -0.0703125 5.4375 -0.21875 L 3.609375 -3.265625 C 3.460938 -3.484375 3.304688 -3.59375 3.140625 -3.59375 C 3.140625 -3.59375 3.132812 -3.59375 3.125 -3.59375 L 2.34375 -3.59375 C 2.226562 -3.59375 2.171875 -3.550781 2.171875 -3.46875 L 2.171875 -0.71875 C 2.171875 -0.582031 2.21875 -0.472656 2.3125 -0.390625 C 2.414062 -0.316406 2.535156 -0.273438 2.671875 -0.265625 L 3.125 -0.25 C 3.207031 -0.25 3.25 -0.195312 3.25 -0.09375 C 3.25 0 3.195312 0.046875 3.09375 0.046875 L 1.734375 0 L 0.53125 0.046875 C 0.4375 0.046875 0.382812 0 0.375 -0.09375 C 0.375 -0.1875 0.414062 -0.238281 0.5 -0.25 L 0.8125 -0.265625 C 1.113281 -0.285156 1.265625 -0.4375 1.265625 -0.71875 L 1.265625 -6.875 C 1.265625 -7.132812 1.097656 -7.28125 0.765625 -7.3125 L 0.4375 -7.34375 C 0.363281 -7.351562 0.328125 -7.398438 0.328125 -7.484375 C 0.328125 -7.585938 0.378906 -7.640625 0.484375 -7.640625 L 1.96875 -7.59375 Z M 4 -7.59375 "/></g></g></g><g fill="#403737" fill-opacity="1"><g transform="translate(213.842797, 305.412799)"><g><path d="M 0.65625 0.046875 C 0.5625 0.046875 0.515625 0 0.515625 -0.09375 C 0.515625 -0.1875 0.550781 -0.238281 0.625 -0.25 L 0.8125 -0.265625 C 1.113281 -0.304688 1.265625 -0.457031 1.265625 -0.71875 L 1.265625 -6.875 C 1.265625 -7.132812 1.097656 -7.28125 0.765625 -7.3125 L 0.4375 -7.34375 C 0.363281 -7.351562 0.328125 -7.398438 0.328125 -7.484375 C 0.328125 -7.585938 0.378906 -7.640625 0.484375 -7.640625 L 1.703125 -7.59375 L 2.78125 -7.640625 C 2.882812 -7.640625 2.9375 -7.59375 2.9375 -7.5 C 2.9375 -7.40625 2.890625 -7.351562 2.796875 -7.34375 L 2.609375 -7.3125 C 2.316406 -7.257812 2.171875 -7.113281 2.171875 -6.875 L 2.171875 -0.71875 C 2.171875 -0.582031 2.21875 -0.476562 2.3125 -0.40625 C 2.414062 -0.332031 2.535156 -0.285156 2.671875 -0.265625 L 2.984375 -0.25 C 3.066406 -0.25 3.109375 -0.203125 3.109375 -0.109375 C 3.109375 -0.0664062 3.09375 -0.03125 3.0625 0 C 3.03125 0.03125 2.992188 0.046875 2.953125 0.046875 L 1.734375 0 Z M 0.65625 0.046875 "/></g></g></g><g fill="#403737" fill-opacity="1"><g transform="translate(222.887386, 305.412799)"><g><path d="M 5.765625 0 L 1.703125 0 L 0.484375 0.046875 C 0.378906 0.046875 0.328125 0 0.328125 -0.09375 C 0.328125 -0.195312 0.363281 -0.25 0.4375 -0.25 L 0.765625 -0.265625 C 0.898438 -0.285156 1.015625 -0.332031 1.109375 -0.40625 C 1.210938 -0.476562 1.265625 -0.582031 1.265625 -0.71875 L 1.265625 -6.875 C 1.265625 -7.132812 1.097656 -7.28125 0.765625 -7.3125 L 0.4375 -7.34375 C 0.363281 -7.34375 0.328125 -7.390625 0.328125 -7.484375 C 0.328125 -7.585938 0.378906 -7.640625 0.484375 -7.640625 L 1.703125 -7.59375 L 5.546875 -7.59375 C 5.691406 -7.59375 5.804688 -7.550781 5.890625 -7.46875 C 5.972656 -7.382812 6.023438 -7.28125 6.046875 -7.15625 L 6.1875 -6.15625 C 6.207031 -6.03125 6.15625 -5.96875 6.03125 -5.96875 C 5.914062 -5.96875 5.835938 -6.023438 5.796875 -6.140625 C 5.691406 -6.484375 5.53125 -6.726562 5.3125 -6.875 C 5.09375 -7.019531 4.789062 -7.09375 4.40625 -7.09375 L 2.71875 -7.09375 C 2.550781 -7.09375 2.414062 -7.046875 2.3125 -6.953125 C 2.21875 -6.867188 2.171875 -6.742188 2.171875 -6.578125 L 2.171875 -4.3125 C 2.171875 -4.207031 2.222656 -4.15625 2.328125 -4.15625 L 4.34375 -4.15625 C 4.4375 -4.15625 4.507812 -4.179688 4.5625 -4.234375 C 4.625 -4.285156 4.664062 -4.332031 4.6875 -4.375 C 4.707031 -4.425781 4.734375 -4.507812 4.765625 -4.625 L 4.8125 -4.765625 C 4.832031 -4.847656 4.882812 -4.890625 4.96875 -4.890625 C 5.0625 -4.890625 5.109375 -4.835938 5.109375 -4.734375 L 5.0625 -3.8125 L 5.109375 -2.9375 C 5.109375 -2.84375 5.0625 -2.789062 4.96875 -2.78125 C 4.882812 -2.78125 4.832031 -2.820312 4.8125 -2.90625 L 4.78125 -3.09375 C 4.71875 -3.476562 4.570312 -3.671875 4.34375 -3.671875 L 2.3125 -3.671875 C 2.21875 -3.671875 2.171875 -3.617188 2.171875 -3.515625 L 2.171875 -1 C 2.171875 -0.84375 2.21875 -0.71875 2.3125 -0.625 C 2.414062 -0.539062 2.550781 -0.5 2.71875 -0.5 L 4.5 -0.5 C 4.875 -0.5 5.195312 -0.585938 5.46875 -0.765625 C 5.738281 -0.953125 5.929688 -1.222656 6.046875 -1.578125 C 6.078125 -1.691406 6.132812 -1.75 6.21875 -1.75 C 6.300781 -1.75 6.359375 -1.726562 6.390625 -1.6875 C 6.421875 -1.65625 6.4375 -1.613281 6.4375 -1.5625 L 6.25 -0.4375 C 6.238281 -0.3125 6.1875 -0.207031 6.09375 -0.125 C 6.007812 -0.0390625 5.898438 0 5.765625 0 Z M 5.765625 0 "/></g></g></g><g fill="#403737" fill-opacity="1"><g transform="translate(235.369789, 305.412799)"><g><path d="M 5.65625 -1.96875 C 5.65625 -1.28125 5.398438 -0.757812 4.890625 -0.40625 C 4.378906 -0.0507812 3.757812 0.125 3.03125 0.125 C 2.300781 0.125 1.703125 0.0351562 1.234375 -0.140625 C 0.773438 -0.316406 0.546875 -0.507812 0.546875 -0.71875 L 0.546875 -1.984375 C 0.546875 -2.140625 0.601562 -2.21875 0.71875 -2.21875 C 0.8125 -2.21875 0.875 -2.144531 0.90625 -2 C 1.09375 -1.445312 1.335938 -1.035156 1.640625 -0.765625 C 1.941406 -0.492188 2.363281 -0.359375 2.90625 -0.359375 C 3.445312 -0.359375 3.882812 -0.476562 4.21875 -0.71875 C 4.5625 -0.96875 4.734375 -1.3125 4.734375 -1.75 C 4.734375 -2.226562 4.460938 -2.628906 3.921875 -2.953125 C 3.679688 -3.097656 3.414062 -3.238281 3.125 -3.375 C 2.84375 -3.507812 2.554688 -3.648438 2.265625 -3.796875 C 1.972656 -3.941406 1.707031 -4.101562 1.46875 -4.28125 C 0.9375 -4.675781 0.671875 -5.171875 0.671875 -5.765625 C 0.671875 -6.359375 0.898438 -6.828125 1.359375 -7.171875 C 1.816406 -7.523438 2.359375 -7.703125 2.984375 -7.703125 C 3.609375 -7.703125 4.132812 -7.625 4.5625 -7.46875 C 5 -7.320312 5.21875 -7.15625 5.21875 -6.96875 L 5.21875 -5.859375 C 5.21875 -5.722656 5.164062 -5.65625 5.0625 -5.65625 C 4.957031 -5.65625 4.878906 -5.722656 4.828125 -5.859375 C 4.671875 -6.328125 4.46875 -6.671875 4.21875 -6.890625 C 3.976562 -7.117188 3.613281 -7.234375 3.125 -7.234375 C 2.632812 -7.234375 2.25 -7.113281 1.96875 -6.875 C 1.6875 -6.644531 1.546875 -6.359375 1.546875 -6.015625 C 1.546875 -5.679688 1.6875 -5.390625 1.96875 -5.140625 C 2.25 -4.890625 2.585938 -4.664062 2.984375 -4.46875 C 3.390625 -4.28125 3.789062 -4.082031 4.1875 -3.875 C 4.59375 -3.664062 4.9375 -3.398438 5.21875 -3.078125 C 5.507812 -2.753906 5.65625 -2.382812 5.65625 -1.96875 Z M 5.65625 -1.96875 "/></g></g></g><g fill="#403737" fill-opacity="1"><g transform="translate(247.161395, 305.412799)"><g/></g></g></svg>