<svg xmlns="http://www.w3.org/2000/svg" xmlns:xlink="http://www.w3.org/1999/xlink" width="500" zoomAndPan="magnify" viewBox="0 0 375 374.999991" height="500" preserveAspectRatio="xMidYMid meet" version="1.0"><defs><g/><clipPath id="id1"><path d="M 84 81 L 286 81 L 286 282 L 84 282 Z M 84 81 " clip-rule="nonzero"/></clipPath><clipPath id="id2"><path d="M 43.601562 174.511719 L 158.375 69.96875 L 293.21875 218.011719 L 178.445312 322.554688 Z M 43.601562 174.511719 " clip-rule="nonzero"/></clipPath><clipPath id="id3"><path d="M 43.601562 174.511719 L 191.644531 39.667969 L 326.488281 187.710938 L 178.445312 322.554688 Z M 43.601562 174.511719 " clip-rule="nonzero"/></clipPath><clipPath id="id4"><path d="M 111.714844 149 L 176 149 L 176 213 L 111.714844 213 Z M 111.714844 149 " clip-rule="nonzero"/></clipPath><clipPath id="id5"><path d="M 185.289062 218.332031 L 218.789062 218.332031 L 218.789062 251.636719 L 185.289062 251.636719 Z M 185.289062 218.332031 " clip-rule="nonzero"/></clipPath><clipPath id="id6"><path d="M 197.695312 162.253906 L 261.703125 162.253906 L 261.703125 226.113281 L 197.695312 226.113281 Z M 197.695312 162.253906 " clip-rule="nonzero"/></clipPath><clipPath id="id7"><path d="M 117 109.890625 L 157 109.890625 L 157 149 L 117 149 Z M 117 109.890625 " clip-rule="nonzero"/></clipPath></defs><rect x="-37.5" width="450" fill="#ffffff" y="-37.499999" height="449.999989" fill-opacity="1"/><rect x="-37.5" width="450" fill="#ffffff" y="-37.499999" height="449.999989" fill-opacity="1"/><g clip-path="url(#id1)"><g clip-path="url(#id2)"><g clip-path="url(#id3)"><path fill="#403737" d="M 252.46875 255.132812 C 211.664062 292.300781 148.1875 289.335938 111.023438 248.535156 C 73.855469 207.730469 76.820312 144.257812 117.621094 107.089844 C 158.425781 69.925781 221.898438 72.886719 259.066406 113.6875 C 296.230469 154.492188 293.269531 217.96875 252.46875 255.132812 Z M 118.617188 108.183594 C 78.398438 144.820312 75.480469 207.320312 112.117188 247.539062 C 148.75 287.757812 211.25 290.671875 251.46875 254.039062 C 291.691406 217.40625 294.605469 154.90625 257.972656 114.6875 C 221.335938 74.464844 158.835938 71.550781 118.617188 108.183594 Z M 118.617188 108.183594 " fill-opacity="1" fill-rule="nonzero"/></g></g></g><g clip-path="url(#id4)"><path fill="#000000" d="M 143.671875 202.035156 C 132.042969 202.035156 122.613281 192.621094 122.613281 181.015625 C 122.613281 169.40625 132.042969 159.992188 143.671875 159.992188 C 155.304688 159.992188 164.734375 169.40625 164.734375 181.015625 C 164.734375 192.621094 155.304688 202.035156 143.671875 202.035156 Z M 168.316406 187.585938 C 168.695312 186.160156 169.816406 185.046875 171.25 184.691406 L 175.503906 183.628906 C 175.574219 182.765625 175.609375 181.894531 175.609375 181.015625 C 175.609375 180.140625 175.574219 179.277344 175.503906 178.421875 L 171.253906 177.359375 C 169.820312 177 168.699219 175.886719 168.320312 174.460938 C 168.316406 174.441406 168.3125 174.425781 168.304688 174.40625 C 167.921875 172.980469 168.332031 171.460938 169.398438 170.433594 L 172.554688 167.390625 C 171.804688 165.8125 170.933594 164.304688 169.945312 162.882812 L 165.722656 164.085938 C 164.296875 164.492188 162.773438 164.085938 161.730469 163.039062 C 161.71875 163.03125 161.707031 163.019531 161.695312 163.007812 C 160.648438 161.964844 160.242188 160.441406 160.648438 159.019531 L 161.855469 154.804688 C 160.433594 153.820312 158.925781 152.945312 157.347656 152.199219 L 154.292969 155.347656 C 153.261719 156.40625 151.738281 156.816406 150.3125 156.433594 C 150.292969 156.429688 150.277344 156.421875 150.257812 156.417969 C 148.828125 156.039062 147.714844 154.921875 147.355469 153.488281 L 146.292969 149.242188 C 145.429688 149.175781 144.554688 149.136719 143.671875 149.136719 C 142.800781 149.136719 141.933594 149.171875 141.078125 149.242188 L 140.011719 153.484375 C 139.652344 154.917969 138.535156 156.035156 137.105469 156.414062 C 137.089844 156.417969 137.074219 156.421875 137.054688 156.425781 C 135.625 156.808594 134.101562 156.398438 133.074219 155.339844 L 130.023438 152.1875 C 128.441406 152.933594 126.933594 153.808594 125.507812 154.792969 L 126.714844 159.007812 C 127.121094 160.429688 126.714844 161.949219 125.667969 162.992188 C 125.65625 163.003906 125.644531 163.015625 125.632812 163.027344 C 124.585938 164.070312 123.0625 164.476562 121.640625 164.070312 L 117.417969 162.863281 C 116.429688 164.285156 115.554688 165.789062 114.804688 167.367188 L 117.957031 170.414062 C 119.019531 171.441406 119.429688 172.964844 119.046875 174.390625 C 119.042969 174.40625 119.035156 174.421875 119.03125 174.441406 C 118.652344 175.867188 117.53125 176.980469 116.097656 177.339844 L 111.84375 178.398438 C 111.773438 179.261719 111.738281 180.132812 111.738281 181.015625 C 111.738281 181.886719 111.773438 182.75 111.839844 183.605469 L 116.09375 184.667969 C 117.527344 185.027344 118.648438 186.140625 119.027344 187.566406 C 119.03125 187.585938 119.035156 187.601562 119.039062 187.621094 C 119.421875 189.046875 119.011719 190.566406 117.949219 191.59375 L 114.792969 194.636719 C 115.542969 196.214844 116.414062 197.722656 117.402344 199.144531 L 121.625 197.941406 C 123.046875 197.535156 124.574219 197.941406 125.617188 198.988281 C 125.628906 199 125.640625 199.007812 125.652344 199.019531 C 126.699219 200.0625 127.105469 201.585938 126.699219 203.007812 L 125.488281 207.222656 C 126.914062 208.207031 128.421875 209.082031 130 209.828125 L 133.054688 206.679688 C 134.082031 205.621094 135.609375 205.210938 137.035156 205.59375 C 137.054688 205.597656 137.070312 205.605469 137.085938 205.609375 C 138.515625 205.988281 139.632812 207.105469 139.992188 208.539062 L 141.054688 212.785156 C 141.917969 212.851562 142.792969 212.890625 143.671875 212.890625 C 144.546875 212.890625 145.414062 212.855469 146.269531 212.785156 L 147.335938 208.542969 C 147.695312 207.109375 148.808594 205.992188 150.238281 205.613281 C 150.257812 205.609375 150.273438 205.605469 150.292969 205.601562 C 151.71875 205.21875 153.246094 205.628906 154.273438 206.6875 L 157.324219 209.839844 C 158.902344 209.09375 160.414062 208.21875 161.835938 207.234375 L 160.632812 203.019531 C 160.226562 201.597656 160.632812 200.078125 161.679688 199.035156 C 161.691406 199.023438 161.703125 199.011719 161.714844 199 C 162.761719 197.957031 164.285156 197.550781 165.707031 197.957031 L 169.929688 199.164062 C 170.917969 197.742188 171.792969 196.238281 172.542969 194.660156 L 169.390625 191.613281 C 168.328125 190.585938 167.917969 189.0625 168.300781 187.636719 C 168.304688 187.621094 168.308594 187.601562 168.316406 187.585938 " fill-opacity="1" fill-rule="nonzero"/></g><path fill="#000000" d="M 194.316406 165.5 C 183.542969 165.5 174.808594 156.78125 174.808594 146.027344 C 174.808594 135.273438 183.542969 126.558594 194.316406 126.558594 C 205.09375 126.558594 213.828125 135.273438 213.828125 146.027344 C 213.828125 156.78125 205.09375 165.5 194.316406 165.5 Z M 217.144531 152.117188 C 217.496094 150.796875 218.535156 149.765625 219.863281 149.433594 L 223.804688 148.453125 C 223.871094 147.652344 223.902344 146.84375 223.902344 146.027344 C 223.902344 145.222656 223.871094 144.421875 223.804688 143.628906 L 219.867188 142.644531 C 218.539062 142.3125 217.5 141.28125 217.148438 139.957031 C 217.144531 139.941406 217.140625 139.925781 217.136719 139.910156 C 216.78125 138.589844 217.160156 137.179688 218.148438 136.230469 L 221.070312 133.40625 C 220.378906 131.945312 219.570312 130.550781 218.65625 129.234375 L 214.742188 130.347656 C 213.425781 130.722656 212.011719 130.347656 211.042969 129.378906 C 211.03125 129.367188 211.023438 129.359375 211.011719 129.347656 C 210.042969 128.382812 209.667969 126.972656 210.042969 125.65625 L 211.164062 121.75 C 209.84375 120.839844 208.445312 120.027344 206.984375 119.335938 L 204.15625 122.253906 C 203.203125 123.234375 201.789062 123.613281 200.464844 123.257812 C 200.449219 123.253906 200.433594 123.25 200.417969 123.246094 C 199.09375 122.894531 198.0625 121.859375 197.730469 120.53125 L 196.746094 116.597656 C 195.945312 116.535156 195.136719 116.5 194.316406 116.5 C 193.507812 116.5 192.707031 116.535156 191.914062 116.597656 L 190.925781 120.527344 C 190.59375 121.855469 189.558594 122.890625 188.234375 123.242188 C 188.21875 123.246094 188.203125 123.25 188.1875 123.253906 C 186.863281 123.609375 185.453125 123.226562 184.5 122.246094 L 181.671875 119.328125 C 180.207031 120.019531 178.8125 120.824219 177.492188 121.738281 L 178.609375 125.644531 C 178.984375 126.960938 178.605469 128.371094 177.636719 129.335938 C 177.625 129.347656 177.617188 129.355469 177.605469 129.367188 C 176.636719 130.335938 175.222656 130.710938 173.90625 130.332031 L 169.996094 129.214844 C 169.078125 130.53125 168.269531 131.925781 167.574219 133.386719 L 170.496094 136.210938 C 171.480469 137.164062 171.859375 138.570312 171.503906 139.890625 C 171.5 139.910156 171.496094 139.925781 171.492188 139.941406 C 171.136719 141.261719 170.101562 142.292969 168.773438 142.625 L 164.832031 143.605469 C 164.765625 144.40625 164.734375 145.214844 164.734375 146.027344 C 164.734375 146.835938 164.765625 147.636719 164.832031 148.429688 L 168.769531 149.414062 C 170.097656 149.746094 171.132812 150.777344 171.484375 152.101562 C 171.492188 152.117188 171.496094 152.132812 171.5 152.148438 C 171.855469 153.46875 171.472656 154.878906 170.488281 155.828125 L 167.566406 158.652344 C 168.257812 160.113281 169.066406 161.507812 169.980469 162.824219 L 173.894531 161.710938 C 175.210938 161.332031 176.625 161.710938 177.59375 162.679688 C 177.601562 162.6875 177.613281 162.699219 177.625 162.710938 C 178.59375 163.675781 178.96875 165.085938 178.59375 166.402344 L 177.472656 170.308594 C 178.792969 171.21875 180.1875 172.027344 181.652344 172.722656 L 184.480469 169.804688 C 185.433594 168.824219 186.847656 168.445312 188.167969 168.800781 C 188.1875 168.804688 188.203125 168.808594 188.21875 168.8125 C 189.542969 169.164062 190.574219 170.199219 190.90625 171.527344 L 191.890625 175.457031 C 192.691406 175.523438 193.5 175.558594 194.316406 175.558594 C 195.128906 175.558594 195.929688 175.523438 196.722656 175.460938 L 197.710938 171.527344 C 198.042969 170.203125 199.078125 169.167969 200.402344 168.816406 C 200.417969 168.8125 200.433594 168.808594 200.449219 168.804688 C 201.773438 168.449219 203.183594 168.828125 204.136719 169.8125 L 206.964844 172.730469 C 208.425781 172.039062 209.824219 171.230469 211.144531 170.320312 L 210.027344 166.414062 C 209.652344 165.097656 210.027344 163.6875 211 162.722656 C 211.007812 162.710938 211.019531 162.703125 211.03125 162.691406 C 212 161.722656 213.414062 161.347656 214.730469 161.726562 L 218.640625 162.84375 C 219.558594 161.527344 220.367188 160.128906 221.0625 158.671875 L 218.140625 155.847656 C 217.15625 154.894531 216.777344 153.488281 217.132812 152.164062 C 217.136719 152.148438 217.140625 152.132812 217.144531 152.117188 " fill-opacity="1" fill-rule="nonzero"/><g clip-path="url(#id5)"><path fill="#000000" d="M 201.992188 245.964844 C 195.914062 245.964844 190.992188 241.050781 190.992188 234.988281 C 190.992188 228.921875 195.914062 224.007812 201.992188 224.007812 C 208.066406 224.007812 212.992188 228.921875 212.992188 234.988281 C 212.992188 241.050781 208.066406 245.964844 201.992188 245.964844 Z M 214.863281 238.421875 C 215.0625 237.675781 215.644531 237.09375 216.394531 236.90625 L 218.617188 236.351562 C 218.652344 235.902344 218.671875 235.445312 218.671875 234.988281 C 218.671875 234.53125 218.652344 234.082031 218.617188 233.632812 L 216.394531 233.078125 C 215.648438 232.890625 215.0625 232.308594 214.863281 231.5625 C 214.863281 231.554688 214.859375 231.546875 214.855469 231.535156 C 214.65625 230.792969 214.871094 229.996094 215.425781 229.460938 L 217.074219 227.871094 C 216.683594 227.046875 216.230469 226.261719 215.714844 225.515625 L 213.507812 226.144531 C 212.765625 226.359375 211.96875 226.144531 211.421875 225.601562 C 211.414062 225.59375 211.410156 225.585938 211.402344 225.582031 C 210.855469 225.035156 210.644531 224.242188 210.859375 223.5 L 211.488281 221.296875 C 210.746094 220.785156 209.957031 220.328125 209.132812 219.9375 L 207.539062 221.582031 C 207 222.136719 206.203125 222.347656 205.457031 222.148438 C 205.449219 222.144531 205.441406 222.144531 205.429688 222.140625 C 204.683594 221.941406 204.101562 221.359375 203.914062 220.609375 L 203.359375 218.394531 C 202.90625 218.355469 202.453125 218.335938 201.992188 218.335938 C 201.535156 218.335938 201.082031 218.355469 200.636719 218.390625 L 200.078125 220.609375 C 199.890625 221.355469 199.308594 221.941406 198.5625 222.136719 C 198.550781 222.140625 198.542969 222.144531 198.535156 222.144531 C 197.789062 222.34375 196.992188 222.128906 196.453125 221.578125 L 194.859375 219.929688 C 194.035156 220.320312 193.246094 220.777344 192.503906 221.292969 L 193.132812 223.492188 C 193.34375 224.234375 193.132812 225.03125 192.585938 225.574219 C 192.578125 225.582031 192.574219 225.585938 192.566406 225.59375 C 192.019531 226.136719 191.222656 226.347656 190.480469 226.136719 L 188.277344 225.507812 C 187.761719 226.25 187.304688 227.035156 186.910156 227.859375 L 188.558594 229.449219 C 189.113281 229.988281 189.328125 230.78125 189.128906 231.527344 C 189.125 231.535156 189.121094 231.546875 189.121094 231.554688 C 188.921875 232.300781 188.335938 232.878906 187.585938 233.066406 L 185.367188 233.621094 C 185.328125 234.070312 185.308594 234.527344 185.308594 234.988281 C 185.308594 235.441406 185.328125 235.894531 185.363281 236.339844 L 187.585938 236.894531 C 188.335938 237.082031 188.917969 237.664062 189.117188 238.410156 C 189.121094 238.417969 189.121094 238.429688 189.125 238.4375 C 189.324219 239.183594 189.109375 239.976562 188.554688 240.511719 L 186.90625 242.101562 C 187.296875 242.925781 187.753906 243.714844 188.269531 244.457031 L 190.476562 243.828125 C 191.21875 243.617188 192.015625 243.828125 192.558594 244.375 C 192.566406 244.378906 192.570312 244.386719 192.578125 244.390625 C 193.125 244.9375 193.335938 245.734375 193.125 246.472656 L 192.492188 248.675781 C 193.238281 249.191406 194.023438 249.648438 194.847656 250.039062 L 196.445312 248.394531 C 196.980469 247.839844 197.777344 247.625 198.523438 247.828125 C 198.535156 247.828125 198.542969 247.832031 198.550781 247.832031 C 199.296875 248.03125 199.878906 248.617188 200.066406 249.363281 L 200.621094 251.582031 C 201.074219 251.617188 201.53125 251.636719 201.992188 251.636719 C 202.449219 251.636719 202.898438 251.617188 203.347656 251.582031 L 203.902344 249.363281 C 204.089844 248.617188 204.671875 248.035156 205.421875 247.835938 C 205.429688 247.832031 205.4375 247.832031 205.449219 247.828125 C 206.195312 247.628906 206.992188 247.84375 207.527344 248.398438 L 209.121094 250.042969 C 209.945312 249.652344 210.734375 249.199219 211.476562 248.683594 L 210.847656 246.480469 C 210.636719 245.738281 210.847656 244.945312 211.394531 244.398438 C 211.402344 244.394531 211.40625 244.386719 211.414062 244.382812 C 211.960938 243.835938 212.757812 243.625 213.5 243.835938 L 215.707031 244.46875 C 216.222656 243.726562 216.679688 242.9375 217.070312 242.113281 L 215.421875 240.523438 C 214.867188 239.988281 214.652344 239.191406 214.855469 238.445312 C 214.855469 238.4375 214.859375 238.429688 214.863281 238.421875 " fill-opacity="1" fill-rule="nonzero"/></g><g clip-path="url(#id6)"><path fill="#000000" d="M 229.765625 215.179688 C 218.136719 215.179688 208.707031 205.769531 208.707031 194.160156 C 208.707031 182.550781 218.136719 173.140625 229.765625 173.140625 C 241.398438 173.140625 250.824219 182.550781 250.824219 194.160156 C 250.824219 205.769531 241.398438 215.179688 229.765625 215.179688 Z M 254.40625 200.730469 C 254.789062 199.304688 255.90625 198.191406 257.34375 197.835938 L 261.597656 196.773438 C 261.667969 195.910156 261.703125 195.039062 261.703125 194.160156 C 261.703125 193.285156 261.667969 192.421875 261.597656 191.570312 L 257.347656 190.503906 C 255.910156 190.144531 254.792969 189.03125 254.414062 187.605469 C 254.40625 187.589844 254.402344 187.570312 254.398438 187.554688 C 254.015625 186.128906 254.425781 184.605469 255.488281 183.578125 L 258.644531 180.535156 C 257.898438 178.957031 257.023438 177.453125 256.039062 176.03125 L 251.8125 177.234375 C 250.390625 177.636719 248.863281 177.230469 247.820312 176.1875 C 247.808594 176.175781 247.796875 176.164062 247.789062 176.152344 C 246.742188 175.109375 246.335938 173.585938 246.742188 172.167969 L 247.949219 167.953125 C 246.527344 166.964844 245.019531 166.09375 243.4375 165.34375 L 240.386719 168.492188 C 239.355469 169.554688 237.832031 169.960938 236.402344 169.578125 C 236.386719 169.574219 236.367188 169.570312 236.351562 169.566406 C 234.921875 169.183594 233.808594 168.066406 233.449219 166.632812 L 232.386719 162.390625 C 231.523438 162.320312 230.648438 162.285156 229.765625 162.285156 C 228.890625 162.285156 228.027344 162.320312 227.171875 162.386719 L 226.105469 166.632812 C 225.746094 168.0625 224.628906 169.179688 223.199219 169.558594 C 223.183594 169.566406 223.164062 169.570312 223.148438 169.574219 C 221.71875 169.957031 220.195312 169.546875 219.167969 168.484375 L 216.117188 165.335938 C 214.535156 166.082031 213.027344 166.953125 211.601562 167.9375 L 212.808594 172.152344 C 213.214844 173.574219 212.804688 175.097656 211.757812 176.140625 C 211.746094 176.148438 211.734375 176.160156 211.726562 176.171875 C 210.679688 177.21875 209.152344 177.621094 207.730469 177.214844 L 203.507812 176.007812 C 202.519531 177.429688 201.644531 178.9375 200.894531 180.511719 L 204.050781 183.558594 C 205.113281 184.585938 205.523438 186.109375 205.136719 187.535156 C 205.132812 187.550781 205.128906 187.570312 205.125 187.585938 C 204.742188 189.015625 203.625 190.125 202.1875 190.484375 L 197.9375 191.542969 C 197.867188 192.40625 197.828125 193.277344 197.828125 194.160156 C 197.828125 195.03125 197.863281 195.894531 197.933594 196.75 L 202.1875 197.8125 C 203.621094 198.171875 204.738281 199.285156 205.121094 200.714844 C 205.125 200.730469 205.128906 200.746094 205.132812 200.765625 C 205.515625 202.191406 205.105469 203.710938 204.042969 204.738281 L 200.886719 207.785156 C 201.632812 209.359375 202.507812 210.867188 203.496094 212.289062 L 207.71875 211.085938 C 209.140625 210.679688 210.667969 211.085938 211.710938 212.132812 C 211.722656 212.144531 211.734375 212.15625 211.746094 212.167969 C 212.792969 213.210938 213.195312 214.730469 212.789062 216.152344 L 211.582031 220.367188 C 213.007812 221.351562 214.515625 222.226562 216.09375 222.972656 L 219.148438 219.828125 C 220.175781 218.765625 221.699219 218.355469 223.128906 218.738281 C 223.148438 218.746094 223.164062 218.75 223.179688 218.753906 C 224.609375 219.132812 225.726562 220.25 226.082031 221.683594 L 227.144531 225.929688 C 228.011719 226 228.882812 226.035156 229.765625 226.035156 C 230.640625 226.035156 231.503906 226 232.363281 225.929688 L 233.425781 221.6875 C 233.785156 220.253906 234.902344 219.136719 236.332031 218.757812 C 236.351562 218.753906 236.367188 218.75 236.382812 218.746094 C 237.8125 218.363281 239.335938 218.773438 240.367188 219.835938 L 243.417969 222.984375 C 244.996094 222.238281 246.503906 221.367188 247.929688 220.382812 L 246.726562 216.164062 C 246.320312 214.746094 246.726562 213.222656 247.773438 212.179688 C 247.785156 212.167969 247.796875 212.15625 247.804688 212.144531 C 248.851562 211.101562 250.378906 210.695312 251.800781 211.101562 L 256.023438 212.308594 C 257.011719 210.886719 257.886719 209.382812 258.636719 207.804688 L 255.480469 204.757812 C 254.417969 203.730469 254.007812 202.210938 254.394531 200.785156 C 254.398438 200.765625 254.402344 200.75 254.40625 200.730469 " fill-opacity="1" fill-rule="nonzero"/></g><g clip-path="url(#id7)"><path fill="#000000" d="M 136.730469 142.089844 C 129.648438 142.089844 123.910156 136.363281 123.910156 129.296875 C 123.910156 122.230469 129.648438 116.5 136.730469 116.5 C 143.808594 116.5 149.546875 122.230469 149.546875 129.296875 C 149.546875 136.363281 143.808594 142.089844 136.730469 142.089844 Z M 151.730469 133.296875 C 151.960938 132.429688 152.640625 131.75 153.515625 131.53125 L 156.105469 130.886719 C 156.148438 130.363281 156.167969 129.832031 156.167969 129.296875 C 156.167969 128.765625 156.148438 128.238281 156.105469 127.71875 L 153.515625 127.070312 C 152.644531 126.851562 151.960938 126.175781 151.730469 125.304688 C 151.730469 125.296875 151.726562 125.285156 151.722656 125.273438 C 151.488281 124.40625 151.738281 123.480469 152.386719 122.855469 L 154.308594 121.003906 C 153.851562 120.042969 153.320312 119.125 152.71875 118.261719 L 150.148438 118.992188 C 149.285156 119.238281 148.355469 118.992188 147.71875 118.355469 C 147.710938 118.347656 147.707031 118.339844 147.699219 118.335938 C 147.0625 117.699219 146.8125 116.773438 147.0625 115.910156 L 147.796875 113.34375 C 146.929688 112.742188 146.011719 112.210938 145.050781 111.753906 L 143.191406 113.671875 C 142.566406 114.316406 141.636719 114.566406 140.769531 114.332031 C 140.757812 114.332031 140.746094 114.328125 140.738281 114.324219 C 139.867188 114.09375 139.1875 113.414062 138.96875 112.539062 L 138.324219 109.957031 C 137.796875 109.914062 137.265625 109.890625 136.730469 109.890625 C 136.195312 109.890625 135.671875 109.914062 135.148438 109.957031 L 134.5 112.539062 C 134.28125 113.410156 133.601562 114.089844 132.730469 114.320312 C 132.71875 114.324219 132.710938 114.328125 132.699219 114.328125 C 131.832031 114.5625 130.902344 114.3125 130.277344 113.667969 L 128.417969 111.75 C 127.457031 112.203125 126.539062 112.734375 125.671875 113.332031 L 126.40625 115.898438 C 126.652344 116.765625 126.40625 117.691406 125.765625 118.328125 C 125.761719 118.332031 125.753906 118.339844 125.746094 118.347656 C 125.109375 118.984375 124.179688 119.230469 123.316406 118.980469 L 120.746094 118.246094 C 120.144531 119.113281 119.609375 120.027344 119.15625 120.988281 L 121.074219 122.84375 C 121.722656 123.46875 121.972656 124.394531 121.738281 125.261719 C 121.734375 125.273438 121.730469 125.285156 121.730469 125.292969 C 121.496094 126.164062 120.816406 126.839844 119.941406 127.058594 L 117.351562 127.703125 C 117.308594 128.230469 117.289062 128.761719 117.289062 129.296875 C 117.289062 129.828125 117.308594 130.351562 117.351562 130.871094 L 119.941406 131.519531 C 120.8125 131.738281 121.496094 132.417969 121.726562 133.285156 C 121.730469 133.296875 121.730469 133.304688 121.734375 133.316406 C 121.96875 134.183594 121.71875 135.109375 121.070312 135.734375 L 119.148438 137.589844 C 119.605469 138.550781 120.136719 139.464844 120.738281 140.332031 L 123.308594 139.597656 C 124.171875 139.351562 125.101562 139.601562 125.738281 140.238281 C 125.746094 140.242188 125.75 140.25 125.757812 140.257812 C 126.394531 140.890625 126.644531 141.820312 126.394531 142.683594 L 125.660156 145.25 C 126.527344 145.847656 127.445312 146.382812 128.40625 146.835938 L 130.265625 144.921875 C 130.890625 144.273438 131.820312 144.023438 132.6875 144.257812 C 132.699219 144.261719 132.710938 144.265625 132.71875 144.265625 C 133.589844 144.5 134.269531 145.179688 134.488281 146.050781 L 135.132812 148.636719 C 135.660156 148.679688 136.191406 148.699219 136.730469 148.699219 C 137.261719 148.699219 137.789062 148.679688 138.308594 148.636719 L 138.957031 146.050781 C 139.175781 145.179688 139.855469 144.5 140.726562 144.269531 C 140.738281 144.269531 140.746094 144.265625 140.757812 144.261719 C 141.625 144.03125 142.554688 144.277344 143.179688 144.925781 L 145.039062 146.84375 C 146 146.386719 146.917969 145.855469 147.785156 145.257812 L 147.050781 142.691406 C 146.804688 141.828125 147.050781 140.902344 147.691406 140.265625 C 147.695312 140.257812 147.703125 140.25 147.710938 140.246094 C 148.347656 139.609375 149.277344 139.363281 150.140625 139.609375 L 152.710938 140.34375 C 153.3125 139.480469 153.847656 138.5625 154.300781 137.601562 L 152.382812 135.746094 C 151.734375 135.121094 151.484375 134.195312 151.71875 133.328125 C 151.722656 133.316406 151.726562 133.308594 151.730469 133.296875 " fill-opacity="1" fill-rule="nonzero"/></g><g fill="#403737" fill-opacity="1"><g transform="translate(177.47487, 87.297942)"><g><path d="M 1.828125 -6.421875 L 1.984375 -0.984375 C 1.992188 -0.847656 2.039062 -0.738281 2.125 -0.65625 C 2.21875 -0.570312 2.335938 -0.535156 2.484375 -0.546875 L 3.953125 -0.578125 C 4.304688 -0.585938 4.601562 -0.679688 4.84375 -0.859375 C 5.09375 -1.035156 5.257812 -1.289062 5.34375 -1.625 C 5.382812 -1.726562 5.457031 -1.78125 5.5625 -1.78125 C 5.664062 -1.78125 5.710938 -1.71875 5.703125 -1.59375 L 5.578125 -0.5625 C 5.566406 -0.445312 5.519531 -0.347656 5.4375 -0.265625 C 5.363281 -0.191406 5.265625 -0.148438 5.140625 -0.140625 L 1.578125 -0.046875 L 0.4375 0.03125 C 0.34375 0.03125 0.296875 -0.015625 0.296875 -0.109375 C 0.296875 -0.203125 0.332031 -0.25 0.40625 -0.25 L 0.703125 -0.265625 C 0.835938 -0.285156 0.941406 -0.332031 1.015625 -0.40625 C 1.097656 -0.476562 1.140625 -0.570312 1.140625 -0.6875 L 0.96875 -6.390625 C 0.96875 -6.628906 0.816406 -6.757812 0.515625 -6.78125 L 0.21875 -6.8125 C 0.144531 -6.820312 0.101562 -6.863281 0.09375 -6.9375 C 0.09375 -7.03125 0.140625 -7.078125 0.234375 -7.078125 L 1.375 -7.0625 L 2.359375 -7.140625 C 2.460938 -7.140625 2.515625 -7.097656 2.515625 -7.015625 C 2.523438 -6.921875 2.488281 -6.875 2.40625 -6.875 L 2.234375 -6.828125 C 1.960938 -6.773438 1.828125 -6.640625 1.828125 -6.421875 Z M 1.828125 -6.421875 "/></g></g></g><g fill="#403737" fill-opacity="1"><g transform="translate(188.26207, 87.264675)"><g><path d="M 5.328125 0.46875 L 1.578125 0.140625 L 0.4375 0.078125 C 0.34375 0.078125 0.296875 0.03125 0.296875 -0.0625 C 0.304688 -0.15625 0.347656 -0.203125 0.421875 -0.203125 L 0.71875 -0.1875 C 0.851562 -0.1875 0.96875 -0.21875 1.0625 -0.28125 C 1.15625 -0.34375 1.207031 -0.429688 1.21875 -0.546875 L 1.71875 -6.21875 C 1.738281 -6.457031 1.597656 -6.609375 1.296875 -6.671875 L 1 -6.734375 C 0.925781 -6.734375 0.894531 -6.773438 0.90625 -6.859375 C 0.914062 -6.953125 0.96875 -7 1.0625 -7 L 2.203125 -6.84375 L 5.75 -6.53125 C 5.875 -6.519531 5.96875 -6.472656 6.03125 -6.390625 C 6.101562 -6.316406 6.144531 -6.21875 6.15625 -6.09375 L 6.21875 -5.1875 C 6.21875 -5.0625 6.160156 -5 6.046875 -5 C 5.941406 -5.007812 5.875 -5.070312 5.84375 -5.1875 C 5.78125 -5.507812 5.648438 -5.742188 5.453125 -5.890625 C 5.265625 -6.046875 4.992188 -6.140625 4.640625 -6.171875 L 3.0625 -6.3125 C 2.914062 -6.320312 2.796875 -6.289062 2.703125 -6.21875 C 2.609375 -6.144531 2.550781 -6.035156 2.53125 -5.890625 L 2.34375 -3.796875 C 2.34375 -3.710938 2.382812 -3.664062 2.46875 -3.65625 L 4.34375 -3.484375 C 4.4375 -3.484375 4.507812 -3.503906 4.5625 -3.546875 C 4.625 -3.585938 4.660156 -3.625 4.671875 -3.65625 C 4.691406 -3.6875 4.722656 -3.753906 4.765625 -3.859375 L 4.828125 -4 C 4.859375 -4.082031 4.910156 -4.117188 4.984375 -4.109375 C 5.066406 -4.097656 5.101562 -4.046875 5.09375 -3.953125 L 4.984375 -3.109375 L 4.9375 -2.28125 C 4.9375 -2.195312 4.890625 -2.148438 4.796875 -2.140625 C 4.710938 -2.148438 4.671875 -2.195312 4.671875 -2.28125 L 4.65625 -2.46875 C 4.625 -2.820312 4.503906 -3.003906 4.296875 -3.015625 L 2.421875 -3.1875 C 2.335938 -3.195312 2.289062 -3.15625 2.28125 -3.0625 L 2.078125 -0.75 C 2.066406 -0.613281 2.101562 -0.5 2.1875 -0.40625 C 2.269531 -0.3125 2.382812 -0.257812 2.53125 -0.25 L 4.1875 -0.109375 C 4.539062 -0.078125 4.847656 -0.128906 5.109375 -0.265625 C 5.367188 -0.410156 5.566406 -0.644531 5.703125 -0.96875 C 5.742188 -1.070312 5.800781 -1.117188 5.875 -1.109375 C 5.957031 -1.109375 6.007812 -1.085938 6.03125 -1.046875 C 6.0625 -1.003906 6.070312 -0.957031 6.0625 -0.90625 L 5.796875 0.109375 C 5.773438 0.210938 5.71875 0.300781 5.625 0.375 C 5.539062 0.445312 5.441406 0.476562 5.328125 0.46875 Z M 5.328125 0.46875 "/></g></g></g><g fill="#403737" fill-opacity="1"><g transform="translate(199.363469, 88.516966)"><g><path d="M 2.8125 -2.21875 L 5 -1.75 C 5.0625 -1.738281 5.085938 -1.773438 5.078125 -1.859375 L 4.5625 -5.125 L 2.75 -2.328125 C 2.71875 -2.273438 2.738281 -2.238281 2.8125 -2.21875 Z M 1.453125 -0.359375 C 1.429688 -0.328125 1.414062 -0.285156 1.40625 -0.234375 C 1.394531 -0.179688 1.410156 -0.117188 1.453125 -0.046875 C 1.492188 0.015625 1.554688 0.0625 1.640625 0.09375 L 1.84375 0.15625 C 1.925781 0.1875 1.957031 0.238281 1.9375 0.3125 C 1.914062 0.40625 1.859375 0.445312 1.765625 0.4375 L 0.9375 0.203125 L 0.03125 0.0625 C -0.0625 0.0390625 -0.0976562 -0.015625 -0.078125 -0.109375 C -0.0546875 -0.203125 -0.0078125 -0.242188 0.0625 -0.234375 L 0.25 -0.203125 C 0.53125 -0.179688 0.75 -0.273438 0.90625 -0.484375 L 4.75 -6.15625 C 4.800781 -6.21875 4.890625 -6.234375 5.015625 -6.203125 C 5.148438 -6.179688 5.222656 -6.128906 5.234375 -6.046875 L 6.40625 0.703125 C 6.445312 0.953125 6.601562 1.125 6.875 1.21875 L 7.078125 1.265625 C 7.109375 1.273438 7.128906 1.296875 7.140625 1.328125 C 7.160156 1.359375 7.164062 1.390625 7.15625 1.421875 C 7.132812 1.523438 7.078125 1.566406 6.984375 1.546875 L 5.859375 1.25 L 4.84375 1.09375 C 4.75 1.070312 4.710938 1.019531 4.734375 0.9375 C 4.753906 0.84375 4.804688 0.796875 4.890625 0.796875 L 5.109375 0.828125 C 5.203125 0.835938 5.28125 0.820312 5.34375 0.78125 C 5.414062 0.75 5.457031 0.703125 5.46875 0.640625 C 5.476562 0.585938 5.476562 0.539062 5.46875 0.5 L 5.21875 -1.140625 C 5.207031 -1.203125 5.15625 -1.242188 5.0625 -1.265625 L 2.53125 -1.8125 C 2.445312 -1.832031 2.390625 -1.8125 2.359375 -1.75 Z M 1.453125 -0.359375 "/></g></g></g><g fill="#403737" fill-opacity="1"><g transform="translate(211.01869, 91.319307)"><g><path d="M 5.5625 -5.46875 C 6.570312 -5.113281 7.273438 -4.539062 7.671875 -3.75 C 8.066406 -2.957031 8.09375 -2.078125 7.75 -1.109375 C 7.414062 -0.140625 6.816406 0.5625 5.953125 1 C 5.097656 1.4375 4.191406 1.484375 3.234375 1.140625 L 1.59375 0.5625 L 0.390625 0.1875 C 0.304688 0.15625 0.28125 0.0976562 0.3125 0.015625 C 0.34375 -0.0664062 0.394531 -0.09375 0.46875 -0.0625 L 0.734375 0.015625 C 0.878906 0.0351562 1 0.03125 1.09375 0 C 1.195312 -0.03125 1.269531 -0.109375 1.3125 -0.234375 L 3.21875 -5.609375 C 3.289062 -5.828125 3.1875 -6.003906 2.90625 -6.140625 L 2.65625 -6.265625 C 2.582031 -6.304688 2.5625 -6.363281 2.59375 -6.4375 C 2.613281 -6.519531 2.664062 -6.546875 2.75 -6.515625 L 3.921875 -6.046875 Z M 6.921875 -3.40625 C 6.835938 -3.769531 6.664062 -4.097656 6.40625 -4.390625 C 6.15625 -4.679688 5.820312 -4.898438 5.40625 -5.046875 L 4.546875 -5.359375 C 4.410156 -5.398438 4.285156 -5.394531 4.171875 -5.34375 C 4.066406 -5.300781 3.988281 -5.210938 3.9375 -5.078125 L 2.21875 -0.203125 C 2.164062 -0.0664062 2.164062 0.0507812 2.21875 0.15625 C 2.28125 0.269531 2.378906 0.347656 2.515625 0.390625 L 3.40625 0.71875 C 4.132812 0.96875 4.804688 0.921875 5.421875 0.578125 C 6.035156 0.234375 6.484375 -0.332031 6.765625 -1.125 C 7.046875 -1.914062 7.097656 -2.675781 6.921875 -3.40625 Z M 6.921875 -3.40625 "/></g></g></g><g fill="#403737" fill-opacity="1"><g transform="translate(222.442895, 95.70643)"><g><path d="M 4.78125 2.390625 L 1.40625 0.703125 L 0.375 0.25 C 0.289062 0.195312 0.269531 0.128906 0.3125 0.046875 C 0.351562 -0.0351562 0.40625 -0.0546875 0.46875 -0.015625 L 0.734375 0.09375 C 0.867188 0.144531 0.988281 0.15625 1.09375 0.125 C 1.195312 0.09375 1.273438 0.0234375 1.328125 -0.078125 L 3.875 -5.171875 C 3.976562 -5.390625 3.90625 -5.578125 3.65625 -5.734375 L 3.40625 -5.890625 C 3.34375 -5.929688 3.328125 -5.988281 3.359375 -6.0625 C 3.398438 -6.144531 3.460938 -6.160156 3.546875 -6.109375 L 4.546875 -5.578125 L 7.734375 -3.984375 C 7.847656 -3.929688 7.921875 -3.851562 7.953125 -3.75 C 7.992188 -3.644531 8 -3.535156 7.96875 -3.421875 L 7.671875 -2.53125 C 7.628906 -2.414062 7.554688 -2.382812 7.453125 -2.4375 C 7.359375 -2.488281 7.316406 -2.570312 7.328125 -2.6875 C 7.390625 -3.007812 7.359375 -3.273438 7.234375 -3.484375 C 7.117188 -3.703125 6.898438 -3.890625 6.578125 -4.046875 L 5.171875 -4.75 C 5.046875 -4.820312 4.921875 -4.835938 4.796875 -4.796875 C 4.679688 -4.753906 4.585938 -4.671875 4.515625 -4.546875 L 3.578125 -2.65625 C 3.535156 -2.582031 3.554688 -2.53125 3.640625 -2.5 L 5.3125 -1.65625 C 5.394531 -1.613281 5.46875 -1.601562 5.53125 -1.625 C 5.601562 -1.644531 5.65625 -1.664062 5.6875 -1.6875 C 5.726562 -1.707031 5.78125 -1.757812 5.84375 -1.84375 L 5.953125 -1.953125 C 6.015625 -2.015625 6.078125 -2.023438 6.140625 -1.984375 C 6.210938 -1.953125 6.226562 -1.894531 6.1875 -1.8125 L 5.765625 -1.0625 L 5.4375 -0.328125 C 5.394531 -0.242188 5.332031 -0.21875 5.25 -0.25 C 5.175781 -0.28125 5.15625 -0.335938 5.1875 -0.421875 L 5.234375 -0.59375 C 5.335938 -0.925781 5.296875 -1.140625 5.109375 -1.234375 L 3.4375 -2.078125 C 3.351562 -2.109375 3.289062 -2.082031 3.25 -2 L 2.203125 0.078125 C 2.148438 0.203125 2.144531 0.316406 2.1875 0.421875 C 2.226562 0.535156 2.3125 0.628906 2.4375 0.703125 L 3.921875 1.4375 C 4.234375 1.59375 4.539062 1.65625 4.84375 1.625 C 5.144531 1.59375 5.414062 1.445312 5.65625 1.1875 C 5.738281 1.101562 5.8125 1.078125 5.875 1.109375 C 5.945312 1.148438 5.984375 1.191406 5.984375 1.234375 C 5.992188 1.273438 5.988281 1.320312 5.96875 1.375 L 5.359375 2.21875 C 5.296875 2.320312 5.207031 2.390625 5.09375 2.421875 C 4.988281 2.453125 4.882812 2.441406 4.78125 2.390625 Z M 4.78125 2.390625 "/></g></g></g><g fill="#403737" fill-opacity="1"><g transform="translate(232.314351, 100.953785)"><g><path d="M 6.046875 -0.984375 C 6.453125 -1.023438 6.769531 -1.21875 7 -1.5625 C 7.238281 -1.914062 7.300781 -2.285156 7.1875 -2.671875 C 7.070312 -3.054688 6.816406 -3.378906 6.421875 -3.640625 L 5.640625 -4.15625 C 5.421875 -4.300781 5.238281 -4.265625 5.09375 -4.046875 L 3.84375 -2.15625 C 3.789062 -2.082031 3.789062 -2.023438 3.84375 -1.984375 L 4.875 -1.3125 C 5.257812 -1.050781 5.648438 -0.941406 6.046875 -0.984375 Z M 6.953125 -3.8125 C 7.484375 -3.457031 7.832031 -3.03125 8 -2.53125 C 8.164062 -2.03125 8.097656 -1.554688 7.796875 -1.109375 C 7.503906 -0.660156 7.09375 -0.398438 6.5625 -0.328125 C 6.03125 -0.265625 5.550781 -0.363281 5.125 -0.625 L 5.109375 -0.609375 C 5.203125 -0.492188 5.25 -0.363281 5.25 -0.21875 L 5.1875 2.640625 C 5.175781 2.898438 5.285156 3.132812 5.515625 3.34375 L 5.65625 3.453125 C 5.707031 3.515625 5.710938 3.578125 5.671875 3.640625 C 5.617188 3.722656 5.550781 3.738281 5.46875 3.6875 C 4.957031 3.300781 4.632812 3.0625 4.5 2.96875 C 4.375 2.882812 4.3125 2.757812 4.3125 2.59375 L 4.453125 -0.671875 C 4.453125 -0.921875 4.382812 -1.085938 4.25 -1.171875 C 4.25 -1.171875 4.242188 -1.175781 4.234375 -1.1875 L 3.640625 -1.578125 C 3.554688 -1.640625 3.492188 -1.632812 3.453125 -1.5625 L 2.046875 0.5625 C 1.984375 0.65625 1.96875 0.753906 2 0.859375 C 2.03125 0.972656 2.097656 1.070312 2.203125 1.15625 L 2.53125 1.390625 C 2.59375 1.429688 2.597656 1.492188 2.546875 1.578125 C 2.492188 1.660156 2.429688 1.675781 2.359375 1.625 L 1.34375 0.890625 L 0.375 0.3125 C 0.300781 0.269531 0.285156 0.207031 0.328125 0.125 C 0.378906 0.0390625 0.441406 0.0195312 0.515625 0.0625 L 0.765625 0.203125 C 1.003906 0.335938 1.191406 0.300781 1.328125 0.09375 L 4.46875 -4.671875 C 4.601562 -4.867188 4.554688 -5.0625 4.328125 -5.25 L 4.09375 -5.453125 C 4.03125 -5.503906 4.019531 -5.5625 4.0625 -5.625 C 4.113281 -5.695312 4.175781 -5.707031 4.25 -5.65625 L 5.390625 -4.859375 Z M 6.953125 -3.8125 "/></g></g></g><g fill="#403737" fill-opacity="1"><g transform="translate(241.735439, 107.596073)"><g/></g></g><g fill="#403737" fill-opacity="1"><g transform="translate(247.23042, 112.25068)"><g><path d="M 6.9375 -1.96875 L 2.984375 2.03125 C 2.898438 2.113281 2.863281 2.207031 2.875 2.3125 C 2.882812 2.425781 2.929688 2.535156 3.015625 2.640625 L 3.21875 2.84375 C 3.269531 2.894531 3.257812 2.957031 3.1875 3.03125 C 3.164062 3.050781 3.132812 3.0625 3.09375 3.0625 C 3.050781 3.0625 3.019531 3.050781 3 3.03125 L 2.21875 2.203125 L 1.3125 1.359375 C 1.28125 1.328125 1.265625 1.289062 1.265625 1.25 C 1.273438 1.21875 1.289062 1.191406 1.3125 1.171875 C 1.382812 1.097656 1.445312 1.085938 1.5 1.140625 L 1.765625 1.40625 C 1.859375 1.476562 1.960938 1.519531 2.078125 1.53125 C 2.191406 1.539062 2.289062 1.503906 2.375 1.421875 L 6.328125 -2.578125 C 6.453125 -2.710938 6.457031 -2.835938 6.34375 -2.953125 L 5.75 -3.546875 C 5.507812 -3.773438 5.265625 -3.890625 5.015625 -3.890625 C 4.765625 -3.890625 4.472656 -3.804688 4.140625 -3.640625 C 4.046875 -3.597656 3.972656 -3.601562 3.921875 -3.65625 C 3.867188 -3.707031 3.84375 -3.753906 3.84375 -3.796875 C 3.851562 -3.847656 3.875 -3.890625 3.90625 -3.921875 L 4.859375 -4.796875 C 4.972656 -4.859375 5.078125 -4.84375 5.171875 -4.75 L 9.109375 -0.859375 C 9.210938 -0.753906 9.210938 -0.640625 9.109375 -0.515625 L 8.296875 0.421875 C 8.265625 0.472656 8.226562 0.5 8.1875 0.5 C 8.144531 0.5 8.097656 0.472656 8.046875 0.421875 C 7.992188 0.367188 7.988281 0.296875 8.03125 0.203125 C 8.195312 -0.128906 8.269531 -0.425781 8.25 -0.6875 C 8.238281 -0.945312 8.125 -1.1875 7.90625 -1.40625 L 7.3125 -2 C 7.1875 -2.113281 7.0625 -2.101562 6.9375 -1.96875 Z M 6.9375 -1.96875 "/></g></g></g><g fill="#403737" fill-opacity="1"><g transform="translate(254.896211, 120.185032)"><g><path d="M 8.09375 -1.203125 C 8.738281 -0.378906 8.988281 0.484375 8.84375 1.390625 C 8.707031 2.304688 8.222656 3.085938 7.390625 3.734375 C 6.566406 4.390625 5.679688 4.671875 4.734375 4.578125 C 3.796875 4.484375 3.007812 4.03125 2.375 3.21875 C 1.738281 2.40625 1.488281 1.53125 1.625 0.59375 C 1.769531 -0.332031 2.253906 -1.117188 3.078125 -1.765625 C 3.898438 -2.410156 4.78125 -2.6875 5.71875 -2.59375 C 6.65625 -2.5 7.445312 -2.035156 8.09375 -1.203125 Z M 8.078125 1.296875 C 8.222656 0.929688 8.269531 0.550781 8.21875 0.15625 C 8.164062 -0.226562 8 -0.597656 7.71875 -0.953125 C 7.21875 -1.597656 6.632812 -1.941406 5.96875 -1.984375 C 5.300781 -2.035156 4.628906 -1.796875 3.953125 -1.265625 C 3.253906 -0.722656 2.753906 -0.0703125 2.453125 0.6875 C 2.296875 1.050781 2.238281 1.429688 2.28125 1.828125 C 2.320312 2.234375 2.484375 2.613281 2.765625 2.96875 C 3.253906 3.601562 3.84375 3.929688 4.53125 3.953125 C 5.21875 3.984375 5.90625 3.726562 6.59375 3.1875 C 7.289062 2.644531 7.785156 2.015625 8.078125 1.296875 Z M 8.078125 1.296875 "/></g></g></g><g fill="#403737" fill-opacity="1"><g transform="translate(262.50662, 130.572949)"><g/></g></g><g fill="#403737" fill-opacity="1"><g transform="translate(266.194367, 136.762906)"><g><path d="M 6.59375 -1.03125 L 1.734375 1.390625 C 1.609375 1.441406 1.523438 1.53125 1.484375 1.65625 C 1.453125 1.78125 1.46875 1.90625 1.53125 2.03125 L 2.1875 3.34375 C 2.34375 3.664062 2.550781 3.898438 2.8125 4.046875 C 3.070312 4.191406 3.375 4.234375 3.71875 4.171875 C 3.832031 4.160156 3.910156 4.203125 3.953125 4.296875 C 3.992188 4.390625 3.957031 4.457031 3.84375 4.5 L 2.859375 4.8125 C 2.742188 4.851562 2.632812 4.851562 2.53125 4.8125 C 2.425781 4.78125 2.347656 4.710938 2.296875 4.609375 L 0.703125 1.40625 L 0.140625 0.40625 C 0.0976562 0.320312 0.117188 0.257812 0.203125 0.21875 C 0.285156 0.175781 0.347656 0.1875 0.390625 0.25 L 0.53125 0.515625 C 0.601562 0.628906 0.691406 0.707031 0.796875 0.75 C 0.898438 0.789062 1.003906 0.785156 1.109375 0.734375 L 6.203125 -1.796875 C 6.421875 -1.910156 6.476562 -2.109375 6.375 -2.390625 L 6.265625 -2.671875 C 6.234375 -2.734375 6.253906 -2.78125 6.328125 -2.8125 C 6.410156 -2.851562 6.472656 -2.832031 6.515625 -2.75 L 6.984375 -1.71875 L 7.46875 -0.84375 C 7.519531 -0.75 7.503906 -0.6875 7.421875 -0.65625 C 7.335938 -0.613281 7.273438 -0.628906 7.234375 -0.703125 L 7.140625 -0.84375 C 6.972656 -1.070312 6.789062 -1.132812 6.59375 -1.03125 Z M 6.59375 -1.03125 "/></g></g></g><g fill="#403737" fill-opacity="1"><g transform="translate(270.761616, 146.537148)"><g><path d="M 1.8125 5.03125 L 0.53125 1.484375 L 0.09375 0.421875 C 0.0625 0.335938 0.0859375 0.28125 0.171875 0.25 C 0.265625 0.21875 0.328125 0.234375 0.359375 0.296875 L 0.46875 0.578125 C 0.53125 0.703125 0.609375 0.789062 0.703125 0.84375 C 0.796875 0.90625 0.898438 0.914062 1.015625 0.875 L 6.375 -1.0625 C 6.601562 -1.144531 6.675781 -1.335938 6.59375 -1.640625 L 6.53125 -1.921875 C 6.5 -1.984375 6.523438 -2.03125 6.609375 -2.0625 C 6.691406 -2.09375 6.75 -2.066406 6.78125 -1.984375 L 7.125 -0.890625 L 8.328125 2.46875 C 8.367188 2.582031 8.367188 2.6875 8.328125 2.78125 C 8.296875 2.882812 8.226562 2.960938 8.125 3.015625 L 7.296875 3.453125 C 7.191406 3.503906 7.117188 3.476562 7.078125 3.375 C 7.046875 3.269531 7.070312 3.1875 7.15625 3.125 C 7.425781 2.925781 7.585938 2.707031 7.640625 2.46875 C 7.703125 2.238281 7.671875 1.957031 7.546875 1.625 L 7.015625 0.140625 C 6.960938 -0.00390625 6.882812 -0.101562 6.78125 -0.15625 C 6.675781 -0.21875 6.554688 -0.222656 6.421875 -0.171875 L 4.4375 0.546875 C 4.351562 0.566406 4.320312 0.617188 4.34375 0.703125 L 4.984375 2.46875 C 5.015625 2.550781 5.0625 2.609375 5.125 2.640625 C 5.1875 2.679688 5.234375 2.703125 5.265625 2.703125 C 5.304688 2.710938 5.382812 2.710938 5.5 2.703125 L 5.65625 2.703125 C 5.738281 2.691406 5.789062 2.722656 5.8125 2.796875 C 5.84375 2.867188 5.8125 2.921875 5.71875 2.953125 L 4.921875 3.203125 L 4.15625 3.515625 C 4.070312 3.546875 4.007812 3.523438 3.96875 3.453125 C 3.9375 3.367188 3.960938 3.3125 4.046875 3.28125 L 4.203125 3.1875 C 4.503906 3.019531 4.617188 2.835938 4.546875 2.640625 L 3.90625 0.875 C 3.882812 0.789062 3.832031 0.765625 3.75 0.796875 L 1.5625 1.578125 C 1.425781 1.617188 1.332031 1.695312 1.28125 1.8125 C 1.226562 1.925781 1.226562 2.054688 1.28125 2.203125 L 1.84375 3.75 C 1.96875 4.082031 2.148438 4.335938 2.390625 4.515625 C 2.628906 4.691406 2.921875 4.773438 3.265625 4.765625 C 3.378906 4.765625 3.445312 4.800781 3.46875 4.875 C 3.5 4.945312 3.5 5 3.46875 5.03125 C 3.445312 5.0625 3.414062 5.085938 3.375 5.109375 L 2.328125 5.296875 C 2.222656 5.328125 2.117188 5.316406 2.015625 5.265625 C 1.921875 5.210938 1.851562 5.132812 1.8125 5.03125 Z M 1.8125 5.03125 "/></g></g></g><g fill="#403737" fill-opacity="1"><g transform="translate(274.289567, 157.137251)"><g><path d="M 3.203125 1.609375 L 3.703125 3.796875 C 3.710938 3.867188 3.75 3.878906 3.8125 3.828125 L 6.5625 2 L 3.265625 1.53125 C 3.210938 1.519531 3.191406 1.546875 3.203125 1.609375 Z M 0.9375 1.171875 C 0.90625 1.160156 0.863281 1.160156 0.8125 1.171875 C 0.757812 1.191406 0.707031 1.234375 0.65625 1.296875 C 0.613281 1.359375 0.597656 1.429688 0.609375 1.515625 L 0.640625 1.75 C 0.640625 1.832031 0.601562 1.882812 0.53125 1.90625 C 0.4375 1.925781 0.378906 1.890625 0.359375 1.796875 L 0.203125 0.921875 L -0.03125 0.0625 C -0.0507812 -0.03125 -0.015625 -0.0859375 0.078125 -0.109375 C 0.171875 -0.128906 0.222656 -0.101562 0.234375 -0.03125 L 0.296875 0.140625 C 0.390625 0.410156 0.5625 0.570312 0.8125 0.625 L 7.578125 1.734375 C 7.660156 1.742188 7.71875 1.8125 7.75 1.9375 C 7.78125 2.0625 7.757812 2.148438 7.6875 2.203125 L 2.046875 6.109375 C 1.835938 6.253906 1.753906 6.46875 1.796875 6.75 L 1.828125 6.96875 C 1.828125 7 1.816406 7.023438 1.796875 7.046875 C 1.773438 7.066406 1.75 7.078125 1.71875 7.078125 C 1.613281 7.109375 1.550781 7.082031 1.53125 7 L 1.328125 5.859375 L 1.046875 4.859375 C 1.023438 4.765625 1.054688 4.707031 1.140625 4.6875 C 1.234375 4.664062 1.296875 4.695312 1.328125 4.78125 L 1.390625 4.984375 C 1.421875 5.078125 1.46875 5.144531 1.53125 5.1875 C 1.59375 5.226562 1.648438 5.238281 1.703125 5.21875 C 1.765625 5.207031 1.8125 5.191406 1.84375 5.171875 L 3.234375 4.25 C 3.273438 4.21875 3.285156 4.160156 3.265625 4.078125 L 2.703125 1.546875 C 2.679688 1.460938 2.640625 1.414062 2.578125 1.40625 Z M 0.9375 1.171875 "/></g></g></g><g fill="#403737" fill-opacity="1"><g transform="translate(276.640108, 168.891826)"><g><path d="M 7.3125 2.75 C 7.40625 3.820312 7.175781 4.703125 6.625 5.390625 C 6.082031 6.078125 5.296875 6.46875 4.265625 6.5625 C 3.242188 6.65625 2.351562 6.40625 1.59375 5.8125 C 0.84375 5.226562 0.421875 4.425781 0.328125 3.40625 L 0.15625 1.6875 L 0 0.4375 C -0.0078125 0.34375 0.0234375 0.289062 0.109375 0.28125 C 0.203125 0.28125 0.25 0.316406 0.25 0.390625 L 0.296875 0.6875 C 0.328125 0.8125 0.378906 0.910156 0.453125 0.984375 C 0.535156 1.066406 0.640625 1.101562 0.765625 1.09375 L 6.4375 0.5625 C 6.675781 0.539062 6.796875 0.375 6.796875 0.0625 L 6.796875 -0.234375 C 6.804688 -0.304688 6.847656 -0.347656 6.921875 -0.359375 C 7.015625 -0.359375 7.066406 -0.3125 7.078125 -0.21875 L 7.140625 1.03125 Z M 5.984375 4.84375 C 6.296875 4.625 6.53125 4.335938 6.6875 3.984375 C 6.84375 3.628906 6.894531 3.226562 6.84375 2.78125 L 6.765625 1.875 C 6.753906 1.726562 6.703125 1.613281 6.609375 1.53125 C 6.515625 1.445312 6.394531 1.410156 6.25 1.421875 L 1.109375 1.90625 C 0.972656 1.925781 0.867188 1.984375 0.796875 2.078125 C 0.722656 2.171875 0.691406 2.289062 0.703125 2.4375 L 0.796875 3.390625 C 0.867188 4.160156 1.1875 4.75 1.75 5.15625 C 2.3125 5.570312 3.015625 5.738281 3.859375 5.65625 C 4.703125 5.570312 5.410156 5.300781 5.984375 4.84375 Z M 5.984375 4.84375 "/></g></g></g><g fill="#403737" fill-opacity="1"><g transform="translate(277.461728, 181.101532)"><g><path d="M -0.15625 5.34375 L -0.046875 1.578125 L -0.0625 0.4375 C -0.0625 0.34375 -0.015625 0.296875 0.078125 0.296875 C 0.171875 0.296875 0.21875 0.332031 0.21875 0.40625 L 0.234375 0.703125 C 0.234375 0.847656 0.269531 0.960938 0.34375 1.046875 C 0.414062 1.128906 0.507812 1.171875 0.625 1.171875 L 6.328125 1.34375 C 6.566406 1.351562 6.707031 1.207031 6.75 0.90625 L 6.78125 0.609375 C 6.78125 0.535156 6.820312 0.5 6.90625 0.5 C 7 0.507812 7.046875 0.5625 7.046875 0.65625 L 6.96875 1.78125 L 6.859375 5.34375 C 6.859375 5.46875 6.816406 5.566406 6.734375 5.640625 C 6.660156 5.722656 6.566406 5.773438 6.453125 5.796875 L 5.53125 5.90625 C 5.40625 5.914062 5.34375 5.863281 5.34375 5.75 C 5.351562 5.644531 5.410156 5.570312 5.515625 5.53125 C 5.835938 5.445312 6.066406 5.304688 6.203125 5.109375 C 6.347656 4.910156 6.425781 4.632812 6.4375 4.28125 L 6.484375 2.703125 C 6.492188 2.554688 6.457031 2.4375 6.375 2.34375 C 6.289062 2.25 6.175781 2.203125 6.03125 2.203125 L 3.921875 2.140625 C 3.835938 2.128906 3.796875 2.164062 3.796875 2.25 L 3.734375 4.125 C 3.734375 4.21875 3.753906 4.289062 3.796875 4.34375 C 3.847656 4.40625 3.890625 4.441406 3.921875 4.453125 C 3.960938 4.472656 4.035156 4.5 4.140625 4.53125 L 4.265625 4.578125 C 4.347656 4.609375 4.390625 4.660156 4.390625 4.734375 C 4.390625 4.816406 4.34375 4.851562 4.25 4.84375 L 3.390625 4.796875 L 2.578125 4.796875 C 2.492188 4.796875 2.441406 4.753906 2.421875 4.671875 C 2.421875 4.585938 2.460938 4.539062 2.546875 4.53125 L 2.75 4.515625 C 3.09375 4.460938 3.265625 4.332031 3.265625 4.125 L 3.328125 2.25 C 3.328125 2.164062 3.28125 2.117188 3.1875 2.109375 L 0.859375 2.046875 C 0.722656 2.035156 0.613281 2.070312 0.53125 2.15625 C 0.445312 2.25 0.398438 2.367188 0.390625 2.515625 L 0.34375 4.171875 C 0.332031 4.523438 0.40625 4.828125 0.5625 5.078125 C 0.726562 5.335938 0.972656 5.523438 1.296875 5.640625 C 1.398438 5.671875 1.453125 5.722656 1.453125 5.796875 C 1.453125 5.878906 1.429688 5.929688 1.390625 5.953125 C 1.359375 5.984375 1.316406 6 1.265625 6 L 0.234375 5.796875 C 0.117188 5.773438 0.0234375 5.722656 -0.046875 5.640625 C -0.128906 5.554688 -0.164062 5.457031 -0.15625 5.34375 Z M -0.15625 5.34375 "/></g></g></g><g fill="#403737" fill-opacity="1"><g transform="translate(276.842369, 192.26492)"><g><path d="M 3.4375 5.078125 C 3.644531 5.429688 3.957031 5.640625 4.375 5.703125 C 4.789062 5.765625 5.144531 5.660156 5.4375 5.390625 C 5.738281 5.128906 5.925781 4.769531 6 4.3125 L 6.140625 3.375 C 6.179688 3.113281 6.070312 2.960938 5.8125 2.921875 L 3.5625 2.578125 C 3.476562 2.566406 3.429688 2.59375 3.421875 2.65625 L 3.234375 3.890625 C 3.160156 4.335938 3.226562 4.734375 3.4375 5.078125 Z M 6.390625 4.703125 C 6.285156 5.347656 6.039062 5.847656 5.65625 6.203125 C 5.28125 6.554688 4.828125 6.691406 4.296875 6.609375 C 3.765625 6.523438 3.351562 6.257812 3.0625 5.8125 C 2.78125 5.363281 2.664062 4.890625 2.71875 4.390625 L 2.703125 4.390625 C 2.640625 4.515625 2.535156 4.609375 2.390625 4.671875 L -0.203125 5.8125 C -0.453125 5.914062 -0.625 6.109375 -0.71875 6.390625 L -0.75 6.578125 C -0.789062 6.660156 -0.847656 6.695312 -0.921875 6.6875 C -1.015625 6.675781 -1.050781 6.617188 -1.03125 6.515625 C -0.90625 5.890625 -0.828125 5.5 -0.796875 5.34375 C -0.773438 5.1875 -0.691406 5.070312 -0.546875 5 L 2.484375 3.765625 C 2.710938 3.660156 2.835938 3.53125 2.859375 3.375 C 2.859375 3.375 2.859375 3.367188 2.859375 3.359375 L 2.96875 2.640625 C 2.988281 2.546875 2.957031 2.492188 2.875 2.484375 L 0.359375 2.09375 C 0.242188 2.082031 0.140625 2.113281 0.046875 2.1875 C -0.0351562 2.257812 -0.09375 2.351562 -0.125 2.46875 L -0.203125 2.890625 C -0.210938 2.960938 -0.265625 2.992188 -0.359375 2.984375 C -0.453125 2.972656 -0.488281 2.921875 -0.46875 2.828125 L -0.234375 1.59375 L -0.125 0.484375 C -0.101562 0.398438 -0.0507812 0.359375 0.03125 0.359375 C 0.125 0.367188 0.171875 0.414062 0.171875 0.5 L 0.140625 0.765625 C 0.117188 1.046875 0.234375 1.203125 0.484375 1.234375 L 6.109375 2.09375 C 6.347656 2.125 6.503906 1.992188 6.578125 1.703125 L 6.65625 1.421875 C 6.675781 1.347656 6.722656 1.316406 6.796875 1.328125 C 6.890625 1.347656 6.929688 1.40625 6.921875 1.5 L 6.671875 2.859375 Z M 6.390625 4.703125 "/></g></g></g><g fill="#403737" fill-opacity="1"><g transform="translate(146.489904, 263.935813)"><g><path d="M 6.578125 -0.0625 C 6.578125 -0.0390625 6.566406 -0.0195312 6.546875 0 C 6.523438 0.0195312 6.5 0.03125 6.46875 0.03125 L 5.6875 0 L 4.984375 0.03125 C 4.921875 0.03125 4.890625 0.00390625 4.890625 -0.046875 C 4.890625 -0.109375 4.914062 -0.144531 4.96875 -0.15625 L 5.078125 -0.171875 C 5.273438 -0.191406 5.375 -0.289062 5.375 -0.46875 L 5.328125 -3.796875 C 5.328125 -3.835938 5.3125 -3.859375 5.28125 -3.859375 C 5.269531 -3.859375 5.257812 -3.851562 5.25 -3.84375 L 3.34375 -0.015625 C 3.3125 0.0234375 3.28125 0.046875 3.25 0.046875 C 3.21875 0.046875 3.191406 0.0234375 3.171875 -0.015625 L 1.265625 -3.71875 C 1.253906 -3.738281 1.242188 -3.75 1.234375 -3.75 C 1.203125 -3.75 1.1875 -3.722656 1.1875 -3.671875 L 1.140625 -0.46875 C 1.140625 -0.3125 1.234375 -0.21875 1.421875 -0.1875 L 1.546875 -0.15625 C 1.609375 -0.144531 1.640625 -0.113281 1.640625 -0.0625 C 1.640625 -0.0078125 1.601562 0.015625 1.53125 0.015625 L 0.953125 0 L 0.28125 0.015625 C 0.207031 0.015625 0.171875 -0.0078125 0.171875 -0.0625 C 0.171875 -0.113281 0.195312 -0.144531 0.25 -0.15625 L 0.453125 -0.1875 C 0.671875 -0.207031 0.78125 -0.300781 0.78125 -0.46875 L 0.859375 -4.453125 C 0.867188 -4.617188 0.773438 -4.710938 0.578125 -4.734375 L 0.453125 -4.75 C 0.398438 -4.757812 0.375 -4.789062 0.375 -4.84375 C 0.375 -4.90625 0.410156 -4.9375 0.484375 -4.9375 L 1.09375 -4.921875 C 1.25 -4.921875 1.351562 -4.875 1.40625 -4.78125 L 3.390625 -0.84375 L 5.328125 -4.78125 C 5.367188 -4.863281 5.472656 -4.910156 5.640625 -4.921875 L 6.265625 -4.9375 C 6.335938 -4.9375 6.375 -4.90625 6.375 -4.84375 C 6.375 -4.789062 6.347656 -4.757812 6.296875 -4.75 L 6.171875 -4.734375 C 5.984375 -4.722656 5.890625 -4.628906 5.890625 -4.453125 L 5.96875 -0.46875 C 5.96875 -0.382812 6 -0.316406 6.0625 -0.265625 C 6.125 -0.210938 6.195312 -0.179688 6.28125 -0.171875 L 6.484375 -0.15625 C 6.546875 -0.15625 6.578125 -0.125 6.578125 -0.0625 Z M 6.578125 -0.0625 "/></g></g></g><g fill="#403737" fill-opacity="1"><g transform="translate(156.873297, 263.935813)"><g><path d="M 0.421875 0.03125 C 0.359375 0.03125 0.328125 0.00390625 0.328125 -0.046875 C 0.328125 -0.109375 0.351562 -0.144531 0.40625 -0.15625 L 0.53125 -0.171875 C 0.71875 -0.191406 0.8125 -0.289062 0.8125 -0.46875 L 0.8125 -4.453125 C 0.8125 -4.617188 0.703125 -4.710938 0.484375 -4.734375 L 0.28125 -4.765625 C 0.226562 -4.773438 0.203125 -4.800781 0.203125 -4.84375 C 0.203125 -4.914062 0.238281 -4.953125 0.3125 -4.953125 L 1.109375 -4.921875 L 1.796875 -4.953125 C 1.867188 -4.953125 1.90625 -4.921875 1.90625 -4.859375 C 1.90625 -4.796875 1.875 -4.765625 1.8125 -4.765625 L 1.6875 -4.734375 C 1.5 -4.703125 1.40625 -4.609375 1.40625 -4.453125 L 1.40625 -0.46875 C 1.40625 -0.382812 1.4375 -0.316406 1.5 -0.265625 C 1.5625 -0.210938 1.640625 -0.179688 1.734375 -0.171875 L 1.9375 -0.15625 C 1.988281 -0.15625 2.015625 -0.125 2.015625 -0.0625 C 2.015625 -0.0390625 2.003906 -0.0195312 1.984375 0 C 1.960938 0.0195312 1.941406 0.03125 1.921875 0.03125 L 1.125 0 Z M 0.421875 0.03125 "/></g></g></g><g fill="#403737" fill-opacity="1"><g transform="translate(162.736356, 263.935813)"><g><path d="M 4.3125 -1.046875 L 4.3125 -4.453125 C 4.3125 -4.617188 4.207031 -4.710938 4 -4.734375 L 3.796875 -4.765625 C 3.742188 -4.773438 3.71875 -4.804688 3.71875 -4.859375 C 3.71875 -4.910156 3.75 -4.9375 3.8125 -4.9375 L 4.5 -4.921875 L 5.046875 -4.9375 C 5.109375 -4.9375 5.140625 -4.910156 5.140625 -4.859375 C 5.140625 -4.804688 5.113281 -4.773438 5.0625 -4.765625 L 4.9375 -4.734375 C 4.75 -4.703125 4.65625 -4.609375 4.65625 -4.453125 L 4.65625 0 C 4.65625 0.0507812 4.628906 0.078125 4.578125 0.078125 L 4.484375 0.078125 C 4.367188 0.078125 4.269531 0.0195312 4.1875 -0.09375 L 1.21875 -3.875 C 1.207031 -3.882812 1.191406 -3.890625 1.171875 -3.890625 C 1.160156 -3.890625 1.15625 -3.867188 1.15625 -3.828125 L 1.15625 -0.46875 C 1.15625 -0.3125 1.25 -0.21875 1.4375 -0.1875 L 1.546875 -0.15625 C 1.609375 -0.144531 1.640625 -0.113281 1.640625 -0.0625 C 1.640625 -0.0078125 1.609375 0.015625 1.546875 0.015625 L 0.984375 0 L 0.3125 0.015625 C 0.238281 0.015625 0.203125 -0.0078125 0.203125 -0.0625 C 0.203125 -0.113281 0.226562 -0.144531 0.28125 -0.15625 L 0.484375 -0.1875 C 0.703125 -0.207031 0.8125 -0.300781 0.8125 -0.46875 L 0.8125 -4.453125 C 0.8125 -4.617188 0.71875 -4.710938 0.53125 -4.734375 L 0.40625 -4.75 C 0.351562 -4.757812 0.328125 -4.789062 0.328125 -4.84375 C 0.328125 -4.90625 0.359375 -4.9375 0.421875 -4.9375 L 0.984375 -4.921875 C 1.117188 -4.921875 1.222656 -4.875 1.296875 -4.78125 L 4.234375 -1.03125 C 4.242188 -1.007812 4.257812 -1 4.28125 -1 C 4.300781 -1 4.3125 -1.015625 4.3125 -1.046875 Z M 4.3125 -1.046875 "/></g></g></g><g fill="#403737" fill-opacity="1"><g transform="translate(171.72779, 263.935813)"><g><path d="M 0.421875 0.03125 C 0.359375 0.03125 0.328125 0.00390625 0.328125 -0.046875 C 0.328125 -0.109375 0.351562 -0.144531 0.40625 -0.15625 L 0.53125 -0.171875 C 0.71875 -0.191406 0.8125 -0.289062 0.8125 -0.46875 L 0.8125 -4.453125 C 0.8125 -4.617188 0.703125 -4.710938 0.484375 -4.734375 L 0.28125 -4.765625 C 0.226562 -4.773438 0.203125 -4.800781 0.203125 -4.84375 C 0.203125 -4.914062 0.238281 -4.953125 0.3125 -4.953125 L 1.109375 -4.921875 L 1.796875 -4.953125 C 1.867188 -4.953125 1.90625 -4.921875 1.90625 -4.859375 C 1.90625 -4.796875 1.875 -4.765625 1.8125 -4.765625 L 1.6875 -4.734375 C 1.5 -4.703125 1.40625 -4.609375 1.40625 -4.453125 L 1.40625 -0.46875 C 1.40625 -0.382812 1.4375 -0.316406 1.5 -0.265625 C 1.5625 -0.210938 1.640625 -0.179688 1.734375 -0.171875 L 1.9375 -0.15625 C 1.988281 -0.15625 2.015625 -0.125 2.015625 -0.0625 C 2.015625 -0.0390625 2.003906 -0.0195312 1.984375 0 C 1.960938 0.0195312 1.941406 0.03125 1.921875 0.03125 L 1.125 0 Z M 0.421875 0.03125 "/></g></g></g><g fill="#403737" fill-opacity="1"><g transform="translate(177.590849, 263.935813)"><g><path d="M 3.65625 -1.265625 C 3.65625 -0.828125 3.488281 -0.492188 3.15625 -0.265625 C 2.832031 -0.0351562 2.4375 0.078125 1.96875 0.078125 C 1.5 0.078125 1.109375 0.0195312 0.796875 -0.09375 C 0.492188 -0.207031 0.34375 -0.332031 0.34375 -0.46875 L 0.34375 -1.28125 C 0.34375 -1.382812 0.382812 -1.4375 0.46875 -1.4375 C 0.53125 -1.4375 0.570312 -1.390625 0.59375 -1.296875 C 0.707031 -0.941406 0.863281 -0.675781 1.0625 -0.5 C 1.257812 -0.320312 1.53125 -0.234375 1.875 -0.234375 C 2.226562 -0.234375 2.515625 -0.3125 2.734375 -0.46875 C 2.953125 -0.625 3.0625 -0.84375 3.0625 -1.125 C 3.0625 -1.4375 2.890625 -1.695312 2.546875 -1.90625 C 2.390625 -2 2.21875 -2.085938 2.03125 -2.171875 C 1.84375 -2.265625 1.65625 -2.359375 1.46875 -2.453125 C 1.28125 -2.554688 1.109375 -2.664062 0.953125 -2.78125 C 0.609375 -3.03125 0.4375 -3.347656 0.4375 -3.734375 C 0.4375 -4.117188 0.582031 -4.425781 0.875 -4.65625 C 1.175781 -4.882812 1.523438 -5 1.921875 -5 C 2.328125 -5 2.671875 -4.945312 2.953125 -4.84375 C 3.234375 -4.75 3.375 -4.640625 3.375 -4.515625 L 3.375 -3.796875 C 3.375 -3.703125 3.335938 -3.65625 3.265625 -3.65625 C 3.203125 -3.65625 3.15625 -3.703125 3.125 -3.796875 C 3.03125 -4.097656 2.898438 -4.320312 2.734375 -4.46875 C 2.578125 -4.613281 2.335938 -4.6875 2.015625 -4.6875 C 1.703125 -4.6875 1.453125 -4.609375 1.265625 -4.453125 C 1.085938 -4.304688 1 -4.125 1 -3.90625 C 1 -3.6875 1.085938 -3.492188 1.265625 -3.328125 C 1.453125 -3.171875 1.675781 -3.03125 1.9375 -2.90625 C 2.195312 -2.78125 2.457031 -2.648438 2.71875 -2.515625 C 2.976562 -2.378906 3.195312 -2.207031 3.375 -2 C 3.5625 -1.789062 3.65625 -1.546875 3.65625 -1.265625 Z M 3.65625 -1.265625 "/></g></g></g><g fill="#403737" fill-opacity="1"><g transform="translate(185.239547, 263.935813)"><g><path d="M 2.484375 -4.40625 L 2.484375 -0.46875 C 2.484375 -0.382812 2.515625 -0.316406 2.578125 -0.265625 C 2.640625 -0.210938 2.710938 -0.179688 2.796875 -0.171875 L 3 -0.15625 C 3.0625 -0.15625 3.09375 -0.125 3.09375 -0.0625 C 3.09375 -0.0390625 3.078125 -0.0195312 3.046875 0 C 3.023438 0.0195312 3.003906 0.03125 2.984375 0.03125 L 2.1875 0 L 1.328125 0.03125 C 1.296875 0.03125 1.269531 0.0195312 1.25 0 C 1.226562 -0.0195312 1.21875 -0.0390625 1.21875 -0.0625 C 1.21875 -0.125 1.25 -0.15625 1.3125 -0.15625 L 1.5625 -0.171875 C 1.65625 -0.179688 1.734375 -0.210938 1.796875 -0.265625 C 1.859375 -0.316406 1.890625 -0.382812 1.890625 -0.46875 L 1.890625 -4.40625 C 1.890625 -4.53125 1.828125 -4.59375 1.703125 -4.59375 L 1.125 -4.59375 C 0.882812 -4.59375 0.695312 -4.53125 0.5625 -4.40625 C 0.4375 -4.28125 0.335938 -4.097656 0.265625 -3.859375 C 0.234375 -3.785156 0.191406 -3.75 0.140625 -3.75 C 0.0976562 -3.75 0.0625 -3.757812 0.03125 -3.78125 C 0.0078125 -3.8125 0.00390625 -3.84375 0.015625 -3.875 L 0.0625 -4.78125 C 0.0703125 -4.875 0.125 -4.921875 0.21875 -4.921875 L 4.125 -4.921875 C 4.21875 -4.921875 4.269531 -4.863281 4.28125 -4.75 L 4.359375 -3.875 C 4.359375 -3.84375 4.34375 -3.8125 4.3125 -3.78125 C 4.289062 -3.757812 4.253906 -3.75 4.203125 -3.75 C 4.160156 -3.75 4.125 -3.785156 4.09375 -3.859375 C 4.007812 -4.109375 3.898438 -4.289062 3.765625 -4.40625 C 3.640625 -4.53125 3.46875 -4.59375 3.25 -4.59375 L 2.65625 -4.59375 C 2.539062 -4.59375 2.484375 -4.53125 2.484375 -4.40625 Z M 2.484375 -4.40625 "/></g></g></g><g fill="#403737" fill-opacity="1"><g transform="translate(193.239749, 263.935813)"><g><path d="M 3.171875 -2.921875 C 3.390625 -3.097656 3.5 -3.332031 3.5 -3.625 C 3.5 -3.925781 3.390625 -4.164062 3.171875 -4.34375 C 2.953125 -4.519531 2.679688 -4.609375 2.359375 -4.609375 L 1.6875 -4.609375 C 1.5 -4.609375 1.40625 -4.515625 1.40625 -4.328125 L 1.40625 -2.734375 C 1.40625 -2.679688 1.429688 -2.65625 1.484375 -2.65625 L 2.359375 -2.65625 C 2.679688 -2.65625 2.953125 -2.742188 3.171875 -2.921875 Z M 2.59375 -4.921875 C 3.039062 -4.921875 3.410156 -4.804688 3.703125 -4.578125 C 3.992188 -4.347656 4.140625 -4.039062 4.140625 -3.65625 C 4.140625 -3.28125 3.992188 -2.96875 3.703125 -2.71875 C 3.421875 -2.476562 3.109375 -2.351562 2.765625 -2.34375 L 2.75 -2.328125 C 2.851562 -2.296875 2.929688 -2.238281 2.984375 -2.15625 L 4.046875 -0.46875 C 4.148438 -0.300781 4.304688 -0.203125 4.515625 -0.171875 L 4.640625 -0.15625 C 4.703125 -0.144531 4.734375 -0.113281 4.734375 -0.0625 C 4.734375 0 4.695312 0.03125 4.625 0.03125 C 4.175781 0.0078125 3.894531 0 3.78125 0 C 3.675781 0 3.59375 -0.046875 3.53125 -0.140625 L 2.34375 -2.109375 C 2.25 -2.253906 2.144531 -2.328125 2.03125 -2.328125 L 1.515625 -2.328125 C 1.441406 -2.328125 1.40625 -2.300781 1.40625 -2.25 L 1.40625 -0.46875 C 1.40625 -0.382812 1.4375 -0.316406 1.5 -0.265625 C 1.5625 -0.210938 1.640625 -0.179688 1.734375 -0.171875 L 2.03125 -0.15625 C 2.082031 -0.15625 2.109375 -0.125 2.109375 -0.0625 C 2.109375 0 2.070312 0.03125 2 0.03125 L 1.125 0 L 0.34375 0.03125 C 0.28125 0.03125 0.242188 0 0.234375 -0.0625 C 0.234375 -0.125 0.265625 -0.15625 0.328125 -0.15625 L 0.53125 -0.171875 C 0.71875 -0.191406 0.8125 -0.289062 0.8125 -0.46875 L 0.8125 -4.453125 C 0.8125 -4.617188 0.703125 -4.710938 0.484375 -4.734375 L 0.28125 -4.765625 C 0.226562 -4.773438 0.203125 -4.800781 0.203125 -4.84375 C 0.203125 -4.914062 0.238281 -4.953125 0.3125 -4.953125 L 1.28125 -4.921875 Z M 2.59375 -4.921875 "/></g></g></g><g fill="#403737" fill-opacity="1"><g transform="translate(201.53521, 263.935813)"><g><path d="M 0.421875 0.03125 C 0.359375 0.03125 0.328125 0.00390625 0.328125 -0.046875 C 0.328125 -0.109375 0.351562 -0.144531 0.40625 -0.15625 L 0.53125 -0.171875 C 0.71875 -0.191406 0.8125 -0.289062 0.8125 -0.46875 L 0.8125 -4.453125 C 0.8125 -4.617188 0.703125 -4.710938 0.484375 -4.734375 L 0.28125 -4.765625 C 0.226562 -4.773438 0.203125 -4.800781 0.203125 -4.84375 C 0.203125 -4.914062 0.238281 -4.953125 0.3125 -4.953125 L 1.109375 -4.921875 L 1.796875 -4.953125 C 1.867188 -4.953125 1.90625 -4.921875 1.90625 -4.859375 C 1.90625 -4.796875 1.875 -4.765625 1.8125 -4.765625 L 1.6875 -4.734375 C 1.5 -4.703125 1.40625 -4.609375 1.40625 -4.453125 L 1.40625 -0.46875 C 1.40625 -0.382812 1.4375 -0.316406 1.5 -0.265625 C 1.5625 -0.210938 1.640625 -0.179688 1.734375 -0.171875 L 1.9375 -0.15625 C 1.988281 -0.15625 2.015625 -0.125 2.015625 -0.0625 C 2.015625 -0.0390625 2.003906 -0.0195312 1.984375 0 C 1.960938 0.0195312 1.941406 0.03125 1.921875 0.03125 L 1.125 0 Z M 0.421875 0.03125 "/></g></g></g><g fill="#403737" fill-opacity="1"><g transform="translate(207.39827, 263.935813)"><g><path d="M 3.734375 0 L 1.109375 0 L 0.3125 0.03125 C 0.238281 0.03125 0.203125 0 0.203125 -0.0625 C 0.203125 -0.125 0.226562 -0.15625 0.28125 -0.15625 L 0.484375 -0.171875 C 0.578125 -0.179688 0.65625 -0.210938 0.71875 -0.265625 C 0.78125 -0.316406 0.8125 -0.382812 0.8125 -0.46875 L 0.8125 -4.453125 C 0.8125 -4.617188 0.703125 -4.710938 0.484375 -4.734375 L 0.28125 -4.765625 C 0.226562 -4.765625 0.203125 -4.796875 0.203125 -4.859375 C 0.203125 -4.921875 0.238281 -4.953125 0.3125 -4.953125 L 1.109375 -4.921875 L 3.59375 -4.921875 C 3.6875 -4.921875 3.757812 -4.894531 3.8125 -4.84375 C 3.875 -4.789062 3.910156 -4.722656 3.921875 -4.640625 L 4.015625 -4 C 4.023438 -3.90625 3.988281 -3.859375 3.90625 -3.859375 C 3.832031 -3.859375 3.785156 -3.898438 3.765625 -3.984375 C 3.691406 -4.203125 3.582031 -4.359375 3.4375 -4.453125 C 3.300781 -4.546875 3.109375 -4.59375 2.859375 -4.59375 L 1.75 -4.59375 C 1.65625 -4.59375 1.570312 -4.5625 1.5 -4.5 C 1.4375 -4.445312 1.40625 -4.367188 1.40625 -4.265625 L 1.40625 -2.796875 C 1.40625 -2.734375 1.4375 -2.703125 1.5 -2.703125 L 2.8125 -2.703125 C 2.875 -2.703125 2.921875 -2.71875 2.953125 -2.75 C 2.992188 -2.78125 3.019531 -2.804688 3.03125 -2.828125 C 3.050781 -2.859375 3.070312 -2.914062 3.09375 -3 L 3.125 -3.09375 C 3.132812 -3.144531 3.164062 -3.171875 3.21875 -3.171875 C 3.28125 -3.171875 3.3125 -3.140625 3.3125 -3.078125 L 3.28125 -2.46875 L 3.3125 -1.90625 C 3.3125 -1.84375 3.28125 -1.804688 3.21875 -1.796875 C 3.164062 -1.796875 3.132812 -1.828125 3.125 -1.890625 L 3.09375 -2.015625 C 3.050781 -2.253906 2.957031 -2.375 2.8125 -2.375 L 1.5 -2.375 C 1.4375 -2.375 1.40625 -2.34375 1.40625 -2.28125 L 1.40625 -0.640625 C 1.40625 -0.546875 1.4375 -0.46875 1.5 -0.40625 C 1.570312 -0.351562 1.65625 -0.328125 1.75 -0.328125 L 2.921875 -0.328125 C 3.160156 -0.328125 3.367188 -0.382812 3.546875 -0.5 C 3.722656 -0.625 3.847656 -0.800781 3.921875 -1.03125 C 3.941406 -1.101562 3.976562 -1.140625 4.03125 -1.140625 C 4.082031 -1.140625 4.117188 -1.125 4.140625 -1.09375 C 4.160156 -1.070312 4.171875 -1.046875 4.171875 -1.015625 L 4.0625 -0.28125 C 4.050781 -0.195312 4.015625 -0.128906 3.953125 -0.078125 C 3.890625 -0.0234375 3.816406 0 3.734375 0 Z M 3.734375 0 "/></g></g></g><g fill="#403737" fill-opacity="1"><g transform="translate(215.489857, 263.935813)"><g><path d="M 3.65625 -1.265625 C 3.65625 -0.828125 3.488281 -0.492188 3.15625 -0.265625 C 2.832031 -0.0351562 2.4375 0.078125 1.96875 0.078125 C 1.5 0.078125 1.109375 0.0195312 0.796875 -0.09375 C 0.492188 -0.207031 0.34375 -0.332031 0.34375 -0.46875 L 0.34375 -1.28125 C 0.34375 -1.382812 0.382812 -1.4375 0.46875 -1.4375 C 0.53125 -1.4375 0.570312 -1.390625 0.59375 -1.296875 C 0.707031 -0.941406 0.863281 -0.675781 1.0625 -0.5 C 1.257812 -0.320312 1.53125 -0.234375 1.875 -0.234375 C 2.226562 -0.234375 2.515625 -0.3125 2.734375 -0.46875 C 2.953125 -0.625 3.0625 -0.84375 3.0625 -1.125 C 3.0625 -1.4375 2.890625 -1.695312 2.546875 -1.90625 C 2.390625 -2 2.21875 -2.085938 2.03125 -2.171875 C 1.84375 -2.265625 1.65625 -2.359375 1.46875 -2.453125 C 1.28125 -2.554688 1.109375 -2.664062 0.953125 -2.78125 C 0.609375 -3.03125 0.4375 -3.347656 0.4375 -3.734375 C 0.4375 -4.117188 0.582031 -4.425781 0.875 -4.65625 C 1.175781 -4.882812 1.523438 -5 1.921875 -5 C 2.328125 -5 2.671875 -4.945312 2.953125 -4.84375 C 3.234375 -4.75 3.375 -4.640625 3.375 -4.515625 L 3.375 -3.796875 C 3.375 -3.703125 3.335938 -3.65625 3.265625 -3.65625 C 3.203125 -3.65625 3.15625 -3.703125 3.125 -3.796875 C 3.03125 -4.097656 2.898438 -4.320312 2.734375 -4.46875 C 2.578125 -4.613281 2.335938 -4.6875 2.015625 -4.6875 C 1.703125 -4.6875 1.453125 -4.609375 1.265625 -4.453125 C 1.085938 -4.304688 1 -4.125 1 -3.90625 C 1 -3.6875 1.085938 -3.492188 1.265625 -3.328125 C 1.453125 -3.171875 1.675781 -3.03125 1.9375 -2.90625 C 2.195312 -2.78125 2.457031 -2.648438 2.71875 -2.515625 C 2.976562 -2.378906 3.195312 -2.207031 3.375 -2 C 3.5625 -1.789062 3.65625 -1.546875 3.65625 -1.265625 Z M 3.65625 -1.265625 "/></g></g></g><g fill="#403737" fill-opacity="1"><g transform="translate(223.133642, 263.935813)"><g/></g></g></svg>