<svg xmlns="http://www.w3.org/2000/svg" xmlns:xlink="http://www.w3.org/1999/xlink" width="500" zoomAndPan="magnify" viewBox="0 0 375 374.999991" height="500" preserveAspectRatio="xMidYMid meet" version="1.0"><defs><g/><clipPath id="id1"><path d="M 88 74 L 290 74 L 290 275 L 88 275 Z M 88 74 " clip-rule="nonzero"/></clipPath><clipPath id="id2"><path d="M 47.589844 167.472656 L 162.367188 62.929688 L 297.210938 210.972656 L 182.4375 315.515625 Z M 47.589844 167.472656 " clip-rule="nonzero"/></clipPath><clipPath id="id3"><path d="M 47.589844 167.472656 L 195.636719 32.628906 L 330.480469 180.671875 L 182.4375 315.515625 Z M 47.589844 167.472656 " clip-rule="nonzero"/></clipPath><clipPath id="id4"><path d="M 115.707031 142 L 180 142 L 180 206 L 115.707031 206 Z M 115.707031 142 " clip-rule="nonzero"/></clipPath><clipPath id="id5"><path d="M 189.28125 211.292969 L 222.78125 211.292969 L 222.78125 244.597656 L 189.28125 244.597656 Z M 189.28125 211.292969 " clip-rule="nonzero"/></clipPath><clipPath id="id6"><path d="M 201.6875 155.214844 L 265.695312 155.214844 L 265.695312 219 L 201.6875 219 Z M 201.6875 155.214844 " clip-rule="nonzero"/></clipPath><clipPath id="id7"><path d="M 121 102.851562 L 161 102.851562 L 161 142 L 121 142 Z M 121 102.851562 " clip-rule="nonzero"/></clipPath></defs><rect x="-37.5" width="450" fill="#ffffff" y="-37.499999" height="449.999989" fill-opacity="1"/><rect x="-37.5" width="450" fill="#ffffff" y="-37.499999" height="449.999989" fill-opacity="1"/><rect x="-37.5" width="450" fill="#ffffff" y="-37.499999" height="449.999989" fill-opacity="1"/><g clip-path="url(#id1)"><g clip-path="url(#id2)"><g clip-path="url(#id3)"><path fill="#403737" d="M 256.457031 248.09375 C 215.65625 285.261719 152.179688 282.296875 115.015625 241.496094 C 77.847656 200.691406 80.808594 137.21875 121.613281 100.050781 C 162.417969 62.886719 225.890625 65.847656 263.058594 106.648438 C 300.222656 147.453125 297.261719 210.929688 256.457031 248.09375 Z M 122.609375 101.144531 C 82.390625 137.78125 79.472656 200.28125 116.109375 240.5 C 152.742188 280.71875 215.242188 283.636719 255.460938 247 C 295.683594 210.367188 298.597656 147.867188 261.964844 107.648438 C 225.328125 67.425781 162.828125 64.511719 122.609375 101.144531 Z M 122.609375 101.144531 " fill-opacity="1" fill-rule="nonzero"/></g></g></g><g clip-path="url(#id4)"><path fill="#000000" d="M 147.664062 194.996094 C 136.035156 194.996094 126.605469 185.585938 126.605469 173.976562 C 126.605469 162.367188 136.035156 152.957031 147.664062 152.957031 C 159.296875 152.957031 168.726562 162.367188 168.726562 173.976562 C 168.726562 185.585938 159.296875 194.996094 147.664062 194.996094 Z M 172.304688 180.546875 C 172.6875 179.121094 173.808594 178.007812 175.242188 177.652344 L 179.496094 176.589844 C 179.566406 175.726562 179.601562 174.855469 179.601562 173.976562 C 179.601562 173.101562 179.566406 172.238281 179.496094 171.382812 L 175.246094 170.320312 C 173.808594 169.960938 172.691406 168.847656 172.3125 167.421875 C 172.308594 167.402344 172.300781 167.386719 172.296875 167.367188 C 171.914062 165.941406 172.324219 164.421875 173.390625 163.394531 L 176.546875 160.351562 C 175.796875 158.773438 174.921875 157.265625 173.9375 155.84375 L 169.714844 157.046875 C 168.289062 157.453125 166.765625 157.046875 165.71875 156 C 165.707031 155.992188 165.699219 155.980469 165.6875 155.96875 C 164.640625 154.925781 164.234375 153.402344 164.640625 151.980469 L 165.847656 147.765625 C 164.425781 146.78125 162.917969 145.90625 161.339844 145.160156 L 158.285156 148.308594 C 157.253906 149.367188 155.730469 149.777344 154.300781 149.394531 C 154.285156 149.390625 154.269531 149.382812 154.25 149.378906 C 152.820312 149 151.707031 147.882812 151.347656 146.449219 L 150.285156 142.203125 C 149.421875 142.136719 148.546875 142.097656 147.664062 142.097656 C 146.792969 142.097656 145.925781 142.132812 145.070312 142.203125 L 144.003906 146.445312 C 143.644531 147.878906 142.527344 148.996094 141.097656 149.375 C 141.082031 149.378906 141.066406 149.382812 141.046875 149.390625 C 139.617188 149.773438 138.09375 149.359375 137.066406 148.300781 L 134.015625 145.148438 C 132.433594 145.894531 130.925781 146.769531 129.5 147.753906 L 130.707031 151.96875 C 131.113281 153.390625 130.707031 154.910156 129.660156 155.953125 C 129.648438 155.964844 129.636719 155.976562 129.625 155.988281 C 128.578125 157.03125 127.054688 157.4375 125.632812 157.03125 L 121.40625 155.824219 C 120.417969 157.246094 119.542969 158.75 118.796875 160.328125 L 121.949219 163.375 C 123.011719 164.402344 123.421875 165.925781 123.039062 167.351562 C 123.035156 167.367188 123.027344 167.386719 123.023438 167.402344 C 122.644531 168.828125 121.523438 169.941406 120.089844 170.300781 L 115.835938 171.359375 C 115.765625 172.222656 115.730469 173.09375 115.730469 173.976562 C 115.730469 174.847656 115.765625 175.710938 115.832031 176.566406 L 120.085938 177.628906 C 121.519531 177.988281 122.640625 179.101562 123.019531 180.527344 C 123.023438 180.546875 123.027344 180.5625 123.03125 180.582031 C 123.414062 182.007812 123.003906 183.527344 121.941406 184.554688 L 118.785156 187.597656 C 119.535156 189.175781 120.40625 190.683594 121.394531 192.105469 L 125.617188 190.902344 C 127.039062 190.496094 128.566406 190.902344 129.609375 191.949219 C 129.621094 191.960938 129.632812 191.96875 129.644531 191.980469 C 130.691406 193.023438 131.097656 194.546875 130.6875 195.96875 L 129.480469 200.183594 C 130.90625 201.167969 132.414062 202.042969 133.992188 202.789062 L 137.046875 199.640625 C 138.074219 198.582031 139.597656 198.171875 141.027344 198.554688 C 141.046875 198.558594 141.0625 198.566406 141.078125 198.570312 C 142.507812 198.949219 143.625 200.066406 143.984375 201.5 L 145.046875 205.746094 C 145.910156 205.8125 146.78125 205.851562 147.664062 205.851562 C 148.539062 205.851562 149.40625 205.816406 150.261719 205.746094 L 151.328125 201.503906 C 151.6875 200.070312 152.800781 198.953125 154.230469 198.574219 C 154.25 198.570312 154.265625 198.566406 154.28125 198.5625 C 155.710938 198.179688 157.238281 198.589844 158.265625 199.648438 L 161.316406 202.800781 C 162.894531 202.054688 164.40625 201.183594 165.828125 200.195312 L 164.625 195.980469 C 164.21875 194.558594 164.625 193.039062 165.671875 191.996094 C 165.683594 191.984375 165.695312 191.972656 165.707031 191.960938 C 166.753906 190.917969 168.277344 190.511719 169.699219 190.917969 L 173.921875 192.125 C 174.910156 190.703125 175.785156 189.199219 176.535156 187.621094 L 173.382812 184.574219 C 172.316406 183.546875 171.910156 182.027344 172.292969 180.597656 C 172.296875 180.582031 172.300781 180.566406 172.304688 180.546875 " fill-opacity="1" fill-rule="nonzero"/></g><path fill="#000000" d="M 198.308594 158.460938 C 187.535156 158.460938 178.800781 149.742188 178.800781 138.992188 C 178.800781 128.234375 187.535156 119.519531 198.308594 119.519531 C 209.085938 119.519531 217.820312 128.234375 217.820312 138.992188 C 217.820312 149.742188 209.085938 158.460938 198.308594 158.460938 Z M 221.136719 145.078125 C 221.488281 143.757812 222.527344 142.726562 223.855469 142.394531 L 227.796875 141.414062 C 227.859375 140.613281 227.894531 139.804688 227.894531 138.992188 C 227.894531 138.183594 227.863281 137.382812 227.796875 136.589844 L 223.859375 135.605469 C 222.53125 135.273438 221.492188 134.242188 221.140625 132.917969 C 221.136719 132.902344 221.132812 132.886719 221.128906 132.871094 C 220.773438 131.550781 221.152344 130.140625 222.140625 129.191406 L 225.0625 126.367188 C 224.371094 124.90625 223.558594 123.511719 222.648438 122.195312 L 218.734375 123.308594 C 217.414062 123.6875 216.003906 123.308594 215.035156 122.339844 C 215.023438 122.328125 215.015625 122.320312 215.003906 122.308594 C 214.035156 121.34375 213.65625 119.933594 214.035156 118.617188 L 215.15625 114.710938 C 213.835938 113.800781 212.4375 112.988281 210.976562 112.296875 L 208.148438 115.214844 C 207.195312 116.195312 205.78125 116.574219 204.457031 116.21875 C 204.441406 116.214844 204.425781 116.210938 204.410156 116.207031 C 203.085938 115.855469 202.054688 114.820312 201.722656 113.492188 L 200.738281 109.558594 C 199.9375 109.496094 199.125 109.460938 198.308594 109.460938 C 197.5 109.460938 196.699219 109.496094 195.90625 109.558594 L 194.917969 113.488281 C 194.585938 114.816406 193.550781 115.851562 192.226562 116.203125 C 192.210938 116.207031 192.195312 116.210938 192.179688 116.214844 C 190.855469 116.570312 189.441406 116.191406 188.492188 115.207031 L 185.664062 112.289062 C 184.199219 112.980469 182.804688 113.785156 181.484375 114.699219 L 182.601562 118.605469 C 182.976562 119.921875 182.597656 121.332031 181.628906 122.296875 C 181.617188 122.308594 181.609375 122.316406 181.597656 122.328125 C 180.628906 123.296875 179.214844 123.671875 177.898438 123.292969 L 173.984375 122.175781 C 173.070312 123.492188 172.261719 124.886719 171.566406 126.347656 L 174.488281 129.171875 C 175.472656 130.125 175.851562 131.53125 175.496094 132.851562 C 175.492188 132.871094 175.488281 132.886719 175.484375 132.902344 C 175.128906 134.222656 174.09375 135.253906 172.761719 135.585938 L 168.824219 136.566406 C 168.757812 137.367188 168.726562 138.175781 168.726562 138.992188 C 168.726562 139.796875 168.757812 140.597656 168.820312 141.390625 L 172.761719 142.375 C 174.089844 142.707031 175.125 143.738281 175.476562 145.0625 C 175.484375 145.078125 175.488281 145.09375 175.492188 145.109375 C 175.847656 146.429688 175.464844 147.839844 174.480469 148.789062 L 171.558594 151.613281 C 172.25 153.074219 173.058594 154.46875 173.972656 155.785156 L 177.886719 154.671875 C 179.203125 154.296875 180.617188 154.671875 181.585938 155.640625 C 181.59375 155.648438 181.605469 155.660156 181.617188 155.671875 C 182.585938 156.636719 182.960938 158.046875 182.585938 159.363281 L 181.464844 163.269531 C 182.785156 164.179688 184.179688 164.988281 185.644531 165.683594 L 188.472656 162.765625 C 189.425781 161.785156 190.839844 161.40625 192.160156 161.761719 C 192.179688 161.765625 192.195312 161.769531 192.210938 161.773438 C 193.535156 162.125 194.566406 163.160156 194.898438 164.488281 L 195.882812 168.421875 C 196.683594 168.484375 197.492188 168.519531 198.308594 168.519531 C 199.117188 168.519531 199.921875 168.484375 200.714844 168.421875 L 201.703125 164.488281 C 202.035156 163.164062 203.066406 162.128906 204.394531 161.777344 C 204.410156 161.773438 204.425781 161.769531 204.441406 161.765625 C 205.765625 161.410156 207.175781 161.792969 208.128906 162.773438 L 210.957031 165.691406 C 212.417969 165 213.816406 164.191406 215.136719 163.28125 L 214.019531 159.375 C 213.644531 158.058594 214.019531 156.648438 214.992188 155.683594 C 215 155.671875 215.011719 155.664062 215.023438 155.652344 C 215.992188 154.683594 217.402344 154.308594 218.722656 154.6875 L 222.632812 155.804688 C 223.546875 154.488281 224.359375 153.09375 225.054688 151.632812 L 222.132812 148.808594 C 221.148438 147.859375 220.765625 146.449219 221.125 145.125 C 221.128906 145.109375 221.132812 145.09375 221.136719 145.078125 " fill-opacity="1" fill-rule="nonzero"/><g clip-path="url(#id5)"><path fill="#000000" d="M 205.984375 238.925781 C 199.90625 238.925781 194.984375 234.011719 194.984375 227.949219 C 194.984375 221.882812 199.90625 216.96875 205.984375 216.96875 C 212.058594 216.96875 216.984375 221.882812 216.984375 227.949219 C 216.984375 234.011719 212.058594 238.925781 205.984375 238.925781 Z M 218.851562 231.382812 C 219.050781 230.636719 219.636719 230.054688 220.386719 229.867188 L 222.609375 229.3125 C 222.644531 228.863281 222.664062 228.40625 222.664062 227.949219 C 222.664062 227.492188 222.644531 227.042969 222.609375 226.59375 L 220.386719 226.039062 C 219.636719 225.851562 219.054688 225.269531 218.855469 224.523438 C 218.855469 224.515625 218.851562 224.507812 218.847656 224.496094 C 218.648438 223.753906 218.863281 222.957031 219.417969 222.421875 L 221.066406 220.832031 C 220.675781 220.007812 220.21875 219.222656 219.703125 218.480469 L 217.5 219.105469 C 216.753906 219.320312 215.957031 219.105469 215.414062 218.5625 C 215.40625 218.554688 215.402344 218.546875 215.394531 218.542969 C 214.847656 217.996094 214.636719 217.203125 214.847656 216.460938 L 215.480469 214.257812 C 214.738281 213.746094 213.949219 213.289062 213.125 212.898438 L 211.527344 214.542969 C 210.992188 215.097656 210.195312 215.308594 209.449219 215.109375 C 209.441406 215.105469 209.429688 215.105469 209.421875 215.101562 C 208.675781 214.902344 208.09375 214.320312 207.90625 213.570312 L 207.351562 211.355469 C 206.898438 211.316406 206.441406 211.296875 205.984375 211.296875 C 205.527344 211.296875 205.074219 211.316406 204.628906 211.351562 L 204.070312 213.570312 C 203.882812 214.316406 203.300781 214.902344 202.554688 215.097656 C 202.542969 215.101562 202.535156 215.105469 202.527344 215.105469 C 201.78125 215.304688 200.984375 215.09375 200.445312 214.539062 L 198.851562 212.890625 C 198.027344 213.28125 197.238281 213.738281 196.496094 214.253906 L 197.125 216.453125 C 197.335938 217.195312 197.125 217.992188 196.578125 218.535156 C 196.570312 218.542969 196.566406 218.546875 196.558594 218.554688 C 196.011719 219.097656 195.214844 219.3125 194.472656 219.097656 L 192.269531 218.46875 C 191.753906 219.210938 191.296875 219.996094 190.902344 220.820312 L 192.550781 222.410156 C 193.105469 222.949219 193.320312 223.742188 193.121094 224.488281 C 193.117188 224.496094 193.113281 224.507812 193.113281 224.515625 C 192.914062 225.261719 192.328125 225.839844 191.578125 226.027344 L 189.355469 226.582031 C 189.320312 227.03125 189.300781 227.488281 189.300781 227.949219 C 189.300781 228.402344 189.320312 228.855469 189.355469 229.300781 L 191.578125 229.855469 C 192.328125 230.042969 192.910156 230.625 193.109375 231.371094 C 193.113281 231.378906 193.113281 231.390625 193.117188 231.398438 C 193.316406 232.144531 193.101562 232.9375 192.546875 233.472656 L 190.898438 235.0625 C 191.289062 235.886719 191.746094 236.675781 192.261719 237.417969 L 194.464844 236.789062 C 195.210938 236.578125 196.007812 236.789062 196.550781 237.335938 C 196.558594 237.34375 196.5625 237.347656 196.570312 237.355469 C 197.117188 237.898438 197.328125 238.695312 197.117188 239.4375 L 196.484375 241.636719 C 197.226562 242.152344 198.015625 242.609375 198.839844 243 L 200.4375 241.355469 C 200.972656 240.800781 201.769531 240.585938 202.515625 240.789062 C 202.523438 240.789062 202.535156 240.792969 202.542969 240.792969 C 203.289062 240.992188 203.871094 241.578125 204.058594 242.324219 L 204.613281 244.542969 C 205.066406 244.578125 205.523438 244.597656 205.984375 244.597656 C 206.4375 244.597656 206.890625 244.578125 207.339844 244.542969 L 207.894531 242.328125 C 208.082031 241.578125 208.664062 240.996094 209.410156 240.796875 C 209.421875 240.796875 209.429688 240.792969 209.441406 240.789062 C 210.1875 240.589844 210.980469 240.804688 211.519531 241.359375 L 213.113281 243.003906 C 213.9375 242.613281 214.726562 242.160156 215.46875 241.644531 L 214.839844 239.441406 C 214.628906 238.699219 214.839844 237.90625 215.386719 237.359375 C 215.394531 237.355469 215.398438 237.347656 215.40625 237.34375 C 215.953125 236.796875 216.75 236.585938 217.492188 236.796875 L 219.695312 237.429688 C 220.214844 236.6875 220.671875 235.898438 221.0625 235.074219 L 219.414062 233.484375 C 218.859375 232.949219 218.644531 232.152344 218.847656 231.40625 C 218.847656 231.398438 218.851562 231.390625 218.851562 231.382812 " fill-opacity="1" fill-rule="nonzero"/></g><g clip-path="url(#id6)"><path fill="#000000" d="M 233.757812 208.140625 C 222.125 208.140625 212.699219 198.730469 212.699219 187.121094 C 212.699219 175.511719 222.125 166.101562 233.757812 166.101562 C 245.390625 166.101562 254.816406 175.511719 254.816406 187.121094 C 254.816406 198.730469 245.390625 208.140625 233.757812 208.140625 Z M 258.398438 193.691406 C 258.78125 192.265625 259.898438 191.152344 261.335938 190.796875 L 265.589844 189.734375 C 265.660156 188.871094 265.695312 188 265.695312 187.121094 C 265.695312 186.25 265.660156 185.382812 265.589844 184.53125 L 261.339844 183.464844 C 259.902344 183.105469 258.785156 181.992188 258.402344 180.566406 C 258.398438 180.550781 258.394531 180.53125 258.390625 180.515625 C 258.007812 179.089844 258.417969 177.566406 259.480469 176.539062 L 262.636719 173.496094 C 261.890625 171.917969 261.015625 170.414062 260.03125 168.992188 L 255.804688 170.195312 C 254.382812 170.597656 252.855469 170.191406 251.8125 169.148438 C 251.800781 169.136719 251.789062 169.125 251.777344 169.113281 C 250.734375 168.070312 250.328125 166.546875 250.734375 165.128906 L 251.941406 160.914062 C 250.519531 159.925781 249.011719 159.054688 247.429688 158.304688 L 244.378906 161.453125 C 243.347656 162.515625 241.824219 162.921875 240.394531 162.539062 C 240.378906 162.535156 240.359375 162.53125 240.34375 162.527344 C 238.914062 162.144531 237.800781 161.027344 237.441406 159.597656 L 236.378906 155.351562 C 235.511719 155.28125 234.640625 155.246094 233.757812 155.246094 C 232.882812 155.246094 232.019531 155.28125 231.164062 155.347656 L 230.097656 159.59375 C 229.738281 161.027344 228.621094 162.140625 227.191406 162.519531 C 227.175781 162.527344 227.15625 162.53125 227.140625 162.535156 C 225.710938 162.917969 224.1875 162.507812 223.15625 161.445312 L 220.105469 158.296875 C 218.527344 159.042969 217.019531 159.914062 215.59375 160.898438 L 216.800781 165.113281 C 217.203125 166.535156 216.796875 168.058594 215.75 169.101562 C 215.738281 169.109375 215.726562 169.121094 215.71875 169.132812 C 214.671875 170.179688 213.144531 170.582031 211.722656 170.175781 L 207.5 168.972656 C 206.511719 170.390625 205.636719 171.898438 204.886719 173.472656 L 208.042969 176.519531 C 209.105469 177.546875 209.515625 179.070312 209.128906 180.496094 C 209.125 180.511719 209.121094 180.53125 209.117188 180.546875 C 208.734375 181.976562 207.617188 183.085938 206.179688 183.445312 L 201.929688 184.503906 C 201.859375 185.367188 201.820312 186.238281 201.820312 187.121094 C 201.820312 187.992188 201.855469 188.855469 201.925781 189.710938 L 206.179688 190.773438 C 207.613281 191.132812 208.730469 192.246094 209.113281 193.675781 C 209.117188 193.691406 209.121094 193.710938 209.125 193.726562 C 209.507812 195.152344 209.097656 196.671875 208.035156 197.699219 L 204.878906 200.746094 C 205.625 202.320312 206.5 203.828125 207.488281 205.25 L 211.710938 204.046875 C 213.132812 203.640625 214.660156 204.046875 215.703125 205.09375 C 215.714844 205.105469 215.726562 205.117188 215.738281 205.128906 C 216.785156 206.171875 217.1875 207.691406 216.78125 209.113281 L 215.574219 213.328125 C 216.996094 214.3125 218.503906 215.1875 220.085938 215.933594 L 223.140625 212.789062 C 224.167969 211.726562 225.691406 211.316406 227.121094 211.699219 C 227.136719 211.707031 227.15625 211.710938 227.171875 211.714844 C 228.601562 212.09375 229.714844 213.210938 230.074219 214.644531 L 231.136719 218.890625 C 232.003906 218.960938 232.875 218.996094 233.757812 218.996094 C 234.632812 218.996094 235.496094 218.960938 236.351562 218.890625 L 237.417969 214.648438 C 237.777344 213.214844 238.894531 212.097656 240.324219 211.71875 C 240.34375 211.714844 240.359375 211.710938 240.375 211.707031 C 241.804688 211.324219 243.328125 211.734375 244.355469 212.796875 L 247.410156 215.945312 C 248.988281 215.199219 250.496094 214.328125 251.921875 213.34375 L 250.71875 209.125 C 250.3125 207.707031 250.71875 206.183594 251.765625 205.140625 C 251.777344 205.128906 251.789062 205.117188 251.796875 205.105469 C 252.84375 204.0625 254.371094 203.65625 255.792969 204.0625 L 260.015625 205.269531 C 261.003906 203.847656 261.878906 202.34375 262.628906 200.765625 L 259.472656 197.71875 C 258.410156 196.691406 258 195.171875 258.386719 193.746094 C 258.390625 193.726562 258.394531 193.710938 258.398438 193.691406 " fill-opacity="1" fill-rule="nonzero"/></g><g clip-path="url(#id7)"><path fill="#000000" d="M 140.71875 135.050781 C 133.640625 135.050781 127.902344 129.324219 127.902344 122.257812 C 127.902344 115.191406 133.640625 109.460938 140.71875 109.460938 C 147.800781 109.460938 153.539062 115.191406 153.539062 122.257812 C 153.539062 129.324219 147.800781 135.050781 140.71875 135.050781 Z M 155.71875 126.257812 C 155.953125 125.390625 156.632812 124.710938 157.507812 124.496094 L 160.097656 123.847656 C 160.140625 123.324219 160.160156 122.792969 160.160156 122.257812 C 160.160156 121.726562 160.140625 121.199219 160.097656 120.679688 L 157.507812 120.03125 C 156.636719 119.8125 155.953125 119.136719 155.722656 118.265625 C 155.71875 118.257812 155.71875 118.246094 155.714844 118.238281 C 155.480469 117.367188 155.730469 116.441406 156.378906 115.816406 L 158.300781 113.964844 C 157.84375 113.003906 157.3125 112.085938 156.710938 111.222656 L 154.140625 111.953125 C 153.277344 112.199219 152.347656 111.953125 151.710938 111.316406 C 151.703125 111.308594 151.699219 111.300781 151.691406 111.296875 C 151.054688 110.660156 150.804688 109.734375 151.054688 108.871094 L 151.789062 106.304688 C 150.921875 105.703125 150.003906 105.171875 149.042969 104.714844 L 147.183594 106.632812 C 146.558594 107.277344 145.628906 107.527344 144.761719 107.292969 C 144.75 107.292969 144.738281 107.289062 144.730469 107.285156 C 143.859375 107.054688 143.179688 106.375 142.960938 105.5 L 142.316406 102.917969 C 141.789062 102.875 141.257812 102.851562 140.71875 102.851562 C 140.1875 102.851562 139.660156 102.875 139.140625 102.917969 L 138.492188 105.5 C 138.273438 106.371094 137.59375 107.050781 136.722656 107.28125 C 136.710938 107.285156 136.703125 107.289062 136.691406 107.289062 C 135.820312 107.523438 134.894531 107.273438 134.269531 106.628906 L 132.410156 104.710938 C 131.449219 105.164062 130.53125 105.695312 129.664062 106.296875 L 130.398438 108.863281 C 130.644531 109.726562 130.394531 110.652344 129.757812 111.289062 C 129.75 111.292969 129.746094 111.300781 129.738281 111.308594 C 129.101562 111.945312 128.171875 112.191406 127.308594 111.941406 L 124.738281 111.207031 C 124.136719 112.074219 123.601562 112.988281 123.148438 113.949219 L 125.066406 115.804688 C 125.714844 116.429688 125.960938 117.355469 125.730469 118.226562 C 125.726562 118.234375 125.722656 118.246094 125.71875 118.253906 C 125.488281 119.125 124.808594 119.800781 123.933594 120.019531 L 121.34375 120.664062 C 121.300781 121.191406 121.28125 121.722656 121.28125 122.257812 C 121.28125 122.789062 121.300781 123.3125 121.34375 123.832031 L 123.929688 124.480469 C 124.804688 124.699219 125.488281 125.378906 125.71875 126.246094 C 125.71875 126.257812 125.722656 126.265625 125.726562 126.277344 C 125.960938 127.144531 125.710938 128.074219 125.0625 128.695312 L 123.140625 130.550781 C 123.59375 131.511719 124.128906 132.429688 124.726562 133.292969 L 127.300781 132.558594 C 128.164062 132.3125 129.09375 132.5625 129.730469 133.199219 C 129.738281 133.203125 129.742188 133.210938 129.75 133.21875 C 130.386719 133.851562 130.632812 134.78125 130.386719 135.644531 L 129.652344 138.210938 C 130.515625 138.8125 131.4375 139.34375 132.398438 139.796875 L 134.257812 137.882812 C 134.882812 137.234375 135.808594 136.988281 136.679688 137.21875 C 136.691406 137.222656 136.703125 137.226562 136.710938 137.226562 C 137.582031 137.460938 138.261719 138.140625 138.480469 139.011719 L 139.125 141.597656 C 139.652344 141.640625 140.183594 141.660156 140.71875 141.660156 C 141.253906 141.660156 141.777344 141.640625 142.300781 141.597656 L 142.949219 139.015625 C 143.167969 138.140625 143.847656 137.460938 144.71875 137.230469 C 144.726562 137.230469 144.738281 137.226562 144.75 137.222656 C 145.617188 136.992188 146.546875 137.238281 147.171875 137.886719 L 149.03125 139.804688 C 149.992188 139.347656 150.910156 138.816406 151.777344 138.21875 L 151.042969 135.652344 C 150.796875 134.789062 151.042969 133.863281 151.683594 133.226562 C 151.6875 133.21875 151.695312 133.210938 151.703125 133.207031 C 152.339844 132.570312 153.265625 132.324219 154.132812 132.570312 L 156.703125 133.304688 C 157.304688 132.441406 157.839844 131.523438 158.292969 130.5625 L 156.375 128.707031 C 155.726562 128.085938 155.476562 127.15625 155.710938 126.289062 C 155.714844 126.277344 155.71875 126.269531 155.71875 126.257812 " fill-opacity="1" fill-rule="nonzero"/></g><g fill="#403737" fill-opacity="1"><g transform="translate(181.466733, 80.259032)"><g><path d="M 1.828125 -6.421875 L 1.984375 -0.984375 C 1.992188 -0.847656 2.039062 -0.738281 2.125 -0.65625 C 2.21875 -0.570312 2.335938 -0.535156 2.484375 -0.546875 L 3.953125 -0.578125 C 4.304688 -0.585938 4.601562 -0.679688 4.84375 -0.859375 C 5.09375 -1.035156 5.257812 -1.289062 5.34375 -1.625 C 5.382812 -1.726562 5.457031 -1.78125 5.5625 -1.78125 C 5.664062 -1.78125 5.710938 -1.71875 5.703125 -1.59375 L 5.578125 -0.5625 C 5.566406 -0.445312 5.519531 -0.347656 5.4375 -0.265625 C 5.363281 -0.191406 5.265625 -0.148438 5.140625 -0.140625 L 1.578125 -0.046875 L 0.4375 0.03125 C 0.34375 0.03125 0.296875 -0.015625 0.296875 -0.109375 C 0.296875 -0.203125 0.332031 -0.25 0.40625 -0.25 L 0.703125 -0.265625 C 0.835938 -0.285156 0.941406 -0.332031 1.015625 -0.40625 C 1.097656 -0.476562 1.140625 -0.570312 1.140625 -0.6875 L 0.96875 -6.390625 C 0.96875 -6.628906 0.816406 -6.757812 0.515625 -6.78125 L 0.21875 -6.8125 C 0.144531 -6.820312 0.101562 -6.863281 0.09375 -6.9375 C 0.09375 -7.03125 0.140625 -7.078125 0.234375 -7.078125 L 1.375 -7.0625 L 2.359375 -7.140625 C 2.460938 -7.140625 2.515625 -7.097656 2.515625 -7.015625 C 2.523438 -6.921875 2.488281 -6.875 2.40625 -6.875 L 2.234375 -6.828125 C 1.960938 -6.773438 1.828125 -6.640625 1.828125 -6.421875 Z M 1.828125 -6.421875 "/></g></g></g><g fill="#403737" fill-opacity="1"><g transform="translate(192.253916, 80.225794)"><g><path d="M 5.328125 0.46875 L 1.578125 0.140625 L 0.4375 0.078125 C 0.34375 0.078125 0.296875 0.03125 0.296875 -0.0625 C 0.304688 -0.15625 0.347656 -0.203125 0.421875 -0.203125 L 0.71875 -0.1875 C 0.851562 -0.1875 0.96875 -0.21875 1.0625 -0.28125 C 1.15625 -0.34375 1.207031 -0.429688 1.21875 -0.546875 L 1.71875 -6.21875 C 1.738281 -6.457031 1.597656 -6.609375 1.296875 -6.671875 L 1 -6.734375 C 0.925781 -6.734375 0.894531 -6.773438 0.90625 -6.859375 C 0.914062 -6.953125 0.96875 -7 1.0625 -7 L 2.203125 -6.84375 L 5.75 -6.53125 C 5.875 -6.519531 5.96875 -6.472656 6.03125 -6.390625 C 6.101562 -6.316406 6.144531 -6.21875 6.15625 -6.09375 L 6.21875 -5.1875 C 6.21875 -5.0625 6.160156 -5 6.046875 -5 C 5.941406 -5.007812 5.875 -5.070312 5.84375 -5.1875 C 5.78125 -5.507812 5.648438 -5.742188 5.453125 -5.890625 C 5.265625 -6.046875 4.992188 -6.140625 4.640625 -6.171875 L 3.0625 -6.3125 C 2.914062 -6.320312 2.796875 -6.289062 2.703125 -6.21875 C 2.609375 -6.144531 2.550781 -6.035156 2.53125 -5.890625 L 2.34375 -3.796875 C 2.34375 -3.710938 2.382812 -3.664062 2.46875 -3.65625 L 4.34375 -3.484375 C 4.4375 -3.484375 4.507812 -3.503906 4.5625 -3.546875 C 4.625 -3.585938 4.660156 -3.625 4.671875 -3.65625 C 4.691406 -3.6875 4.722656 -3.753906 4.765625 -3.859375 L 4.828125 -4 C 4.859375 -4.082031 4.910156 -4.117188 4.984375 -4.109375 C 5.066406 -4.097656 5.101562 -4.046875 5.09375 -3.953125 L 4.984375 -3.109375 L 4.9375 -2.28125 C 4.9375 -2.195312 4.890625 -2.148438 4.796875 -2.140625 C 4.710938 -2.148438 4.671875 -2.195312 4.671875 -2.28125 L 4.65625 -2.46875 C 4.625 -2.820312 4.503906 -3.003906 4.296875 -3.015625 L 2.421875 -3.1875 C 2.335938 -3.195312 2.289062 -3.15625 2.28125 -3.0625 L 2.078125 -0.75 C 2.066406 -0.613281 2.101562 -0.5 2.1875 -0.40625 C 2.269531 -0.3125 2.382812 -0.257812 2.53125 -0.25 L 4.1875 -0.109375 C 4.539062 -0.078125 4.847656 -0.128906 5.109375 -0.265625 C 5.367188 -0.410156 5.566406 -0.644531 5.703125 -0.96875 C 5.742188 -1.070312 5.800781 -1.117188 5.875 -1.109375 C 5.957031 -1.109375 6.007812 -1.085938 6.03125 -1.046875 C 6.0625 -1.003906 6.070312 -0.957031 6.0625 -0.90625 L 5.796875 0.109375 C 5.773438 0.210938 5.71875 0.300781 5.625 0.375 C 5.539062 0.445312 5.441406 0.476562 5.328125 0.46875 Z M 5.328125 0.46875 "/></g></g></g><g fill="#403737" fill-opacity="1"><g transform="translate(203.3553, 81.478086)"><g><path d="M 2.8125 -2.21875 L 5 -1.75 C 5.0625 -1.738281 5.085938 -1.773438 5.078125 -1.859375 L 4.5625 -5.125 L 2.75 -2.328125 C 2.71875 -2.273438 2.738281 -2.238281 2.8125 -2.21875 Z M 1.453125 -0.359375 C 1.429688 -0.328125 1.414062 -0.285156 1.40625 -0.234375 C 1.394531 -0.179688 1.410156 -0.117188 1.453125 -0.046875 C 1.492188 0.015625 1.554688 0.0625 1.640625 0.09375 L 1.84375 0.15625 C 1.925781 0.1875 1.957031 0.238281 1.9375 0.3125 C 1.914062 0.40625 1.859375 0.445312 1.765625 0.4375 L 0.9375 0.203125 L 0.03125 0.0625 C -0.0625 0.0390625 -0.0976562 -0.015625 -0.078125 -0.109375 C -0.0546875 -0.203125 -0.0078125 -0.242188 0.0625 -0.234375 L 0.25 -0.203125 C 0.53125 -0.179688 0.75 -0.273438 0.90625 -0.484375 L 4.75 -6.15625 C 4.800781 -6.21875 4.890625 -6.234375 5.015625 -6.203125 C 5.148438 -6.179688 5.222656 -6.128906 5.234375 -6.046875 L 6.40625 0.703125 C 6.445312 0.953125 6.601562 1.125 6.875 1.21875 L 7.078125 1.265625 C 7.109375 1.273438 7.128906 1.296875 7.140625 1.328125 C 7.160156 1.359375 7.164062 1.390625 7.15625 1.421875 C 7.132812 1.523438 7.078125 1.566406 6.984375 1.546875 L 5.859375 1.25 L 4.84375 1.09375 C 4.75 1.070312 4.710938 1.019531 4.734375 0.9375 C 4.753906 0.84375 4.804688 0.796875 4.890625 0.796875 L 5.109375 0.828125 C 5.203125 0.835938 5.28125 0.820312 5.34375 0.78125 C 5.414062 0.75 5.457031 0.703125 5.46875 0.640625 C 5.476562 0.585938 5.476562 0.539062 5.46875 0.5 L 5.21875 -1.140625 C 5.207031 -1.203125 5.15625 -1.242188 5.0625 -1.265625 L 2.53125 -1.8125 C 2.445312 -1.832031 2.390625 -1.8125 2.359375 -1.75 Z M 1.453125 -0.359375 "/></g></g></g><g fill="#403737" fill-opacity="1"><g transform="translate(215.01055, 84.280441)"><g><path d="M 5.5625 -5.46875 C 6.570312 -5.113281 7.273438 -4.539062 7.671875 -3.75 C 8.066406 -2.957031 8.09375 -2.078125 7.75 -1.109375 C 7.414062 -0.140625 6.816406 0.5625 5.953125 1 C 5.097656 1.4375 4.191406 1.484375 3.234375 1.140625 L 1.59375 0.5625 L 0.390625 0.1875 C 0.304688 0.15625 0.28125 0.0976562 0.3125 0.015625 C 0.34375 -0.0664062 0.394531 -0.09375 0.46875 -0.0625 L 0.734375 0.015625 C 0.878906 0.0351562 1 0.03125 1.09375 0 C 1.195312 -0.03125 1.269531 -0.109375 1.3125 -0.234375 L 3.21875 -5.609375 C 3.289062 -5.828125 3.1875 -6.003906 2.90625 -6.140625 L 2.65625 -6.265625 C 2.582031 -6.304688 2.5625 -6.363281 2.59375 -6.4375 C 2.613281 -6.519531 2.664062 -6.546875 2.75 -6.515625 L 3.921875 -6.046875 Z M 6.921875 -3.40625 C 6.835938 -3.769531 6.664062 -4.097656 6.40625 -4.390625 C 6.15625 -4.679688 5.820312 -4.898438 5.40625 -5.046875 L 4.546875 -5.359375 C 4.410156 -5.398438 4.285156 -5.394531 4.171875 -5.34375 C 4.066406 -5.300781 3.988281 -5.210938 3.9375 -5.078125 L 2.21875 -0.203125 C 2.164062 -0.0664062 2.164062 0.0507812 2.21875 0.15625 C 2.28125 0.269531 2.378906 0.347656 2.515625 0.390625 L 3.40625 0.71875 C 4.132812 0.96875 4.804688 0.921875 5.421875 0.578125 C 6.035156 0.234375 6.484375 -0.332031 6.765625 -1.125 C 7.046875 -1.914062 7.097656 -2.675781 6.921875 -3.40625 Z M 6.921875 -3.40625 "/></g></g></g><g fill="#403737" fill-opacity="1"><g transform="translate(226.434726, 88.66755)"><g><path d="M 4.78125 2.390625 L 1.40625 0.703125 L 0.375 0.25 C 0.289062 0.195312 0.269531 0.128906 0.3125 0.046875 C 0.351562 -0.0351562 0.40625 -0.0546875 0.46875 -0.015625 L 0.734375 0.09375 C 0.867188 0.144531 0.988281 0.15625 1.09375 0.125 C 1.195312 0.09375 1.273438 0.0234375 1.328125 -0.078125 L 3.875 -5.171875 C 3.976562 -5.390625 3.90625 -5.578125 3.65625 -5.734375 L 3.40625 -5.890625 C 3.34375 -5.929688 3.328125 -5.988281 3.359375 -6.0625 C 3.398438 -6.144531 3.460938 -6.160156 3.546875 -6.109375 L 4.546875 -5.578125 L 7.734375 -3.984375 C 7.847656 -3.929688 7.921875 -3.851562 7.953125 -3.75 C 7.992188 -3.644531 8 -3.535156 7.96875 -3.421875 L 7.671875 -2.53125 C 7.628906 -2.414062 7.554688 -2.382812 7.453125 -2.4375 C 7.359375 -2.488281 7.316406 -2.570312 7.328125 -2.6875 C 7.390625 -3.007812 7.359375 -3.273438 7.234375 -3.484375 C 7.117188 -3.703125 6.898438 -3.890625 6.578125 -4.046875 L 5.171875 -4.75 C 5.046875 -4.820312 4.921875 -4.835938 4.796875 -4.796875 C 4.679688 -4.753906 4.585938 -4.671875 4.515625 -4.546875 L 3.578125 -2.65625 C 3.535156 -2.582031 3.554688 -2.53125 3.640625 -2.5 L 5.3125 -1.65625 C 5.394531 -1.613281 5.46875 -1.601562 5.53125 -1.625 C 5.601562 -1.644531 5.65625 -1.664062 5.6875 -1.6875 C 5.726562 -1.707031 5.78125 -1.757812 5.84375 -1.84375 L 5.953125 -1.953125 C 6.015625 -2.015625 6.078125 -2.023438 6.140625 -1.984375 C 6.210938 -1.953125 6.226562 -1.894531 6.1875 -1.8125 L 5.765625 -1.0625 L 5.4375 -0.328125 C 5.394531 -0.242188 5.332031 -0.21875 5.25 -0.25 C 5.175781 -0.28125 5.15625 -0.335938 5.1875 -0.421875 L 5.234375 -0.59375 C 5.335938 -0.925781 5.296875 -1.140625 5.109375 -1.234375 L 3.4375 -2.078125 C 3.351562 -2.109375 3.289062 -2.082031 3.25 -2 L 2.203125 0.078125 C 2.148438 0.203125 2.144531 0.316406 2.1875 0.421875 C 2.226562 0.535156 2.3125 0.628906 2.4375 0.703125 L 3.921875 1.4375 C 4.234375 1.59375 4.539062 1.65625 4.84375 1.625 C 5.144531 1.59375 5.414062 1.445312 5.65625 1.1875 C 5.738281 1.101562 5.8125 1.078125 5.875 1.109375 C 5.945312 1.148438 5.984375 1.191406 5.984375 1.234375 C 5.992188 1.273438 5.988281 1.320312 5.96875 1.375 L 5.359375 2.21875 C 5.296875 2.320312 5.207031 2.390625 5.09375 2.421875 C 4.988281 2.453125 4.882812 2.441406 4.78125 2.390625 Z M 4.78125 2.390625 "/></g></g></g><g fill="#403737" fill-opacity="1"><g transform="translate(236.306182, 93.914926)"><g><path d="M 6.046875 -0.984375 C 6.453125 -1.023438 6.769531 -1.21875 7 -1.5625 C 7.238281 -1.914062 7.300781 -2.285156 7.1875 -2.671875 C 7.070312 -3.054688 6.816406 -3.378906 6.421875 -3.640625 L 5.640625 -4.15625 C 5.421875 -4.300781 5.238281 -4.265625 5.09375 -4.046875 L 3.84375 -2.15625 C 3.789062 -2.082031 3.789062 -2.023438 3.84375 -1.984375 L 4.875 -1.3125 C 5.257812 -1.050781 5.648438 -0.941406 6.046875 -0.984375 Z M 6.953125 -3.8125 C 7.484375 -3.457031 7.832031 -3.03125 8 -2.53125 C 8.164062 -2.03125 8.097656 -1.554688 7.796875 -1.109375 C 7.503906 -0.660156 7.09375 -0.398438 6.5625 -0.328125 C 6.03125 -0.265625 5.550781 -0.363281 5.125 -0.625 L 5.109375 -0.609375 C 5.203125 -0.492188 5.25 -0.363281 5.25 -0.21875 L 5.1875 2.640625 C 5.175781 2.898438 5.285156 3.132812 5.515625 3.34375 L 5.65625 3.453125 C 5.707031 3.515625 5.710938 3.578125 5.671875 3.640625 C 5.617188 3.722656 5.550781 3.738281 5.46875 3.6875 C 4.957031 3.300781 4.632812 3.0625 4.5 2.96875 C 4.375 2.882812 4.3125 2.757812 4.3125 2.59375 L 4.453125 -0.671875 C 4.453125 -0.921875 4.382812 -1.085938 4.25 -1.171875 C 4.25 -1.171875 4.242188 -1.175781 4.234375 -1.1875 L 3.640625 -1.578125 C 3.554688 -1.640625 3.492188 -1.632812 3.453125 -1.5625 L 2.046875 0.5625 C 1.984375 0.65625 1.96875 0.753906 2 0.859375 C 2.03125 0.972656 2.097656 1.070312 2.203125 1.15625 L 2.53125 1.390625 C 2.59375 1.429688 2.597656 1.492188 2.546875 1.578125 C 2.492188 1.660156 2.429688 1.675781 2.359375 1.625 L 1.34375 0.890625 L 0.375 0.3125 C 0.300781 0.269531 0.285156 0.207031 0.328125 0.125 C 0.378906 0.0390625 0.441406 0.0195312 0.515625 0.0625 L 0.765625 0.203125 C 1.003906 0.335938 1.191406 0.300781 1.328125 0.09375 L 4.46875 -4.671875 C 4.601562 -4.867188 4.554688 -5.0625 4.328125 -5.25 L 4.09375 -5.453125 C 4.03125 -5.503906 4.019531 -5.5625 4.0625 -5.625 C 4.113281 -5.695312 4.175781 -5.707031 4.25 -5.65625 L 5.390625 -4.859375 Z M 6.953125 -3.8125 "/></g></g></g><g fill="#403737" fill-opacity="1"><g transform="translate(245.727313, 100.557205)"><g/></g></g><g fill="#403737" fill-opacity="1"><g transform="translate(251.222266, 105.211814)"><g><path d="M 6.9375 -1.96875 L 2.984375 2.03125 C 2.898438 2.113281 2.863281 2.207031 2.875 2.3125 C 2.882812 2.425781 2.929688 2.535156 3.015625 2.640625 L 3.21875 2.84375 C 3.269531 2.894531 3.257812 2.957031 3.1875 3.03125 C 3.164062 3.050781 3.132812 3.0625 3.09375 3.0625 C 3.050781 3.0625 3.019531 3.050781 3 3.03125 L 2.21875 2.203125 L 1.3125 1.359375 C 1.28125 1.328125 1.265625 1.289062 1.265625 1.25 C 1.273438 1.21875 1.289062 1.191406 1.3125 1.171875 C 1.382812 1.097656 1.445312 1.085938 1.5 1.140625 L 1.765625 1.40625 C 1.859375 1.476562 1.960938 1.519531 2.078125 1.53125 C 2.191406 1.539062 2.289062 1.503906 2.375 1.421875 L 6.328125 -2.578125 C 6.453125 -2.710938 6.457031 -2.835938 6.34375 -2.953125 L 5.75 -3.546875 C 5.507812 -3.773438 5.265625 -3.890625 5.015625 -3.890625 C 4.765625 -3.890625 4.472656 -3.804688 4.140625 -3.640625 C 4.046875 -3.597656 3.972656 -3.601562 3.921875 -3.65625 C 3.867188 -3.707031 3.84375 -3.753906 3.84375 -3.796875 C 3.851562 -3.847656 3.875 -3.890625 3.90625 -3.921875 L 4.859375 -4.796875 C 4.972656 -4.859375 5.078125 -4.84375 5.171875 -4.75 L 9.109375 -0.859375 C 9.210938 -0.753906 9.210938 -0.640625 9.109375 -0.515625 L 8.296875 0.421875 C 8.265625 0.472656 8.226562 0.5 8.1875 0.5 C 8.144531 0.5 8.097656 0.472656 8.046875 0.421875 C 7.992188 0.367188 7.988281 0.296875 8.03125 0.203125 C 8.195312 -0.128906 8.269531 -0.425781 8.25 -0.6875 C 8.238281 -0.945312 8.125 -1.1875 7.90625 -1.40625 L 7.3125 -2 C 7.1875 -2.113281 7.0625 -2.101562 6.9375 -1.96875 Z M 6.9375 -1.96875 "/></g></g></g><g fill="#403737" fill-opacity="1"><g transform="translate(258.888056, 113.146127)"><g><path d="M 8.09375 -1.203125 C 8.738281 -0.378906 8.988281 0.484375 8.84375 1.390625 C 8.707031 2.304688 8.222656 3.085938 7.390625 3.734375 C 6.566406 4.390625 5.679688 4.671875 4.734375 4.578125 C 3.796875 4.484375 3.007812 4.03125 2.375 3.21875 C 1.738281 2.40625 1.488281 1.53125 1.625 0.59375 C 1.769531 -0.332031 2.253906 -1.117188 3.078125 -1.765625 C 3.898438 -2.410156 4.78125 -2.6875 5.71875 -2.59375 C 6.65625 -2.5 7.445312 -2.035156 8.09375 -1.203125 Z M 8.078125 1.296875 C 8.222656 0.929688 8.269531 0.550781 8.21875 0.15625 C 8.164062 -0.226562 8 -0.597656 7.71875 -0.953125 C 7.21875 -1.597656 6.632812 -1.941406 5.96875 -1.984375 C 5.300781 -2.035156 4.628906 -1.796875 3.953125 -1.265625 C 3.253906 -0.722656 2.753906 -0.0703125 2.453125 0.6875 C 2.296875 1.050781 2.238281 1.429688 2.28125 1.828125 C 2.320312 2.234375 2.484375 2.613281 2.765625 2.96875 C 3.253906 3.601562 3.84375 3.929688 4.53125 3.953125 C 5.21875 3.984375 5.90625 3.726562 6.59375 3.1875 C 7.289062 2.644531 7.785156 2.015625 8.078125 1.296875 Z M 8.078125 1.296875 "/></g></g></g><g fill="#403737" fill-opacity="1"><g transform="translate(266.498465, 123.534061)"><g/></g></g><g fill="#403737" fill-opacity="1"><g transform="translate(270.186212, 129.724023)"><g><path d="M 6.59375 -1.03125 L 1.734375 1.390625 C 1.609375 1.441406 1.523438 1.53125 1.484375 1.65625 C 1.453125 1.78125 1.46875 1.90625 1.53125 2.03125 L 2.1875 3.34375 C 2.34375 3.664062 2.550781 3.898438 2.8125 4.046875 C 3.070312 4.191406 3.375 4.234375 3.71875 4.171875 C 3.832031 4.160156 3.910156 4.203125 3.953125 4.296875 C 3.992188 4.390625 3.957031 4.457031 3.84375 4.5 L 2.859375 4.8125 C 2.742188 4.851562 2.632812 4.851562 2.53125 4.8125 C 2.425781 4.78125 2.347656 4.710938 2.296875 4.609375 L 0.703125 1.40625 L 0.140625 0.40625 C 0.0976562 0.320312 0.117188 0.257812 0.203125 0.21875 C 0.285156 0.175781 0.347656 0.1875 0.390625 0.25 L 0.53125 0.515625 C 0.601562 0.628906 0.691406 0.707031 0.796875 0.75 C 0.898438 0.789062 1.003906 0.785156 1.109375 0.734375 L 6.203125 -1.796875 C 6.421875 -1.910156 6.476562 -2.109375 6.375 -2.390625 L 6.265625 -2.671875 C 6.234375 -2.734375 6.253906 -2.78125 6.328125 -2.8125 C 6.410156 -2.851562 6.472656 -2.832031 6.515625 -2.75 L 6.984375 -1.71875 L 7.46875 -0.84375 C 7.519531 -0.75 7.503906 -0.6875 7.421875 -0.65625 C 7.335938 -0.613281 7.273438 -0.628906 7.234375 -0.703125 L 7.140625 -0.84375 C 6.972656 -1.070312 6.789062 -1.132812 6.59375 -1.03125 Z M 6.59375 -1.03125 "/></g></g></g><g fill="#403737" fill-opacity="1"><g transform="translate(274.753491, 139.498222)"><g><path d="M 1.8125 5.03125 L 0.53125 1.484375 L 0.09375 0.421875 C 0.0625 0.335938 0.0859375 0.28125 0.171875 0.25 C 0.265625 0.21875 0.328125 0.234375 0.359375 0.296875 L 0.46875 0.578125 C 0.53125 0.703125 0.609375 0.789062 0.703125 0.84375 C 0.796875 0.90625 0.898438 0.914062 1.015625 0.875 L 6.375 -1.0625 C 6.601562 -1.144531 6.675781 -1.335938 6.59375 -1.640625 L 6.53125 -1.921875 C 6.5 -1.984375 6.523438 -2.03125 6.609375 -2.0625 C 6.691406 -2.09375 6.75 -2.066406 6.78125 -1.984375 L 7.125 -0.890625 L 8.328125 2.46875 C 8.367188 2.582031 8.367188 2.6875 8.328125 2.78125 C 8.296875 2.882812 8.226562 2.960938 8.125 3.015625 L 7.296875 3.453125 C 7.191406 3.503906 7.117188 3.476562 7.078125 3.375 C 7.046875 3.269531 7.070312 3.1875 7.15625 3.125 C 7.425781 2.925781 7.585938 2.707031 7.640625 2.46875 C 7.703125 2.238281 7.671875 1.957031 7.546875 1.625 L 7.015625 0.140625 C 6.960938 -0.00390625 6.882812 -0.101562 6.78125 -0.15625 C 6.675781 -0.21875 6.554688 -0.222656 6.421875 -0.171875 L 4.4375 0.546875 C 4.351562 0.566406 4.320312 0.617188 4.34375 0.703125 L 4.984375 2.46875 C 5.015625 2.550781 5.0625 2.609375 5.125 2.640625 C 5.1875 2.679688 5.234375 2.703125 5.265625 2.703125 C 5.304688 2.710938 5.382812 2.710938 5.5 2.703125 L 5.65625 2.703125 C 5.738281 2.691406 5.789062 2.722656 5.8125 2.796875 C 5.84375 2.867188 5.8125 2.921875 5.71875 2.953125 L 4.921875 3.203125 L 4.15625 3.515625 C 4.070312 3.546875 4.007812 3.523438 3.96875 3.453125 C 3.9375 3.367188 3.960938 3.3125 4.046875 3.28125 L 4.203125 3.1875 C 4.503906 3.019531 4.617188 2.835938 4.546875 2.640625 L 3.90625 0.875 C 3.882812 0.789062 3.832031 0.765625 3.75 0.796875 L 1.5625 1.578125 C 1.425781 1.617188 1.332031 1.695312 1.28125 1.8125 C 1.226562 1.925781 1.226562 2.054688 1.28125 2.203125 L 1.84375 3.75 C 1.96875 4.082031 2.148438 4.335938 2.390625 4.515625 C 2.628906 4.691406 2.921875 4.773438 3.265625 4.765625 C 3.378906 4.765625 3.445312 4.800781 3.46875 4.875 C 3.5 4.945312 3.5 5 3.46875 5.03125 C 3.445312 5.0625 3.414062 5.085938 3.375 5.109375 L 2.328125 5.296875 C 2.222656 5.328125 2.117188 5.316406 2.015625 5.265625 C 1.921875 5.210938 1.851562 5.132812 1.8125 5.03125 Z M 1.8125 5.03125 "/></g></g></g><g fill="#403737" fill-opacity="1"><g transform="translate(278.281412, 150.098397)"><g><path d="M 3.203125 1.609375 L 3.703125 3.796875 C 3.710938 3.867188 3.75 3.878906 3.8125 3.828125 L 6.5625 2 L 3.265625 1.53125 C 3.210938 1.519531 3.191406 1.546875 3.203125 1.609375 Z M 0.9375 1.171875 C 0.90625 1.160156 0.863281 1.160156 0.8125 1.171875 C 0.757812 1.191406 0.707031 1.234375 0.65625 1.296875 C 0.613281 1.359375 0.597656 1.429688 0.609375 1.515625 L 0.640625 1.75 C 0.640625 1.832031 0.601562 1.882812 0.53125 1.90625 C 0.4375 1.925781 0.378906 1.890625 0.359375 1.796875 L 0.203125 0.921875 L -0.03125 0.0625 C -0.0507812 -0.03125 -0.015625 -0.0859375 0.078125 -0.109375 C 0.171875 -0.128906 0.222656 -0.101562 0.234375 -0.03125 L 0.296875 0.140625 C 0.390625 0.410156 0.5625 0.570312 0.8125 0.625 L 7.578125 1.734375 C 7.660156 1.742188 7.71875 1.8125 7.75 1.9375 C 7.78125 2.0625 7.757812 2.148438 7.6875 2.203125 L 2.046875 6.109375 C 1.835938 6.253906 1.753906 6.46875 1.796875 6.75 L 1.828125 6.96875 C 1.828125 7 1.816406 7.023438 1.796875 7.046875 C 1.773438 7.066406 1.75 7.078125 1.71875 7.078125 C 1.613281 7.109375 1.550781 7.082031 1.53125 7 L 1.328125 5.859375 L 1.046875 4.859375 C 1.023438 4.765625 1.054688 4.707031 1.140625 4.6875 C 1.234375 4.664062 1.296875 4.695312 1.328125 4.78125 L 1.390625 4.984375 C 1.421875 5.078125 1.46875 5.144531 1.53125 5.1875 C 1.59375 5.226562 1.648438 5.238281 1.703125 5.21875 C 1.765625 5.207031 1.8125 5.191406 1.84375 5.171875 L 3.234375 4.25 C 3.273438 4.21875 3.285156 4.160156 3.265625 4.078125 L 2.703125 1.546875 C 2.679688 1.460938 2.640625 1.414062 2.578125 1.40625 Z M 0.9375 1.171875 "/></g></g></g><g fill="#403737" fill-opacity="1"><g transform="translate(280.631982, 161.852931)"><g><path d="M 7.3125 2.75 C 7.40625 3.820312 7.175781 4.703125 6.625 5.390625 C 6.082031 6.078125 5.296875 6.46875 4.265625 6.5625 C 3.242188 6.65625 2.351562 6.40625 1.59375 5.8125 C 0.84375 5.226562 0.421875 4.425781 0.328125 3.40625 L 0.15625 1.6875 L 0 0.4375 C -0.0078125 0.34375 0.0234375 0.289062 0.109375 0.28125 C 0.203125 0.28125 0.25 0.316406 0.25 0.390625 L 0.296875 0.6875 C 0.328125 0.8125 0.378906 0.910156 0.453125 0.984375 C 0.535156 1.066406 0.640625 1.101562 0.765625 1.09375 L 6.4375 0.5625 C 6.675781 0.539062 6.796875 0.375 6.796875 0.0625 L 6.796875 -0.234375 C 6.804688 -0.304688 6.847656 -0.347656 6.921875 -0.359375 C 7.015625 -0.359375 7.066406 -0.3125 7.078125 -0.21875 L 7.140625 1.03125 Z M 5.984375 4.84375 C 6.296875 4.625 6.53125 4.335938 6.6875 3.984375 C 6.84375 3.628906 6.894531 3.226562 6.84375 2.78125 L 6.765625 1.875 C 6.753906 1.726562 6.703125 1.613281 6.609375 1.53125 C 6.515625 1.445312 6.394531 1.410156 6.25 1.421875 L 1.109375 1.90625 C 0.972656 1.925781 0.867188 1.984375 0.796875 2.078125 C 0.722656 2.171875 0.691406 2.289062 0.703125 2.4375 L 0.796875 3.390625 C 0.867188 4.160156 1.1875 4.75 1.75 5.15625 C 2.3125 5.570312 3.015625 5.738281 3.859375 5.65625 C 4.703125 5.570312 5.410156 5.300781 5.984375 4.84375 Z M 5.984375 4.84375 "/></g></g></g><g fill="#403737" fill-opacity="1"><g transform="translate(281.453573, 174.062666)"><g><path d="M -0.15625 5.34375 L -0.046875 1.578125 L -0.0625 0.4375 C -0.0625 0.34375 -0.015625 0.296875 0.078125 0.296875 C 0.171875 0.296875 0.21875 0.332031 0.21875 0.40625 L 0.234375 0.703125 C 0.234375 0.847656 0.269531 0.960938 0.34375 1.046875 C 0.414062 1.128906 0.507812 1.171875 0.625 1.171875 L 6.328125 1.34375 C 6.566406 1.351562 6.707031 1.207031 6.75 0.90625 L 6.78125 0.609375 C 6.78125 0.535156 6.820312 0.5 6.90625 0.5 C 7 0.507812 7.046875 0.5625 7.046875 0.65625 L 6.96875 1.78125 L 6.859375 5.34375 C 6.859375 5.46875 6.816406 5.566406 6.734375 5.640625 C 6.660156 5.722656 6.566406 5.773438 6.453125 5.796875 L 5.53125 5.90625 C 5.40625 5.914062 5.34375 5.863281 5.34375 5.75 C 5.351562 5.644531 5.410156 5.570312 5.515625 5.53125 C 5.835938 5.445312 6.066406 5.304688 6.203125 5.109375 C 6.347656 4.910156 6.425781 4.632812 6.4375 4.28125 L 6.484375 2.703125 C 6.492188 2.554688 6.457031 2.4375 6.375 2.34375 C 6.289062 2.25 6.175781 2.203125 6.03125 2.203125 L 3.921875 2.140625 C 3.835938 2.128906 3.796875 2.164062 3.796875 2.25 L 3.734375 4.125 C 3.734375 4.21875 3.753906 4.289062 3.796875 4.34375 C 3.847656 4.40625 3.890625 4.441406 3.921875 4.453125 C 3.960938 4.472656 4.035156 4.5 4.140625 4.53125 L 4.265625 4.578125 C 4.347656 4.609375 4.390625 4.660156 4.390625 4.734375 C 4.390625 4.816406 4.34375 4.851562 4.25 4.84375 L 3.390625 4.796875 L 2.578125 4.796875 C 2.492188 4.796875 2.441406 4.753906 2.421875 4.671875 C 2.421875 4.585938 2.460938 4.539062 2.546875 4.53125 L 2.75 4.515625 C 3.09375 4.460938 3.265625 4.332031 3.265625 4.125 L 3.328125 2.25 C 3.328125 2.164062 3.28125 2.117188 3.1875 2.109375 L 0.859375 2.046875 C 0.722656 2.035156 0.613281 2.070312 0.53125 2.15625 C 0.445312 2.25 0.398438 2.367188 0.390625 2.515625 L 0.34375 4.171875 C 0.332031 4.523438 0.40625 4.828125 0.5625 5.078125 C 0.726562 5.335938 0.972656 5.523438 1.296875 5.640625 C 1.398438 5.671875 1.453125 5.722656 1.453125 5.796875 C 1.453125 5.878906 1.429688 5.929688 1.390625 5.953125 C 1.359375 5.984375 1.316406 6 1.265625 6 L 0.234375 5.796875 C 0.117188 5.773438 0.0234375 5.722656 -0.046875 5.640625 C -0.128906 5.554688 -0.164062 5.457031 -0.15625 5.34375 Z M -0.15625 5.34375 "/></g></g></g><g fill="#403737" fill-opacity="1"><g transform="translate(280.834215, 185.226008)"><g><path d="M 3.4375 5.078125 C 3.644531 5.429688 3.957031 5.640625 4.375 5.703125 C 4.789062 5.765625 5.144531 5.660156 5.4375 5.390625 C 5.738281 5.128906 5.925781 4.769531 6 4.3125 L 6.140625 3.375 C 6.179688 3.113281 6.070312 2.960938 5.8125 2.921875 L 3.5625 2.578125 C 3.476562 2.566406 3.429688 2.59375 3.421875 2.65625 L 3.234375 3.890625 C 3.160156 4.335938 3.226562 4.734375 3.4375 5.078125 Z M 6.390625 4.703125 C 6.285156 5.347656 6.039062 5.847656 5.65625 6.203125 C 5.28125 6.554688 4.828125 6.691406 4.296875 6.609375 C 3.765625 6.523438 3.351562 6.257812 3.0625 5.8125 C 2.78125 5.363281 2.664062 4.890625 2.71875 4.390625 L 2.703125 4.390625 C 2.640625 4.515625 2.535156 4.609375 2.390625 4.671875 L -0.203125 5.8125 C -0.453125 5.914062 -0.625 6.109375 -0.71875 6.390625 L -0.75 6.578125 C -0.789062 6.660156 -0.847656 6.695312 -0.921875 6.6875 C -1.015625 6.675781 -1.050781 6.617188 -1.03125 6.515625 C -0.90625 5.890625 -0.828125 5.5 -0.796875 5.34375 C -0.773438 5.1875 -0.691406 5.070312 -0.546875 5 L 2.484375 3.765625 C 2.710938 3.660156 2.835938 3.53125 2.859375 3.375 C 2.859375 3.375 2.859375 3.367188 2.859375 3.359375 L 2.96875 2.640625 C 2.988281 2.546875 2.957031 2.492188 2.875 2.484375 L 0.359375 2.09375 C 0.242188 2.082031 0.140625 2.113281 0.046875 2.1875 C -0.0351562 2.257812 -0.09375 2.351562 -0.125 2.46875 L -0.203125 2.890625 C -0.210938 2.960938 -0.265625 2.992188 -0.359375 2.984375 C -0.453125 2.972656 -0.488281 2.921875 -0.46875 2.828125 L -0.234375 1.59375 L -0.125 0.484375 C -0.101562 0.398438 -0.0507812 0.359375 0.03125 0.359375 C 0.125 0.367188 0.171875 0.414062 0.171875 0.5 L 0.140625 0.765625 C 0.117188 1.046875 0.234375 1.203125 0.484375 1.234375 L 6.109375 2.09375 C 6.347656 2.125 6.503906 1.992188 6.578125 1.703125 L 6.65625 1.421875 C 6.675781 1.347656 6.722656 1.316406 6.796875 1.328125 C 6.890625 1.347656 6.929688 1.40625 6.921875 1.5 L 6.671875 2.859375 Z M 6.390625 4.703125 "/></g></g></g><g fill="#403737" fill-opacity="1"><g transform="translate(150.48175, 256.896945)"><g><path d="M 6.578125 -0.0625 C 6.578125 -0.0390625 6.566406 -0.0195312 6.546875 0 C 6.523438 0.0195312 6.5 0.03125 6.46875 0.03125 L 5.6875 0 L 4.984375 0.03125 C 4.921875 0.03125 4.890625 0.00390625 4.890625 -0.046875 C 4.890625 -0.109375 4.914062 -0.144531 4.96875 -0.15625 L 5.078125 -0.171875 C 5.273438 -0.191406 5.375 -0.289062 5.375 -0.46875 L 5.328125 -3.796875 C 5.328125 -3.835938 5.3125 -3.859375 5.28125 -3.859375 C 5.269531 -3.859375 5.257812 -3.851562 5.25 -3.84375 L 3.34375 -0.015625 C 3.3125 0.0234375 3.28125 0.046875 3.25 0.046875 C 3.21875 0.046875 3.191406 0.0234375 3.171875 -0.015625 L 1.265625 -3.71875 C 1.253906 -3.738281 1.242188 -3.75 1.234375 -3.75 C 1.203125 -3.75 1.1875 -3.722656 1.1875 -3.671875 L 1.140625 -0.46875 C 1.140625 -0.3125 1.234375 -0.21875 1.421875 -0.1875 L 1.546875 -0.15625 C 1.609375 -0.144531 1.640625 -0.113281 1.640625 -0.0625 C 1.640625 -0.0078125 1.601562 0.015625 1.53125 0.015625 L 0.953125 0 L 0.28125 0.015625 C 0.207031 0.015625 0.171875 -0.0078125 0.171875 -0.0625 C 0.171875 -0.113281 0.195312 -0.144531 0.25 -0.15625 L 0.453125 -0.1875 C 0.671875 -0.207031 0.78125 -0.300781 0.78125 -0.46875 L 0.859375 -4.453125 C 0.867188 -4.617188 0.773438 -4.710938 0.578125 -4.734375 L 0.453125 -4.75 C 0.398438 -4.757812 0.375 -4.789062 0.375 -4.84375 C 0.375 -4.90625 0.410156 -4.9375 0.484375 -4.9375 L 1.09375 -4.921875 C 1.25 -4.921875 1.351562 -4.875 1.40625 -4.78125 L 3.390625 -0.84375 L 5.328125 -4.78125 C 5.367188 -4.863281 5.472656 -4.910156 5.640625 -4.921875 L 6.265625 -4.9375 C 6.335938 -4.9375 6.375 -4.90625 6.375 -4.84375 C 6.375 -4.789062 6.347656 -4.757812 6.296875 -4.75 L 6.171875 -4.734375 C 5.984375 -4.722656 5.890625 -4.628906 5.890625 -4.453125 L 5.96875 -0.46875 C 5.96875 -0.382812 6 -0.316406 6.0625 -0.265625 C 6.125 -0.210938 6.195312 -0.179688 6.28125 -0.171875 L 6.484375 -0.15625 C 6.546875 -0.15625 6.578125 -0.125 6.578125 -0.0625 Z M 6.578125 -0.0625 "/></g></g></g><g fill="#403737" fill-opacity="1"><g transform="translate(160.865142, 256.896945)"><g><path d="M 0.421875 0.03125 C 0.359375 0.03125 0.328125 0.00390625 0.328125 -0.046875 C 0.328125 -0.109375 0.351562 -0.144531 0.40625 -0.15625 L 0.53125 -0.171875 C 0.71875 -0.191406 0.8125 -0.289062 0.8125 -0.46875 L 0.8125 -4.453125 C 0.8125 -4.617188 0.703125 -4.710938 0.484375 -4.734375 L 0.28125 -4.765625 C 0.226562 -4.773438 0.203125 -4.800781 0.203125 -4.84375 C 0.203125 -4.914062 0.238281 -4.953125 0.3125 -4.953125 L 1.109375 -4.921875 L 1.796875 -4.953125 C 1.867188 -4.953125 1.90625 -4.921875 1.90625 -4.859375 C 1.90625 -4.796875 1.875 -4.765625 1.8125 -4.765625 L 1.6875 -4.734375 C 1.5 -4.703125 1.40625 -4.609375 1.40625 -4.453125 L 1.40625 -0.46875 C 1.40625 -0.382812 1.4375 -0.316406 1.5 -0.265625 C 1.5625 -0.210938 1.640625 -0.179688 1.734375 -0.171875 L 1.9375 -0.15625 C 1.988281 -0.15625 2.015625 -0.125 2.015625 -0.0625 C 2.015625 -0.0390625 2.003906 -0.0195312 1.984375 0 C 1.960938 0.0195312 1.941406 0.03125 1.921875 0.03125 L 1.125 0 Z M 0.421875 0.03125 "/></g></g></g><g fill="#403737" fill-opacity="1"><g transform="translate(166.728201, 256.896945)"><g><path d="M 4.3125 -1.046875 L 4.3125 -4.453125 C 4.3125 -4.617188 4.207031 -4.710938 4 -4.734375 L 3.796875 -4.765625 C 3.742188 -4.773438 3.71875 -4.804688 3.71875 -4.859375 C 3.71875 -4.910156 3.75 -4.9375 3.8125 -4.9375 L 4.5 -4.921875 L 5.046875 -4.9375 C 5.109375 -4.9375 5.140625 -4.910156 5.140625 -4.859375 C 5.140625 -4.804688 5.113281 -4.773438 5.0625 -4.765625 L 4.9375 -4.734375 C 4.75 -4.703125 4.65625 -4.609375 4.65625 -4.453125 L 4.65625 0 C 4.65625 0.0507812 4.628906 0.078125 4.578125 0.078125 L 4.484375 0.078125 C 4.367188 0.078125 4.269531 0.0195312 4.1875 -0.09375 L 1.21875 -3.875 C 1.207031 -3.882812 1.191406 -3.890625 1.171875 -3.890625 C 1.160156 -3.890625 1.15625 -3.867188 1.15625 -3.828125 L 1.15625 -0.46875 C 1.15625 -0.3125 1.25 -0.21875 1.4375 -0.1875 L 1.546875 -0.15625 C 1.609375 -0.144531 1.640625 -0.113281 1.640625 -0.0625 C 1.640625 -0.0078125 1.609375 0.015625 1.546875 0.015625 L 0.984375 0 L 0.3125 0.015625 C 0.238281 0.015625 0.203125 -0.0078125 0.203125 -0.0625 C 0.203125 -0.113281 0.226562 -0.144531 0.28125 -0.15625 L 0.484375 -0.1875 C 0.703125 -0.207031 0.8125 -0.300781 0.8125 -0.46875 L 0.8125 -4.453125 C 0.8125 -4.617188 0.71875 -4.710938 0.53125 -4.734375 L 0.40625 -4.75 C 0.351562 -4.757812 0.328125 -4.789062 0.328125 -4.84375 C 0.328125 -4.90625 0.359375 -4.9375 0.421875 -4.9375 L 0.984375 -4.921875 C 1.117188 -4.921875 1.222656 -4.875 1.296875 -4.78125 L 4.234375 -1.03125 C 4.242188 -1.007812 4.257812 -1 4.28125 -1 C 4.300781 -1 4.3125 -1.015625 4.3125 -1.046875 Z M 4.3125 -1.046875 "/></g></g></g><g fill="#403737" fill-opacity="1"><g transform="translate(175.719635, 256.896945)"><g><path d="M 0.421875 0.03125 C 0.359375 0.03125 0.328125 0.00390625 0.328125 -0.046875 C 0.328125 -0.109375 0.351562 -0.144531 0.40625 -0.15625 L 0.53125 -0.171875 C 0.71875 -0.191406 0.8125 -0.289062 0.8125 -0.46875 L 0.8125 -4.453125 C 0.8125 -4.617188 0.703125 -4.710938 0.484375 -4.734375 L 0.28125 -4.765625 C 0.226562 -4.773438 0.203125 -4.800781 0.203125 -4.84375 C 0.203125 -4.914062 0.238281 -4.953125 0.3125 -4.953125 L 1.109375 -4.921875 L 1.796875 -4.953125 C 1.867188 -4.953125 1.90625 -4.921875 1.90625 -4.859375 C 1.90625 -4.796875 1.875 -4.765625 1.8125 -4.765625 L 1.6875 -4.734375 C 1.5 -4.703125 1.40625 -4.609375 1.40625 -4.453125 L 1.40625 -0.46875 C 1.40625 -0.382812 1.4375 -0.316406 1.5 -0.265625 C 1.5625 -0.210938 1.640625 -0.179688 1.734375 -0.171875 L 1.9375 -0.15625 C 1.988281 -0.15625 2.015625 -0.125 2.015625 -0.0625 C 2.015625 -0.0390625 2.003906 -0.0195312 1.984375 0 C 1.960938 0.0195312 1.941406 0.03125 1.921875 0.03125 L 1.125 0 Z M 0.421875 0.03125 "/></g></g></g><g fill="#403737" fill-opacity="1"><g transform="translate(181.582695, 256.896945)"><g><path d="M 3.65625 -1.265625 C 3.65625 -0.828125 3.488281 -0.492188 3.15625 -0.265625 C 2.832031 -0.0351562 2.4375 0.078125 1.96875 0.078125 C 1.5 0.078125 1.109375 0.0195312 0.796875 -0.09375 C 0.492188 -0.207031 0.34375 -0.332031 0.34375 -0.46875 L 0.34375 -1.28125 C 0.34375 -1.382812 0.382812 -1.4375 0.46875 -1.4375 C 0.53125 -1.4375 0.570312 -1.390625 0.59375 -1.296875 C 0.707031 -0.941406 0.863281 -0.675781 1.0625 -0.5 C 1.257812 -0.320312 1.53125 -0.234375 1.875 -0.234375 C 2.226562 -0.234375 2.515625 -0.3125 2.734375 -0.46875 C 2.953125 -0.625 3.0625 -0.84375 3.0625 -1.125 C 3.0625 -1.4375 2.890625 -1.695312 2.546875 -1.90625 C 2.390625 -2 2.21875 -2.085938 2.03125 -2.171875 C 1.84375 -2.265625 1.65625 -2.359375 1.46875 -2.453125 C 1.28125 -2.554688 1.109375 -2.664062 0.953125 -2.78125 C 0.609375 -3.03125 0.4375 -3.347656 0.4375 -3.734375 C 0.4375 -4.117188 0.582031 -4.425781 0.875 -4.65625 C 1.175781 -4.882812 1.523438 -5 1.921875 -5 C 2.328125 -5 2.671875 -4.945312 2.953125 -4.84375 C 3.234375 -4.75 3.375 -4.640625 3.375 -4.515625 L 3.375 -3.796875 C 3.375 -3.703125 3.335938 -3.65625 3.265625 -3.65625 C 3.203125 -3.65625 3.15625 -3.703125 3.125 -3.796875 C 3.03125 -4.097656 2.898438 -4.320312 2.734375 -4.46875 C 2.578125 -4.613281 2.335938 -4.6875 2.015625 -4.6875 C 1.703125 -4.6875 1.453125 -4.609375 1.265625 -4.453125 C 1.085938 -4.304688 1 -4.125 1 -3.90625 C 1 -3.6875 1.085938 -3.492188 1.265625 -3.328125 C 1.453125 -3.171875 1.675781 -3.03125 1.9375 -2.90625 C 2.195312 -2.78125 2.457031 -2.648438 2.71875 -2.515625 C 2.976562 -2.378906 3.195312 -2.207031 3.375 -2 C 3.5625 -1.789062 3.65625 -1.546875 3.65625 -1.265625 Z M 3.65625 -1.265625 "/></g></g></g><g fill="#403737" fill-opacity="1"><g transform="translate(189.231392, 256.896945)"><g><path d="M 2.484375 -4.40625 L 2.484375 -0.46875 C 2.484375 -0.382812 2.515625 -0.316406 2.578125 -0.265625 C 2.640625 -0.210938 2.710938 -0.179688 2.796875 -0.171875 L 3 -0.15625 C 3.0625 -0.15625 3.09375 -0.125 3.09375 -0.0625 C 3.09375 -0.0390625 3.078125 -0.0195312 3.046875 0 C 3.023438 0.0195312 3.003906 0.03125 2.984375 0.03125 L 2.1875 0 L 1.328125 0.03125 C 1.296875 0.03125 1.269531 0.0195312 1.25 0 C 1.226562 -0.0195312 1.21875 -0.0390625 1.21875 -0.0625 C 1.21875 -0.125 1.25 -0.15625 1.3125 -0.15625 L 1.5625 -0.171875 C 1.65625 -0.179688 1.734375 -0.210938 1.796875 -0.265625 C 1.859375 -0.316406 1.890625 -0.382812 1.890625 -0.46875 L 1.890625 -4.40625 C 1.890625 -4.53125 1.828125 -4.59375 1.703125 -4.59375 L 1.125 -4.59375 C 0.882812 -4.59375 0.695312 -4.53125 0.5625 -4.40625 C 0.4375 -4.28125 0.335938 -4.097656 0.265625 -3.859375 C 0.234375 -3.785156 0.191406 -3.75 0.140625 -3.75 C 0.0976562 -3.75 0.0625 -3.757812 0.03125 -3.78125 C 0.0078125 -3.8125 0.00390625 -3.84375 0.015625 -3.875 L 0.0625 -4.78125 C 0.0703125 -4.875 0.125 -4.921875 0.21875 -4.921875 L 4.125 -4.921875 C 4.21875 -4.921875 4.269531 -4.863281 4.28125 -4.75 L 4.359375 -3.875 C 4.359375 -3.84375 4.34375 -3.8125 4.3125 -3.78125 C 4.289062 -3.757812 4.253906 -3.75 4.203125 -3.75 C 4.160156 -3.75 4.125 -3.785156 4.09375 -3.859375 C 4.007812 -4.109375 3.898438 -4.289062 3.765625 -4.40625 C 3.640625 -4.53125 3.46875 -4.59375 3.25 -4.59375 L 2.65625 -4.59375 C 2.539062 -4.59375 2.484375 -4.53125 2.484375 -4.40625 Z M 2.484375 -4.40625 "/></g></g></g><g fill="#403737" fill-opacity="1"><g transform="translate(197.231594, 256.896945)"><g><path d="M 3.171875 -2.921875 C 3.390625 -3.097656 3.5 -3.332031 3.5 -3.625 C 3.5 -3.925781 3.390625 -4.164062 3.171875 -4.34375 C 2.953125 -4.519531 2.679688 -4.609375 2.359375 -4.609375 L 1.6875 -4.609375 C 1.5 -4.609375 1.40625 -4.515625 1.40625 -4.328125 L 1.40625 -2.734375 C 1.40625 -2.679688 1.429688 -2.65625 1.484375 -2.65625 L 2.359375 -2.65625 C 2.679688 -2.65625 2.953125 -2.742188 3.171875 -2.921875 Z M 2.59375 -4.921875 C 3.039062 -4.921875 3.410156 -4.804688 3.703125 -4.578125 C 3.992188 -4.347656 4.140625 -4.039062 4.140625 -3.65625 C 4.140625 -3.28125 3.992188 -2.96875 3.703125 -2.71875 C 3.421875 -2.476562 3.109375 -2.351562 2.765625 -2.34375 L 2.75 -2.328125 C 2.851562 -2.296875 2.929688 -2.238281 2.984375 -2.15625 L 4.046875 -0.46875 C 4.148438 -0.300781 4.304688 -0.203125 4.515625 -0.171875 L 4.640625 -0.15625 C 4.703125 -0.144531 4.734375 -0.113281 4.734375 -0.0625 C 4.734375 0 4.695312 0.03125 4.625 0.03125 C 4.175781 0.0078125 3.894531 0 3.78125 0 C 3.675781 0 3.59375 -0.046875 3.53125 -0.140625 L 2.34375 -2.109375 C 2.25 -2.253906 2.144531 -2.328125 2.03125 -2.328125 L 1.515625 -2.328125 C 1.441406 -2.328125 1.40625 -2.300781 1.40625 -2.25 L 1.40625 -0.46875 C 1.40625 -0.382812 1.4375 -0.316406 1.5 -0.265625 C 1.5625 -0.210938 1.640625 -0.179688 1.734375 -0.171875 L 2.03125 -0.15625 C 2.082031 -0.15625 2.109375 -0.125 2.109375 -0.0625 C 2.109375 0 2.070312 0.03125 2 0.03125 L 1.125 0 L 0.34375 0.03125 C 0.28125 0.03125 0.242188 0 0.234375 -0.0625 C 0.234375 -0.125 0.265625 -0.15625 0.328125 -0.15625 L 0.53125 -0.171875 C 0.71875 -0.191406 0.8125 -0.289062 0.8125 -0.46875 L 0.8125 -4.453125 C 0.8125 -4.617188 0.703125 -4.710938 0.484375 -4.734375 L 0.28125 -4.765625 C 0.226562 -4.773438 0.203125 -4.800781 0.203125 -4.84375 C 0.203125 -4.914062 0.238281 -4.953125 0.3125 -4.953125 L 1.28125 -4.921875 Z M 2.59375 -4.921875 "/></g></g></g><g fill="#403737" fill-opacity="1"><g transform="translate(205.527056, 256.896945)"><g><path d="M 0.421875 0.03125 C 0.359375 0.03125 0.328125 0.00390625 0.328125 -0.046875 C 0.328125 -0.109375 0.351562 -0.144531 0.40625 -0.15625 L 0.53125 -0.171875 C 0.71875 -0.191406 0.8125 -0.289062 0.8125 -0.46875 L 0.8125 -4.453125 C 0.8125 -4.617188 0.703125 -4.710938 0.484375 -4.734375 L 0.28125 -4.765625 C 0.226562 -4.773438 0.203125 -4.800781 0.203125 -4.84375 C 0.203125 -4.914062 0.238281 -4.953125 0.3125 -4.953125 L 1.109375 -4.921875 L 1.796875 -4.953125 C 1.867188 -4.953125 1.90625 -4.921875 1.90625 -4.859375 C 1.90625 -4.796875 1.875 -4.765625 1.8125 -4.765625 L 1.6875 -4.734375 C 1.5 -4.703125 1.40625 -4.609375 1.40625 -4.453125 L 1.40625 -0.46875 C 1.40625 -0.382812 1.4375 -0.316406 1.5 -0.265625 C 1.5625 -0.210938 1.640625 -0.179688 1.734375 -0.171875 L 1.9375 -0.15625 C 1.988281 -0.15625 2.015625 -0.125 2.015625 -0.0625 C 2.015625 -0.0390625 2.003906 -0.0195312 1.984375 0 C 1.960938 0.0195312 1.941406 0.03125 1.921875 0.03125 L 1.125 0 Z M 0.421875 0.03125 "/></g></g></g><g fill="#403737" fill-opacity="1"><g transform="translate(211.390115, 256.896945)"><g><path d="M 3.734375 0 L 1.109375 0 L 0.3125 0.03125 C 0.238281 0.03125 0.203125 0 0.203125 -0.0625 C 0.203125 -0.125 0.226562 -0.15625 0.28125 -0.15625 L 0.484375 -0.171875 C 0.578125 -0.179688 0.65625 -0.210938 0.71875 -0.265625 C 0.78125 -0.316406 0.8125 -0.382812 0.8125 -0.46875 L 0.8125 -4.453125 C 0.8125 -4.617188 0.703125 -4.710938 0.484375 -4.734375 L 0.28125 -4.765625 C 0.226562 -4.765625 0.203125 -4.796875 0.203125 -4.859375 C 0.203125 -4.921875 0.238281 -4.953125 0.3125 -4.953125 L 1.109375 -4.921875 L 3.59375 -4.921875 C 3.6875 -4.921875 3.757812 -4.894531 3.8125 -4.84375 C 3.875 -4.789062 3.910156 -4.722656 3.921875 -4.640625 L 4.015625 -4 C 4.023438 -3.90625 3.988281 -3.859375 3.90625 -3.859375 C 3.832031 -3.859375 3.785156 -3.898438 3.765625 -3.984375 C 3.691406 -4.203125 3.582031 -4.359375 3.4375 -4.453125 C 3.300781 -4.546875 3.109375 -4.59375 2.859375 -4.59375 L 1.75 -4.59375 C 1.65625 -4.59375 1.570312 -4.5625 1.5 -4.5 C 1.4375 -4.445312 1.40625 -4.367188 1.40625 -4.265625 L 1.40625 -2.796875 C 1.40625 -2.734375 1.4375 -2.703125 1.5 -2.703125 L 2.8125 -2.703125 C 2.875 -2.703125 2.921875 -2.71875 2.953125 -2.75 C 2.992188 -2.78125 3.019531 -2.804688 3.03125 -2.828125 C 3.050781 -2.859375 3.070312 -2.914062 3.09375 -3 L 3.125 -3.09375 C 3.132812 -3.144531 3.164062 -3.171875 3.21875 -3.171875 C 3.28125 -3.171875 3.3125 -3.140625 3.3125 -3.078125 L 3.28125 -2.46875 L 3.3125 -1.90625 C 3.3125 -1.84375 3.28125 -1.804688 3.21875 -1.796875 C 3.164062 -1.796875 3.132812 -1.828125 3.125 -1.890625 L 3.09375 -2.015625 C 3.050781 -2.253906 2.957031 -2.375 2.8125 -2.375 L 1.5 -2.375 C 1.4375 -2.375 1.40625 -2.34375 1.40625 -2.28125 L 1.40625 -0.640625 C 1.40625 -0.546875 1.4375 -0.46875 1.5 -0.40625 C 1.570312 -0.351562 1.65625 -0.328125 1.75 -0.328125 L 2.921875 -0.328125 C 3.160156 -0.328125 3.367188 -0.382812 3.546875 -0.5 C 3.722656 -0.625 3.847656 -0.800781 3.921875 -1.03125 C 3.941406 -1.101562 3.976562 -1.140625 4.03125 -1.140625 C 4.082031 -1.140625 4.117188 -1.125 4.140625 -1.09375 C 4.160156 -1.070312 4.171875 -1.046875 4.171875 -1.015625 L 4.0625 -0.28125 C 4.050781 -0.195312 4.015625 -0.128906 3.953125 -0.078125 C 3.890625 -0.0234375 3.816406 0 3.734375 0 Z M 3.734375 0 "/></g></g></g><g fill="#403737" fill-opacity="1"><g transform="translate(219.481702, 256.896945)"><g><path d="M 3.65625 -1.265625 C 3.65625 -0.828125 3.488281 -0.492188 3.15625 -0.265625 C 2.832031 -0.0351562 2.4375 0.078125 1.96875 0.078125 C 1.5 0.078125 1.109375 0.0195312 0.796875 -0.09375 C 0.492188 -0.207031 0.34375 -0.332031 0.34375 -0.46875 L 0.34375 -1.28125 C 0.34375 -1.382812 0.382812 -1.4375 0.46875 -1.4375 C 0.53125 -1.4375 0.570312 -1.390625 0.59375 -1.296875 C 0.707031 -0.941406 0.863281 -0.675781 1.0625 -0.5 C 1.257812 -0.320312 1.53125 -0.234375 1.875 -0.234375 C 2.226562 -0.234375 2.515625 -0.3125 2.734375 -0.46875 C 2.953125 -0.625 3.0625 -0.84375 3.0625 -1.125 C 3.0625 -1.4375 2.890625 -1.695312 2.546875 -1.90625 C 2.390625 -2 2.21875 -2.085938 2.03125 -2.171875 C 1.84375 -2.265625 1.65625 -2.359375 1.46875 -2.453125 C 1.28125 -2.554688 1.109375 -2.664062 0.953125 -2.78125 C 0.609375 -3.03125 0.4375 -3.347656 0.4375 -3.734375 C 0.4375 -4.117188 0.582031 -4.425781 0.875 -4.65625 C 1.175781 -4.882812 1.523438 -5 1.921875 -5 C 2.328125 -5 2.671875 -4.945312 2.953125 -4.84375 C 3.234375 -4.75 3.375 -4.640625 3.375 -4.515625 L 3.375 -3.796875 C 3.375 -3.703125 3.335938 -3.65625 3.265625 -3.65625 C 3.203125 -3.65625 3.15625 -3.703125 3.125 -3.796875 C 3.03125 -4.097656 2.898438 -4.320312 2.734375 -4.46875 C 2.578125 -4.613281 2.335938 -4.6875 2.015625 -4.6875 C 1.703125 -4.6875 1.453125 -4.609375 1.265625 -4.453125 C 1.085938 -4.304688 1 -4.125 1 -3.90625 C 1 -3.6875 1.085938 -3.492188 1.265625 -3.328125 C 1.453125 -3.171875 1.675781 -3.03125 1.9375 -2.90625 C 2.195312 -2.78125 2.457031 -2.648438 2.71875 -2.515625 C 2.976562 -2.378906 3.195312 -2.207031 3.375 -2 C 3.5625 -1.789062 3.65625 -1.546875 3.65625 -1.265625 Z M 3.65625 -1.265625 "/></g></g></g><g fill="#403737" fill-opacity="1"><g transform="translate(227.125487, 256.896945)"><g/></g></g></svg>