<svg xmlns="http://www.w3.org/2000/svg" xmlns:xlink="http://www.w3.org/1999/xlink" width="500" zoomAndPan="magnify" viewBox="0 0 375 374.999991" height="500" preserveAspectRatio="xMidYMid meet" version="1.0"><defs><g/><clipPath id="id1"><path d="M 246 0 L 321 0 L 321 48 L 246 48 Z M 246 0 " clip-rule="nonzero"/></clipPath><clipPath id="id2"><path d="M 349.167969 -106.960938 L 444.816406 60.382812 L 283.335938 152.683594 L 187.683594 -14.660156 Z M 349.167969 -106.960938 " clip-rule="nonzero"/></clipPath><clipPath id="id3"><path d="M 349.167969 -106.960938 L 444.816406 60.382812 L 283.335938 152.683594 L 187.683594 -14.660156 Z M 349.167969 -106.960938 " clip-rule="nonzero"/></clipPath><clipPath id="id4"><path d="M 213 0 L 375 0 L 375 93 L 213 93 Z M 213 0 " clip-rule="nonzero"/></clipPath><clipPath id="id5"><path d="M 349.167969 -106.960938 L 444.816406 60.382812 L 283.335938 152.683594 L 187.683594 -14.660156 Z M 349.167969 -106.960938 " clip-rule="nonzero"/></clipPath><clipPath id="id6"><path d="M 349.167969 -106.960938 L 444.816406 60.382812 L 283.335938 152.683594 L 187.683594 -14.660156 Z M 349.167969 -106.960938 " clip-rule="nonzero"/></clipPath><clipPath id="id7"><path d="M 348 15 L 375 15 L 375 69 L 348 69 Z M 348 15 " clip-rule="nonzero"/></clipPath><clipPath id="id8"><path d="M 349.167969 -106.960938 L 444.816406 60.382812 L 283.335938 152.683594 L 187.683594 -14.660156 Z M 349.167969 -106.960938 " clip-rule="nonzero"/></clipPath><clipPath id="id9"><path d="M 349.167969 -106.960938 L 444.816406 60.382812 L 283.335938 152.683594 L 187.683594 -14.660156 Z M 349.167969 -106.960938 " clip-rule="nonzero"/></clipPath><clipPath id="id10"><path d="M 97.550781 103.839844 L 277.410156 103.839844 L 277.410156 283.695312 L 97.550781 283.695312 Z M 97.550781 103.839844 " clip-rule="nonzero"/></clipPath><clipPath id="id11"><path d="M 58.339844 234.46875 L 316.539062 234.46875 L 316.539062 263.160156 L 58.339844 263.160156 Z M 58.339844 234.46875 " clip-rule="nonzero"/></clipPath><clipPath id="id12"><path d="M 93.515625 100.382812 L 281.648438 100.382812 L 281.648438 288.515625 L 93.515625 288.515625 Z M 93.515625 100.382812 " clip-rule="nonzero"/></clipPath><clipPath id="id13"><path d="M 106 124 L 203 124 L 203 221 L 106 221 Z M 106 124 " clip-rule="nonzero"/></clipPath><clipPath id="id14"><path d="M 205.730469 86.644531 L 277.5625 205.679688 L 162.304688 275.234375 L 90.472656 156.199219 Z M 205.730469 86.644531 " clip-rule="nonzero"/></clipPath><clipPath id="id15"><path d="M 205.730469 86.644531 L 277.5625 205.679688 L 162.304688 275.234375 L 90.472656 156.199219 Z M 205.730469 86.644531 " clip-rule="nonzero"/></clipPath><clipPath id="id16"><path d="M 170.394531 108.15625 L 218.796875 188.367188 L 138.832031 236.625 L 90.425781 156.414062 Z M 170.394531 108.15625 " clip-rule="nonzero"/></clipPath><clipPath id="id17"><path d="M 170.394531 108.15625 L 218.796875 188.367188 L 138.960938 236.546875 L 90.558594 156.335938 Z M 170.394531 108.15625 " clip-rule="nonzero"/></clipPath><clipPath id="id18"><path d="M 133 150 L 176 150 L 176 194 L 133 194 Z M 133 150 " clip-rule="nonzero"/></clipPath><clipPath id="id19"><path d="M 205.730469 86.644531 L 277.5625 205.679688 L 162.304688 275.234375 L 90.472656 156.199219 Z M 205.730469 86.644531 " clip-rule="nonzero"/></clipPath><clipPath id="id20"><path d="M 205.730469 86.644531 L 277.5625 205.679688 L 162.304688 275.234375 L 90.472656 156.199219 Z M 205.730469 86.644531 " clip-rule="nonzero"/></clipPath><clipPath id="id21"><path d="M 197 160 L 266 160 L 266 228 L 197 228 Z M 197 160 " clip-rule="nonzero"/></clipPath><clipPath id="id22"><path d="M 205.730469 86.644531 L 277.5625 205.679688 L 162.304688 275.234375 L 90.472656 156.199219 Z M 205.730469 86.644531 " clip-rule="nonzero"/></clipPath><clipPath id="id23"><path d="M 205.730469 86.644531 L 277.5625 205.679688 L 162.304688 275.234375 L 90.472656 156.199219 Z M 205.730469 86.644531 " clip-rule="nonzero"/></clipPath><clipPath id="id24"><path d="M 242.390625 147.398438 L 277.535156 205.636719 L 220.207031 240.230469 L 185.066406 181.996094 Z M 242.390625 147.398438 " clip-rule="nonzero"/></clipPath><clipPath id="id25"><path d="M 242.390625 147.398438 L 277.480469 205.546875 L 220.15625 240.140625 L 185.066406 181.996094 Z M 242.390625 147.398438 " clip-rule="nonzero"/></clipPath><clipPath id="id26"><path d="M 217 179 L 246 179 L 246 209 L 217 209 Z M 217 179 " clip-rule="nonzero"/></clipPath><clipPath id="id27"><path d="M 205.730469 86.644531 L 277.5625 205.679688 L 162.304688 275.234375 L 90.472656 156.199219 Z M 205.730469 86.644531 " clip-rule="nonzero"/></clipPath><clipPath id="id28"><path d="M 205.730469 86.644531 L 277.5625 205.679688 L 162.304688 275.234375 L 90.472656 156.199219 Z M 205.730469 86.644531 " clip-rule="nonzero"/></clipPath></defs><rect x="-37.5" width="450" fill="#ffffff" y="-37.499999" height="449.999989" fill-opacity="1"/><rect x="-37.5" width="450" fill="#ffffff" y="-37.499999" height="449.999989" fill-opacity="1"/><rect x="-37.5" width="450" fill="#ffffff" y="-37.499999" height="449.999989" fill-opacity="1"/><g clip-path="url(#id1)"><g clip-path="url(#id2)"><g clip-path="url(#id3)"><path fill="#ffffff" d="M 315.558594 -7.269531 C 305.488281 -24.890625 282.933594 -31.070312 265.359375 -21.023438 C 247.785156 -10.980469 241.664062 11.589844 251.734375 29.210938 C 261.804688 46.828125 284.359375 53.007812 301.933594 42.964844 C 319.507812 32.921875 325.679688 10.4375 315.558594 -7.269531 Z M 257.066406 26.160156 C 248.648438 11.4375 253.726562 -7.28125 268.414062 -15.675781 C 283.101562 -24.074219 301.859375 -18.859375 310.226562 -4.222656 C 318.59375 10.417969 313.566406 29.222656 298.878906 37.617188 C 284.1875 46.011719 265.484375 40.886719 257.066406 26.160156 Z M 257.066406 26.160156 " fill-opacity="1" fill-rule="nonzero"/></g></g></g><g clip-path="url(#id4)"><g clip-path="url(#id5)"><g clip-path="url(#id6)"><path fill="#ffffff" d="M 393.765625 87.347656 L 393.933594 81.554688 C 396.21875 80.480469 398.320312 79.28125 400.40625 77.855469 L 405.484375 80.652344 C 406.644531 81.265625 407.945312 81.105469 408.980469 80.28125 C 411.902344 77.679688 414.535156 74.777344 416.882812 71.578125 C 417.679688 70.539062 417.691406 69.136719 416.953125 68.046875 L 413.746094 63.25 C 414.933594 61.0625 415.980469 58.835938 416.839844 56.484375 L 422.574219 55.761719 C 423.875 55.601562 424.859375 54.6875 425.148438 53.363281 C 425.96875 49.523438 426.425781 45.65625 426.382812 41.726562 C 426.355469 40.460938 425.566406 39.285156 424.367188 38.808594 L 418.976562 36.886719 C 418.699219 34.371094 418.160156 32.003906 417.480469 29.601562 L 421.726562 25.664062 C 422.625 24.800781 422.996094 23.425781 422.433594 22.234375 C 420.917969 18.566406 418.960938 15.148438 416.570312 11.980469 C 415.832031 10.890625 414.457031 10.511719 413.257812 10.847656 L 407.710938 12.507812 C 405.984375 10.703125 404.167969 8.949219 402.191406 7.523438 L 403.222656 1.816406 C 403.421875 0.539062 402.894531 -0.789062 401.730469 -1.402344 C 398.367188 -3.433594 394.753906 -5.089844 391.078125 -6.242188 C 389.839844 -6.582031 388.550781 -6.195312 387.703125 -5.246094 L 384.171875 -0.667969 C 381.707031 -1.121094 379.207031 -1.4375 376.773438 -1.4375 L 374.128906 -6.671875 C 373.5625 -7.863281 372.351562 -8.566406 371.050781 -8.402344 C 367.1875 -8.058594 363.265625 -7.210938 359.542969 -6.011719 C 358.253906 -5.625 357.507812 -4.5 357.445312 -3.1875 L 357.277344 2.609375 C 354.730469 3.832031 352.28125 5.230469 349.984375 6.894531 L 343.71875 4.660156 C 343.316406 0.703125 342.460938 -3.226562 341.34375 -7.007812 L 347.898438 -13.195312 C 348.796875 -14.058594 349.167969 -15.433594 348.605469 -16.625 C 346.425781 -21.65625 343.667969 -26.476562 340.4375 -30.910156 C 339.699219 -32 338.324219 -32.378906 337.125 -32.042969 L 328.464844 -29.535156 C 325.8125 -32.554688 322.824219 -35.148438 319.621094 -37.503906 L 321.285156 -46.363281 C 321.484375 -47.636719 320.957031 -48.964844 319.792969 -49.578125 C 315.078125 -52.351562 310.023438 -54.695312 304.921875 -56.316406 C 303.6875 -56.65625 302.398438 -56.269531 301.550781 -55.316406 L 296.085938 -48.238281 C 292.160156 -49.019531 288.160156 -49.523438 284.183594 -49.578125 L 280.335938 -57.730469 C 279.773438 -58.917969 278.558594 -59.621094 277.261719 -59.460938 C 271.824219 -59.027344 266.425781 -57.917969 261.289062 -56.144531 C 260.003906 -55.757812 259.253906 -54.632812 259.195312 -53.320312 L 258.894531 -44.308594 C 255.28125 -42.710938 251.785156 -40.710938 248.578125 -38.414062 L 240.660156 -42.726562 C 239.496094 -43.339844 238.195312 -43.179688 237.160156 -42.355469 C 233.078125 -38.742188 229.382812 -34.652344 226.199219 -30.273438 C 225.402344 -29.238281 225.480469 -27.886719 226.128906 -26.746094 L 231.203125 -19.292969 C 229.230469 -15.84375 227.585938 -12.226562 226.316406 -8.359375 L 217.441406 -7.242188 C 216.144531 -7.082031 215.15625 -6.167969 214.871094 -4.84375 C 213.640625 0.511719 213.046875 5.96875 213.128906 11.386719 C 213.15625 12.652344 213.945312 13.828125 215.144531 14.304688 L 223.621094 17.367188 C 224.027344 21.324219 224.882812 25.253906 226 29.035156 L 219.445312 35.222656 C 218.546875 36.085938 218.171875 37.460938 218.738281 38.652344 C 219.828125 41.167969 221.003906 43.632812 222.359375 46 C 223.710938 48.367188 225.238281 50.636719 226.855469 52.851562 C 227.59375 53.941406 228.96875 54.316406 230.167969 53.980469 L 238.824219 51.472656 C 241.480469 54.492188 244.46875 57.085938 247.671875 59.441406 L 246.007812 68.300781 C 245.808594 69.578125 246.335938 70.90625 247.5 71.519531 C 252.214844 74.289062 257.265625 76.636719 262.367188 78.253906 C 263.605469 78.59375 264.894531 78.207031 265.742188 77.257812 L 271.207031 70.179688 C 275.132812 70.960938 279.132812 71.464844 283.109375 71.519531 L 286.957031 79.667969 C 287.519531 80.859375 288.734375 81.5625 290.03125 81.398438 C 295.46875 80.96875 300.867188 79.859375 306 78.085938 C 307.289062 77.699219 308.039062 76.574219 308.097656 75.261719 L 308.398438 66.25 C 312.007812 64.652344 315.507812 62.652344 318.714844 60.351562 L 326.632812 64.664062 C 327.796875 65.28125 329.097656 65.117188 330.132812 64.292969 C 330.132812 64.292969 330.21875 64.242188 330.21875 64.242188 C 330.683594 65.257812 331.148438 66.273438 331.699219 67.238281 C 332.648438 68.902344 333.738281 70.605469 334.867188 72.171875 C 335.605469 73.261719 336.980469 73.636719 338.179688 73.300781 L 343.726562 71.640625 C 345.453125 73.445312 347.269531 75.199219 349.246094 76.628906 L 348.164062 82.246094 C 347.96875 83.523438 348.492188 84.851562 349.65625 85.464844 C 353.019531 87.496094 356.636719 89.152344 360.3125 90.304688 C 361.550781 90.644531 362.835938 90.257812 363.683594 89.308594 L 367.214844 84.730469 C 369.679688 85.183594 372.179688 85.5 374.617188 85.5 L 377.121094 90.699219 C 377.6875 91.886719 378.898438 92.589844 380.199219 92.429688 C 384.0625 92.082031 387.984375 91.234375 391.707031 90.035156 C 392.871094 89.835938 393.707031 88.660156 393.765625 87.347656 Z M 319.984375 54.046875 C 318.957031 53.46875 317.609375 53.542969 316.660156 54.316406 C 312.851562 57.191406 308.652344 59.589844 304.242188 61.414062 C 303.09375 61.839844 302.347656 62.964844 302.324219 64.140625 L 302.097656 72.875 C 298.636719 73.925781 295.199219 74.609375 291.613281 75.03125 L 287.863281 67.054688 C 287.351562 65.953125 286.277344 65.289062 285.011719 65.3125 C 280.1875 65.394531 275.464844 64.839844 270.800781 63.785156 C 269.613281 63.53125 268.414062 63.871094 267.613281 64.90625 L 262.273438 71.796875 C 258.910156 70.582031 255.621094 69.085938 252.457031 67.40625 L 254.046875 58.824219 C 254.292969 57.636719 253.730469 56.445312 252.742188 55.730469 C 248.839844 52.960938 245.273438 49.765625 242.132812 46.097656 C 241.355469 45.144531 240.117188 44.804688 238.917969 45.140625 L 230.570312 47.585938 C 228.554688 44.667969 226.753906 41.511719 225.261719 38.296875 L 231.601562 32.34375 C 232.5 31.480469 232.835938 30.242188 232.410156 29.089844 C 230.84375 24.519531 229.8125 19.878906 229.496094 15.058594 C 229.378906 13.84375 228.640625 12.753906 227.492188 12.367188 L 219.289062 9.378906 C 219.359375 5.851562 219.742188 2.257812 220.488281 -1.308594 L 229.136719 -2.414062 C 230.347656 -2.523438 231.332031 -3.4375 231.71875 -4.589844 C 233.039062 -9.179688 235.046875 -13.582031 237.617188 -17.609375 C 238.277344 -18.6875 238.25 -19.949219 237.5625 -20.953125 L 232.589844 -28.226562 C 234.773438 -31.105469 237.195312 -33.769531 239.765625 -36.167969 L 247.410156 -31.929688 C 248.433594 -31.355469 249.785156 -31.425781 250.734375 -32.203125 C 254.542969 -35.078125 258.738281 -37.476562 263.148438 -39.300781 C 264.296875 -39.722656 265.046875 -40.847656 265.070312 -42.023438 L 265.296875 -50.761719 C 268.757812 -51.808594 272.195312 -52.492188 275.78125 -52.914062 L 279.527344 -44.9375 C 280.042969 -43.835938 281.117188 -43.171875 282.378906 -43.195312 C 287.203125 -43.28125 291.929688 -42.722656 296.59375 -41.667969 C 297.78125 -41.417969 298.980469 -41.753906 299.777344 -42.792969 L 305.121094 -49.683594 C 308.484375 -48.464844 311.773438 -46.972656 314.9375 -45.292969 L 313.347656 -36.707031 C 313.097656 -35.519531 313.664062 -34.328125 314.652344 -33.617188 C 318.554688 -30.847656 322.121094 -27.652344 325.261719 -23.980469 C 326.039062 -23.027344 327.273438 -22.691406 328.476562 -23.027344 L 336.820312 -25.472656 C 338.835938 -22.554688 340.640625 -19.398438 342.132812 -16.179688 L 335.789062 -10.230469 C 334.890625 -9.367188 334.554688 -8.128906 334.980469 -6.976562 C 336.550781 -2.40625 337.578125 2.238281 337.898438 7.058594 C 338.011719 8.269531 338.839844 9.3125 339.902344 9.75 L 348.105469 12.738281 C 348.035156 16.265625 347.652344 19.855469 346.90625 23.421875 L 338.257812 24.527344 C 337.046875 24.640625 336.058594 25.554688 335.671875 26.703125 C 334.355469 31.296875 332.347656 35.699219 329.777344 39.726562 C 329.117188 40.800781 329.140625 42.066406 329.832031 43.066406 L 334.800781 50.34375 C 332.617188 53.21875 330.195312 55.882812 327.625 58.285156 Z M 389.777344 76.71875 C 388.628906 77.144531 387.882812 78.269531 387.859375 79.445312 L 387.675781 85.015625 C 385.679688 85.574219 383.714844 86 381.652344 86.246094 L 379.296875 81.3125 C 378.785156 80.210938 377.707031 79.546875 376.445312 79.570312 C 373.160156 79.707031 369.882812 79.25 366.683594 78.523438 C 365.496094 78.269531 364.296875 78.609375 363.496094 79.644531 L 360.089844 84.035156 C 358.203125 83.371094 356.300781 82.480469 354.488281 81.539062 L 355.445312 76.109375 C 355.691406 74.917969 355.128906 73.730469 354.140625 73.015625 C 351.464844 71.171875 348.984375 68.867188 346.859375 66.363281 C 346.082031 65.410156 344.84375 65.070312 343.644531 65.410156 L 338.359375 66.917969 C 336.882812 64.738281 335.617188 62.320312 334.578125 59.894531 C 336.835938 57.554688 338.945312 54.953125 340.828125 52.363281 C 341.628906 51.328125 341.636719 49.925781 340.898438 48.835938 L 335.828125 41.382812 C 337.800781 37.933594 339.445312 34.316406 340.714844 30.449219 L 349.585938 29.332031 C 350.886719 29.171875 351.875 28.257812 352.160156 26.933594 C 353.316406 21.851562 353.882812 16.761719 353.902344 11.515625 C 356.164062 9.992188 358.5625 8.503906 361.121094 7.507812 C 362.269531 7.082031 363.019531 5.957031 363.042969 4.78125 L 363.222656 -0.789062 C 365.222656 -1.351562 367.183594 -1.773438 369.246094 -2.023438 L 371.601562 2.910156 C 372.117188 4.011719 373.191406 4.675781 374.453125 4.652344 C 377.792969 4.605469 381.015625 4.972656 384.21875 5.703125 C 385.40625 5.953125 386.605469 5.617188 387.402344 4.578125 L 390.808594 0.1875 C 392.699219 0.855469 394.597656 1.746094 396.414062 2.683594 L 395.457031 8.117188 C 395.207031 9.304688 395.773438 10.492188 396.761719 11.207031 C 399.4375 13.050781 401.914062 15.355469 404.042969 17.863281 C 404.820312 18.8125 406.054688 19.152344 407.257812 18.816406 L 412.542969 17.308594 C 413.628906 19.011719 414.632812 20.761719 415.597656 22.652344 L 411.613281 26.441406 C 410.714844 27.304688 410.378906 28.542969 410.804688 29.695312 C 411.886719 32.800781 412.5625 36.015625 412.84375 39.347656 C 412.957031 40.558594 413.695312 41.648438 414.847656 42.039062 L 420.011719 43.972656 C 419.902344 46.011719 419.703125 48.101562 419.316406 50.066406 L 413.808594 50.773438 C 412.59375 50.886719 411.609375 51.796875 411.222656 52.949219 C 410.277344 56.164062 408.957031 59.128906 407.171875 61.894531 C 406.511719 62.96875 406.535156 64.234375 407.226562 65.234375 L 410.28125 69.769531 C 409.019531 71.417969 407.660156 72.894531 406.160156 74.332031 L 401.273438 71.660156 C 400.246094 71.085938 398.894531 71.160156 397.949219 71.933594 C 395.710938 73.910156 392.828125 75.558594 389.777344 76.71875 Z M 389.777344 76.71875 " fill-opacity="1" fill-rule="nonzero"/></g></g></g><g clip-path="url(#id7)"><g clip-path="url(#id8)"><g clip-path="url(#id9)"><path fill="#ffffff" d="M 398.929688 28.808594 C 391.566406 15.921875 375.199219 11.4375 362.347656 18.785156 C 349.496094 26.128906 345.054688 42.507812 352.417969 55.394531 C 359.785156 68.277344 376.152344 72.761719 389.003906 65.417969 C 401.765625 58.121094 406.296875 41.691406 398.929688 28.808594 Z M 357.664062 52.394531 C 352.003906 42.488281 355.4375 29.828125 365.316406 24.179688 C 375.195312 18.535156 387.847656 22 393.511719 31.90625 C 399.171875 41.8125 395.738281 54.472656 385.859375 60.121094 C 375.980469 65.765625 363.328125 62.300781 357.664062 52.394531 Z M 357.664062 52.394531 " fill-opacity="1" fill-rule="nonzero"/></g></g></g><g clip-path="url(#id10)"><path fill="#000000" d="M 187.480469 103.839844 C 137.8125 103.839844 97.550781 144.101562 97.550781 193.765625 C 97.550781 243.433594 137.8125 283.695312 187.480469 283.695312 C 237.144531 283.695312 277.410156 243.433594 277.410156 193.765625 C 277.410156 144.101562 237.144531 103.839844 187.480469 103.839844 " fill-opacity="1" fill-rule="nonzero"/></g><g clip-path="url(#id11)"><path fill="#ffffff" d="M 58.339844 234.46875 L 316.539062 234.46875 L 316.539062 263.160156 L 58.339844 263.160156 L 58.339844 234.46875 " fill-opacity="1" fill-rule="nonzero"/></g><g clip-path="url(#id12)"><path fill="#000000" d="M 187.582031 288.515625 C 135.726562 288.515625 93.515625 246.300781 93.515625 194.449219 C 93.515625 142.597656 135.726562 100.382812 187.582031 100.382812 C 239.433594 100.382812 281.648438 142.597656 281.648438 194.449219 C 281.648438 246.300781 239.433594 288.515625 187.582031 288.515625 Z M 187.582031 101.773438 C 136.46875 101.773438 94.90625 143.339844 94.90625 194.449219 C 94.90625 245.5625 136.46875 287.125 187.582031 287.125 C 238.691406 287.125 280.257812 245.5625 280.257812 194.449219 C 280.257812 143.339844 238.691406 101.773438 187.582031 101.773438 Z M 187.582031 101.773438 " fill-opacity="1" fill-rule="nonzero"/></g><g clip-path="url(#id13)"><g clip-path="url(#id14)"><g clip-path="url(#id15)"><g clip-path="url(#id16)"><g clip-path="url(#id17)"><path fill="#ffffff" d="M 163.453125 207.398438 L 162.183594 213.230469 C 162.132812 213.429688 161.796875 213.789062 161.625 213.84375 C 160.378906 214.058594 159.113281 214.214844 157.855469 214.304688 C 156.527344 214.402344 155.164062 214.425781 153.824219 214.375 C 153.667969 214.351562 153.25 214.128906 153.136719 213.832031 L 151.042969 208.296875 C 150.28125 206.269531 148.140625 204.390625 146.003906 203.8125 C 144.917969 203.515625 143.8125 203.152344 142.734375 202.734375 C 140.625 201.90625 137.867188 202.152344 136.035156 203.324219 L 131.117188 206.476562 C 130.933594 206.582031 130.429688 206.597656 130.265625 206.515625 C 129.140625 205.734375 128.058594 204.898438 127.054688 204.027344 C 126.105469 203.207031 125.179688 202.320312 124.320312 201.410156 L 124.3125 201.402344 C 124.183594 201.191406 124.152344 200.738281 124.21875 200.566406 L 126.609375 195.253906 C 127.191406 193.964844 128.007812 191.539062 126.957031 189.796875 C 126.929688 189.757812 126.894531 189.699219 126.867188 189.660156 C 125.960938 188.320312 125.226562 186.855469 124.554688 185.316406 C 123.671875 183.28125 121.480469 181.4375 119.386719 180.976562 L 113.746094 179.734375 C 113.632812 179.703125 113.335938 179.503906 113.132812 179.175781 C 112.917969 177.933594 112.757812 176.660156 112.664062 175.394531 C 112.59375 174.472656 112.566406 173.488281 112.578125 172.296875 L 112.578125 171.925781 C 112.578125 171.722656 112.578125 171.523438 112.574219 171.390625 C 112.59375 171.34375 112.613281 171.289062 112.628906 171.230469 C 112.757812 170.953125 113.015625 170.71875 113.125 170.675781 L 118.375 168.695312 C 120.421875 167.921875 122.253906 165.847656 122.832031 163.648438 C 123.152344 162.441406 123.550781 161.234375 124.003906 160.066406 C 124.8125 158.019531 124.601562 155.3125 123.496094 153.476562 C 123.484375 153.457031 123.429688 153.367188 123.414062 153.347656 L 120.367188 148.59375 C 120.261719 148.414062 120.246094 147.917969 120.328125 147.753906 C 121.046875 146.726562 121.828125 145.71875 122.65625 144.757812 C 123.535156 143.742188 124.476562 142.757812 125.449219 141.855469 C 125.621094 141.730469 126.121094 141.675781 126.320312 141.757812 L 131.347656 144.039062 C 133.34375 144.945312 136.113281 144.777344 138.066406 143.636719 C 139.1875 142.988281 140.347656 142.40625 141.519531 141.902344 C 143.605469 141.003906 145.386719 138.882812 145.851562 136.75 L 147.023438 131.371094 C 147.074219 131.164062 147.421875 130.796875 147.597656 130.738281 C 148.914062 130.5 150.265625 130.328125 151.617188 130.230469 C 152.886719 130.140625 154.164062 130.113281 155.386719 130.144531 C 155.542969 130.171875 155.890625 130.398438 156.054688 130.671875 L 156.058594 130.675781 L 158.027344 135.882812 C 158.792969 137.917969 160.933594 139.792969 163.070312 140.367188 C 164.316406 140.703125 165.546875 141.117188 166.734375 141.59375 C 168.847656 142.445312 171.609375 142.21875 173.453125 141.039062 L 178.164062 138.019531 C 178.339844 137.914062 178.835938 137.898438 178.996094 137.976562 C 180.039062 138.710938 181.046875 139.5 181.996094 140.324219 C 183.003906 141.195312 183.988281 142.144531 184.914062 143.140625 C 185.042969 143.355469 185.078125 143.820312 185.003906 144 L 182.675781 149.167969 C 181.964844 150.75 181.320312 152.964844 182.265625 154.535156 C 182.257812 154.527344 182.320312 154.621094 182.347656 154.660156 C 183.28125 156.050781 184.035156 157.574219 184.714844 159.179688 C 185.585938 161.21875 187.773438 163.082031 189.875 163.542969 L 195.445312 164.773438 C 195.5625 164.800781 195.875 165.003906 196.082031 165.347656 C 196.328125 166.699219 196.5 168.054688 196.597656 169.382812 C 196.691406 170.636719 196.722656 171.917969 196.691406 173.148438 C 196.675781 173.183594 196.664062 173.222656 196.65625 173.257812 C 196.652344 173.261719 196.652344 173.265625 196.648438 173.269531 C 196.640625 173.289062 196.628906 173.308594 196.621094 173.328125 C 196.476562 173.601562 196.246094 173.789062 196.167969 173.824219 L 190.710938 175.882812 C 188.671875 176.644531 186.832031 178.707031 186.230469 180.894531 C 185.917969 182.03125 185.542969 183.15625 185.113281 184.242188 C 184.304688 186.292969 184.511719 189 185.617188 190.832031 C 185.628906 190.855469 185.6875 190.941406 185.699219 190.964844 L 188.851562 195.882812 C 188.960938 196.066406 188.980469 196.578125 188.898438 196.742188 C 188.125 197.859375 187.292969 198.941406 186.414062 199.957031 C 185.605469 200.898438 184.726562 201.820312 183.816406 202.6875 C 183.652344 202.804688 183.164062 202.863281 182.972656 202.785156 L 177.566406 200.332031 C 175.578125 199.429688 172.816406 199.582031 170.851562 200.699219 C 169.871094 201.257812 168.832031 201.777344 167.773438 202.242188 C 165.6875 203.144531 163.910156 205.265625 163.453125 207.398438 Z M 175.257812 205.453125 L 180.664062 207.90625 C 182.914062 208.929688 185.929688 208.449219 187.675781 206.789062 C 188.738281 205.777344 189.75 204.714844 190.675781 203.640625 C 191.679688 202.472656 192.636719 201.234375 193.523438 199.953125 C 194.867188 198.007812 194.921875 195.078125 193.660156 192.980469 C 193.648438 192.960938 193.597656 192.878906 193.582031 192.855469 L 190.425781 187.933594 C 190.242188 187.628906 190.167969 186.761719 190.335938 186.328125 C 190.84375 185.054688 191.28125 183.734375 191.648438 182.402344 C 191.773438 181.949219 192.378906 181.273438 192.699219 181.152344 L 198.164062 179.089844 C 199.558594 178.5625 200.789062 177.453125 201.554688 176.035156 C 201.582031 175.988281 201.605469 175.9375 201.632812 175.886719 C 201.753906 175.648438 201.859375 175.410156 201.941406 175.191406 C 201.980469 175.082031 202.015625 174.972656 202.035156 174.898438 C 202.101562 174.691406 202.160156 174.492188 202.191406 174.320312 C 202.265625 173.988281 202.304688 173.660156 202.3125 173.339844 C 202.347656 171.882812 202.3125 170.417969 202.203125 168.980469 C 202.089844 167.457031 201.890625 165.898438 201.609375 164.347656 C 201.183594 162.011719 198.972656 159.789062 196.640625 159.277344 L 191.066406 158.046875 C 190.84375 158 190.273438 157.59375 189.882812 156.984375 C 189.1875 155.34375 188.386719 153.769531 187.503906 152.300781 C 187.566406 152.078125 187.664062 151.796875 187.800781 151.492188 L 190.128906 146.328125 C 191.121094 144.128906 190.640625 141.046875 189.023438 139.3125 C 187.957031 138.164062 186.824219 137.070312 185.664062 136.070312 C 184.574219 135.125 183.417969 134.222656 182.222656 133.378906 C 180.257812 131.992188 177.210938 131.945312 175.128906 133.273438 L 170.414062 136.296875 C 170.132812 136.476562 169.246094 136.546875 168.820312 136.375 C 167.425781 135.8125 165.980469 135.328125 164.519531 134.933594 C 164.175781 134.839844 163.53125 134.445312 163.28125 133.902344 L 161.3125 128.691406 C 160.441406 126.402344 157.925781 124.585938 155.558594 124.519531 C 154.125 124.480469 152.660156 124.511719 151.199219 124.617188 C 149.648438 124.730469 148.09375 124.925781 146.574219 125.203125 C 144.214844 125.636719 142.042969 127.769531 141.53125 130.164062 L 140.359375 135.535156 C 140.289062 135.863281 139.710938 136.546875 139.289062 136.730469 C 137.917969 137.320312 136.558594 138.003906 135.238281 138.765625 C 134.84375 138.996094 133.960938 139.050781 133.65625 138.910156 L 128.628906 136.632812 C 126.386719 135.613281 123.378906 136.082031 121.632812 137.714844 C 120.496094 138.769531 119.40625 139.902344 118.398438 141.074219 C 117.449219 142.175781 116.546875 143.335938 115.726562 144.511719 C 114.34375 146.472656 114.3125 149.507812 115.636719 151.621094 L 118.6875 156.378906 C 118.871094 156.683594 118.949219 157.550781 118.777344 157.996094 C 118.238281 159.363281 117.777344 160.777344 117.402344 162.195312 C 117.285156 162.640625 116.695312 163.308594 116.382812 163.425781 L 111.136719 165.40625 C 109.476562 166.027344 108.027344 167.503906 107.378906 169.203125 C 107.355469 169.261719 107.320312 169.371094 107.289062 169.460938 C 107.207031 169.6875 107.140625 169.917969 107.09375 170.144531 C 107.019531 170.46875 106.980469 170.796875 106.964844 171.140625 C 106.957031 171.398438 106.957031 171.660156 106.957031 171.917969 L 106.957031 172.238281 C 106.945312 173.585938 106.976562 174.71875 107.058594 175.804688 C 107.167969 177.25 107.351562 178.703125 107.597656 180.136719 C 108.011719 182.480469 110.21875 184.71875 112.554688 185.230469 L 118.195312 186.472656 C 118.453125 186.53125 119.046875 186.957031 119.394531 187.535156 C 119.398438 187.542969 119.402344 187.546875 119.40625 187.554688 C 120.101562 189.152344 120.910156 190.671875 121.773438 192.121094 C 121.714844 192.335938 121.625 192.621094 121.484375 192.929688 L 119.09375 198.242188 C 118.265625 200.089844 118.429688 202.523438 119.503906 204.304688 C 119.714844 204.65625 119.960938 204.976562 120.230469 205.261719 C 121.234375 206.320312 122.296875 207.335938 123.386719 208.28125 C 124.542969 209.285156 125.785156 210.246094 127.074219 211.136719 C 129.054688 212.511719 132.101562 212.542969 134.15625 211.21875 L 139.074219 208.070312 C 139.367188 207.882812 140.257812 207.800781 140.710938 207.980469 C 141.980469 208.472656 143.273438 208.894531 144.550781 209.242188 C 144.894531 209.335938 145.515625 209.75 145.789062 210.277344 L 147.882812 215.8125 C 148.003906 216.136719 148.164062 216.457031 148.347656 216.765625 C 149.472656 218.625 151.589844 219.925781 153.613281 220 C 155.179688 220.054688 156.746094 220.027344 158.273438 219.917969 C 159.714844 219.8125 161.171875 219.636719 162.597656 219.390625 C 164.96875 218.980469 167.152344 216.851562 167.675781 214.441406 L 168.945312 208.605469 C 169.015625 208.269531 169.582031 207.59375 170.023438 207.402344 C 171.269531 206.859375 172.484375 206.25 173.636719 205.597656 C 174.042969 205.367188 174.949219 205.316406 175.257812 205.453125 " fill-opacity="1" fill-rule="nonzero"/></g></g></g></g></g><g clip-path="url(#id18)"><g clip-path="url(#id19)"><g clip-path="url(#id20)"><path fill="#ffffff" d="M 155.730469 187.621094 C 151.585938 187.917969 147.574219 186.582031 144.4375 183.867188 C 143.183594 182.78125 142.121094 181.527344 141.28125 180.128906 C 137.789062 174.347656 138.40625 167.03125 142.8125 161.921875 C 145.519531 158.78125 149.285156 156.890625 153.425781 156.59375 C 157.5625 156.296875 161.574219 157.632812 164.71875 160.355469 C 165.96875 161.433594 167.03125 162.691406 167.875 164.089844 C 171.363281 169.875 170.75 177.191406 166.34375 182.296875 C 163.644531 185.433594 159.871094 187.324219 155.730469 187.621094 Z M 172.683594 161.191406 C 171.53125 159.28125 170.082031 157.566406 168.386719 156.101562 C 164.105469 152.394531 158.644531 150.578125 153.011719 150.980469 C 147.375 151.382812 142.238281 153.960938 138.554688 158.238281 C 132.554688 165.191406 131.71875 175.15625 136.472656 183.03125 C 137.621094 184.9375 139.066406 186.648438 140.769531 188.121094 C 145.042969 191.820312 150.503906 193.636719 156.144531 193.234375 C 161.785156 192.828125 166.921875 190.253906 170.601562 185.984375 C 176.601562 179.03125 177.433594 169.066406 172.683594 161.191406 " fill-opacity="1" fill-rule="nonzero"/></g></g></g><g clip-path="url(#id21)"><g clip-path="url(#id22)"><g clip-path="url(#id23)"><g clip-path="url(#id24)"><g clip-path="url(#id25)"><path fill="#ffffff" d="M 240.570312 220.558594 C 239.46875 220.941406 238.3125 221.277344 237.191406 221.550781 C 237.027344 221.558594 236.683594 221.410156 236.585938 221.292969 L 234.246094 218.039062 C 233.105469 216.445312 230.851562 215.15625 228.761719 214.894531 C 227.867188 214.785156 226.953125 214.609375 226.046875 214.375 C 224.023438 213.84375 221.457031 214.210938 219.804688 215.265625 L 216.511719 217.378906 C 216.359375 217.460938 215.972656 217.472656 215.859375 217.429688 C 214.800781 216.691406 213.785156 215.902344 212.835938 215.082031 C 211.9375 214.304688 211.0625 213.46875 210.273438 212.640625 L 207.875 214.085938 L 210.273438 212.636719 C 210.175781 212.476562 210.144531 212.117188 210.191406 211.988281 L 211.828125 208.355469 C 212.628906 206.574219 212.621094 203.976562 211.808594 202.042969 C 211.445312 201.1875 211.136719 200.300781 210.894531 199.410156 C 210.710938 198.746094 210.417969 198.078125 210.019531 197.414062 C 209.554688 196.648438 208.546875 195.238281 206.996094 194.429688 L 203.449219 192.59375 C 203.421875 192.574219 203.324219 192.488281 203.230469 192.328125 L 203.121094 192.121094 C 203.117188 192.097656 203.105469 192.050781 203.097656 192.007812 C 203.199219 190.859375 203.363281 189.6875 203.582031 188.523438 C 203.816406 187.285156 204.125 186.035156 204.460938 184.902344 C 204.460938 184.898438 204.546875 184.769531 204.550781 184.765625 C 204.636719 184.671875 204.742188 184.589844 204.847656 184.527344 C 204.953125 184.46875 205.027344 184.445312 205.03125 184.445312 L 209.113281 184.039062 C 211.117188 183.84375 213.257812 182.695312 214.308594 181.253906 C 214.613281 180.847656 214.925781 180.445312 215.265625 180.054688 C 215.636719 179.625 216.015625 179.21875 216.414062 178.828125 C 217.769531 177.488281 218.648438 175.160156 218.550781 173.167969 L 218.351562 168.976562 C 218.355469 168.808594 218.53125 168.480469 218.621094 168.410156 C 219.703125 167.910156 220.820312 167.457031 221.941406 167.070312 C 223.105469 166.664062 224.34375 166.308594 225.566406 166.023438 C 225.734375 166.015625 226.089844 166.171875 226.191406 166.289062 L 228.710938 169.800781 C 229.847656 171.382812 232.082031 172.6875 234.144531 172.976562 C 234.90625 173.082031 235.660156 173.226562 236.394531 173.414062 C 238.417969 173.917969 240.96875 173.539062 242.609375 172.492188 L 246.273438 170.140625 C 246.421875 170.0625 246.792969 170.050781 246.902344 170.09375 C 247.878906 170.78125 248.828125 171.523438 249.726562 172.300781 C 250.683594 173.132812 251.613281 174.027344 252.453125 174.925781 C 252.550781 175.089844 252.582031 175.472656 252.535156 175.605469 L 250.757812 179.554688 C 249.957031 181.332031 249.960938 183.921875 250.765625 185.863281 C 251.050781 186.550781 251.304688 187.269531 251.519531 188.003906 C 252.089844 189.953125 253.753906 192.046875 255.449219 192.925781 L 259.25 194.894531 C 259.28125 194.914062 259.390625 195.007812 259.492188 195.179688 C 259.585938 195.335938 259.617188 195.457031 259.621094 195.4375 C 259.519531 196.703125 259.347656 197.980469 259.113281 199.230469 C 258.890625 200.40625 258.605469 201.578125 258.316406 202.613281 C 258.296875 202.640625 258.242188 202.714844 258.222656 202.742188 C 258.054688 202.933594 257.828125 203.050781 257.765625 203.0625 L 253.601562 203.472656 C 251.621094 203.667969 249.449219 204.878906 248.3125 206.425781 C 247.980469 206.882812 247.625 207.324219 247.269531 207.742188 C 246.9375 208.125 246.589844 208.492188 246.21875 208.851562 C 244.933594 210.113281 244.097656 212.402344 244.195312 214.414062 L 244.390625 218.527344 C 244.386719 218.695312 244.207031 219.035156 244.105469 219.113281 C 242.964844 219.652344 241.773438 220.140625 240.570312 220.558594 Z M 250.003906 218.28125 L 249.808594 214.160156 C 249.785156 213.722656 250.023438 213.050781 250.144531 212.890625 C 250.617188 212.433594 251.074219 211.945312 251.527344 211.425781 C 251.996094 210.878906 252.441406 210.320312 252.847656 209.757812 C 253.03125 209.53125 253.722656 209.117188 254.167969 209.074219 L 258.328125 208.664062 C 259.839844 208.515625 261.390625 207.683594 262.542969 206.351562 C 262.578125 206.3125 262.660156 206.207031 262.695312 206.164062 C 262.773438 206.058594 262.855469 205.949219 262.867188 205.925781 C 262.976562 205.777344 263.070312 205.621094 263.15625 205.472656 L 263.269531 205.277344 C 263.292969 205.230469 263.316406 205.1875 263.339844 205.140625 C 263.46875 204.867188 263.582031 204.585938 263.660156 204.324219 C 264.046875 203.011719 264.375 201.65625 264.632812 200.292969 C 264.90625 198.84375 265.105469 197.367188 265.222656 195.90625 C 265.40625 193.636719 263.894531 190.976562 261.835938 189.90625 L 258.023438 187.929688 C 257.898438 187.863281 257.503906 187.53125 257.167969 186.976562 C 256.992188 186.683594 256.929688 186.484375 256.910156 186.429688 C 256.636719 185.496094 256.3125 184.582031 255.953125 183.714844 C 255.738281 183.199219 255.730469 182.210938 255.882812 181.878906 L 257.660156 177.925781 C 258.621094 175.789062 258.15625 172.808594 256.585938 171.128906 C 255.582031 170.046875 254.507812 169.011719 253.394531 168.046875 C 252.355469 167.148438 251.257812 166.289062 250.128906 165.496094 C 248.21875 164.148438 245.265625 164.101562 243.246094 165.390625 L 239.570312 167.75 C 239.261719 167.949219 238.277344 168.089844 237.746094 167.957031 C 236.828125 167.722656 235.871094 167.535156 234.90625 167.402344 C 234.351562 167.324219 233.488281 166.824219 233.273438 166.523438 L 230.75 163.011719 C 229.359375 161.074219 226.601562 160.007812 224.335938 160.53125 C 222.867188 160.871094 221.4375 161.28125 220.089844 161.75 C 218.792969 162.199219 217.503906 162.722656 216.253906 163.300781 C 214.136719 164.28125 212.625 166.824219 212.738281 169.214844 L 212.9375 173.421875 C 212.960938 173.867188 212.65625 174.605469 212.46875 174.808594 C 211.96875 175.300781 211.476562 175.824219 211.011719 176.367188 C 210.582031 176.863281 210.175781 177.375 209.8125 177.871094 C 209.628906 178.066406 208.996094 178.394531 208.550781 178.4375 L 204.464844 178.84375 C 203.65625 178.921875 202.855469 179.1875 202.078125 179.625 C 201.457031 179.972656 200.894531 180.421875 200.40625 180.957031 C 200.375 180.992188 200.257812 181.125 200.230469 181.160156 C 200.054688 181.371094 199.894531 181.59375 199.738281 181.84375 C 199.707031 181.886719 199.617188 182.035156 199.589844 182.082031 C 199.386719 182.445312 199.234375 182.792969 199.121094 183.15625 C 198.691406 184.578125 198.335938 186.023438 198.0625 187.460938 C 197.804688 188.835938 197.613281 190.214844 197.496094 191.558594 C 197.46875 191.859375 197.472656 192.171875 197.496094 192.472656 C 197.507812 192.621094 197.53125 192.777344 197.582031 193.058594 C 197.589844 193.097656 197.613281 193.230469 197.621094 193.273438 C 197.671875 193.5 197.742188 193.730469 197.796875 193.886719 C 197.8125 193.929688 197.832031 193.992188 197.847656 194.035156 C 197.929688 194.265625 198.03125 194.492188 198.148438 194.730469 C 198.765625 195.980469 199.738281 197 200.859375 197.582031 L 204.417969 199.425781 C 204.535156 199.488281 204.894531 199.792969 205.210938 200.316406 C 205.394531 200.621094 205.457031 200.828125 205.476562 200.886719 C 205.785156 202.015625 206.175781 203.136719 206.628906 204.21875 C 206.84375 204.722656 206.851562 205.699219 206.703125 206.03125 L 205.066406 209.660156 C 204.261719 211.449219 204.421875 213.8125 205.464844 215.539062 C 205.667969 215.875 205.902344 216.1875 206.167969 216.46875 C 207.117188 217.472656 208.128906 218.433594 209.164062 219.335938 C 210.265625 220.289062 211.441406 221.199219 212.667969 222.050781 C 214.578125 223.375 217.53125 223.410156 219.539062 222.128906 L 222.84375 220.011719 C 223.152344 219.8125 224.113281 219.679688 224.640625 219.820312 C 225.789062 220.117188 226.953125 220.34375 228.089844 220.480469 C 228.632812 220.550781 229.480469 221.023438 229.6875 221.316406 L 232.023438 224.570312 C 233.417969 226.515625 236.183594 227.574219 238.457031 227.03125 C 239.8125 226.710938 241.148438 226.320312 242.425781 225.875 C 243.816406 225.390625 245.195312 224.828125 246.519531 224.199219 C 248.625 223.207031 250.125 220.65625 250.003906 218.28125 " fill-opacity="1" fill-rule="nonzero"/></g></g></g></g></g><g clip-path="url(#id26)"><g clip-path="url(#id27)"><g clip-path="url(#id28)"><path fill="#ffffff" d="M 231.886719 202.363281 C 229.636719 202.527344 227.449219 201.800781 225.734375 200.316406 C 225.046875 199.722656 224.46875 199.035156 224.011719 198.273438 C 222.105469 195.121094 222.441406 191.132812 224.847656 188.34375 C 226.320312 186.636719 228.375 185.605469 230.636719 185.445312 C 232.894531 185.28125 235.082031 186.007812 236.792969 187.488281 C 237.480469 188.082031 238.058594 188.769531 238.515625 189.527344 C 240.421875 192.683594 240.085938 196.671875 237.679688 199.457031 C 236.203125 201.171875 234.148438 202.203125 231.886719 202.363281 Z M 243.324219 186.628906 C 242.558594 185.359375 241.597656 184.21875 240.460938 183.234375 C 237.613281 180.769531 233.976562 179.5625 230.21875 179.832031 C 226.460938 180.097656 223.042969 181.816406 220.589844 184.660156 C 216.59375 189.292969 216.035156 195.929688 219.203125 201.175781 C 219.964844 202.441406 220.929688 203.582031 222.066406 204.570312 C 224.921875 207.039062 228.558594 208.25 232.304688 207.976562 C 236.0625 207.707031 239.484375 205.992188 241.9375 203.144531 C 245.933594 198.511719 246.492188 191.875 243.324219 186.628906 " fill-opacity="1" fill-rule="nonzero"/></g></g></g><g fill="#2b2b2b" fill-opacity="1"><g transform="translate(116.081343, 248.611699)"><g><path d="M 1.015625 0 L 1.015625 -8.59375 L 2.953125 -8.59375 L 2.953125 -1.640625 L 6.359375 -1.640625 L 6.359375 0 Z M 1.015625 0 "/></g></g></g><g fill="#2b2b2b" fill-opacity="1"><g transform="translate(124.953481, 248.611699)"><g><path d="M 1.015625 0 L 1.015625 -8.59375 L 6.390625 -8.59375 L 6.390625 -6.96875 L 2.953125 -6.96875 L 2.953125 -5.234375 L 5.875 -5.234375 L 5.875 -3.609375 L 2.953125 -3.609375 L 2.953125 -1.640625 L 6.53125 -1.640625 L 6.53125 0 Z M 1.015625 0 "/></g></g></g><g fill="#2b2b2b" fill-opacity="1"><g transform="translate(134.221039, 248.611699)"><g><path d="M 3.03125 -4.359375 L 2.828125 -3.5625 L 4.65625 -3.5625 L 4.453125 -4.359375 C 4.328125 -4.785156 4.207031 -5.238281 4.09375 -5.71875 C 3.988281 -6.207031 3.878906 -6.675781 3.765625 -7.125 L 3.703125 -7.125 C 3.597656 -6.664062 3.488281 -6.195312 3.375 -5.71875 C 3.269531 -5.238281 3.15625 -4.785156 3.03125 -4.359375 Z M -0.078125 0 L 2.609375 -8.59375 L 4.9375 -8.59375 L 7.640625 0 L 5.578125 0 L 5.046875 -2.046875 L 2.421875 -2.046875 L 1.90625 0 Z M -0.078125 0 "/></g></g></g><g fill="#2b2b2b" fill-opacity="1"><g transform="translate(143.818119, 248.611699)"><g><path d="M 1.015625 0 L 1.015625 -8.59375 L 3.4375 -8.59375 C 4.101562 -8.59375 4.695312 -8.507812 5.21875 -8.34375 C 5.75 -8.175781 6.203125 -7.921875 6.578125 -7.578125 C 6.953125 -7.234375 7.238281 -6.789062 7.4375 -6.25 C 7.644531 -5.71875 7.75 -5.082031 7.75 -4.34375 C 7.75 -3.601562 7.644531 -2.957031 7.4375 -2.40625 C 7.238281 -1.863281 6.957031 -1.414062 6.59375 -1.0625 C 6.226562 -0.707031 5.785156 -0.441406 5.265625 -0.265625 C 4.753906 -0.0859375 4.179688 0 3.546875 0 Z M 2.953125 -1.5625 L 3.328125 -1.5625 C 3.691406 -1.5625 4.023438 -1.609375 4.328125 -1.703125 C 4.628906 -1.804688 4.882812 -1.960938 5.09375 -2.171875 C 5.300781 -2.390625 5.460938 -2.675781 5.578125 -3.03125 C 5.703125 -3.382812 5.765625 -3.820312 5.765625 -4.34375 C 5.765625 -4.851562 5.703125 -5.28125 5.578125 -5.625 C 5.460938 -5.96875 5.300781 -6.242188 5.09375 -6.453125 C 4.882812 -6.660156 4.628906 -6.804688 4.328125 -6.890625 C 4.023438 -6.984375 3.691406 -7.03125 3.328125 -7.03125 L 2.953125 -7.03125 Z M 2.953125 -1.5625 "/></g></g></g><g fill="#2b2b2b" fill-opacity="1"><g transform="translate(154.232399, 248.611699)"><g><path d="M 1.015625 0 L 1.015625 -8.59375 L 6.390625 -8.59375 L 6.390625 -6.96875 L 2.953125 -6.96875 L 2.953125 -5.234375 L 5.875 -5.234375 L 5.875 -3.609375 L 2.953125 -3.609375 L 2.953125 -1.640625 L 6.53125 -1.640625 L 6.53125 0 Z M 1.015625 0 "/></g></g></g><g fill="#2b2b2b" fill-opacity="1"><g transform="translate(163.499957, 248.611699)"><g><path d="M 1.015625 0 L 1.015625 -8.59375 L 4.109375 -8.59375 C 4.566406 -8.59375 4.992188 -8.546875 5.390625 -8.453125 C 5.796875 -8.367188 6.144531 -8.222656 6.4375 -8.015625 C 6.738281 -7.816406 6.976562 -7.546875 7.15625 -7.203125 C 7.332031 -6.859375 7.421875 -6.429688 7.421875 -5.921875 C 7.421875 -5.285156 7.28125 -4.765625 7 -4.359375 C 6.726562 -3.953125 6.359375 -3.644531 5.890625 -3.4375 L 7.84375 0 L 5.671875 0 L 4.015625 -3.09375 L 2.953125 -3.09375 L 2.953125 0 Z M 2.953125 -4.640625 L 3.953125 -4.640625 C 4.460938 -4.640625 4.851562 -4.742188 5.125 -4.953125 C 5.394531 -5.171875 5.53125 -5.492188 5.53125 -5.921875 C 5.53125 -6.335938 5.394531 -6.628906 5.125 -6.796875 C 4.851562 -6.972656 4.460938 -7.0625 3.953125 -7.0625 L 2.953125 -7.0625 Z M 2.953125 -4.640625 "/></g></g></g><g fill="#2b2b2b" fill-opacity="1"><g transform="translate(173.624265, 248.611699)"><g/></g></g><g fill="#2b2b2b" fill-opacity="1"><g transform="translate(178.304941, 248.611699)"><g><path d="M 2.6875 0 L 2.6875 -6.96875 L 0.328125 -6.96875 L 0.328125 -8.59375 L 7 -8.59375 L 7 -6.96875 L 4.640625 -6.96875 L 4.640625 0 Z M 2.6875 0 "/></g></g></g><g fill="#2b2b2b" fill-opacity="1"><g transform="translate(187.677948, 248.611699)"><g><path d="M 4.515625 0.15625 C 3.929688 0.15625 3.398438 0.0507812 2.921875 -0.15625 C 2.441406 -0.363281 2.03125 -0.660156 1.6875 -1.046875 C 1.34375 -1.429688 1.078125 -1.898438 0.890625 -2.453125 C 0.703125 -3.003906 0.609375 -3.632812 0.609375 -4.34375 C 0.609375 -5.039062 0.703125 -5.664062 0.890625 -6.21875 C 1.078125 -6.769531 1.34375 -7.226562 1.6875 -7.59375 C 2.03125 -7.96875 2.441406 -8.253906 2.921875 -8.453125 C 3.398438 -8.648438 3.929688 -8.75 4.515625 -8.75 C 5.085938 -8.75 5.613281 -8.648438 6.09375 -8.453125 C 6.570312 -8.253906 6.984375 -7.96875 7.328125 -7.59375 C 7.671875 -7.21875 7.9375 -6.753906 8.125 -6.203125 C 8.3125 -5.648438 8.40625 -5.03125 8.40625 -4.34375 C 8.40625 -3.632812 8.3125 -3.003906 8.125 -2.453125 C 7.9375 -1.898438 7.671875 -1.429688 7.328125 -1.046875 C 6.984375 -0.660156 6.570312 -0.363281 6.09375 -0.15625 C 5.613281 0.0507812 5.085938 0.15625 4.515625 0.15625 Z M 4.515625 -1.515625 C 5.097656 -1.515625 5.5625 -1.765625 5.90625 -2.265625 C 6.25 -2.773438 6.421875 -3.46875 6.421875 -4.34375 C 6.421875 -5.195312 6.25 -5.863281 5.90625 -6.34375 C 5.5625 -6.832031 5.097656 -7.078125 4.515625 -7.078125 C 3.921875 -7.078125 3.453125 -6.832031 3.109375 -6.34375 C 2.765625 -5.863281 2.59375 -5.195312 2.59375 -4.34375 C 2.59375 -3.46875 2.765625 -2.773438 3.109375 -2.265625 C 3.453125 -1.765625 3.921875 -1.515625 4.515625 -1.515625 Z M 4.515625 -1.515625 "/></g></g></g><g fill="#2b2b2b" fill-opacity="1"><g transform="translate(198.738083, 248.611699)"><g/></g></g><g fill="#2b2b2b" fill-opacity="1"><g transform="translate(203.418763, 248.611699)"><g><path d="M 1.015625 0 L 1.015625 -8.59375 L 2.953125 -8.59375 L 2.953125 -1.640625 L 6.359375 -1.640625 L 6.359375 0 Z M 1.015625 0 "/></g></g></g><g fill="#2b2b2b" fill-opacity="1"><g transform="translate(212.290897, 248.611699)"><g><path d="M 1.015625 0 L 1.015625 -8.59375 L 6.390625 -8.59375 L 6.390625 -6.96875 L 2.953125 -6.96875 L 2.953125 -5.234375 L 5.875 -5.234375 L 5.875 -3.609375 L 2.953125 -3.609375 L 2.953125 -1.640625 L 6.53125 -1.640625 L 6.53125 0 Z M 1.015625 0 "/></g></g></g><g fill="#2b2b2b" fill-opacity="1"><g transform="translate(221.55846, 248.611699)"><g><path d="M 3.03125 -4.359375 L 2.828125 -3.5625 L 4.65625 -3.5625 L 4.453125 -4.359375 C 4.328125 -4.785156 4.207031 -5.238281 4.09375 -5.71875 C 3.988281 -6.207031 3.878906 -6.675781 3.765625 -7.125 L 3.703125 -7.125 C 3.597656 -6.664062 3.488281 -6.195312 3.375 -5.71875 C 3.269531 -5.238281 3.15625 -4.785156 3.03125 -4.359375 Z M -0.078125 0 L 2.609375 -8.59375 L 4.9375 -8.59375 L 7.640625 0 L 5.578125 0 L 5.046875 -2.046875 L 2.421875 -2.046875 L 1.90625 0 Z M -0.078125 0 "/></g></g></g><g fill="#2b2b2b" fill-opacity="1"><g transform="translate(231.155536, 248.611699)"><g><path d="M 1.015625 0 L 1.015625 -8.59375 L 3.4375 -8.59375 C 4.101562 -8.59375 4.695312 -8.507812 5.21875 -8.34375 C 5.75 -8.175781 6.203125 -7.921875 6.578125 -7.578125 C 6.953125 -7.234375 7.238281 -6.789062 7.4375 -6.25 C 7.644531 -5.71875 7.75 -5.082031 7.75 -4.34375 C 7.75 -3.601562 7.644531 -2.957031 7.4375 -2.40625 C 7.238281 -1.863281 6.957031 -1.414062 6.59375 -1.0625 C 6.226562 -0.707031 5.785156 -0.441406 5.265625 -0.265625 C 4.753906 -0.0859375 4.179688 0 3.546875 0 Z M 2.953125 -1.5625 L 3.328125 -1.5625 C 3.691406 -1.5625 4.023438 -1.609375 4.328125 -1.703125 C 4.628906 -1.804688 4.882812 -1.960938 5.09375 -2.171875 C 5.300781 -2.390625 5.460938 -2.675781 5.578125 -3.03125 C 5.703125 -3.382812 5.765625 -3.820312 5.765625 -4.34375 C 5.765625 -4.851562 5.703125 -5.28125 5.578125 -5.625 C 5.460938 -5.96875 5.300781 -6.242188 5.09375 -6.453125 C 4.882812 -6.660156 4.628906 -6.804688 4.328125 -6.890625 C 4.023438 -6.984375 3.691406 -7.03125 3.328125 -7.03125 L 2.953125 -7.03125 Z M 2.953125 -1.5625 "/></g></g></g><g fill="#2b2b2b" fill-opacity="1"><g transform="translate(241.569819, 248.611699)"><g><path d="M 1.015625 0 L 1.015625 -8.59375 L 6.390625 -8.59375 L 6.390625 -6.96875 L 2.953125 -6.96875 L 2.953125 -5.234375 L 5.875 -5.234375 L 5.875 -3.609375 L 2.953125 -3.609375 L 2.953125 -1.640625 L 6.53125 -1.640625 L 6.53125 0 Z M 1.015625 0 "/></g></g></g><g fill="#2b2b2b" fill-opacity="1"><g transform="translate(250.837382, 248.611699)"><g><path d="M 1.015625 0 L 1.015625 -8.59375 L 4.109375 -8.59375 C 4.566406 -8.59375 4.992188 -8.546875 5.390625 -8.453125 C 5.796875 -8.367188 6.144531 -8.222656 6.4375 -8.015625 C 6.738281 -7.816406 6.976562 -7.546875 7.15625 -7.203125 C 7.332031 -6.859375 7.421875 -6.429688 7.421875 -5.921875 C 7.421875 -5.285156 7.28125 -4.765625 7 -4.359375 C 6.726562 -3.953125 6.359375 -3.644531 5.890625 -3.4375 L 7.84375 0 L 5.671875 0 L 4.015625 -3.09375 L 2.953125 -3.09375 L 2.953125 0 Z M 2.953125 -4.640625 L 3.953125 -4.640625 C 4.460938 -4.640625 4.851562 -4.742188 5.125 -4.953125 C 5.394531 -5.171875 5.53125 -5.492188 5.53125 -5.921875 C 5.53125 -6.335938 5.394531 -6.628906 5.125 -6.796875 C 4.851562 -6.972656 4.460938 -7.0625 3.953125 -7.0625 L 2.953125 -7.0625 Z M 2.953125 -4.640625 "/></g></g></g><g fill="#2b2b2b" fill-opacity="1"><g transform="translate(144.358189, 259.604907)"><g><path d="M 1.015625 0 L 1.015625 -8.578125 L 3.125 -8.578125 L 4.515625 -4.765625 C 4.597656 -4.503906 4.675781 -4.238281 4.75 -3.96875 C 4.832031 -3.707031 4.921875 -3.445312 5.015625 -3.1875 L 5.0625 -3.1875 C 5.15625 -3.445312 5.238281 -3.707031 5.3125 -3.96875 C 5.382812 -4.238281 5.460938 -4.503906 5.546875 -4.765625 L 6.90625 -8.578125 L 9.015625 -8.578125 L 9.015625 0 L 7.25 0 L 7.25 -3.140625 C 7.25 -3.347656 7.253906 -3.578125 7.265625 -3.828125 C 7.285156 -4.085938 7.304688 -4.347656 7.328125 -4.609375 C 7.359375 -4.867188 7.382812 -5.125 7.40625 -5.375 C 7.4375 -5.625 7.46875 -5.851562 7.5 -6.0625 L 7.453125 -6.0625 L 6.75 -4.03125 L 5.53125 -0.75 L 4.453125 -0.75 L 3.234375 -4.03125 L 2.546875 -6.0625 L 2.5 -6.0625 C 2.53125 -5.851562 2.554688 -5.625 2.578125 -5.375 C 2.609375 -5.125 2.632812 -4.867188 2.65625 -4.609375 C 2.6875 -4.347656 2.707031 -4.085938 2.71875 -3.828125 C 2.738281 -3.578125 2.75 -3.347656 2.75 -3.140625 L 2.75 0 Z M 1.015625 0 "/></g></g></g><g fill="#2b2b2b" fill-opacity="1"><g transform="translate(156.429617, 259.604907)"><g><path d="M 1.015625 0 L 1.015625 -8.578125 L 2.953125 -8.578125 L 2.953125 0 Z M 1.015625 0 "/></g></g></g><g fill="#2b2b2b" fill-opacity="1"><g transform="translate(162.432743, 259.604907)"><g><path d="M 1.015625 0 L 1.015625 -8.578125 L 3 -8.578125 L 5.234375 -4.3125 L 6.078125 -2.421875 L 6.125 -2.421875 C 6.082031 -2.878906 6.03125 -3.382812 5.96875 -3.9375 C 5.914062 -4.5 5.890625 -5.035156 5.890625 -5.546875 L 5.890625 -8.578125 L 7.734375 -8.578125 L 7.734375 0 L 5.75 0 L 3.515625 -4.28125 L 2.671875 -6.140625 L 2.625 -6.140625 C 2.664062 -5.671875 2.710938 -5.160156 2.765625 -4.609375 C 2.828125 -4.066406 2.859375 -3.546875 2.859375 -3.046875 L 2.859375 0 Z M 1.015625 0 "/></g></g></g><g fill="#2b2b2b" fill-opacity="1"><g transform="translate(173.227325, 259.604907)"><g><path d="M 1.015625 0 L 1.015625 -8.578125 L 2.953125 -8.578125 L 2.953125 0 Z M 1.015625 0 "/></g></g></g><g fill="#2b2b2b" fill-opacity="1"><g transform="translate(179.230452, 259.604907)"><g><path d="M 3.625 0.15625 C 3.070312 0.15625 2.515625 0.0546875 1.953125 -0.140625 C 1.398438 -0.347656 0.898438 -0.660156 0.453125 -1.078125 L 1.5625 -2.40625 C 1.875 -2.144531 2.210938 -1.929688 2.578125 -1.765625 C 2.953125 -1.597656 3.320312 -1.515625 3.6875 -1.515625 C 4.082031 -1.515625 4.378906 -1.585938 4.578125 -1.734375 C 4.773438 -1.878906 4.875 -2.082031 4.875 -2.34375 C 4.875 -2.476562 4.84375 -2.59375 4.78125 -2.6875 C 4.726562 -2.78125 4.644531 -2.863281 4.53125 -2.9375 C 4.425781 -3.007812 4.296875 -3.078125 4.140625 -3.140625 C 3.992188 -3.210938 3.828125 -3.289062 3.640625 -3.375 L 2.53125 -3.84375 C 2.3125 -3.925781 2.097656 -4.035156 1.890625 -4.171875 C 1.679688 -4.316406 1.492188 -4.484375 1.328125 -4.671875 C 1.171875 -4.859375 1.039062 -5.078125 0.9375 -5.328125 C 0.84375 -5.578125 0.796875 -5.863281 0.796875 -6.1875 C 0.796875 -6.53125 0.867188 -6.859375 1.015625 -7.171875 C 1.171875 -7.484375 1.382812 -7.753906 1.65625 -7.984375 C 1.925781 -8.222656 2.25 -8.40625 2.625 -8.53125 C 3 -8.664062 3.410156 -8.734375 3.859375 -8.734375 C 4.359375 -8.734375 4.847656 -8.632812 5.328125 -8.4375 C 5.816406 -8.25 6.25 -7.972656 6.625 -7.609375 L 5.625 -6.375 C 5.34375 -6.59375 5.0625 -6.757812 4.78125 -6.875 C 4.507812 -7 4.203125 -7.0625 3.859375 -7.0625 C 3.523438 -7.0625 3.257812 -6.992188 3.0625 -6.859375 C 2.863281 -6.722656 2.765625 -6.53125 2.765625 -6.28125 C 2.765625 -6.15625 2.796875 -6.046875 2.859375 -5.953125 C 2.921875 -5.859375 3.007812 -5.773438 3.125 -5.703125 C 3.25 -5.628906 3.390625 -5.554688 3.546875 -5.484375 C 3.703125 -5.421875 3.875 -5.351562 4.0625 -5.28125 L 5.171875 -4.828125 C 5.691406 -4.617188 6.101562 -4.328125 6.40625 -3.953125 C 6.71875 -3.585938 6.875 -3.101562 6.875 -2.5 C 6.875 -2.132812 6.800781 -1.789062 6.65625 -1.46875 C 6.507812 -1.15625 6.296875 -0.878906 6.015625 -0.640625 C 5.742188 -0.398438 5.40625 -0.207031 5 -0.0625 C 4.59375 0.0820312 4.132812 0.15625 3.625 0.15625 Z M 3.625 0.15625 "/></g></g></g><g fill="#2b2b2b" fill-opacity="1"><g transform="translate(188.59023, 259.604907)"><g><path d="M 2.6875 0 L 2.6875 -6.953125 L 0.328125 -6.953125 L 0.328125 -8.578125 L 6.984375 -8.578125 L 6.984375 -6.953125 L 4.625 -6.953125 L 4.625 0 Z M 2.6875 0 "/></g></g></g><g fill="#2b2b2b" fill-opacity="1"><g transform="translate(197.950008, 259.604907)"><g><path d="M 1.015625 0 L 1.015625 -8.578125 L 4.109375 -8.578125 C 4.554688 -8.578125 4.976562 -8.53125 5.375 -8.4375 C 5.78125 -8.351562 6.128906 -8.207031 6.421875 -8 C 6.722656 -7.800781 6.960938 -7.53125 7.140625 -7.1875 C 7.316406 -6.84375 7.40625 -6.414062 7.40625 -5.90625 C 7.40625 -5.269531 7.265625 -4.75 6.984375 -4.34375 C 6.710938 -3.9375 6.34375 -3.632812 5.875 -3.4375 L 7.828125 0 L 5.65625 0 L 4.015625 -3.09375 L 2.953125 -3.09375 L 2.953125 0 Z M 2.953125 -4.625 L 3.953125 -4.625 C 4.453125 -4.625 4.835938 -4.734375 5.109375 -4.953125 C 5.378906 -5.171875 5.515625 -5.488281 5.515625 -5.90625 C 5.515625 -6.320312 5.378906 -6.613281 5.109375 -6.78125 C 4.835938 -6.945312 4.453125 -7.03125 3.953125 -7.03125 L 2.953125 -7.03125 Z M 2.953125 -4.625 "/></g></g></g><g fill="#2b2b2b" fill-opacity="1"><g transform="translate(208.060101, 259.604907)"><g><path d="M 1.015625 0 L 1.015625 -8.578125 L 2.953125 -8.578125 L 2.953125 0 Z M 1.015625 0 "/></g></g></g><g fill="#2b2b2b" fill-opacity="1"><g transform="translate(214.063227, 259.604907)"><g><path d="M 1.015625 0 L 1.015625 -8.578125 L 6.375 -8.578125 L 6.375 -6.953125 L 2.953125 -6.953125 L 2.953125 -5.21875 L 5.875 -5.21875 L 5.875 -3.609375 L 2.953125 -3.609375 L 2.953125 -1.625 L 6.515625 -1.625 L 6.515625 0 Z M 1.015625 0 "/></g></g></g><g fill="#2b2b2b" fill-opacity="1"><g transform="translate(223.317696, 259.604907)"><g><path d="M 3.625 0.15625 C 3.070312 0.15625 2.515625 0.0546875 1.953125 -0.140625 C 1.398438 -0.347656 0.898438 -0.660156 0.453125 -1.078125 L 1.5625 -2.40625 C 1.875 -2.144531 2.210938 -1.929688 2.578125 -1.765625 C 2.953125 -1.597656 3.320312 -1.515625 3.6875 -1.515625 C 4.082031 -1.515625 4.378906 -1.585938 4.578125 -1.734375 C 4.773438 -1.878906 4.875 -2.082031 4.875 -2.34375 C 4.875 -2.476562 4.84375 -2.59375 4.78125 -2.6875 C 4.726562 -2.78125 4.644531 -2.863281 4.53125 -2.9375 C 4.425781 -3.007812 4.296875 -3.078125 4.140625 -3.140625 C 3.992188 -3.210938 3.828125 -3.289062 3.640625 -3.375 L 2.53125 -3.84375 C 2.3125 -3.925781 2.097656 -4.035156 1.890625 -4.171875 C 1.679688 -4.316406 1.492188 -4.484375 1.328125 -4.671875 C 1.171875 -4.859375 1.039062 -5.078125 0.9375 -5.328125 C 0.84375 -5.578125 0.796875 -5.863281 0.796875 -6.1875 C 0.796875 -6.53125 0.867188 -6.859375 1.015625 -7.171875 C 1.171875 -7.484375 1.382812 -7.753906 1.65625 -7.984375 C 1.925781 -8.222656 2.25 -8.40625 2.625 -8.53125 C 3 -8.664062 3.410156 -8.734375 3.859375 -8.734375 C 4.359375 -8.734375 4.847656 -8.632812 5.328125 -8.4375 C 5.816406 -8.25 6.25 -7.972656 6.625 -7.609375 L 5.625 -6.375 C 5.34375 -6.59375 5.0625 -6.757812 4.78125 -6.875 C 4.507812 -7 4.203125 -7.0625 3.859375 -7.0625 C 3.523438 -7.0625 3.257812 -6.992188 3.0625 -6.859375 C 2.863281 -6.722656 2.765625 -6.53125 2.765625 -6.28125 C 2.765625 -6.15625 2.796875 -6.046875 2.859375 -5.953125 C 2.921875 -5.859375 3.007812 -5.773438 3.125 -5.703125 C 3.25 -5.628906 3.390625 -5.554688 3.546875 -5.484375 C 3.703125 -5.421875 3.875 -5.351562 4.0625 -5.28125 L 5.171875 -4.828125 C 5.691406 -4.617188 6.101562 -4.328125 6.40625 -3.953125 C 6.71875 -3.585938 6.875 -3.101562 6.875 -2.5 C 6.875 -2.132812 6.800781 -1.789062 6.65625 -1.46875 C 6.507812 -1.15625 6.296875 -0.878906 6.015625 -0.640625 C 5.742188 -0.398438 5.40625 -0.207031 5 -0.0625 C 4.59375 0.0820312 4.132812 0.15625 3.625 0.15625 Z M 3.625 0.15625 "/></g></g></g></svg>